<?xml version="1.0" encoding="utf-8" standalone="no"?>
<!DOCTYPE svg PUBLIC "-//W3C//DTD SVG 1.1//EN"
  "http://www.w3.org/Graphics/SVG/1.1/DTD/svg11.dtd">
<svg xmlns:xlink="http://www.w3.org/1999/xlink" width="460.8pt" height="345.6pt" viewBox="0 0 460.8 345.6" xmlns="http://www.w3.org/2000/svg" version="1.1">
 <metadata>
  <rdf:RDF xmlns:dc="http://purl.org/dc/elements/1.1/" xmlns:cc="http://creativecommons.org/ns#" xmlns:rdf="http://www.w3.org/1999/02/22-rdf-syntax-ns#">
   <cc:Work>
    <dc:type rdf:resource="http://purl.org/dc/dcmitype/StillImage"/>
    <dc:date>2024-04-25T23:53:26.723442</dc:date>
    <dc:format>image/svg+xml</dc:format>
    <dc:creator>
     <cc:Agent>
      <dc:title>Matplotlib v3.8.4, https://matplotlib.org/</dc:title>
     </cc:Agent>
    </dc:creator>
   </cc:Work>
  </rdf:RDF>
 </metadata>
 <defs>
  <style type="text/css">*{stroke-linejoin: round; stroke-linecap: butt}</style>
 </defs>
 <g id="figure_1">
  <g id="patch_1">
   <path d="M 0 345.6 
L 460.8 345.6 
L 460.8 0 
L 0 0 
z
" style="fill: #ffffff"/>
  </g>
  <g id="axes_1">
   <g id="patch_2">
    <path d="M 41.8 311.52 
L 443.61 311.52 
L 443.61 25.44 
L 41.8 25.44 
z
" style="fill: #ffffff"/>
   </g>
   <g id="matplotlib.axis_1">
    <g id="xtick_1">
     <g id="line2d_1">
      <defs>
       <path id="mbe6ac5971d" d="M 0 0 
L 0 2 
" style="stroke: #000000; stroke-width: 0.8"/>
      </defs>
      <g>
       <use xlink:href="#mbe6ac5971d" x="41.8" y="311.52" style="stroke: #000000; stroke-width: 0.8"/>
      </g>
     </g>
     <g id="text_1">
      <!-- 0.0 -->
      <g transform="translate(35.43875 320.59875) scale(0.08 -0.08)">
       <defs>
        <path id="DejaVuSans-30" d="M 2034 4250 
Q 1547 4250 1301 3770 
Q 1056 3291 1056 2328 
Q 1056 1369 1301 889 
Q 1547 409 2034 409 
Q 2525 409 2770 889 
Q 3016 1369 3016 2328 
Q 3016 3291 2770 3770 
Q 2525 4250 2034 4250 
z
M 2034 4750 
Q 2819 4750 3233 4129 
Q 3647 3509 3647 2328 
Q 3647 1150 3233 529 
Q 2819 -91 2034 -91 
Q 1250 -91 836 529 
Q 422 1150 422 2328 
Q 422 3509 836 4129 
Q 1250 4750 2034 4750 
z
" transform="scale(0.015625)"/>
        <path id="DejaVuSans-2e" d="M 684 794 
L 1344 794 
L 1344 0 
L 684 0 
L 684 794 
z
" transform="scale(0.015625)"/>
       </defs>
       <use xlink:href="#DejaVuSans-30"/>
       <use xlink:href="#DejaVuSans-2e" x="63.623047"/>
       <use xlink:href="#DejaVuSans-30" x="95.410156"/>
      </g>
     </g>
    </g>
    <g id="xtick_2">
     <g id="line2d_2">
      <g>
       <use xlink:href="#mbe6ac5971d" x="122.162" y="311.52" style="stroke: #000000; stroke-width: 0.8"/>
      </g>
     </g>
     <g id="text_2">
      <!-- 0.1 -->
      <g transform="translate(115.80075 320.59875) scale(0.08 -0.08)">
       <defs>
        <path id="DejaVuSans-31" d="M 794 531 
L 1825 531 
L 1825 4091 
L 703 3866 
L 703 4441 
L 1819 4666 
L 2450 4666 
L 2450 531 
L 3481 531 
L 3481 0 
L 794 0 
L 794 531 
z
" transform="scale(0.015625)"/>
       </defs>
       <use xlink:href="#DejaVuSans-30"/>
       <use xlink:href="#DejaVuSans-2e" x="63.623047"/>
       <use xlink:href="#DejaVuSans-31" x="95.410156"/>
      </g>
     </g>
    </g>
    <g id="xtick_3">
     <g id="line2d_3">
      <g>
       <use xlink:href="#mbe6ac5971d" x="202.524" y="311.52" style="stroke: #000000; stroke-width: 0.8"/>
      </g>
     </g>
     <g id="text_3">
      <!-- 0.2 -->
      <g transform="translate(196.16275 320.59875) scale(0.08 -0.08)">
       <defs>
        <path id="DejaVuSans-32" d="M 1228 531 
L 3431 531 
L 3431 0 
L 469 0 
L 469 531 
Q 828 903 1448 1529 
Q 2069 2156 2228 2338 
Q 2531 2678 2651 2914 
Q 2772 3150 2772 3378 
Q 2772 3750 2511 3984 
Q 2250 4219 1831 4219 
Q 1534 4219 1204 4116 
Q 875 4013 500 3803 
L 500 4441 
Q 881 4594 1212 4672 
Q 1544 4750 1819 4750 
Q 2544 4750 2975 4387 
Q 3406 4025 3406 3419 
Q 3406 3131 3298 2873 
Q 3191 2616 2906 2266 
Q 2828 2175 2409 1742 
Q 1991 1309 1228 531 
z
" transform="scale(0.015625)"/>
       </defs>
       <use xlink:href="#DejaVuSans-30"/>
       <use xlink:href="#DejaVuSans-2e" x="63.623047"/>
       <use xlink:href="#DejaVuSans-32" x="95.410156"/>
      </g>
     </g>
    </g>
    <g id="xtick_4">
     <g id="line2d_4">
      <g>
       <use xlink:href="#mbe6ac5971d" x="282.886" y="311.52" style="stroke: #000000; stroke-width: 0.8"/>
      </g>
     </g>
     <g id="text_4">
      <!-- 0.3 -->
      <g transform="translate(276.52475 320.59875) scale(0.08 -0.08)">
       <defs>
        <path id="DejaVuSans-33" d="M 2597 2516 
Q 3050 2419 3304 2112 
Q 3559 1806 3559 1356 
Q 3559 666 3084 287 
Q 2609 -91 1734 -91 
Q 1441 -91 1130 -33 
Q 819 25 488 141 
L 488 750 
Q 750 597 1062 519 
Q 1375 441 1716 441 
Q 2309 441 2620 675 
Q 2931 909 2931 1356 
Q 2931 1769 2642 2001 
Q 2353 2234 1838 2234 
L 1294 2234 
L 1294 2753 
L 1863 2753 
Q 2328 2753 2575 2939 
Q 2822 3125 2822 3475 
Q 2822 3834 2567 4026 
Q 2313 4219 1838 4219 
Q 1578 4219 1281 4162 
Q 984 4106 628 3988 
L 628 4550 
Q 988 4650 1302 4700 
Q 1616 4750 1894 4750 
Q 2613 4750 3031 4423 
Q 3450 4097 3450 3541 
Q 3450 3153 3228 2886 
Q 3006 2619 2597 2516 
z
" transform="scale(0.015625)"/>
       </defs>
       <use xlink:href="#DejaVuSans-30"/>
       <use xlink:href="#DejaVuSans-2e" x="63.623047"/>
       <use xlink:href="#DejaVuSans-33" x="95.410156"/>
      </g>
     </g>
    </g>
    <g id="xtick_5">
     <g id="line2d_5">
      <g>
       <use xlink:href="#mbe6ac5971d" x="363.248" y="311.52" style="stroke: #000000; stroke-width: 0.8"/>
      </g>
     </g>
     <g id="text_5">
      <!-- 0.4 -->
      <g transform="translate(356.88675 320.59875) scale(0.08 -0.08)">
       <defs>
        <path id="DejaVuSans-34" d="M 2419 4116 
L 825 1625 
L 2419 1625 
L 2419 4116 
z
M 2253 4666 
L 3047 4666 
L 3047 1625 
L 3713 1625 
L 3713 1100 
L 3047 1100 
L 3047 0 
L 2419 0 
L 2419 1100 
L 313 1100 
L 313 1709 
L 2253 4666 
z
" transform="scale(0.015625)"/>
       </defs>
       <use xlink:href="#DejaVuSans-30"/>
       <use xlink:href="#DejaVuSans-2e" x="63.623047"/>
       <use xlink:href="#DejaVuSans-34" x="95.410156"/>
      </g>
     </g>
    </g>
    <g id="xtick_6">
     <g id="line2d_6">
      <g>
       <use xlink:href="#mbe6ac5971d" x="443.61" y="311.52" style="stroke: #000000; stroke-width: 0.8"/>
      </g>
     </g>
     <g id="text_6">
      <!-- 0.5 -->
      <g transform="translate(437.24875 320.59875) scale(0.08 -0.08)">
       <defs>
        <path id="DejaVuSans-35" d="M 691 4666 
L 3169 4666 
L 3169 4134 
L 1269 4134 
L 1269 2991 
Q 1406 3038 1543 3061 
Q 1681 3084 1819 3084 
Q 2600 3084 3056 2656 
Q 3513 2228 3513 1497 
Q 3513 744 3044 326 
Q 2575 -91 1722 -91 
Q 1428 -91 1123 -41 
Q 819 9 494 109 
L 494 744 
Q 775 591 1075 516 
Q 1375 441 1709 441 
Q 2250 441 2565 725 
Q 2881 1009 2881 1497 
Q 2881 1984 2565 2268 
Q 2250 2553 1709 2553 
Q 1456 2553 1204 2497 
Q 953 2441 691 2322 
L 691 4666 
z
" transform="scale(0.015625)"/>
       </defs>
       <use xlink:href="#DejaVuSans-30"/>
       <use xlink:href="#DejaVuSans-2e" x="63.623047"/>
       <use xlink:href="#DejaVuSans-35" x="95.410156"/>
      </g>
     </g>
    </g>
    <g id="text_7">
     <!-- Time (s) -->
     <g transform="translate(222.376094 332.860937) scale(0.1 -0.1)">
      <defs>
       <path id="DejaVuSans-54" d="M -19 4666 
L 3928 4666 
L 3928 4134 
L 2272 4134 
L 2272 0 
L 1638 0 
L 1638 4134 
L -19 4134 
L -19 4666 
z
" transform="scale(0.015625)"/>
       <path id="DejaVuSans-69" d="M 603 3500 
L 1178 3500 
L 1178 0 
L 603 0 
L 603 3500 
z
M 603 4863 
L 1178 4863 
L 1178 4134 
L 603 4134 
L 603 4863 
z
" transform="scale(0.015625)"/>
       <path id="DejaVuSans-6d" d="M 3328 2828 
Q 3544 3216 3844 3400 
Q 4144 3584 4550 3584 
Q 5097 3584 5394 3201 
Q 5691 2819 5691 2113 
L 5691 0 
L 5113 0 
L 5113 2094 
Q 5113 2597 4934 2840 
Q 4756 3084 4391 3084 
Q 3944 3084 3684 2787 
Q 3425 2491 3425 1978 
L 3425 0 
L 2847 0 
L 2847 2094 
Q 2847 2600 2669 2842 
Q 2491 3084 2119 3084 
Q 1678 3084 1418 2786 
Q 1159 2488 1159 1978 
L 1159 0 
L 581 0 
L 581 3500 
L 1159 3500 
L 1159 2956 
Q 1356 3278 1631 3431 
Q 1906 3584 2284 3584 
Q 2666 3584 2933 3390 
Q 3200 3197 3328 2828 
z
" transform="scale(0.015625)"/>
       <path id="DejaVuSans-65" d="M 3597 1894 
L 3597 1613 
L 953 1613 
Q 991 1019 1311 708 
Q 1631 397 2203 397 
Q 2534 397 2845 478 
Q 3156 559 3463 722 
L 3463 178 
Q 3153 47 2828 -22 
Q 2503 -91 2169 -91 
Q 1331 -91 842 396 
Q 353 884 353 1716 
Q 353 2575 817 3079 
Q 1281 3584 2069 3584 
Q 2775 3584 3186 3129 
Q 3597 2675 3597 1894 
z
M 3022 2063 
Q 3016 2534 2758 2815 
Q 2500 3097 2075 3097 
Q 1594 3097 1305 2825 
Q 1016 2553 972 2059 
L 3022 2063 
z
" transform="scale(0.015625)"/>
       <path id="DejaVuSans-20" transform="scale(0.015625)"/>
       <path id="DejaVuSans-28" d="M 1984 4856 
Q 1566 4138 1362 3434 
Q 1159 2731 1159 2009 
Q 1159 1288 1364 580 
Q 1569 -128 1984 -844 
L 1484 -844 
Q 1016 -109 783 600 
Q 550 1309 550 2009 
Q 550 2706 781 3412 
Q 1013 4119 1484 4856 
L 1984 4856 
z
" transform="scale(0.015625)"/>
       <path id="DejaVuSans-73" d="M 2834 3397 
L 2834 2853 
Q 2591 2978 2328 3040 
Q 2066 3103 1784 3103 
Q 1356 3103 1142 2972 
Q 928 2841 928 2578 
Q 928 2378 1081 2264 
Q 1234 2150 1697 2047 
L 1894 2003 
Q 2506 1872 2764 1633 
Q 3022 1394 3022 966 
Q 3022 478 2636 193 
Q 2250 -91 1575 -91 
Q 1294 -91 989 -36 
Q 684 19 347 128 
L 347 722 
Q 666 556 975 473 
Q 1284 391 1588 391 
Q 1994 391 2212 530 
Q 2431 669 2431 922 
Q 2431 1156 2273 1281 
Q 2116 1406 1581 1522 
L 1381 1569 
Q 847 1681 609 1914 
Q 372 2147 372 2553 
Q 372 3047 722 3315 
Q 1072 3584 1716 3584 
Q 2034 3584 2315 3537 
Q 2597 3491 2834 3397 
z
" transform="scale(0.015625)"/>
       <path id="DejaVuSans-29" d="M 513 4856 
L 1013 4856 
Q 1481 4119 1714 3412 
Q 1947 2706 1947 2009 
Q 1947 1309 1714 600 
Q 1481 -109 1013 -844 
L 513 -844 
Q 928 -128 1133 580 
Q 1338 1288 1338 2009 
Q 1338 2731 1133 3434 
Q 928 4138 513 4856 
z
" transform="scale(0.015625)"/>
      </defs>
      <use xlink:href="#DejaVuSans-54"/>
      <use xlink:href="#DejaVuSans-69" x="57.958984"/>
      <use xlink:href="#DejaVuSans-6d" x="85.742188"/>
      <use xlink:href="#DejaVuSans-65" x="183.154297"/>
      <use xlink:href="#DejaVuSans-20" x="244.677734"/>
      <use xlink:href="#DejaVuSans-28" x="276.464844"/>
      <use xlink:href="#DejaVuSans-73" x="315.478516"/>
      <use xlink:href="#DejaVuSans-29" x="367.578125"/>
     </g>
    </g>
   </g>
   <g id="matplotlib.axis_2">
    <g id="ytick_1">
     <g id="line2d_7">
      <defs>
       <path id="mb1e513e786" d="M 0 0 
L -2 0 
" style="stroke: #000000; stroke-width: 0.8"/>
      </defs>
      <g>
       <use xlink:href="#mb1e513e786" x="41.8" y="291.085714" style="stroke: #000000; stroke-width: 0.8"/>
      </g>
     </g>
     <g id="text_8">
      <!-- −30 -->
      <g transform="translate(21.91625 294.125089) scale(0.08 -0.08)">
       <defs>
        <path id="DejaVuSans-2212" d="M 678 2272 
L 4684 2272 
L 4684 1741 
L 678 1741 
L 678 2272 
z
" transform="scale(0.015625)"/>
       </defs>
       <use xlink:href="#DejaVuSans-2212"/>
       <use xlink:href="#DejaVuSans-33" x="83.789062"/>
       <use xlink:href="#DejaVuSans-30" x="147.412109"/>
      </g>
     </g>
    </g>
    <g id="ytick_2">
     <g id="line2d_8">
      <g>
       <use xlink:href="#mb1e513e786" x="41.8" y="250.217143" style="stroke: #000000; stroke-width: 0.8"/>
      </g>
     </g>
     <g id="text_9">
      <!-- −20 -->
      <g transform="translate(21.91625 253.256518) scale(0.08 -0.08)">
       <use xlink:href="#DejaVuSans-2212"/>
       <use xlink:href="#DejaVuSans-32" x="83.789062"/>
       <use xlink:href="#DejaVuSans-30" x="147.412109"/>
      </g>
     </g>
    </g>
    <g id="ytick_3">
     <g id="line2d_9">
      <g>
       <use xlink:href="#mb1e513e786" x="41.8" y="209.348571" style="stroke: #000000; stroke-width: 0.8"/>
      </g>
     </g>
     <g id="text_10">
      <!-- −10 -->
      <g transform="translate(21.91625 212.387946) scale(0.08 -0.08)">
       <use xlink:href="#DejaVuSans-2212"/>
       <use xlink:href="#DejaVuSans-31" x="83.789062"/>
       <use xlink:href="#DejaVuSans-30" x="147.412109"/>
      </g>
     </g>
    </g>
    <g id="ytick_4">
     <g id="line2d_10">
      <g>
       <use xlink:href="#mb1e513e786" x="41.8" y="168.48" style="stroke: #000000; stroke-width: 0.8"/>
      </g>
     </g>
     <g id="text_11">
      <!-- 0 -->
      <g transform="translate(33.71 171.519375) scale(0.08 -0.08)">
       <use xlink:href="#DejaVuSans-30"/>
      </g>
     </g>
    </g>
    <g id="ytick_5">
     <g id="line2d_11">
      <g>
       <use xlink:href="#mb1e513e786" x="41.8" y="127.611429" style="stroke: #000000; stroke-width: 0.8"/>
      </g>
     </g>
     <g id="text_12">
      <!-- 10 -->
      <g transform="translate(28.62 130.650804) scale(0.08 -0.08)">
       <use xlink:href="#DejaVuSans-31"/>
       <use xlink:href="#DejaVuSans-30" x="63.623047"/>
      </g>
     </g>
    </g>
    <g id="ytick_6">
     <g id="line2d_12">
      <g>
       <use xlink:href="#mb1e513e786" x="41.8" y="86.742857" style="stroke: #000000; stroke-width: 0.8"/>
      </g>
     </g>
     <g id="text_13">
      <!-- 20 -->
      <g transform="translate(28.62 89.782232) scale(0.08 -0.08)">
       <use xlink:href="#DejaVuSans-32"/>
       <use xlink:href="#DejaVuSans-30" x="63.623047"/>
      </g>
     </g>
    </g>
    <g id="ytick_7">
     <g id="line2d_13">
      <g>
       <use xlink:href="#mb1e513e786" x="41.8" y="45.874286" style="stroke: #000000; stroke-width: 0.8"/>
      </g>
     </g>
     <g id="text_14">
      <!-- 30 -->
      <g transform="translate(28.62 48.913661) scale(0.08 -0.08)">
       <use xlink:href="#DejaVuSans-33"/>
       <use xlink:href="#DejaVuSans-30" x="63.623047"/>
      </g>
     </g>
    </g>
    <g id="text_15">
     <!-- Voltage (mV) -->
     <g transform="translate(18.836562 201.0175) rotate(-90) scale(0.1 -0.1)">
      <defs>
       <path id="DejaVuSans-56" d="M 1831 0 
L 50 4666 
L 709 4666 
L 2188 738 
L 3669 4666 
L 4325 4666 
L 2547 0 
L 1831 0 
z
" transform="scale(0.015625)"/>
       <path id="DejaVuSans-6f" d="M 1959 3097 
Q 1497 3097 1228 2736 
Q 959 2375 959 1747 
Q 959 1119 1226 758 
Q 1494 397 1959 397 
Q 2419 397 2687 759 
Q 2956 1122 2956 1747 
Q 2956 2369 2687 2733 
Q 2419 3097 1959 3097 
z
M 1959 3584 
Q 2709 3584 3137 3096 
Q 3566 2609 3566 1747 
Q 3566 888 3137 398 
Q 2709 -91 1959 -91 
Q 1206 -91 779 398 
Q 353 888 353 1747 
Q 353 2609 779 3096 
Q 1206 3584 1959 3584 
z
" transform="scale(0.015625)"/>
       <path id="DejaVuSans-6c" d="M 603 4863 
L 1178 4863 
L 1178 0 
L 603 0 
L 603 4863 
z
" transform="scale(0.015625)"/>
       <path id="DejaVuSans-74" d="M 1172 4494 
L 1172 3500 
L 2356 3500 
L 2356 3053 
L 1172 3053 
L 1172 1153 
Q 1172 725 1289 603 
Q 1406 481 1766 481 
L 2356 481 
L 2356 0 
L 1766 0 
Q 1100 0 847 248 
Q 594 497 594 1153 
L 594 3053 
L 172 3053 
L 172 3500 
L 594 3500 
L 594 4494 
L 1172 4494 
z
" transform="scale(0.015625)"/>
       <path id="DejaVuSans-61" d="M 2194 1759 
Q 1497 1759 1228 1600 
Q 959 1441 959 1056 
Q 959 750 1161 570 
Q 1363 391 1709 391 
Q 2188 391 2477 730 
Q 2766 1069 2766 1631 
L 2766 1759 
L 2194 1759 
z
M 3341 1997 
L 3341 0 
L 2766 0 
L 2766 531 
Q 2569 213 2275 61 
Q 1981 -91 1556 -91 
Q 1019 -91 701 211 
Q 384 513 384 1019 
Q 384 1609 779 1909 
Q 1175 2209 1959 2209 
L 2766 2209 
L 2766 2266 
Q 2766 2663 2505 2880 
Q 2244 3097 1772 3097 
Q 1472 3097 1187 3025 
Q 903 2953 641 2809 
L 641 3341 
Q 956 3463 1253 3523 
Q 1550 3584 1831 3584 
Q 2591 3584 2966 3190 
Q 3341 2797 3341 1997 
z
" transform="scale(0.015625)"/>
       <path id="DejaVuSans-67" d="M 2906 1791 
Q 2906 2416 2648 2759 
Q 2391 3103 1925 3103 
Q 1463 3103 1205 2759 
Q 947 2416 947 1791 
Q 947 1169 1205 825 
Q 1463 481 1925 481 
Q 2391 481 2648 825 
Q 2906 1169 2906 1791 
z
M 3481 434 
Q 3481 -459 3084 -895 
Q 2688 -1331 1869 -1331 
Q 1566 -1331 1297 -1286 
Q 1028 -1241 775 -1147 
L 775 -588 
Q 1028 -725 1275 -790 
Q 1522 -856 1778 -856 
Q 2344 -856 2625 -561 
Q 2906 -266 2906 331 
L 2906 616 
Q 2728 306 2450 153 
Q 2172 0 1784 0 
Q 1141 0 747 490 
Q 353 981 353 1791 
Q 353 2603 747 3093 
Q 1141 3584 1784 3584 
Q 2172 3584 2450 3431 
Q 2728 3278 2906 2969 
L 2906 3500 
L 3481 3500 
L 3481 434 
z
" transform="scale(0.015625)"/>
      </defs>
      <use xlink:href="#DejaVuSans-56"/>
      <use xlink:href="#DejaVuSans-6f" x="60.658203"/>
      <use xlink:href="#DejaVuSans-6c" x="121.839844"/>
      <use xlink:href="#DejaVuSans-74" x="149.623047"/>
      <use xlink:href="#DejaVuSans-61" x="188.832031"/>
      <use xlink:href="#DejaVuSans-67" x="250.111328"/>
      <use xlink:href="#DejaVuSans-65" x="313.587891"/>
      <use xlink:href="#DejaVuSans-20" x="375.111328"/>
      <use xlink:href="#DejaVuSans-28" x="406.898438"/>
      <use xlink:href="#DejaVuSans-6d" x="445.912109"/>
      <use xlink:href="#DejaVuSans-56" x="543.324219"/>
      <use xlink:href="#DejaVuSans-29" x="611.732422"/>
     </g>
    </g>
   </g>
   <g id="line2d_14">
    <path d="M 41.8 137.862047 
L 43.40724 139.135609 
L 45.01448 142.193451 
L 46.62172 146.906612 
L 48.22896 152.441347 
L 49.8362 157.405471 
L 51.44344 160.309041 
L 53.05068 160.183376 
L 54.65792 157.125993 
L 56.26516 152.498842 
L 57.8724 148.624308 
L 59.47964 148.019955 
L 61.08688 152.422441 
L 62.69412 161.953879 
L 65.9086 187.597302 
L 67.51584 196.466255 
L 69.12308 198.306088 
L 70.73032 191.938274 
L 72.33756 178.622838 
L 75.55204 145.633246 
L 77.15928 134.290812 
L 78.76652 129.941893 
L 80.37376 132.495761 
L 81.981 139.760533 
L 83.58824 148.401416 
L 85.19548 155.238043 
L 86.80272 158.354557 
L 88.40996 157.602311 
L 90.0172 154.372229 
L 91.62444 150.767638 
L 93.23168 148.576526 
L 94.83892 148.505063 
L 98.0534 151.510191 
L 99.66064 151.582559 
L 101.26788 149.395724 
L 102.87512 145.363885 
L 104.48236 141.01601 
L 106.0896 138.3889 
L 107.69684 139.178353 
L 109.30408 144.031787 
L 110.91132 152.26761 
L 114.1258 171.536476 
L 115.73304 178.788322 
L 117.34028 183.274302 
L 118.94752 185.566181 
L 120.55476 187.082751 
L 122.162 189.402835 
L 123.76924 193.544436 
L 125.37648 199.491499 
L 126.98372 206.161787 
L 128.59096 211.828572 
L 130.1982 214.794844 
L 131.80544 214.06567 
L 133.41268 209.744501 
L 135.01992 203.019247 
L 136.62716 195.750587 
L 138.2344 189.831342 
L 139.84164 186.551129 
L 141.44888 186.196233 
L 143.05612 188.013073 
L 144.66336 190.526352 
L 146.2706 192.073592 
L 147.87784 191.368046 
L 149.48508 187.893044 
L 151.09232 182.02513 
L 154.3068 167.886936 
L 155.91404 162.488511 
L 157.52128 159.652661 
L 159.12852 159.733194 
L 160.73576 162.436198 
L 162.343 166.950422 
L 163.95024 172.165542 
L 165.55748 176.92222 
L 167.16472 180.233279 
L 168.77196 181.468687 
L 170.3792 180.486571 
L 171.98644 177.673795 
L 175.20092 170.31962 
L 176.80816 168.14793 
L 178.4154 168.263331 
L 180.02264 170.936751 
L 181.62988 175.665815 
L 183.23712 181.263069 
L 184.84436 186.200554 
L 186.4516 189.115163 
L 188.05884 189.30483 
L 189.66608 187.025497 
L 191.27332 183.450091 
L 192.88056 180.277338 
L 194.4878 179.105306 
L 196.09504 180.79311 
L 197.70228 185.072981 
L 199.30952 190.579031 
L 200.91676 195.319954 
L 202.524 197.435594 
L 204.13124 195.949739 
L 205.73848 191.215005 
L 207.34572 184.845429 
L 208.95296 179.139889 
L 210.5602 176.211446 
L 212.16744 177.157689 
L 213.77468 181.595395 
L 215.38192 187.765825 
L 216.98916 193.178156 
L 218.5964 195.553431 
L 220.20364 193.703589 
L 221.81088 187.990015 
L 225.02536 172.776801 
L 226.6326 168.027615 
L 228.23984 167.103754 
L 229.84708 169.661621 
L 231.45432 174.012998 
L 233.06156 177.809068 
L 234.6688 178.958219 
L 236.27604 176.412186 
L 237.88328 170.534374 
L 241.09776 155.735599 
L 242.705 150.931104 
L 244.31224 149.534146 
L 245.91948 151.398085 
L 247.52672 155.399517 
L 249.13396 160.004047 
L 250.7412 163.937003 
L 252.34844 166.669934 
L 255.56292 170.483635 
L 257.17016 173.482328 
L 258.7774 178.048046 
L 263.59912 195.306149 
L 265.20636 198.461228 
L 266.8136 199.228962 
L 268.42084 198.175781 
L 270.02808 196.57978 
L 271.63532 195.930479 
L 273.24256 197.320799 
L 274.8498 201.001119 
L 278.06428 211.824641 
L 279.67152 216.179627 
L 281.27876 218.434127 
L 282.886 218.606292 
L 284.49324 217.674412 
L 286.10048 217.202507 
L 287.70772 218.696096 
L 289.31496 222.937553 
L 290.9222 229.57533 
L 292.52944 237.129494 
L 294.13668 243.412155 
L 295.74392 246.225487 
L 297.35116 244.089269 
L 298.9584 236.730895 
L 300.56564 225.185271 
L 303.78012 197.995464 
L 305.38736 186.861463 
L 306.9946 179.389975 
L 308.60184 175.88988 
L 310.20908 175.752348 
L 311.81632 177.77964 
L 313.42356 180.608992 
L 315.0308 183.08296 
L 316.63804 184.478347 
L 318.24528 184.580485 
L 319.85252 183.619486 
L 323.067 180.714027 
L 324.67424 179.989702 
L 326.28148 180.29831 
L 327.88872 181.645693 
L 331.1032 185.643887 
L 332.71044 186.824071 
L 334.31768 186.579159 
L 335.92492 184.736323 
L 339.1394 178.50292 
L 340.74664 176.305339 
L 342.35388 176.182664 
L 343.96112 178.615915 
L 345.56836 183.308319 
L 348.78284 195.347817 
L 350.39008 200.486037 
L 351.99732 204.414981 
L 353.60456 207.637527 
L 355.2118 211.182721 
L 356.81904 216.035467 
L 358.42628 222.511155 
L 360.03352 229.867074 
L 361.64076 236.353031 
L 363.248 239.734063 
L 364.85524 238.103273 
L 366.46248 230.655842 
L 368.06972 218.086301 
L 371.2842 186.459507 
L 372.89144 172.685442 
L 374.49868 162.690637 
L 376.10592 156.743895 
L 377.71316 154.016686 
L 379.3204 153.20814 
L 380.92764 153.264649 
L 382.53488 153.852278 
L 384.14212 155.367544 
L 385.74936 158.491894 
L 387.3566 163.540715 
L 390.57108 176.289395 
L 392.17832 180.598147 
L 393.78556 181.337527 
L 395.3928 178.117664 
L 398.60728 165.726435 
L 400.21452 161.946931 
L 401.82176 163.051756 
L 403.429 169.760574 
L 405.03624 180.85456 
L 406.64348 193.545835 
L 408.25072 204.449445 
L 409.85796 210.7663 
L 411.4652 211.198381 
L 413.07244 206.252955 
L 414.67968 197.844692 
L 416.28692 188.405716 
L 417.89416 179.902874 
L 419.5014 173.169148 
L 422.71588 162.662655 
L 424.32312 156.583434 
L 425.93036 149.140802 
L 427.5376 140.944808 
L 429.14484 133.450863 
L 430.75208 128.344884 
L 432.35932 126.789056 
L 433.96656 128.885605 
L 435.5738 133.576525 
L 437.18104 138.998269 
L 438.78828 143.136609 
L 440.39552 144.498711 
L 442.00276 142.532081 
L 443.61 137.663112 
L 443.61 137.663112 
" clip-path="url(#pac8b8806bf)" style="fill: none; stroke: #1f77b4; stroke-width: 1.5; stroke-linecap: square"/>
   </g>
   <g id="line2d_15">
    <path d="M 41.8 211.876009 
L 43.40724 203.905579 
L 45.01448 196.882064 
L 46.62172 193.576886 
L 48.22896 195.794476 
L 49.8362 203.496888 
L 53.05068 225.652112 
L 54.65792 233.064586 
L 56.26516 234.62076 
L 57.8724 230.428974 
L 59.47964 223.004254 
L 61.08688 216.358583 
L 62.69412 214.392098 
L 64.30136 219.216228 
L 65.9086 230.123973 
L 67.51584 243.647911 
L 69.12308 254.732414 
L 70.73032 258.590119 
L 72.33756 252.535876 
L 73.9448 237.073547 
L 77.15928 194.163362 
L 78.76652 177.55771 
L 80.37376 169.508255 
L 81.981 170.595117 
L 83.58824 178.501865 
L 85.19548 189.110638 
L 86.80272 198.165731 
L 88.40996 202.81023 
L 90.0172 202.442299 
L 91.62444 198.616815 
L 93.23168 194.121583 
L 94.83892 191.694973 
L 96.44616 192.90052 
L 98.0534 197.602631 
L 101.26788 210.407745 
L 102.87512 214.222649 
L 104.48236 214.642867 
L 106.0896 211.907796 
L 107.69684 207.215578 
L 109.30408 202.134141 
L 110.91132 197.98961 
L 112.51856 195.497404 
L 114.1258 194.755852 
L 115.73304 195.526165 
L 117.34028 197.60202 
L 118.94752 201.028307 
L 120.55476 206.073442 
L 122.162 212.956307 
L 123.76924 221.50002 
L 126.98372 239.670382 
L 128.59096 246.133155 
L 130.1982 248.779612 
L 131.80544 246.853852 
L 133.41268 240.640574 
L 135.01992 231.43548 
L 136.62716 221.191278 
L 138.2344 211.965948 
L 139.84164 205.368211 
L 141.44888 202.15624 
L 143.05612 202.116293 
L 144.66336 204.229144 
L 146.2706 207.032776 
L 147.87784 209.036926 
L 149.48508 209.069 
L 151.09232 206.484957 
L 152.69956 201.218077 
L 154.3068 193.720942 
L 159.12852 167.478413 
L 160.73576 161.383156 
L 162.343 158.377954 
L 163.95024 159.056707 
L 165.55748 163.466328 
L 167.16472 171.003318 
L 170.3792 190.072842 
L 171.98644 198.136654 
L 173.59368 203.148466 
L 175.20092 204.320624 
L 176.80816 201.767244 
L 178.4154 196.482492 
L 180.02264 190.040088 
L 181.62988 184.124689 
L 183.23712 180.05696 
L 184.84436 178.458158 
L 186.4516 179.191818 
L 188.05884 181.573204 
L 192.88056 191.276749 
L 194.4878 194.662285 
L 196.09504 198.598767 
L 197.70228 203.277776 
L 199.30952 208.37529 
L 200.91676 212.978239 
L 202.524 215.829451 
L 204.13124 215.825823 
L 205.73848 212.570409 
L 207.34572 206.709121 
L 208.95296 199.876024 
L 210.5602 194.224108 
L 212.16744 191.696563 
L 213.77468 193.278719 
L 215.38192 198.540041 
L 216.98916 205.681953 
L 218.5964 212.09158 
L 220.20364 215.22866 
L 221.81088 213.506711 
L 223.41812 206.829316 
L 225.02536 196.585095 
L 226.6326 185.115086 
L 228.23984 174.860002 
L 229.84708 167.513557 
L 231.45432 163.522421 
L 233.06156 162.130169 
L 234.6688 161.904559 
L 236.27604 161.500129 
L 237.88328 160.335049 
L 239.49052 158.863002 
L 241.09776 158.328745 
L 242.705 160.119605 
L 244.31224 165.001409 
L 245.91948 172.6062 
L 247.52672 181.405849 
L 249.13396 189.212748 
L 250.7412 193.999013 
L 252.34844 194.690397 
L 253.95568 191.618675 
L 257.17016 181.330902 
L 258.7774 178.371688 
L 260.38464 178.467222 
L 261.99188 181.186088 
L 263.59912 184.992296 
L 265.20636 187.988052 
L 266.8136 188.796821 
L 268.42084 187.173649 
L 271.63532 181.140924 
L 273.24256 179.853862 
L 274.8498 180.756843 
L 278.06428 185.358364 
L 279.67152 185.620796 
L 281.27876 183.007497 
L 284.49324 173.094108 
L 286.10048 170.798255 
L 287.70772 173.641155 
L 289.31496 182.359044 
L 292.52944 209.28076 
L 294.13668 219.547022 
L 295.74392 222.489394 
L 297.35116 216.450599 
L 298.9584 202.500565 
L 302.17288 165.876404 
L 303.78012 152.048849 
L 305.38736 145.061501 
L 306.9946 144.997366 
L 308.60184 149.876405 
L 310.20908 156.638324 
L 311.81632 162.356544 
L 313.42356 165.187995 
L 315.0308 164.711333 
L 316.63804 161.633239 
L 318.24528 157.148574 
L 321.45976 147.674463 
L 323.067 143.436552 
L 324.67424 139.698525 
L 326.28148 136.762541 
L 327.88872 135.121883 
L 329.49596 135.164875 
L 331.1032 136.763194 
L 332.71044 139.029083 
L 334.31768 140.494403 
L 335.92492 139.717978 
L 337.53216 136.087928 
L 340.74664 124.866023 
L 342.35388 122.326248 
L 343.96112 125.072724 
L 345.56836 133.651351 
L 348.78284 159.470106 
L 350.39008 168.971015 
L 351.99732 171.889405 
L 353.60456 167.897386 
L 356.81904 152.011314 
L 358.42628 150.011507 
L 360.03352 156.927876 
L 361.64076 172.681108 
L 364.85524 213.64611 
L 366.46248 226.453797 
L 368.06972 227.685495 
L 369.67696 216.482212 
L 371.2842 195.648045 
L 374.49868 146.909012 
L 376.10592 129.383973 
L 377.71316 119.865182 
L 379.3204 117.654811 
L 380.92764 120.324338 
L 387.3566 139.258719 
L 388.96384 144.977264 
L 390.57108 152.099695 
L 393.78556 167.591659 
L 395.3928 173.193053 
L 397.00004 176.018111 
L 398.60728 176.272073 
L 400.21452 175.214856 
L 401.82176 174.647172 
L 403.429 176.159057 
L 405.03624 180.487782 
L 406.64348 187.257241 
L 408.25072 195.168346 
L 409.85796 202.49596 
L 411.4652 207.629632 
L 413.07244 209.444714 
L 414.67968 207.403487 
L 416.28692 201.453521 
L 417.89416 191.895484 
L 419.5014 179.36296 
L 422.71588 150.168708 
L 424.32312 137.156322 
L 425.93036 128.044328 
L 427.5376 124.500669 
L 429.14484 127.046553 
L 430.75208 134.635313 
L 432.35932 144.746221 
L 433.96656 154.074936 
L 435.5738 159.616517 
L 437.18104 159.737348 
L 438.78828 154.817593 
L 440.39552 147.142371 
L 442.00276 140.053222 
L 443.61 136.663153 
L 443.61 136.663153 
" clip-path="url(#pac8b8806bf)" style="fill: none; stroke: #ff7f0e; stroke-width: 1.5; stroke-linecap: square"/>
   </g>
   <g id="line2d_16">
    <path d="M 41.8 193.425966 
L 43.40724 196.662131 
L 45.01448 198.637956 
L 46.62172 198.734339 
L 48.22896 196.379945 
L 49.8362 191.32125 
L 51.44344 183.915332 
L 53.05068 175.305145 
L 54.65792 167.346723 
L 56.26516 162.238228 
L 57.8724 161.924284 
L 59.47964 167.438906 
L 61.08688 178.413712 
L 64.30136 208.270203 
L 65.9086 220.855006 
L 67.51584 227.839472 
L 69.12308 227.473071 
L 70.73032 219.65257 
L 72.33756 205.950141 
L 75.55204 173.215645 
L 77.15928 161.284851 
L 78.76652 156.060501 
L 80.37376 158.613724 
L 81.981 168.216749 
L 85.19548 197.570388 
L 86.80272 209.511811 
L 88.40996 214.686713 
L 90.0172 211.056884 
L 91.62444 198.739033 
L 93.23168 180.122969 
L 94.83892 159.375236 
L 96.44616 141.381389 
L 98.0534 130.382092 
L 99.66064 128.682447 
L 101.26788 135.871485 
L 102.87512 148.909572 
L 104.48236 163.070688 
L 106.0896 173.48058 
L 107.69684 176.802097 
L 109.30408 172.470369 
L 112.51856 153.146406 
L 114.1258 148.492746 
L 115.73304 153.324632 
L 117.34028 169.073512 
L 118.94752 193.566583 
L 120.55476 221.480161 
L 122.162 245.845736 
L 123.76924 260.154739 
L 125.37648 260.338706 
L 126.98372 245.996182 
L 128.59096 220.481175 
L 131.80544 161.059087 
L 133.41268 139.973536 
L 135.01992 129.836042 
L 136.62716 130.646977 
L 138.2344 139.546809 
L 139.84164 152.015197 
L 141.44888 163.447374 
L 143.05612 170.549235 
L 144.66336 172.137813 
L 146.2706 169.132001 
L 149.48508 158.812437 
L 151.09232 155.880941 
L 152.69956 155.471452 
L 155.91404 157.75577 
L 157.52128 157.26905 
L 159.12852 154.627418 
L 162.343 146.702038 
L 163.95024 145.14412 
L 165.55748 147.161789 
L 167.16472 152.598611 
L 168.77196 159.700985 
L 170.3792 165.731534 
L 171.98644 168.104715 
L 173.59368 165.634512 
L 175.20092 159.354416 
L 176.80816 152.416761 
L 178.4154 149.060513 
L 180.02264 152.973472 
L 181.62988 165.642269 
L 183.23712 185.386435 
L 184.84436 207.550659 
L 186.4516 225.897763 
L 188.05884 234.753784 
L 189.66608 231.109517 
L 191.27332 215.838881 
L 194.4878 170.812926 
L 196.09504 154.17927 
L 197.70228 147.475703 
L 199.30952 150.690849 
L 202.524 169.92842 
L 204.13124 174.573608 
L 205.73848 170.971892 
L 207.34572 159.64712 
L 208.95296 144.397761 
L 210.5602 130.702957 
L 212.16744 123.544103 
L 213.77468 125.556403 
L 215.38192 136.209276 
L 218.5964 169.237607 
L 220.20364 183.152968 
L 221.81088 191.801952 
L 223.41812 195.057191 
L 225.02536 194.256005 
L 226.6326 191.043305 
L 228.23984 186.337299 
L 229.84708 179.949302 
L 231.45432 170.975393 
L 233.06156 158.728071 
L 237.88328 113.806628 
L 239.49052 104.80352 
L 241.09776 102.174342 
L 242.705 105.243717 
L 244.31224 111.367918 
L 245.91948 117.051185 
L 247.52672 119.497812 
L 249.13396 117.95822 
L 250.7412 114.225561 
L 252.34844 111.944198 
L 253.95568 114.956022 
L 255.56292 125.425328 
L 257.17016 142.568359 
L 258.7774 162.599415 
L 260.38464 179.96533 
L 261.99188 189.439291 
L 263.59912 188.167476 
L 265.20636 176.834408 
L 268.42084 141.79734 
L 270.02808 129.369249 
L 271.63532 125.269592 
L 273.24256 129.282176 
L 276.45704 147.634483 
L 278.06428 153.488993 
L 279.67152 154.038817 
L 281.27876 150.156763 
L 282.886 144.670271 
L 284.49324 140.921359 
L 286.10048 141.193544 
L 287.70772 145.771755 
L 290.9222 160.485848 
L 292.52944 166.068112 
L 294.13668 169.284191 
L 295.74392 171.375752 
L 297.35116 174.554753 
L 298.9584 180.661929 
L 300.56564 189.897929 
L 302.17288 200.287331 
L 303.78012 208.180807 
L 305.38736 209.615633 
L 306.9946 202.01906 
L 308.60184 185.489079 
L 311.81632 139.690628 
L 313.42356 120.7704 
L 315.0308 110.055163 
L 316.63804 108.519018 
L 318.24528 114.194645 
L 319.85252 123.141079 
L 321.45976 131.081568 
L 323.067 135.008328 
L 324.67424 134.168391 
L 326.28148 130.084588 
L 327.88872 125.68396 
L 329.49596 123.975895 
L 331.1032 126.887317 
L 332.71044 134.712019 
L 334.31768 146.255301 
L 337.53216 172.743326 
L 339.1394 184.639226 
L 340.74664 194.842438 
L 342.35388 203.406725 
L 343.96112 210.345183 
L 345.56836 215.272628 
L 347.1756 217.418971 
L 348.78284 216.02428 
L 350.39008 210.89767 
L 351.99732 202.830887 
L 353.60456 193.658681 
L 355.2118 185.847048 
L 356.81904 181.730838 
L 358.42628 182.724176 
L 360.03352 188.825938 
L 361.64076 198.542377 
L 363.248 209.251124 
L 364.85524 217.888002 
L 366.46248 221.710486 
L 368.06972 218.903088 
L 369.67696 208.947549 
L 371.2842 192.758234 
L 376.10592 133.559951 
L 377.71316 121.936356 
L 379.3204 119.203616 
L 380.92764 125.974849 
L 382.53488 140.462405 
L 384.14212 158.526492 
L 385.74936 174.503801 
L 387.3566 182.706378 
L 388.96384 179.245 
L 390.57108 163.526064 
L 392.17832 138.832083 
L 393.78556 111.622279 
L 395.3928 89.625405 
L 397.00004 79.337279 
L 398.60728 83.7961 
L 400.21452 101.479746 
L 403.429 152.113539 
L 405.03624 170.446792 
L 406.64348 178.0122 
L 408.25072 175.443431 
L 409.85796 167.318392 
L 411.4652 160.11008 
L 413.07244 159.400725 
L 414.67968 167.501911 
L 416.28692 182.447008 
L 417.89416 198.792431 
L 419.5014 209.875399 
L 421.10864 210.543956 
L 422.71588 199.280435 
L 424.32312 178.888818 
L 425.93036 155.483056 
L 427.5376 136.213345 
L 429.14484 126.596156 
L 430.75208 128.576586 
L 432.35932 140.092791 
L 433.96656 156.199282 
L 435.5738 171.184712 
L 437.18104 180.779987 
L 438.78828 183.580099 
L 440.39552 181.209612 
L 442.00276 177.235056 
L 443.61 175.379732 
L 443.61 175.379732 
" clip-path="url(#pac8b8806bf)" style="fill: none; stroke: #2ca02c; stroke-width: 1.5; stroke-linecap: square"/>
   </g>
   <g id="line2d_17">
    <path d="M 41.8 183.081998 
L 43.40724 185.491682 
L 45.01448 192.214615 
L 46.62172 202.925131 
L 49.8362 228.532311 
L 51.44344 237.915744 
L 53.05068 242.067298 
L 54.65792 240.617843 
L 56.26516 235.151717 
L 57.8724 228.829008 
L 59.47964 225.388181 
L 61.08688 227.835629 
L 62.69412 237.265804 
L 64.30136 252.264515 
L 65.9086 269.161956 
L 67.51584 283.103401 
L 69.12308 289.59059 
L 70.73032 285.96712 
L 72.33756 272.32795 
L 73.9448 251.513271 
L 75.55204 228.173898 
L 77.15928 207.262276 
L 78.76652 192.486283 
L 80.37376 185.285956 
L 81.981 184.661439 
L 83.58824 187.856367 
L 85.19548 191.581476 
L 86.80272 193.278121 
L 88.40996 191.926647 
L 90.0172 188.157245 
L 91.62444 183.668499 
L 93.23168 180.268814 
L 94.83892 178.992642 
L 96.44616 179.659461 
L 98.0534 181.04649 
L 99.66064 181.566098 
L 101.26788 180.100633 
L 102.87512 176.596056 
L 104.48236 172.150698 
L 106.0896 168.551502 
L 107.69684 167.475392 
L 109.30408 169.725581 
L 110.91132 174.853351 
L 112.51856 181.345924 
L 114.1258 187.310737 
L 115.73304 191.346071 
L 117.34028 193.209096 
L 118.94752 193.964927 
L 120.55476 195.532145 
L 122.162 199.783103 
L 123.76924 207.598402 
L 126.98372 229.5625 
L 128.59096 238.426629 
L 130.1982 242.144995 
L 131.80544 239.424121 
L 133.41268 231.011168 
L 136.62716 208.78793 
L 138.2344 202.173305 
L 139.84164 201.748196 
L 141.44888 207.350911 
L 144.66336 226.050101 
L 146.2706 231.737596 
L 147.87784 231.149377 
L 149.48508 223.695293 
L 151.09232 210.907224 
L 152.69956 195.865521 
L 154.3068 182.179517 
L 155.91404 172.900825 
L 157.52128 169.722989 
L 159.12852 172.685132 
L 160.73576 180.401952 
L 163.95024 201.096426 
L 165.55748 209.772272 
L 167.16472 215.45107 
L 168.77196 217.640993 
L 170.3792 216.466986 
L 171.98644 212.4966 
L 173.59368 206.615834 
L 175.20092 199.954368 
L 176.80816 193.790599 
L 178.4154 189.39424 
L 180.02264 187.770116 
L 181.62988 189.359617 
L 183.23712 193.847673 
L 186.4516 206.825215 
L 188.05884 212.261237 
L 189.66608 215.450127 
L 191.27332 216.173389 
L 192.88056 215.048166 
L 194.4878 213.21237 
L 196.09504 211.795259 
L 197.70228 211.404087 
L 200.91676 212.19567 
L 202.524 211.30309 
L 204.13124 208.374155 
L 205.73848 203.517078 
L 207.34572 197.885625 
L 208.95296 193.367597 
L 210.5602 191.888083 
L 212.16744 194.606636 
L 213.77468 201.33053 
L 216.98916 219.237169 
L 218.5964 225.061545 
L 220.20364 226.030535 
L 221.81088 221.840167 
L 223.41812 213.858307 
L 225.02536 204.609759 
L 226.6326 196.824917 
L 228.23984 192.416739 
L 229.84708 191.765896 
L 233.06156 195.545552 
L 234.6688 195.027746 
L 236.27604 190.335896 
L 237.88328 181.284866 
L 241.09776 157.013365 
L 242.705 147.128601 
L 244.31224 141.710367 
L 245.91948 141.460003 
L 247.52672 145.648316 
L 249.13396 152.562917 
L 250.7412 160.24949 
L 252.34844 167.226064 
L 253.95568 172.89012 
L 255.56292 177.481951 
L 260.38464 190.155874 
L 261.99188 193.662873 
L 263.59912 195.332449 
L 265.20636 194.289646 
L 266.8136 190.428946 
L 270.02808 178.686524 
L 271.63532 174.508769 
L 273.24256 173.604223 
L 274.8498 176.386887 
L 276.45704 182.029695 
L 278.06428 188.777266 
L 279.67152 194.639329 
L 281.27876 198.187208 
L 282.886 199.11425 
L 286.10048 197.477926 
L 287.70772 198.282889 
L 289.31496 201.636856 
L 290.9222 207.174753 
L 292.52944 213.292591 
L 294.13668 217.675891 
L 295.74392 218.131001 
L 297.35116 213.392917 
L 298.9584 203.598982 
L 300.56564 190.265855 
L 302.17288 175.790361 
L 303.78012 162.676081 
L 305.38736 152.800959 
L 306.9946 146.980006 
L 308.60184 144.932618 
L 310.20908 145.592853 
L 311.81632 147.609957 
L 313.42356 149.836955 
L 315.0308 151.624299 
L 316.63804 152.851208 
L 319.85252 154.768754 
L 321.45976 156.174308 
L 323.067 158.17469 
L 324.67424 160.824643 
L 326.28148 164.079522 
L 329.49596 171.76832 
L 331.1032 175.630162 
L 332.71044 178.987688 
L 334.31768 181.484141 
L 335.92492 182.963716 
L 337.53216 183.597598 
L 339.1394 183.895826 
L 340.74664 184.538729 
L 342.35388 186.082773 
L 343.96112 188.671429 
L 347.1756 195.029743 
L 348.78284 197.22876 
L 350.39008 198.199573 
L 351.99732 198.451062 
L 353.60456 199.312391 
L 355.2118 202.503348 
L 356.81904 209.387268 
L 358.42628 220.187356 
L 361.64076 246.439231 
L 363.248 255.220243 
L 364.85524 256.423674 
L 366.46248 248.096128 
L 368.06972 230.52024 
L 369.67696 206.275196 
L 371.2842 179.556944 
L 372.89144 154.991839 
L 374.49868 136.378065 
L 376.10592 125.776368 
L 377.71316 123.232493 
L 379.3204 127.150685 
L 380.92764 135.091858 
L 384.14212 154.002367 
L 385.74936 162.202221 
L 387.3566 168.871707 
L 388.96384 173.896571 
L 390.57108 177.129893 
L 392.17832 178.371327 
L 393.78556 177.578861 
L 395.3928 175.154759 
L 397.00004 172.093308 
L 398.60728 169.840265 
L 400.21452 169.860761 
L 401.82176 173.069531 
L 403.429 179.383659 
L 406.64348 195.807294 
L 408.25072 201.880576 
L 409.85796 204.391693 
L 411.4652 203.021674 
L 413.07244 198.64187 
L 414.67968 192.920029 
L 416.28692 187.64172 
L 417.89416 184.027744 
L 419.5014 182.328073 
L 422.71588 181.417467 
L 424.32312 179.905753 
L 425.93036 176.817429 
L 430.75208 163.962066 
L 432.35932 161.788249 
L 433.96656 161.381709 
L 437.18104 162.871337 
L 438.78828 162.498376 
L 440.39552 160.205847 
L 442.00276 155.805361 
L 443.61 149.681856 
L 443.61 149.681856 
" clip-path="url(#pac8b8806bf)" style="fill: none; stroke: #d62728; stroke-width: 1.5; stroke-linecap: square"/>
   </g>
   <g id="line2d_18">
    <path d="M 41.8 258.696422 
L 43.40724 246.979034 
L 45.01448 232.406532 
L 46.62172 221.817016 
L 48.22896 221.14139 
L 49.8362 232.788099 
L 51.44344 254.318625 
L 53.05068 279.046826 
L 54.65792 298.415069 
L 56.26516 305.248247 
L 57.8724 296.57409 
L 59.47964 274.857137 
L 61.08688 247.121402 
L 62.69412 222.272347 
L 64.30136 207.693669 
L 65.9086 206.488967 
L 67.51584 216.4724 
L 69.12308 231.272869 
L 70.73032 243.044151 
L 72.33756 245.647582 
L 73.9448 236.97256 
L 75.55204 219.492364 
L 77.15928 198.950623 
L 78.76652 181.829885 
L 80.37376 172.710396 
L 81.981 172.612061 
L 83.58824 178.952593 
L 85.19548 187.041953 
L 86.80272 192.357198 
L 88.40996 192.538907 
L 90.0172 188.267469 
L 91.62444 182.681302 
L 93.23168 179.672627 
L 94.83892 181.887417 
L 96.44616 189.346051 
L 98.0534 199.3121 
L 99.66064 207.47403 
L 101.26788 209.887208 
L 102.87512 204.80824 
L 104.48236 193.631326 
L 106.0896 180.501976 
L 107.69684 170.729169 
L 109.30408 168.666345 
L 110.91132 175.932904 
L 112.51856 190.698524 
L 114.1258 208.353388 
L 115.73304 223.305746 
L 117.34028 231.206595 
L 118.94752 230.723339 
L 120.55476 224.146454 
L 122.162 216.541428 
L 123.76924 213.751699 
L 125.37648 219.97646 
L 126.98372 235.84648 
L 130.1982 278.971889 
L 131.80544 291.537707 
L 133.41268 289.418906 
L 135.01992 270.662776 
L 136.62716 238.435953 
L 138.2344 200.27845 
L 139.84164 165.79725 
L 141.44888 143.566665 
L 143.05612 138.319199 
L 144.66336 149.432045 
L 146.2706 171.265508 
L 147.87784 195.209238 
L 149.48508 212.678198 
L 151.09232 217.971188 
L 152.69956 209.956891 
L 154.3068 192.043951 
L 155.91404 170.551685 
L 157.52128 152.206553 
L 159.12852 141.759386 
L 160.73576 140.631548 
L 162.343 147.034901 
L 165.55748 167.982985 
L 167.16472 176.997697 
L 170.3792 192.417479 
L 171.98644 202.331522 
L 173.59368 214.778547 
L 175.20092 228.131671 
L 176.80816 239.027469 
L 178.4154 243.688914 
L 180.02264 239.595345 
L 181.62988 226.723065 
L 183.23712 207.79721 
L 184.84436 187.41911 
L 186.4516 170.44943 
L 188.05884 160.33364 
L 189.66608 158.07646 
L 191.27332 162.257441 
L 192.88056 169.994896 
L 194.4878 178.359028 
L 196.09504 185.560314 
L 197.70228 191.393056 
L 199.30952 196.796938 
L 200.91676 202.845289 
L 204.13124 216.483322 
L 205.73848 221.082631 
L 207.34572 221.715714 
L 208.95296 217.738853 
L 210.5602 210.313939 
L 212.16744 202.169225 
L 213.77468 196.558915 
L 215.38192 195.860478 
L 216.98916 200.446281 
L 220.20364 216.096117 
L 221.81088 219.898598 
L 223.41812 217.481069 
L 225.02536 208.961433 
L 228.23984 185.221049 
L 229.84708 177.76963 
L 231.45432 176.65885 
L 233.06156 181.556235 
L 236.27604 197.833799 
L 237.88328 202.037903 
L 239.49052 200.697369 
L 241.09776 194.175991 
L 244.31224 174.940223 
L 245.91948 167.64478 
L 247.52672 163.966476 
L 249.13396 163.678459 
L 250.7412 165.576118 
L 253.95568 170.901137 
L 255.56292 173.417365 
L 257.17016 176.321308 
L 258.7774 180.075398 
L 261.99188 188.71016 
L 263.59912 191.080673 
L 265.20636 190.228155 
L 266.8136 185.625615 
L 268.42084 178.070634 
L 270.02808 169.558263 
L 271.63532 162.576941 
L 273.24256 159.140902 
L 274.8498 159.995416 
L 276.45704 164.354578 
L 278.06428 170.295033 
L 279.67152 175.658676 
L 281.27876 179.077729 
L 282.886 180.650462 
L 284.49324 181.930194 
L 286.10048 185.215559 
L 287.70772 192.40576 
L 289.31496 203.907902 
L 292.52944 231.796984 
L 294.13668 241.001521 
L 295.74392 242.587853 
L 297.35116 235.333662 
L 298.9584 220.447226 
L 302.17288 181.932017 
L 303.78012 166.520019 
L 305.38736 157.401807 
L 306.9946 154.987593 
L 308.60184 157.892902 
L 311.81632 169.704481 
L 313.42356 173.986158 
L 315.0308 175.391646 
L 316.63804 173.601318 
L 318.24528 168.785406 
L 319.85252 161.315551 
L 321.45976 151.677886 
L 326.28148 119.115556 
L 327.88872 112.063752 
L 329.49596 109.539692 
L 331.1032 112.192064 
L 332.71044 119.481869 
L 335.92492 140.370444 
L 337.53216 148.988922 
L 339.1394 153.711326 
L 340.74664 153.841201 
L 342.35388 149.902161 
L 343.96112 143.351703 
L 345.56836 136.101438 
L 347.1756 130.034787 
L 348.78284 126.664258 
L 350.39008 126.987195 
L 351.99732 131.459862 
L 353.60456 140.009623 
L 355.2118 152.011917 
L 360.03352 194.452938 
L 361.64076 204.631739 
L 363.248 210.430135 
L 364.85524 211.621472 
L 366.46248 208.910296 
L 368.06972 203.534947 
L 369.67696 196.643459 
L 371.2842 188.718121 
L 372.89144 179.355636 
L 374.49868 167.582203 
L 376.10592 152.602474 
L 380.92764 98.248042 
L 382.53488 86.513573 
L 384.14212 82.985584 
L 385.74936 88.276784 
L 387.3566 100.385598 
L 388.96384 115.171191 
L 390.57108 127.738188 
L 392.17832 134.22811 
L 393.78556 133.290355 
L 395.3928 126.61137 
L 397.00004 118.24617 
L 398.60728 113.023926 
L 400.21452 114.668252 
L 401.82176 124.38003 
L 403.429 140.460431 
L 405.03624 159.091798 
L 406.64348 175.901423 
L 408.25072 187.612431 
L 409.85796 193.079575 
L 411.4652 193.295086 
L 413.07244 190.470031 
L 416.28692 182.895193 
L 417.89416 178.478137 
L 419.5014 172.004649 
L 421.10864 162.357258 
L 424.32312 136.885211 
L 425.93036 126.959541 
L 427.5376 123.681925 
L 429.14484 128.94258 
L 430.75208 141.820825 
L 432.35932 158.518718 
L 433.96656 173.526974 
L 435.5738 181.594371 
L 437.18104 179.724397 
L 438.78828 168.376812 
L 442.00276 134.313031 
L 443.61 122.702573 
L 443.61 122.702573 
" clip-path="url(#pac8b8806bf)" style="fill: none; stroke: #9467bd; stroke-width: 1.5; stroke-linecap: square"/>
   </g>
   <g id="line2d_19">
    <path d="M 41.8 207.140102 
L 43.40724 193.600682 
L 45.01448 178.054964 
L 46.62172 166.879791 
L 48.22896 164.675924 
L 49.8362 172.491009 
L 51.44344 187.510462 
L 53.05068 204.306815 
L 54.65792 217.129784 
L 56.26516 222.270568 
L 57.8724 219.507666 
L 61.08688 205.010206 
L 62.69412 203.133217 
L 64.30136 208.65393 
L 65.9086 220.287825 
L 67.51584 233.69394 
L 69.12308 243.207177 
L 70.73032 244.106184 
L 72.33756 234.4811 
L 73.9448 215.973146 
L 77.15928 171.71988 
L 78.76652 156.710843 
L 80.37376 150.701783 
L 81.981 153.360131 
L 83.58824 161.940084 
L 85.19548 172.549077 
L 86.80272 181.599235 
L 88.40996 186.887038 
L 90.0172 187.993458 
L 91.62444 185.983558 
L 93.23168 182.689686 
L 94.83892 179.927548 
L 96.44616 178.911668 
L 98.0534 180.004932 
L 99.66064 182.772114 
L 101.26788 186.186845 
L 102.87512 188.902616 
L 104.48236 189.54988 
L 106.0896 187.037496 
L 107.69684 180.877585 
L 109.30408 171.502199 
L 112.51856 150.083097 
L 114.1258 143.390326 
L 115.73304 142.911738 
L 117.34028 150.051099 
L 118.94752 164.445936 
L 120.55476 183.913608 
L 122.162 204.963658 
L 123.76924 223.744876 
L 125.37648 237.081289 
L 126.98372 243.219775 
L 128.59096 242.052912 
L 130.1982 234.80952 
L 131.80544 223.424068 
L 136.62716 182.334904 
L 138.2344 170.71057 
L 139.84164 162.107519 
L 141.44888 157.803757 
L 143.05612 158.739565 
L 144.66336 164.91167 
L 146.2706 174.883093 
L 147.87784 185.736819 
L 149.48508 193.654425 
L 151.09232 195.019805 
L 152.69956 187.702767 
L 154.3068 172.006624 
L 157.52128 129.101093 
L 159.12852 112.074914 
L 160.73576 103.987495 
L 162.343 106.634756 
L 163.95024 118.908256 
L 165.55748 137.267531 
L 167.16472 156.931118 
L 168.77196 173.350454 
L 170.3792 183.46484 
L 171.98644 186.33634 
L 173.59368 183.057659 
L 175.20092 176.076033 
L 176.80816 168.215424 
L 178.4154 161.795584 
L 180.02264 158.083211 
L 181.62988 157.174799 
L 183.23712 158.289283 
L 186.4516 162.136423 
L 188.05884 163.447481 
L 189.66608 164.517033 
L 191.27332 166.284334 
L 192.88056 169.955827 
L 194.4878 176.491057 
L 196.09504 186.083923 
L 199.30952 209.572319 
L 200.91676 218.511599 
L 202.524 221.746469 
L 204.13124 217.345896 
L 205.73848 205.153519 
L 207.34572 187.128434 
L 208.95296 167.039198 
L 210.5602 149.48534 
L 212.16744 138.516217 
L 213.77468 136.341035 
L 215.38192 142.607377 
L 216.98916 154.529082 
L 218.5964 167.869853 
L 220.20364 178.435317 
L 221.81088 183.513307 
L 223.41812 182.723942 
L 225.02536 177.951011 
L 226.6326 172.39032 
L 228.23984 169.118654 
L 229.84708 169.757052 
L 231.45432 173.769323 
L 233.06156 178.666594 
L 234.6688 181.011953 
L 236.27604 177.820677 
L 237.88328 167.805042 
L 239.49052 151.956545 
L 242.705 115.474899 
L 244.31224 102.187996 
L 245.91948 95.367783 
L 247.52672 95.056829 
L 249.13396 99.626657 
L 252.34844 113.92114 
L 253.95568 120.194881 
L 260.38464 141.351295 
L 261.99188 147.168859 
L 263.59912 151.507444 
L 265.20636 152.874178 
L 266.8136 150.480016 
L 268.42084 144.774046 
L 270.02808 137.474937 
L 271.63532 131.031211 
L 273.24256 127.747626 
L 274.8498 128.926427 
L 276.45704 134.368237 
L 279.67152 150.902499 
L 281.27876 157.547016 
L 282.886 161.400222 
L 284.49324 162.98915 
L 286.10048 164.172563 
L 287.70772 167.362617 
L 289.31496 174.473659 
L 290.9222 186.025549 
L 294.13668 215.850354 
L 295.74392 227.854318 
L 297.35116 233.727092 
L 298.9584 231.857176 
L 300.56564 222.576347 
L 302.17288 208.041858 
L 303.78012 191.549594 
L 305.38736 176.550531 
L 306.9946 165.720623 
L 308.60184 160.347512 
L 310.20908 160.157313 
L 311.81632 163.589049 
L 313.42356 168.387694 
L 315.0308 172.287035 
L 316.63804 173.594636 
L 318.24528 171.572568 
L 319.85252 166.529112 
L 323.067 152.651808 
L 324.67424 147.324287 
L 326.28148 145.09082 
L 327.88872 146.646068 
L 329.49596 151.817377 
L 331.1032 159.671206 
L 334.31768 177.931576 
L 335.92492 185.905434 
L 337.53216 192.250677 
L 339.1394 196.935512 
L 340.74664 200.130878 
L 342.35388 201.889172 
L 343.96112 201.980735 
L 345.56836 200.031719 
L 347.1756 195.909562 
L 350.39008 184.418719 
L 351.99732 181.028976 
L 353.60456 182.629512 
L 355.2118 191.041067 
L 356.81904 206.317583 
L 360.03352 246.653942 
L 361.64076 262.436869 
L 363.248 269.155759 
L 364.85524 264.518642 
L 366.46248 249.240861 
L 368.06972 226.873099 
L 369.67696 202.645927 
L 371.2842 181.733544 
L 372.89144 167.589503 
L 374.49868 160.970867 
L 376.10592 160.001709 
L 377.71316 161.189158 
L 379.3204 160.951017 
L 380.92764 157.00773 
L 382.53488 149.10536 
L 385.74936 128.754418 
L 387.3566 121.163925 
L 388.96384 117.245635 
L 390.57108 116.752058 
L 392.17832 118.415221 
L 395.3928 122.98047 
L 397.00004 125.17803 
L 398.60728 128.315489 
L 400.21452 133.52727 
L 401.82176 141.412538 
L 403.429 151.582813 
L 405.03624 162.710618 
L 406.64348 173.034796 
L 408.25072 181.075654 
L 409.85796 186.215735 
L 411.4652 188.843946 
L 413.07244 190.019686 
L 414.67968 190.842178 
L 417.89416 192.716938 
L 419.5014 192.518663 
L 421.10864 190.25539 
L 422.71588 185.578845 
L 425.93036 173.017798 
L 427.5376 169.183799 
L 429.14484 169.65276 
L 430.75208 175.179457 
L 432.35932 184.898488 
L 433.96656 196.452565 
L 435.5738 206.664888 
L 437.18104 212.508499 
L 438.78828 212.049517 
L 440.39552 205.049206 
L 442.00276 193.024262 
L 443.61 178.78784 
L 443.61 178.78784 
" clip-path="url(#pac8b8806bf)" style="fill: none; stroke: #8c564b; stroke-width: 1.5; stroke-linecap: square"/>
   </g>
   <g id="line2d_20">
    <path d="M 41.8 143.724553 
L 43.40724 146.860417 
L 45.01448 148.216362 
L 46.62172 146.855262 
L 48.22896 142.429624 
L 49.8362 135.450573 
L 51.44344 127.283227 
L 53.05068 119.800273 
L 54.65792 114.769449 
L 56.26516 113.188197 
L 57.8724 114.8432 
L 59.47964 118.297904 
L 61.08688 121.372607 
L 62.69412 121.966709 
L 64.30136 118.925973 
L 65.9086 112.602966 
L 67.51584 104.860625 
L 69.12308 98.478238 
L 70.73032 96.15714 
L 72.33756 99.508421 
L 73.9448 108.406428 
L 77.15928 134.247056 
L 78.76652 145.158903 
L 80.37376 151.642711 
L 81.981 153.248442 
L 83.58824 151.172721 
L 85.19548 147.680333 
L 86.80272 145.175625 
L 88.40996 145.311311 
L 90.0172 148.464132 
L 91.62444 153.756383 
L 93.23168 159.55665 
L 94.83892 164.216525 
L 96.44616 166.714954 
L 98.0534 166.955486 
L 99.66064 165.63323 
L 101.26788 163.793967 
L 102.87512 162.313299 
L 104.48236 161.542283 
L 107.69684 160.950629 
L 109.30408 160.107123 
L 110.91132 158.58581 
L 114.1258 154.659991 
L 117.34028 151.270948 
L 118.94752 148.964483 
L 120.55476 145.081879 
L 122.162 138.930193 
L 123.76924 130.554716 
L 125.37648 121.010538 
L 126.98372 112.237575 
L 128.59096 106.519396 
L 130.1982 105.711855 
L 131.80544 110.510922 
L 133.41268 120.050347 
L 136.62716 143.252386 
L 138.2344 150.725068 
L 139.84164 152.448067 
L 141.44888 148.128764 
L 143.05612 139.275778 
L 144.66336 128.749482 
L 146.2706 119.901258 
L 147.87784 115.583472 
L 149.48508 117.346575 
L 151.09232 125.053248 
L 152.69956 137.004948 
L 154.3068 150.506182 
L 155.91404 162.653838 
L 157.52128 171.10405 
L 159.12852 174.611027 
L 160.73576 173.203719 
L 162.343 167.997913 
L 165.55748 153.295136 
L 167.16472 147.121451 
L 168.77196 143.039075 
L 170.3792 141.138095 
L 171.98644 140.922602 
L 175.20092 142.281293 
L 176.80816 142.413916 
L 178.4154 141.730706 
L 180.02264 140.357457 
L 181.62988 138.691259 
L 183.23712 137.220404 
L 184.84436 136.327791 
L 186.4516 136.128441 
L 189.66608 136.5665 
L 191.27332 136.027686 
L 192.88056 134.277923 
L 194.4878 131.228619 
L 197.70228 123.572471 
L 199.30952 121.175515 
L 200.91676 121.277912 
L 202.524 124.477046 
L 204.13124 130.530112 
L 207.34572 145.971441 
L 208.95296 151.641697 
L 210.5602 153.84953 
L 212.16744 152.113666 
L 213.77468 147.12671 
L 215.38192 140.565575 
L 216.98916 134.566938 
L 218.5964 131.037848 
L 220.20364 131.04221 
L 221.81088 134.490099 
L 223.41812 140.240337 
L 225.02536 146.571466 
L 226.6326 151.847319 
L 228.23984 155.115254 
L 229.84708 156.425616 
L 231.45432 156.764302 
L 233.06156 157.633921 
L 234.6688 160.448136 
L 236.27604 165.978768 
L 237.88328 174.052796 
L 241.09776 192.99607 
L 242.705 200.606397 
L 244.31224 205.225357 
L 245.91948 206.365923 
L 247.52672 204.265282 
L 249.13396 199.669957 
L 250.7412 193.519256 
L 255.56292 173.147085 
L 257.17016 167.264009 
L 258.7774 162.477755 
L 260.38464 159.258394 
L 261.99188 158.047374 
L 263.59912 159.079215 
L 265.20636 162.211894 
L 266.8136 166.861843 
L 268.42084 172.109857 
L 270.02808 176.950408 
L 271.63532 180.601158 
L 273.24256 182.755998 
L 274.8498 183.654797 
L 276.45704 183.942956 
L 278.06428 184.363426 
L 279.67152 185.403755 
L 282.886 188.78037 
L 284.49324 189.722973 
L 286.10048 189.065635 
L 287.70772 186.411742 
L 289.31496 182.018158 
L 290.9222 176.779576 
L 292.52944 171.960049 
L 294.13668 168.782542 
L 295.74392 168.029552 
L 297.35116 169.811199 
L 298.9584 173.592546 
L 303.78012 188.135062 
L 305.38736 192.235838 
L 311.81632 207.219835 
L 313.42356 209.978116 
L 315.0308 211.230874 
L 316.63804 210.580973 
L 318.24528 208.134575 
L 323.067 197.434322 
L 324.67424 195.239608 
L 326.28148 193.933245 
L 327.88872 192.910913 
L 329.49596 191.461461 
L 331.1032 189.168876 
L 334.31768 183.142823 
L 335.92492 181.002507 
L 337.53216 180.457245 
L 339.1394 181.60863 
L 342.35388 186.001293 
L 343.96112 186.960825 
L 345.56836 186.025468 
L 347.1756 183.279038 
L 350.39008 175.826495 
L 351.99732 173.037199 
L 353.60456 171.237618 
L 355.2118 169.671227 
L 356.81904 167.052063 
L 358.42628 162.212053 
L 360.03352 154.796634 
L 363.248 136.962409 
L 364.85524 131.294717 
L 366.46248 131.09222 
L 368.06972 137.615207 
L 369.67696 150.456574 
L 374.49868 201.790744 
L 376.10592 212.91874 
L 377.71316 217.854201 
L 379.3204 216.778159 
L 380.92764 211.117118 
L 384.14212 194.601921 
L 385.74936 187.688534 
L 387.3566 183.257821 
L 388.96384 181.50988 
L 390.57108 181.952786 
L 393.78556 185.307658 
L 395.3928 185.914488 
L 397.00004 184.66468 
L 398.60728 181.354137 
L 400.21452 176.433757 
L 401.82176 170.912649 
L 403.429 166.071046 
L 405.03624 163.049908 
L 406.64348 162.442979 
L 408.25072 164.056667 
L 411.4652 169.767284 
L 413.07244 171.291037 
L 414.67968 170.911653 
L 416.28692 168.900777 
L 417.89416 166.298667 
L 419.5014 164.461662 
L 421.10864 164.464239 
L 422.71588 166.609028 
L 425.93036 174.151057 
L 427.5376 176.888156 
L 429.14484 177.658872 
L 430.75208 176.601895 
L 432.35932 174.801986 
L 433.96656 173.828935 
L 435.5738 175.020268 
L 437.18104 178.8343 
L 440.39552 190.550214 
L 442.00276 194.850691 
L 443.61 196.045129 
L 443.61 196.045129 
" clip-path="url(#pac8b8806bf)" style="fill: none; stroke: #e377c2; stroke-width: 1.5; stroke-linecap: square"/>
   </g>
   <g id="line2d_21">
    <path d="M 41.8 126.917697 
L 43.40724 143.231499 
L 45.01448 158.354744 
L 46.62172 166.076635 
L 48.22896 163.242363 
L 49.8362 150.845904 
L 51.44344 133.506574 
L 53.05068 117.620471 
L 54.65792 108.909657 
L 56.26516 110.333972 
L 57.8724 121.139409 
L 61.08688 153.318378 
L 62.69412 163.960928 
L 64.30136 166.479845 
L 65.9086 161.260154 
L 69.12308 141.840569 
L 70.73032 136.589872 
L 72.33756 138.11241 
L 73.9448 146.087203 
L 77.15928 168.9722 
L 78.76652 175.800015 
L 80.37376 175.772836 
L 81.981 168.680421 
L 83.58824 156.449478 
L 85.19548 142.342052 
L 86.80272 129.782945 
L 88.40996 121.239453 
L 90.0172 117.533581 
L 91.62444 117.865547 
L 94.83892 123.069881 
L 96.44616 124.518244 
L 98.0534 124.506533 
L 99.66064 123.924871 
L 101.26788 124.283802 
L 102.87512 126.959915 
L 104.48236 132.500885 
L 107.69684 148.463151 
L 109.30408 154.738724 
L 110.91132 156.976753 
L 112.51856 154.142209 
L 114.1258 146.723587 
L 117.34028 127.033441 
L 118.94752 120.708718 
L 120.55476 119.839967 
L 122.162 124.951974 
L 123.76924 134.742651 
L 125.37648 146.405604 
L 126.98372 156.475829 
L 128.59096 161.912406 
L 130.1982 161.000257 
L 131.80544 153.80475 
L 133.41268 142.134256 
L 135.01992 128.972801 
L 136.62716 117.595895 
L 138.2344 110.679247 
L 139.84164 109.617843 
L 141.44888 114.297447 
L 143.05612 123.325141 
L 146.2706 145.529514 
L 147.87784 154.330862 
L 149.48508 159.568619 
L 151.09232 160.631415 
L 152.69956 157.589099 
L 154.3068 151.072956 
L 155.91404 142.185829 
L 157.52128 132.43497 
L 159.12852 123.59594 
L 160.73576 117.464209 
L 162.343 115.495855 
L 163.95024 118.414136 
L 165.55748 125.846066 
L 168.77196 147.206003 
L 170.3792 156.088992 
L 171.98644 160.786742 
L 173.59368 160.401871 
L 175.20092 155.583854 
L 176.80816 148.444096 
L 178.4154 141.940032 
L 180.02264 138.937919 
L 181.62988 141.279965 
L 183.23712 149.190007 
L 184.84436 161.195478 
L 186.4516 174.524782 
L 188.05884 185.900198 
L 189.66608 192.417965 
L 191.27332 192.288172 
L 192.88056 185.211801 
L 194.4878 172.35032 
L 199.30952 124.20575 
L 200.91676 113.876558 
L 202.524 109.295443 
L 204.13124 110.590259 
L 205.73848 116.742643 
L 208.95296 135.068115 
L 210.5602 142.079669 
L 212.16744 144.83563 
L 213.77468 142.544283 
L 215.38192 135.89946 
L 218.5964 118.643608 
L 220.20364 113.745082 
L 221.81088 114.075259 
L 223.41812 119.736027 
L 226.6326 138.95432 
L 228.23984 146.203831 
L 229.84708 148.310143 
L 231.45432 144.612972 
L 233.06156 136.56985 
L 234.6688 127.308884 
L 236.27604 120.66917 
L 237.88328 119.919583 
L 239.49052 126.657317 
L 241.09776 140.217028 
L 244.31224 175.22645 
L 245.91948 188.284177 
L 247.52672 193.809504 
L 249.13396 190.582156 
L 250.7412 179.522069 
L 252.34844 163.305061 
L 253.95568 145.525404 
L 255.56292 129.671855 
L 257.17016 118.258612 
L 258.7774 112.369619 
L 260.38464 111.678186 
L 261.99188 114.818947 
L 263.59912 120.005373 
L 265.20636 125.606726 
L 266.8136 130.547037 
L 268.42084 134.453776 
L 270.02808 137.537036 
L 273.24256 143.207534 
L 276.45704 149.520559 
L 278.06428 152.071906 
L 279.67152 153.388503 
L 281.27876 152.974436 
L 282.886 150.606686 
L 284.49324 146.364999 
L 286.10048 140.587426 
L 290.9222 119.824925 
L 292.52944 114.227961 
L 294.13668 110.564534 
L 295.74392 109.287235 
L 297.35116 110.334114 
L 300.56564 115.653595 
L 302.17288 116.711041 
L 303.78012 114.66763 
L 305.38736 109.221649 
L 306.9946 101.700074 
L 308.60184 95.011861 
L 310.20908 92.972835 
L 311.81632 99.013073 
L 313.42356 114.704751 
L 315.0308 138.727855 
L 316.63804 166.76642 
L 318.24528 192.476905 
L 319.85252 209.399647 
L 321.45976 213.14568 
L 323.067 203.071935 
L 324.67424 182.809993 
L 326.28148 159.336904 
L 327.88872 140.844189 
L 329.49596 134.08183 
L 331.1032 142.119508 
L 332.71044 163.266478 
L 335.92492 218.288252 
L 337.53216 235.131955 
L 339.1394 236.1461 
L 340.74664 219.77707 
L 342.35388 189.20634 
L 345.56836 115.399905 
L 347.1756 89.701415 
L 348.78284 80.336958 
L 350.39008 89.248326 
L 351.99732 113.887847 
L 355.2118 182.523335 
L 356.81904 209.24131 
L 358.42628 221.615887 
L 360.03352 217.199585 
L 361.64076 198.173177 
L 364.85524 143.151237 
L 366.46248 123.41812 
L 368.06972 116.630602 
L 369.67696 123.604443 
L 371.2842 140.803385 
L 372.89144 161.77239 
L 374.49868 179.536224 
L 376.10592 189.093995 
L 377.71316 189.003751 
L 379.3204 181.493623 
L 380.92764 171.145195 
L 382.53488 162.794448 
L 384.14212 159.535347 
L 385.74936 161.677885 
L 388.96384 172.260376 
L 390.57108 174.598768 
L 392.17832 173.116664 
L 393.78556 168.879498 
L 395.3928 164.059185 
L 397.00004 160.519946 
L 398.60728 158.733412 
L 400.21452 157.551329 
L 401.82176 154.993961 
L 403.429 149.678623 
L 406.64348 134.646305 
L 408.25072 131.167936 
L 409.85796 134.56055 
L 411.4652 145.291853 
L 414.67968 174.851017 
L 416.28692 182.417369 
L 417.89416 179.681159 
L 419.5014 167.36159 
L 421.10864 150.650193 
L 422.71588 137.369259 
L 424.32312 134.782126 
L 425.93036 146.309155 
L 427.5376 169.65089 
L 429.14484 197.241876 
L 430.75208 219.042139 
L 432.35932 226.559372 
L 433.96656 216.450643 
L 435.5738 192.148085 
L 437.18104 162.776263 
L 438.78828 139.766926 
L 440.39552 132.418882 
L 442.00276 144.18362 
L 443.61 171.170826 
L 443.61 171.170826 
" clip-path="url(#pac8b8806bf)" style="fill: none; stroke: #7f7f7f; stroke-width: 1.5; stroke-linecap: square"/>
   </g>
   <g id="line2d_22">
    <path d="M 41.8 204.380495 
L 43.40724 203.407303 
L 45.01448 202.208172 
L 46.62172 200.409721 
L 48.22896 197.461966 
L 49.8362 192.979636 
L 51.44344 186.987496 
L 56.26516 166.218151 
L 57.8724 160.970561 
L 59.47964 157.272751 
L 61.08688 154.997984 
L 62.69412 153.813884 
L 64.30136 153.37519 
L 65.9086 153.465179 
L 67.51584 154.002893 
L 69.12308 154.950808 
L 72.33756 157.424444 
L 73.9448 158.299173 
L 75.55204 158.522339 
L 77.15928 158.076073 
L 78.76652 157.298323 
L 80.37376 156.780181 
L 81.981 157.090599 
L 83.58824 158.477088 
L 86.80272 163.092935 
L 88.40996 164.825368 
L 90.0172 165.306551 
L 91.62444 164.533334 
L 93.23168 163.17835 
L 94.83892 162.352711 
L 96.44616 163.118833 
L 98.0534 165.958964 
L 99.66064 170.443952 
L 101.26788 175.317697 
L 102.87512 178.962581 
L 104.48236 180.031807 
L 106.0896 178.021469 
L 107.69684 173.52284 
L 109.30408 167.972801 
L 110.91132 163.036597 
L 112.51856 159.893342 
L 114.1258 158.744862 
L 117.34028 158.825715 
L 118.94752 157.727407 
L 120.55476 155.382603 
L 122.162 152.792082 
L 123.76924 151.756863 
L 125.37648 154.067853 
L 126.98372 160.57287 
L 128.59096 170.513363 
L 130.1982 181.505085 
L 131.80544 190.216858 
L 133.41268 193.518974 
L 135.01992 189.679682 
L 136.62716 179.093982 
L 139.84164 148.854882 
L 141.44888 136.663093 
L 143.05612 130.143571 
L 144.66336 129.819468 
L 146.2706 134.314631 
L 149.48508 147.577165 
L 151.09232 152.119622 
L 152.69956 154.519314 
L 154.3068 155.792894 
L 155.91404 157.416632 
L 157.52128 160.427682 
L 160.73576 169.342888 
L 162.343 172.350569 
L 163.95024 172.349922 
L 165.55748 168.953448 
L 168.77196 157.164549 
L 170.3792 153.292084 
L 171.98644 153.232321 
L 173.59368 157.183858 
L 176.80816 170.426395 
L 178.4154 174.736506 
L 180.02264 175.139441 
L 181.62988 171.758853 
L 183.23712 166.322191 
L 184.84436 161.422894 
L 186.4516 159.420728 
L 188.05884 161.433273 
L 189.66608 166.825437 
L 191.27332 173.398105 
L 192.88056 178.24787 
L 194.4878 178.932502 
L 196.09504 174.461905 
L 197.70228 165.77239 
L 199.30952 155.479699 
L 200.91676 146.998235 
L 202.524 143.35539 
L 204.13124 146.141011 
L 205.73848 154.950929 
L 208.95296 180.557208 
L 210.5602 190.677935 
L 212.16744 195.538965 
L 213.77468 194.36122 
L 215.38192 187.986968 
L 216.98916 178.408181 
L 218.5964 168.0046 
L 220.20364 158.773205 
L 221.81088 151.823769 
L 223.41812 147.286174 
L 225.02536 144.586402 
L 226.6326 142.960543 
L 228.23984 141.938708 
L 229.84708 141.624238 
L 231.45432 142.665261 
L 233.06156 145.930761 
L 234.6688 152.02182 
L 236.27604 160.867783 
L 239.49052 182.504808 
L 241.09776 191.785486 
L 242.705 197.803971 
L 244.31224 199.735637 
L 245.91948 197.751068 
L 247.52672 192.920975 
L 250.7412 181.046619 
L 252.34844 176.63186 
L 253.95568 173.91948 
L 255.56292 172.56402 
L 257.17016 171.822585 
L 258.7774 170.930863 
L 260.38464 169.397138 
L 261.99188 167.105276 
L 263.59912 164.251721 
L 266.8136 158.123914 
L 268.42084 155.344404 
L 270.02808 152.968157 
L 271.63532 151.182371 
L 273.24256 150.24467 
L 274.8498 150.347791 
L 276.45704 151.415986 
L 278.06428 152.915646 
L 279.67152 153.840468 
L 281.27876 152.977956 
L 282.886 149.404777 
L 284.49324 143.072576 
L 286.10048 135.177047 
L 287.70772 128.061931 
L 289.31496 124.601646 
L 290.9222 127.187498 
L 292.52944 136.697653 
L 294.13668 151.882376 
L 295.74392 169.469359 
L 297.35116 185.056336 
L 298.9584 194.549577 
L 300.56564 195.595349 
L 302.17288 188.436936 
L 303.78012 175.841892 
L 305.38736 162.110519 
L 306.9946 151.512617 
L 308.60184 146.76586 
L 310.20908 148.150084 
L 311.81632 153.578589 
L 313.42356 159.60292 
L 315.0308 162.910006 
L 316.63804 161.677656 
L 318.24528 156.24703 
L 319.85252 148.913296 
L 321.45976 142.912398 
L 323.067 141.069159 
L 324.67424 144.64853 
L 326.28148 152.869919 
L 327.88872 163.250941 
L 329.49596 172.562667 
L 331.1032 178.013016 
L 332.71044 178.179299 
L 334.31768 173.370592 
L 335.92492 165.3429 
L 337.53216 156.530979 
L 339.1394 149.173351 
L 340.74664 144.616926 
L 342.35388 143.027139 
L 343.96112 143.530621 
L 345.56836 144.705374 
L 347.1756 145.177501 
L 348.78284 144.153439 
L 350.39008 141.683547 
L 351.99732 138.605449 
L 353.60456 136.216312 
L 355.2118 135.803413 
L 356.81904 138.152836 
L 358.42628 143.218285 
L 361.64076 157.196575 
L 363.248 162.934468 
L 364.85524 166.146145 
L 366.46248 166.667016 
L 369.67696 164.294979 
L 371.2842 165.124339 
L 372.89144 169.226639 
L 374.49868 176.620504 
L 377.71316 194.752748 
L 379.3204 200.649337 
L 380.92764 201.997554 
L 382.53488 198.719883 
L 384.14212 192.334903 
L 385.74936 185.380176 
L 387.3566 180.425122 
L 388.96384 179.077916 
L 390.57108 181.404821 
L 393.78556 190.723886 
L 395.3928 193.511152 
L 397.00004 193.288137 
L 398.60728 190.171504 
L 400.21452 185.199999 
L 403.429 174.490245 
L 406.64348 164.903616 
L 408.25072 159.311064 
L 413.07244 139.806612 
L 414.67968 136.026089 
L 416.28692 135.411084 
L 417.89416 137.931522 
L 419.5014 142.641141 
L 421.10864 148.131221 
L 422.71588 153.158943 
L 424.32312 157.134558 
L 425.93036 160.158311 
L 427.5376 162.565622 
L 429.14484 164.288319 
L 430.75208 164.448013 
L 432.35932 161.523977 
L 433.96656 154.112656 
L 435.5738 141.978748 
L 438.78828 112.679309 
L 440.39552 104.369783 
L 442.00276 106.418905 
L 443.61 120.895949 
L 443.61 120.895949 
" clip-path="url(#pac8b8806bf)" style="fill: none; stroke: #bcbd22; stroke-width: 1.5; stroke-linecap: square"/>
   </g>
   <g id="patch_3">
    <path d="M 41.8 311.52 
L 41.8 25.44 
" style="fill: none; stroke: #000000; stroke-width: 0.8; stroke-linejoin: miter; stroke-linecap: square"/>
   </g>
   <g id="patch_4">
    <path d="M 443.61 311.52 
L 443.61 25.44 
" style="fill: none; stroke: #000000; stroke-width: 0.8; stroke-linejoin: miter; stroke-linecap: square"/>
   </g>
   <g id="patch_5">
    <path d="M 41.8 311.52 
L 443.61 311.52 
" style="fill: none; stroke: #000000; stroke-width: 0.8; stroke-linejoin: miter; stroke-linecap: square"/>
   </g>
   <g id="patch_6">
    <path d="M 41.8 25.44 
L 443.61 25.44 
" style="fill: none; stroke: #000000; stroke-width: 0.8; stroke-linejoin: miter; stroke-linecap: square"/>
   </g>
   <g id="text_16">
    <!-- Preprocessed EEG Data MATB-Difficult -->
    <g transform="translate(128.274687 19.44) scale(0.12 -0.12)">
     <defs>
      <path id="DejaVuSans-50" d="M 1259 4147 
L 1259 2394 
L 2053 2394 
Q 2494 2394 2734 2622 
Q 2975 2850 2975 3272 
Q 2975 3691 2734 3919 
Q 2494 4147 2053 4147 
L 1259 4147 
z
M 628 4666 
L 2053 4666 
Q 2838 4666 3239 4311 
Q 3641 3956 3641 3272 
Q 3641 2581 3239 2228 
Q 2838 1875 2053 1875 
L 1259 1875 
L 1259 0 
L 628 0 
L 628 4666 
z
" transform="scale(0.015625)"/>
      <path id="DejaVuSans-72" d="M 2631 2963 
Q 2534 3019 2420 3045 
Q 2306 3072 2169 3072 
Q 1681 3072 1420 2755 
Q 1159 2438 1159 1844 
L 1159 0 
L 581 0 
L 581 3500 
L 1159 3500 
L 1159 2956 
Q 1341 3275 1631 3429 
Q 1922 3584 2338 3584 
Q 2397 3584 2469 3576 
Q 2541 3569 2628 3553 
L 2631 2963 
z
" transform="scale(0.015625)"/>
      <path id="DejaVuSans-70" d="M 1159 525 
L 1159 -1331 
L 581 -1331 
L 581 3500 
L 1159 3500 
L 1159 2969 
Q 1341 3281 1617 3432 
Q 1894 3584 2278 3584 
Q 2916 3584 3314 3078 
Q 3713 2572 3713 1747 
Q 3713 922 3314 415 
Q 2916 -91 2278 -91 
Q 1894 -91 1617 61 
Q 1341 213 1159 525 
z
M 3116 1747 
Q 3116 2381 2855 2742 
Q 2594 3103 2138 3103 
Q 1681 3103 1420 2742 
Q 1159 2381 1159 1747 
Q 1159 1113 1420 752 
Q 1681 391 2138 391 
Q 2594 391 2855 752 
Q 3116 1113 3116 1747 
z
" transform="scale(0.015625)"/>
      <path id="DejaVuSans-63" d="M 3122 3366 
L 3122 2828 
Q 2878 2963 2633 3030 
Q 2388 3097 2138 3097 
Q 1578 3097 1268 2742 
Q 959 2388 959 1747 
Q 959 1106 1268 751 
Q 1578 397 2138 397 
Q 2388 397 2633 464 
Q 2878 531 3122 666 
L 3122 134 
Q 2881 22 2623 -34 
Q 2366 -91 2075 -91 
Q 1284 -91 818 406 
Q 353 903 353 1747 
Q 353 2603 823 3093 
Q 1294 3584 2113 3584 
Q 2378 3584 2631 3529 
Q 2884 3475 3122 3366 
z
" transform="scale(0.015625)"/>
      <path id="DejaVuSans-64" d="M 2906 2969 
L 2906 4863 
L 3481 4863 
L 3481 0 
L 2906 0 
L 2906 525 
Q 2725 213 2448 61 
Q 2172 -91 1784 -91 
Q 1150 -91 751 415 
Q 353 922 353 1747 
Q 353 2572 751 3078 
Q 1150 3584 1784 3584 
Q 2172 3584 2448 3432 
Q 2725 3281 2906 2969 
z
M 947 1747 
Q 947 1113 1208 752 
Q 1469 391 1925 391 
Q 2381 391 2643 752 
Q 2906 1113 2906 1747 
Q 2906 2381 2643 2742 
Q 2381 3103 1925 3103 
Q 1469 3103 1208 2742 
Q 947 2381 947 1747 
z
" transform="scale(0.015625)"/>
      <path id="DejaVuSans-45" d="M 628 4666 
L 3578 4666 
L 3578 4134 
L 1259 4134 
L 1259 2753 
L 3481 2753 
L 3481 2222 
L 1259 2222 
L 1259 531 
L 3634 531 
L 3634 0 
L 628 0 
L 628 4666 
z
" transform="scale(0.015625)"/>
      <path id="DejaVuSans-47" d="M 3809 666 
L 3809 1919 
L 2778 1919 
L 2778 2438 
L 4434 2438 
L 4434 434 
Q 4069 175 3628 42 
Q 3188 -91 2688 -91 
Q 1594 -91 976 548 
Q 359 1188 359 2328 
Q 359 3472 976 4111 
Q 1594 4750 2688 4750 
Q 3144 4750 3555 4637 
Q 3966 4525 4313 4306 
L 4313 3634 
Q 3963 3931 3569 4081 
Q 3175 4231 2741 4231 
Q 1884 4231 1454 3753 
Q 1025 3275 1025 2328 
Q 1025 1384 1454 906 
Q 1884 428 2741 428 
Q 3075 428 3337 486 
Q 3600 544 3809 666 
z
" transform="scale(0.015625)"/>
      <path id="DejaVuSans-44" d="M 1259 4147 
L 1259 519 
L 2022 519 
Q 2988 519 3436 956 
Q 3884 1394 3884 2338 
Q 3884 3275 3436 3711 
Q 2988 4147 2022 4147 
L 1259 4147 
z
M 628 4666 
L 1925 4666 
Q 3281 4666 3915 4102 
Q 4550 3538 4550 2338 
Q 4550 1131 3912 565 
Q 3275 0 1925 0 
L 628 0 
L 628 4666 
z
" transform="scale(0.015625)"/>
      <path id="DejaVuSans-4d" d="M 628 4666 
L 1569 4666 
L 2759 1491 
L 3956 4666 
L 4897 4666 
L 4897 0 
L 4281 0 
L 4281 4097 
L 3078 897 
L 2444 897 
L 1241 4097 
L 1241 0 
L 628 0 
L 628 4666 
z
" transform="scale(0.015625)"/>
      <path id="DejaVuSans-41" d="M 2188 4044 
L 1331 1722 
L 3047 1722 
L 2188 4044 
z
M 1831 4666 
L 2547 4666 
L 4325 0 
L 3669 0 
L 3244 1197 
L 1141 1197 
L 716 0 
L 50 0 
L 1831 4666 
z
" transform="scale(0.015625)"/>
      <path id="DejaVuSans-42" d="M 1259 2228 
L 1259 519 
L 2272 519 
Q 2781 519 3026 730 
Q 3272 941 3272 1375 
Q 3272 1813 3026 2020 
Q 2781 2228 2272 2228 
L 1259 2228 
z
M 1259 4147 
L 1259 2741 
L 2194 2741 
Q 2656 2741 2882 2914 
Q 3109 3088 3109 3444 
Q 3109 3797 2882 3972 
Q 2656 4147 2194 4147 
L 1259 4147 
z
M 628 4666 
L 2241 4666 
Q 2963 4666 3353 4366 
Q 3744 4066 3744 3513 
Q 3744 3084 3544 2831 
Q 3344 2578 2956 2516 
Q 3422 2416 3680 2098 
Q 3938 1781 3938 1306 
Q 3938 681 3513 340 
Q 3088 0 2303 0 
L 628 0 
L 628 4666 
z
" transform="scale(0.015625)"/>
      <path id="DejaVuSans-2d" d="M 313 2009 
L 1997 2009 
L 1997 1497 
L 313 1497 
L 313 2009 
z
" transform="scale(0.015625)"/>
      <path id="DejaVuSans-66" d="M 2375 4863 
L 2375 4384 
L 1825 4384 
Q 1516 4384 1395 4259 
Q 1275 4134 1275 3809 
L 1275 3500 
L 2222 3500 
L 2222 3053 
L 1275 3053 
L 1275 0 
L 697 0 
L 697 3053 
L 147 3053 
L 147 3500 
L 697 3500 
L 697 3744 
Q 697 4328 969 4595 
Q 1241 4863 1831 4863 
L 2375 4863 
z
" transform="scale(0.015625)"/>
      <path id="DejaVuSans-75" d="M 544 1381 
L 544 3500 
L 1119 3500 
L 1119 1403 
Q 1119 906 1312 657 
Q 1506 409 1894 409 
Q 2359 409 2629 706 
Q 2900 1003 2900 1516 
L 2900 3500 
L 3475 3500 
L 3475 0 
L 2900 0 
L 2900 538 
Q 2691 219 2414 64 
Q 2138 -91 1772 -91 
Q 1169 -91 856 284 
Q 544 659 544 1381 
z
M 1991 3584 
L 1991 3584 
z
" transform="scale(0.015625)"/>
     </defs>
     <use xlink:href="#DejaVuSans-50"/>
     <use xlink:href="#DejaVuSans-72" x="58.552734"/>
     <use xlink:href="#DejaVuSans-65" x="97.416016"/>
     <use xlink:href="#DejaVuSans-70" x="158.939453"/>
     <use xlink:href="#DejaVuSans-72" x="222.416016"/>
     <use xlink:href="#DejaVuSans-6f" x="261.279297"/>
     <use xlink:href="#DejaVuSans-63" x="322.460938"/>
     <use xlink:href="#DejaVuSans-65" x="377.441406"/>
     <use xlink:href="#DejaVuSans-73" x="438.964844"/>
     <use xlink:href="#DejaVuSans-73" x="491.064453"/>
     <use xlink:href="#DejaVuSans-65" x="543.164062"/>
     <use xlink:href="#DejaVuSans-64" x="604.6875"/>
     <use xlink:href="#DejaVuSans-20" x="668.164062"/>
     <use xlink:href="#DejaVuSans-45" x="699.951172"/>
     <use xlink:href="#DejaVuSans-45" x="763.134766"/>
     <use xlink:href="#DejaVuSans-47" x="826.318359"/>
     <use xlink:href="#DejaVuSans-20" x="903.808594"/>
     <use xlink:href="#DejaVuSans-44" x="935.595703"/>
     <use xlink:href="#DejaVuSans-61" x="1012.597656"/>
     <use xlink:href="#DejaVuSans-74" x="1073.876953"/>
     <use xlink:href="#DejaVuSans-61" x="1113.085938"/>
     <use xlink:href="#DejaVuSans-20" x="1174.365234"/>
     <use xlink:href="#DejaVuSans-4d" x="1206.152344"/>
     <use xlink:href="#DejaVuSans-41" x="1292.431641"/>
     <use xlink:href="#DejaVuSans-54" x="1353.089844"/>
     <use xlink:href="#DejaVuSans-42" x="1414.173828"/>
     <use xlink:href="#DejaVuSans-2d" x="1482.777344"/>
     <use xlink:href="#DejaVuSans-44" x="1518.861328"/>
     <use xlink:href="#DejaVuSans-69" x="1595.863281"/>
     <use xlink:href="#DejaVuSans-66" x="1623.646484"/>
     <use xlink:href="#DejaVuSans-66" x="1658.851562"/>
     <use xlink:href="#DejaVuSans-69" x="1694.056641"/>
     <use xlink:href="#DejaVuSans-63" x="1721.839844"/>
     <use xlink:href="#DejaVuSans-75" x="1776.820312"/>
     <use xlink:href="#DejaVuSans-6c" x="1840.199219"/>
     <use xlink:href="#DejaVuSans-74" x="1867.982422"/>
    </g>
   </g>
  </g>
 </g>
 <defs>
  <clipPath id="pac8b8806bf">
   <rect x="41.8" y="25.44" width="401.81" height="286.08"/>
  </clipPath>
 </defs>
</svg>
