<?xml version="1.0" encoding="utf-8" standalone="no"?>
<!DOCTYPE svg PUBLIC "-//W3C//DTD SVG 1.1//EN"
  "http://www.w3.org/Graphics/SVG/1.1/DTD/svg11.dtd">
<svg xmlns:xlink="http://www.w3.org/1999/xlink" width="460.8pt" height="345.6pt" viewBox="0 0 460.8 345.6" xmlns="http://www.w3.org/2000/svg" version="1.1">
 <metadata>
  <rdf:RDF xmlns:dc="http://purl.org/dc/elements/1.1/" xmlns:cc="http://creativecommons.org/ns#" xmlns:rdf="http://www.w3.org/1999/02/22-rdf-syntax-ns#">
   <cc:Work>
    <dc:type rdf:resource="http://purl.org/dc/dcmitype/StillImage"/>
    <dc:date>2024-04-25T23:53:22.581550</dc:date>
    <dc:format>image/svg+xml</dc:format>
    <dc:creator>
     <cc:Agent>
      <dc:title>Matplotlib v3.8.4, https://matplotlib.org/</dc:title>
     </cc:Agent>
    </dc:creator>
   </cc:Work>
  </rdf:RDF>
 </metadata>
 <defs>
  <style type="text/css">*{stroke-linejoin: round; stroke-linecap: butt}</style>
 </defs>
 <g id="figure_1">
  <g id="patch_1">
   <path d="M 0 345.6 
L 460.8 345.6 
L 460.8 0 
L 0 0 
z
" style="fill: #ffffff"/>
  </g>
  <g id="axes_1">
   <g id="patch_2">
    <path d="M 41.8 311.52 
L 443.61 311.52 
L 443.61 25.44 
L 41.8 25.44 
z
" style="fill: #ffffff"/>
   </g>
   <g id="matplotlib.axis_1">
    <g id="xtick_1">
     <g id="line2d_1">
      <defs>
       <path id="ma70de54f47" d="M 0 0 
L 0 2 
" style="stroke: #000000; stroke-width: 0.8"/>
      </defs>
      <g>
       <use xlink:href="#ma70de54f47" x="41.8" y="311.52" style="stroke: #000000; stroke-width: 0.8"/>
      </g>
     </g>
     <g id="text_1">
      <!-- 0.0 -->
      <g transform="translate(35.43875 320.59875) scale(0.08 -0.08)">
       <defs>
        <path id="DejaVuSans-30" d="M 2034 4250 
Q 1547 4250 1301 3770 
Q 1056 3291 1056 2328 
Q 1056 1369 1301 889 
Q 1547 409 2034 409 
Q 2525 409 2770 889 
Q 3016 1369 3016 2328 
Q 3016 3291 2770 3770 
Q 2525 4250 2034 4250 
z
M 2034 4750 
Q 2819 4750 3233 4129 
Q 3647 3509 3647 2328 
Q 3647 1150 3233 529 
Q 2819 -91 2034 -91 
Q 1250 -91 836 529 
Q 422 1150 422 2328 
Q 422 3509 836 4129 
Q 1250 4750 2034 4750 
z
" transform="scale(0.015625)"/>
        <path id="DejaVuSans-2e" d="M 684 794 
L 1344 794 
L 1344 0 
L 684 0 
L 684 794 
z
" transform="scale(0.015625)"/>
       </defs>
       <use xlink:href="#DejaVuSans-30"/>
       <use xlink:href="#DejaVuSans-2e" x="63.623047"/>
       <use xlink:href="#DejaVuSans-30" x="95.410156"/>
      </g>
     </g>
    </g>
    <g id="xtick_2">
     <g id="line2d_2">
      <g>
       <use xlink:href="#ma70de54f47" x="122.162" y="311.52" style="stroke: #000000; stroke-width: 0.8"/>
      </g>
     </g>
     <g id="text_2">
      <!-- 0.1 -->
      <g transform="translate(115.80075 320.59875) scale(0.08 -0.08)">
       <defs>
        <path id="DejaVuSans-31" d="M 794 531 
L 1825 531 
L 1825 4091 
L 703 3866 
L 703 4441 
L 1819 4666 
L 2450 4666 
L 2450 531 
L 3481 531 
L 3481 0 
L 794 0 
L 794 531 
z
" transform="scale(0.015625)"/>
       </defs>
       <use xlink:href="#DejaVuSans-30"/>
       <use xlink:href="#DejaVuSans-2e" x="63.623047"/>
       <use xlink:href="#DejaVuSans-31" x="95.410156"/>
      </g>
     </g>
    </g>
    <g id="xtick_3">
     <g id="line2d_3">
      <g>
       <use xlink:href="#ma70de54f47" x="202.524" y="311.52" style="stroke: #000000; stroke-width: 0.8"/>
      </g>
     </g>
     <g id="text_3">
      <!-- 0.2 -->
      <g transform="translate(196.16275 320.59875) scale(0.08 -0.08)">
       <defs>
        <path id="DejaVuSans-32" d="M 1228 531 
L 3431 531 
L 3431 0 
L 469 0 
L 469 531 
Q 828 903 1448 1529 
Q 2069 2156 2228 2338 
Q 2531 2678 2651 2914 
Q 2772 3150 2772 3378 
Q 2772 3750 2511 3984 
Q 2250 4219 1831 4219 
Q 1534 4219 1204 4116 
Q 875 4013 500 3803 
L 500 4441 
Q 881 4594 1212 4672 
Q 1544 4750 1819 4750 
Q 2544 4750 2975 4387 
Q 3406 4025 3406 3419 
Q 3406 3131 3298 2873 
Q 3191 2616 2906 2266 
Q 2828 2175 2409 1742 
Q 1991 1309 1228 531 
z
" transform="scale(0.015625)"/>
       </defs>
       <use xlink:href="#DejaVuSans-30"/>
       <use xlink:href="#DejaVuSans-2e" x="63.623047"/>
       <use xlink:href="#DejaVuSans-32" x="95.410156"/>
      </g>
     </g>
    </g>
    <g id="xtick_4">
     <g id="line2d_4">
      <g>
       <use xlink:href="#ma70de54f47" x="282.886" y="311.52" style="stroke: #000000; stroke-width: 0.8"/>
      </g>
     </g>
     <g id="text_4">
      <!-- 0.3 -->
      <g transform="translate(276.52475 320.59875) scale(0.08 -0.08)">
       <defs>
        <path id="DejaVuSans-33" d="M 2597 2516 
Q 3050 2419 3304 2112 
Q 3559 1806 3559 1356 
Q 3559 666 3084 287 
Q 2609 -91 1734 -91 
Q 1441 -91 1130 -33 
Q 819 25 488 141 
L 488 750 
Q 750 597 1062 519 
Q 1375 441 1716 441 
Q 2309 441 2620 675 
Q 2931 909 2931 1356 
Q 2931 1769 2642 2001 
Q 2353 2234 1838 2234 
L 1294 2234 
L 1294 2753 
L 1863 2753 
Q 2328 2753 2575 2939 
Q 2822 3125 2822 3475 
Q 2822 3834 2567 4026 
Q 2313 4219 1838 4219 
Q 1578 4219 1281 4162 
Q 984 4106 628 3988 
L 628 4550 
Q 988 4650 1302 4700 
Q 1616 4750 1894 4750 
Q 2613 4750 3031 4423 
Q 3450 4097 3450 3541 
Q 3450 3153 3228 2886 
Q 3006 2619 2597 2516 
z
" transform="scale(0.015625)"/>
       </defs>
       <use xlink:href="#DejaVuSans-30"/>
       <use xlink:href="#DejaVuSans-2e" x="63.623047"/>
       <use xlink:href="#DejaVuSans-33" x="95.410156"/>
      </g>
     </g>
    </g>
    <g id="xtick_5">
     <g id="line2d_5">
      <g>
       <use xlink:href="#ma70de54f47" x="363.248" y="311.52" style="stroke: #000000; stroke-width: 0.8"/>
      </g>
     </g>
     <g id="text_5">
      <!-- 0.4 -->
      <g transform="translate(356.88675 320.59875) scale(0.08 -0.08)">
       <defs>
        <path id="DejaVuSans-34" d="M 2419 4116 
L 825 1625 
L 2419 1625 
L 2419 4116 
z
M 2253 4666 
L 3047 4666 
L 3047 1625 
L 3713 1625 
L 3713 1100 
L 3047 1100 
L 3047 0 
L 2419 0 
L 2419 1100 
L 313 1100 
L 313 1709 
L 2253 4666 
z
" transform="scale(0.015625)"/>
       </defs>
       <use xlink:href="#DejaVuSans-30"/>
       <use xlink:href="#DejaVuSans-2e" x="63.623047"/>
       <use xlink:href="#DejaVuSans-34" x="95.410156"/>
      </g>
     </g>
    </g>
    <g id="xtick_6">
     <g id="line2d_6">
      <g>
       <use xlink:href="#ma70de54f47" x="443.61" y="311.52" style="stroke: #000000; stroke-width: 0.8"/>
      </g>
     </g>
     <g id="text_6">
      <!-- 0.5 -->
      <g transform="translate(437.24875 320.59875) scale(0.08 -0.08)">
       <defs>
        <path id="DejaVuSans-35" d="M 691 4666 
L 3169 4666 
L 3169 4134 
L 1269 4134 
L 1269 2991 
Q 1406 3038 1543 3061 
Q 1681 3084 1819 3084 
Q 2600 3084 3056 2656 
Q 3513 2228 3513 1497 
Q 3513 744 3044 326 
Q 2575 -91 1722 -91 
Q 1428 -91 1123 -41 
Q 819 9 494 109 
L 494 744 
Q 775 591 1075 516 
Q 1375 441 1709 441 
Q 2250 441 2565 725 
Q 2881 1009 2881 1497 
Q 2881 1984 2565 2268 
Q 2250 2553 1709 2553 
Q 1456 2553 1204 2497 
Q 953 2441 691 2322 
L 691 4666 
z
" transform="scale(0.015625)"/>
       </defs>
       <use xlink:href="#DejaVuSans-30"/>
       <use xlink:href="#DejaVuSans-2e" x="63.623047"/>
       <use xlink:href="#DejaVuSans-35" x="95.410156"/>
      </g>
     </g>
    </g>
    <g id="text_7">
     <!-- Time (s) -->
     <g transform="translate(222.376094 332.860937) scale(0.1 -0.1)">
      <defs>
       <path id="DejaVuSans-54" d="M -19 4666 
L 3928 4666 
L 3928 4134 
L 2272 4134 
L 2272 0 
L 1638 0 
L 1638 4134 
L -19 4134 
L -19 4666 
z
" transform="scale(0.015625)"/>
       <path id="DejaVuSans-69" d="M 603 3500 
L 1178 3500 
L 1178 0 
L 603 0 
L 603 3500 
z
M 603 4863 
L 1178 4863 
L 1178 4134 
L 603 4134 
L 603 4863 
z
" transform="scale(0.015625)"/>
       <path id="DejaVuSans-6d" d="M 3328 2828 
Q 3544 3216 3844 3400 
Q 4144 3584 4550 3584 
Q 5097 3584 5394 3201 
Q 5691 2819 5691 2113 
L 5691 0 
L 5113 0 
L 5113 2094 
Q 5113 2597 4934 2840 
Q 4756 3084 4391 3084 
Q 3944 3084 3684 2787 
Q 3425 2491 3425 1978 
L 3425 0 
L 2847 0 
L 2847 2094 
Q 2847 2600 2669 2842 
Q 2491 3084 2119 3084 
Q 1678 3084 1418 2786 
Q 1159 2488 1159 1978 
L 1159 0 
L 581 0 
L 581 3500 
L 1159 3500 
L 1159 2956 
Q 1356 3278 1631 3431 
Q 1906 3584 2284 3584 
Q 2666 3584 2933 3390 
Q 3200 3197 3328 2828 
z
" transform="scale(0.015625)"/>
       <path id="DejaVuSans-65" d="M 3597 1894 
L 3597 1613 
L 953 1613 
Q 991 1019 1311 708 
Q 1631 397 2203 397 
Q 2534 397 2845 478 
Q 3156 559 3463 722 
L 3463 178 
Q 3153 47 2828 -22 
Q 2503 -91 2169 -91 
Q 1331 -91 842 396 
Q 353 884 353 1716 
Q 353 2575 817 3079 
Q 1281 3584 2069 3584 
Q 2775 3584 3186 3129 
Q 3597 2675 3597 1894 
z
M 3022 2063 
Q 3016 2534 2758 2815 
Q 2500 3097 2075 3097 
Q 1594 3097 1305 2825 
Q 1016 2553 972 2059 
L 3022 2063 
z
" transform="scale(0.015625)"/>
       <path id="DejaVuSans-20" transform="scale(0.015625)"/>
       <path id="DejaVuSans-28" d="M 1984 4856 
Q 1566 4138 1362 3434 
Q 1159 2731 1159 2009 
Q 1159 1288 1364 580 
Q 1569 -128 1984 -844 
L 1484 -844 
Q 1016 -109 783 600 
Q 550 1309 550 2009 
Q 550 2706 781 3412 
Q 1013 4119 1484 4856 
L 1984 4856 
z
" transform="scale(0.015625)"/>
       <path id="DejaVuSans-73" d="M 2834 3397 
L 2834 2853 
Q 2591 2978 2328 3040 
Q 2066 3103 1784 3103 
Q 1356 3103 1142 2972 
Q 928 2841 928 2578 
Q 928 2378 1081 2264 
Q 1234 2150 1697 2047 
L 1894 2003 
Q 2506 1872 2764 1633 
Q 3022 1394 3022 966 
Q 3022 478 2636 193 
Q 2250 -91 1575 -91 
Q 1294 -91 989 -36 
Q 684 19 347 128 
L 347 722 
Q 666 556 975 473 
Q 1284 391 1588 391 
Q 1994 391 2212 530 
Q 2431 669 2431 922 
Q 2431 1156 2273 1281 
Q 2116 1406 1581 1522 
L 1381 1569 
Q 847 1681 609 1914 
Q 372 2147 372 2553 
Q 372 3047 722 3315 
Q 1072 3584 1716 3584 
Q 2034 3584 2315 3537 
Q 2597 3491 2834 3397 
z
" transform="scale(0.015625)"/>
       <path id="DejaVuSans-29" d="M 513 4856 
L 1013 4856 
Q 1481 4119 1714 3412 
Q 1947 2706 1947 2009 
Q 1947 1309 1714 600 
Q 1481 -109 1013 -844 
L 513 -844 
Q 928 -128 1133 580 
Q 1338 1288 1338 2009 
Q 1338 2731 1133 3434 
Q 928 4138 513 4856 
z
" transform="scale(0.015625)"/>
      </defs>
      <use xlink:href="#DejaVuSans-54"/>
      <use xlink:href="#DejaVuSans-69" x="57.958984"/>
      <use xlink:href="#DejaVuSans-6d" x="85.742188"/>
      <use xlink:href="#DejaVuSans-65" x="183.154297"/>
      <use xlink:href="#DejaVuSans-20" x="244.677734"/>
      <use xlink:href="#DejaVuSans-28" x="276.464844"/>
      <use xlink:href="#DejaVuSans-73" x="315.478516"/>
      <use xlink:href="#DejaVuSans-29" x="367.578125"/>
     </g>
    </g>
   </g>
   <g id="matplotlib.axis_2">
    <g id="ytick_1">
     <g id="line2d_7">
      <defs>
       <path id="mdc55d95971" d="M 0 0 
L -2 0 
" style="stroke: #000000; stroke-width: 0.8"/>
      </defs>
      <g>
       <use xlink:href="#mdc55d95971" x="41.8" y="291.085714" style="stroke: #000000; stroke-width: 0.8"/>
      </g>
     </g>
     <g id="text_8">
      <!-- −30 -->
      <g transform="translate(21.91625 294.125089) scale(0.08 -0.08)">
       <defs>
        <path id="DejaVuSans-2212" d="M 678 2272 
L 4684 2272 
L 4684 1741 
L 678 1741 
L 678 2272 
z
" transform="scale(0.015625)"/>
       </defs>
       <use xlink:href="#DejaVuSans-2212"/>
       <use xlink:href="#DejaVuSans-33" x="83.789062"/>
       <use xlink:href="#DejaVuSans-30" x="147.412109"/>
      </g>
     </g>
    </g>
    <g id="ytick_2">
     <g id="line2d_8">
      <g>
       <use xlink:href="#mdc55d95971" x="41.8" y="250.217143" style="stroke: #000000; stroke-width: 0.8"/>
      </g>
     </g>
     <g id="text_9">
      <!-- −20 -->
      <g transform="translate(21.91625 253.256518) scale(0.08 -0.08)">
       <use xlink:href="#DejaVuSans-2212"/>
       <use xlink:href="#DejaVuSans-32" x="83.789062"/>
       <use xlink:href="#DejaVuSans-30" x="147.412109"/>
      </g>
     </g>
    </g>
    <g id="ytick_3">
     <g id="line2d_9">
      <g>
       <use xlink:href="#mdc55d95971" x="41.8" y="209.348571" style="stroke: #000000; stroke-width: 0.8"/>
      </g>
     </g>
     <g id="text_10">
      <!-- −10 -->
      <g transform="translate(21.91625 212.387946) scale(0.08 -0.08)">
       <use xlink:href="#DejaVuSans-2212"/>
       <use xlink:href="#DejaVuSans-31" x="83.789062"/>
       <use xlink:href="#DejaVuSans-30" x="147.412109"/>
      </g>
     </g>
    </g>
    <g id="ytick_4">
     <g id="line2d_10">
      <g>
       <use xlink:href="#mdc55d95971" x="41.8" y="168.48" style="stroke: #000000; stroke-width: 0.8"/>
      </g>
     </g>
     <g id="text_11">
      <!-- 0 -->
      <g transform="translate(33.71 171.519375) scale(0.08 -0.08)">
       <use xlink:href="#DejaVuSans-30"/>
      </g>
     </g>
    </g>
    <g id="ytick_5">
     <g id="line2d_11">
      <g>
       <use xlink:href="#mdc55d95971" x="41.8" y="127.611429" style="stroke: #000000; stroke-width: 0.8"/>
      </g>
     </g>
     <g id="text_12">
      <!-- 10 -->
      <g transform="translate(28.62 130.650804) scale(0.08 -0.08)">
       <use xlink:href="#DejaVuSans-31"/>
       <use xlink:href="#DejaVuSans-30" x="63.623047"/>
      </g>
     </g>
    </g>
    <g id="ytick_6">
     <g id="line2d_12">
      <g>
       <use xlink:href="#mdc55d95971" x="41.8" y="86.742857" style="stroke: #000000; stroke-width: 0.8"/>
      </g>
     </g>
     <g id="text_13">
      <!-- 20 -->
      <g transform="translate(28.62 89.782232) scale(0.08 -0.08)">
       <use xlink:href="#DejaVuSans-32"/>
       <use xlink:href="#DejaVuSans-30" x="63.623047"/>
      </g>
     </g>
    </g>
    <g id="ytick_7">
     <g id="line2d_13">
      <g>
       <use xlink:href="#mdc55d95971" x="41.8" y="45.874286" style="stroke: #000000; stroke-width: 0.8"/>
      </g>
     </g>
     <g id="text_14">
      <!-- 30 -->
      <g transform="translate(28.62 48.913661) scale(0.08 -0.08)">
       <use xlink:href="#DejaVuSans-33"/>
       <use xlink:href="#DejaVuSans-30" x="63.623047"/>
      </g>
     </g>
    </g>
    <g id="text_15">
     <!-- Voltage (mV) -->
     <g transform="translate(18.836562 201.0175) rotate(-90) scale(0.1 -0.1)">
      <defs>
       <path id="DejaVuSans-56" d="M 1831 0 
L 50 4666 
L 709 4666 
L 2188 738 
L 3669 4666 
L 4325 4666 
L 2547 0 
L 1831 0 
z
" transform="scale(0.015625)"/>
       <path id="DejaVuSans-6f" d="M 1959 3097 
Q 1497 3097 1228 2736 
Q 959 2375 959 1747 
Q 959 1119 1226 758 
Q 1494 397 1959 397 
Q 2419 397 2687 759 
Q 2956 1122 2956 1747 
Q 2956 2369 2687 2733 
Q 2419 3097 1959 3097 
z
M 1959 3584 
Q 2709 3584 3137 3096 
Q 3566 2609 3566 1747 
Q 3566 888 3137 398 
Q 2709 -91 1959 -91 
Q 1206 -91 779 398 
Q 353 888 353 1747 
Q 353 2609 779 3096 
Q 1206 3584 1959 3584 
z
" transform="scale(0.015625)"/>
       <path id="DejaVuSans-6c" d="M 603 4863 
L 1178 4863 
L 1178 0 
L 603 0 
L 603 4863 
z
" transform="scale(0.015625)"/>
       <path id="DejaVuSans-74" d="M 1172 4494 
L 1172 3500 
L 2356 3500 
L 2356 3053 
L 1172 3053 
L 1172 1153 
Q 1172 725 1289 603 
Q 1406 481 1766 481 
L 2356 481 
L 2356 0 
L 1766 0 
Q 1100 0 847 248 
Q 594 497 594 1153 
L 594 3053 
L 172 3053 
L 172 3500 
L 594 3500 
L 594 4494 
L 1172 4494 
z
" transform="scale(0.015625)"/>
       <path id="DejaVuSans-61" d="M 2194 1759 
Q 1497 1759 1228 1600 
Q 959 1441 959 1056 
Q 959 750 1161 570 
Q 1363 391 1709 391 
Q 2188 391 2477 730 
Q 2766 1069 2766 1631 
L 2766 1759 
L 2194 1759 
z
M 3341 1997 
L 3341 0 
L 2766 0 
L 2766 531 
Q 2569 213 2275 61 
Q 1981 -91 1556 -91 
Q 1019 -91 701 211 
Q 384 513 384 1019 
Q 384 1609 779 1909 
Q 1175 2209 1959 2209 
L 2766 2209 
L 2766 2266 
Q 2766 2663 2505 2880 
Q 2244 3097 1772 3097 
Q 1472 3097 1187 3025 
Q 903 2953 641 2809 
L 641 3341 
Q 956 3463 1253 3523 
Q 1550 3584 1831 3584 
Q 2591 3584 2966 3190 
Q 3341 2797 3341 1997 
z
" transform="scale(0.015625)"/>
       <path id="DejaVuSans-67" d="M 2906 1791 
Q 2906 2416 2648 2759 
Q 2391 3103 1925 3103 
Q 1463 3103 1205 2759 
Q 947 2416 947 1791 
Q 947 1169 1205 825 
Q 1463 481 1925 481 
Q 2391 481 2648 825 
Q 2906 1169 2906 1791 
z
M 3481 434 
Q 3481 -459 3084 -895 
Q 2688 -1331 1869 -1331 
Q 1566 -1331 1297 -1286 
Q 1028 -1241 775 -1147 
L 775 -588 
Q 1028 -725 1275 -790 
Q 1522 -856 1778 -856 
Q 2344 -856 2625 -561 
Q 2906 -266 2906 331 
L 2906 616 
Q 2728 306 2450 153 
Q 2172 0 1784 0 
Q 1141 0 747 490 
Q 353 981 353 1791 
Q 353 2603 747 3093 
Q 1141 3584 1784 3584 
Q 2172 3584 2450 3431 
Q 2728 3278 2906 2969 
L 2906 3500 
L 3481 3500 
L 3481 434 
z
" transform="scale(0.015625)"/>
      </defs>
      <use xlink:href="#DejaVuSans-56"/>
      <use xlink:href="#DejaVuSans-6f" x="60.658203"/>
      <use xlink:href="#DejaVuSans-6c" x="121.839844"/>
      <use xlink:href="#DejaVuSans-74" x="149.623047"/>
      <use xlink:href="#DejaVuSans-61" x="188.832031"/>
      <use xlink:href="#DejaVuSans-67" x="250.111328"/>
      <use xlink:href="#DejaVuSans-65" x="313.587891"/>
      <use xlink:href="#DejaVuSans-20" x="375.111328"/>
      <use xlink:href="#DejaVuSans-28" x="406.898438"/>
      <use xlink:href="#DejaVuSans-6d" x="445.912109"/>
      <use xlink:href="#DejaVuSans-56" x="543.324219"/>
      <use xlink:href="#DejaVuSans-29" x="611.732422"/>
     </g>
    </g>
   </g>
   <g id="line2d_14">
    <path d="M 41.8 204.915857 
L 43.40724 207.349271 
L 46.62172 213.173132 
L 48.22896 215.136362 
L 49.8362 215.17444 
L 51.44344 212.65194 
L 53.05068 207.569587 
L 54.65792 200.601825 
L 57.8724 185.459831 
L 59.47964 179.189368 
L 61.08688 174.242865 
L 62.69412 170.291137 
L 65.9086 163.005589 
L 69.12308 154.511624 
L 70.73032 150.258831 
L 72.33756 146.543862 
L 73.9448 143.606222 
L 75.55204 141.450111 
L 77.15928 139.953711 
L 78.76652 139.064795 
L 80.37376 138.96146 
L 81.981 140.066536 
L 83.58824 142.879682 
L 85.19548 147.673228 
L 86.80272 154.202691 
L 90.0172 168.546742 
L 91.62444 173.651029 
L 93.23168 175.952581 
L 94.83892 175.252737 
L 96.44616 172.180422 
L 99.66064 163.768922 
L 101.26788 160.541895 
L 102.87512 158.36423 
L 104.48236 156.666172 
L 106.0896 154.562477 
L 107.69684 151.372088 
L 109.30408 147.052777 
L 110.91132 142.346864 
L 112.51856 138.550585 
L 114.1258 136.97942 
L 115.73304 138.367339 
L 117.34028 142.465081 
L 120.55476 153.23502 
L 122.162 156.310321 
L 123.76924 156.243145 
L 125.37648 153.168778 
L 128.59096 143.604481 
L 130.1982 140.796873 
L 131.80544 140.98259 
L 133.41268 144.146198 
L 136.62716 154.697475 
L 138.2344 158.966835 
L 139.84164 161.178377 
L 141.44888 161.35096 
L 144.66336 159.128821 
L 146.2706 158.867477 
L 147.87784 159.883947 
L 151.09232 163.797331 
L 152.69956 164.704096 
L 154.3068 163.733632 
L 155.91404 160.640359 
L 157.52128 155.801668 
L 160.73576 144.158937 
L 162.343 138.878701 
L 163.95024 134.432839 
L 165.55748 130.731188 
L 167.16472 127.520899 
L 168.77196 124.62014 
L 170.3792 122.082282 
L 171.98644 120.206079 
L 173.59368 119.392689 
L 175.20092 119.934238 
L 176.80816 121.834242 
L 178.4154 124.757238 
L 181.62988 131.331575 
L 183.23712 133.950757 
L 184.84436 135.889913 
L 189.66608 140.46007 
L 191.27332 142.527313 
L 194.4878 146.936179 
L 196.09504 148.512589 
L 197.70228 149.323869 
L 199.30952 149.435504 
L 202.524 148.916428 
L 204.13124 148.980161 
L 207.34572 149.650201 
L 208.95296 149.308252 
L 210.5602 147.72481 
L 212.16744 144.565303 
L 213.77468 139.934957 
L 216.98916 128.798609 
L 218.5964 124.002524 
L 220.20364 120.589466 
L 221.81088 118.699057 
L 223.41812 118.045952 
L 225.02536 118.091458 
L 226.6326 118.299719 
L 228.23984 118.351634 
L 231.45432 118.082195 
L 233.06156 118.156709 
L 237.88328 119.079797 
L 239.49052 118.662816 
L 241.09776 117.65168 
L 242.705 116.466101 
L 244.31224 115.912983 
L 245.91948 116.897244 
L 247.52672 120.026751 
L 249.13396 125.282659 
L 252.34844 138.613351 
L 253.95568 144.036819 
L 255.56292 147.336644 
L 257.17016 148.611606 
L 258.7774 148.980569 
L 260.38464 150.230549 
L 261.99188 154.136657 
L 263.59912 161.711976 
L 265.20636 172.696669 
L 268.42084 197.658499 
L 270.02808 206.662448 
L 271.63532 210.810293 
L 273.24256 209.809457 
L 274.8498 204.848053 
L 276.45704 198.11691 
L 278.06428 191.992921 
L 279.67152 188.201328 
L 281.27876 187.27517 
L 282.886 188.50047 
L 284.49324 190.360907 
L 286.10048 191.264875 
L 287.70772 190.216537 
L 289.31496 187.16879 
L 292.52944 178.868591 
L 294.13668 176.083728 
L 295.74392 175.201671 
L 297.35116 176.108026 
L 298.9584 178.166697 
L 302.17288 182.921085 
L 305.38736 187.179978 
L 306.9946 189.701358 
L 310.20908 195.377208 
L 311.81632 197.216846 
L 313.42356 197.257696 
L 315.0308 195.078277 
L 316.63804 191.013584 
L 318.24528 186.180315 
L 319.85252 182.169457 
L 321.45976 180.514598 
L 323.067 182.130534 
L 324.67424 186.955586 
L 327.88872 201.343977 
L 329.49596 207.330627 
L 331.1032 210.453264 
L 332.71044 210.056857 
L 334.31768 206.371673 
L 335.92492 200.339862 
L 339.1394 186.600361 
L 340.74664 181.414524 
L 342.35388 178.507767 
L 343.96112 178.224924 
L 345.56836 180.482584 
L 347.1756 184.780956 
L 350.39008 195.600869 
L 351.99732 199.592925 
L 353.60456 201.021982 
L 355.2118 199.174543 
L 356.81904 194.041061 
L 358.42628 186.38573 
L 361.64076 169.227147 
L 363.248 162.670792 
L 364.85524 158.600046 
L 366.46248 156.876943 
L 368.06972 156.668624 
L 369.67696 156.835494 
L 371.2842 156.425009 
L 372.89144 155.074853 
L 374.49868 153.146626 
L 376.10592 151.54007 
L 377.71316 151.280755 
L 379.3204 153.036164 
L 380.92764 156.748256 
L 384.14212 166.177223 
L 385.74936 169.241404 
L 387.3566 170.025683 
L 388.96384 168.70926 
L 390.57108 166.382655 
L 392.17832 164.654802 
L 393.78556 165.006465 
L 395.3928 168.145565 
L 397.00004 173.617159 
L 398.60728 179.847305 
L 400.21452 184.625474 
L 401.82176 185.86972 
L 403.429 182.399721 
L 405.03624 174.433201 
L 408.25072 152.457096 
L 409.85796 143.675352 
L 411.4652 139.196311 
L 413.07244 139.645921 
L 414.67968 144.218203 
L 417.89416 158.093164 
L 419.5014 163.637391 
L 421.10864 167.115768 
L 422.71588 169.038452 
L 424.32312 170.631831 
L 425.93036 173.172603 
L 427.5376 177.331297 
L 430.75208 188.41779 
L 432.35932 192.52513 
L 433.96656 193.727065 
L 435.5738 191.419512 
L 437.18104 186.071501 
L 440.39552 172.206027 
L 442.00276 167.039839 
L 443.61 164.374356 
L 443.61 164.374356 
" clip-path="url(#pc487da6caf)" style="fill: none; stroke: #1f77b4; stroke-width: 1.5; stroke-linecap: square"/>
   </g>
   <g id="line2d_15">
    <path d="M 41.8 227.604233 
L 43.40724 226.49399 
L 45.01448 227.903991 
L 46.62172 231.265314 
L 48.22896 235.198991 
L 49.8362 238.094591 
L 51.44344 238.753332 
L 53.05068 236.83327 
L 54.65792 232.929271 
L 56.26516 228.258622 
L 57.8724 224.117518 
L 59.47964 221.356919 
L 61.08688 220.095885 
L 64.30136 219.383955 
L 65.9086 218.120414 
L 67.51584 215.561062 
L 69.12308 211.879832 
L 72.33756 203.673453 
L 73.9448 200.339102 
L 75.55204 197.759296 
L 78.76652 193.72345 
L 81.981 189.900401 
L 83.58824 188.736816 
L 85.19548 188.849899 
L 86.80272 190.581273 
L 88.40996 193.752902 
L 90.0172 197.625942 
L 91.62444 201.137556 
L 93.23168 203.321577 
L 94.83892 203.732846 
L 96.44616 202.701699 
L 98.0534 201.270938 
L 99.66064 200.822897 
L 101.26788 202.528031 
L 102.87512 206.820345 
L 104.48236 213.127646 
L 106.0896 219.973811 
L 107.69684 225.443651 
L 109.30408 227.838851 
L 110.91132 226.296611 
L 112.51856 221.15711 
L 115.73304 206.71096 
L 117.34028 201.73596 
L 118.94752 200.434233 
L 120.55476 203.09781 
L 122.162 208.820764 
L 123.76924 215.881121 
L 125.37648 222.367863 
L 126.98372 226.815673 
L 128.59096 228.623208 
L 130.1982 228.115409 
L 131.80544 226.267525 
L 133.41268 224.195803 
L 135.01992 222.646835 
L 138.2344 220.826125 
L 139.84164 219.125752 
L 141.44888 215.871584 
L 143.05612 210.86337 
L 147.87784 192.414464 
L 149.48508 188.509783 
L 151.09232 186.604478 
L 152.69956 186.358548 
L 154.3068 187.082016 
L 157.52128 189.311202 
L 159.12852 190.848697 
L 160.73576 193.282615 
L 162.343 196.999364 
L 165.55748 206.991353 
L 167.16472 211.047563 
L 168.77196 212.653125 
L 170.3792 211.088471 
L 171.98644 206.738548 
L 173.59368 201.124172 
L 175.20092 196.440286 
L 176.80816 194.749224 
L 178.4154 197.142249 
L 180.02264 203.212163 
L 181.62988 211.102627 
L 183.23712 218.151353 
L 184.84436 221.880594 
L 186.4516 220.959925 
L 188.05884 215.750338 
L 191.27332 201.147948 
L 192.88056 197.233844 
L 194.4878 197.961184 
L 196.09504 203.170317 
L 199.30952 219.375938 
L 200.91676 225.348294 
L 202.524 227.574663 
L 204.13124 225.935836 
L 205.73848 221.584637 
L 207.34572 216.394244 
L 208.95296 212.223361 
L 210.5602 210.308441 
L 212.16744 210.994064 
L 213.77468 213.844078 
L 215.38192 217.980436 
L 218.5964 226.676954 
L 220.20364 230.233228 
L 221.81088 233.086149 
L 223.41812 235.327111 
L 225.02536 237.114135 
L 228.23984 240.357919 
L 229.84708 242.552594 
L 231.45432 245.586993 
L 233.06156 249.466987 
L 234.6688 253.6843 
L 236.27604 257.199074 
L 237.88328 258.702949 
L 239.49052 257.095413 
L 241.09776 252.023698 
L 242.705 244.259378 
L 244.31224 235.654991 
L 245.91948 228.587403 
L 247.52672 225.076008 
L 249.13396 225.928674 
L 250.7412 230.286672 
L 252.34844 235.834215 
L 253.95568 239.677681 
L 255.56292 239.590894 
L 257.17016 235.110462 
L 258.7774 227.968627 
L 260.38464 221.58512 
L 261.99188 219.719288 
L 263.59912 224.774568 
L 265.20636 236.455453 
L 266.8136 251.399752 
L 268.42084 264.059662 
L 270.02808 268.585685 
L 271.63532 261.064 
L 273.24256 241.245437 
L 276.45704 183.421001 
L 278.06428 160.253721 
L 279.67152 149.564202 
L 281.27876 153.510168 
L 282.886 169.666837 
L 286.10048 212.96022 
L 287.70772 226.398929 
L 289.31496 229.337559 
L 290.9222 222.80596 
L 294.13668 199.194638 
L 295.74392 191.766071 
L 297.35116 190.38455 
L 298.9584 193.833305 
L 300.56564 198.968669 
L 302.17288 202.496134 
L 303.78012 202.714567 
L 305.38736 200.42187 
L 306.9946 198.576635 
L 308.60184 200.878685 
L 310.20908 209.910886 
L 311.81632 225.693328 
L 315.0308 263.524947 
L 316.63804 275.030741 
L 318.24528 275.973868 
L 319.85252 265.579716 
L 321.45976 246.373056 
L 324.67424 201.591865 
L 326.28148 185.653648 
L 327.88872 177.087957 
L 329.49596 174.840101 
L 331.1032 175.906363 
L 332.71044 176.720073 
L 334.31768 174.55031 
L 335.92492 168.394616 
L 337.53216 159.104222 
L 339.1394 148.796777 
L 340.74664 139.887135 
L 342.35388 134.173631 
L 343.96112 132.298562 
L 345.56836 133.732001 
L 347.1756 137.151213 
L 348.78284 140.969273 
L 350.39008 143.819979 
L 351.99732 144.819797 
L 353.60456 143.594191 
L 355.2118 140.202484 
L 356.81904 135.04941 
L 360.03352 122.643943 
L 361.64076 117.753562 
L 363.248 115.64124 
L 364.85524 117.61372 
L 366.46248 124.465363 
L 368.06972 136.179179 
L 369.67696 151.817589 
L 372.89144 187.740732 
L 374.49868 204.035338 
L 376.10592 217.147539 
L 377.71316 226.379904 
L 379.3204 231.723207 
L 380.92764 233.624876 
L 382.53488 232.698088 
L 384.14212 229.529921 
L 385.74936 224.665272 
L 390.57108 206.961397 
L 392.17832 203.408014 
L 393.78556 202.784813 
L 395.3928 205.499303 
L 397.00004 211.086283 
L 398.60728 218.167469 
L 400.21452 224.736703 
L 401.82176 228.700265 
L 403.429 228.532625 
L 405.03624 223.83241 
L 406.64348 215.525758 
L 408.25072 205.620189 
L 409.85796 196.600111 
L 411.4652 190.612156 
L 413.07244 188.732662 
L 414.67968 190.580439 
L 416.28692 194.443554 
L 417.89416 197.889879 
L 419.5014 198.640501 
L 421.10864 195.4193 
L 422.71588 188.414015 
L 425.93036 170.181261 
L 427.5376 163.646916 
L 429.14484 161.012481 
L 430.75208 162.32416 
L 432.35932 166.345176 
L 433.96656 171.109847 
L 435.5738 174.72156 
L 437.18104 176.065973 
L 438.78828 175.135161 
L 442.00276 170.392887 
L 443.61 168.684425 
L 443.61 168.684425 
" clip-path="url(#pc487da6caf)" style="fill: none; stroke: #ff7f0e; stroke-width: 1.5; stroke-linecap: square"/>
   </g>
   <g id="line2d_16">
    <path d="M 41.8 130.441145 
L 43.40724 138.565783 
L 45.01448 144.628323 
L 46.62172 147.926543 
L 48.22896 148.614028 
L 49.8362 147.63481 
L 51.44344 146.441542 
L 53.05068 146.515868 
L 54.65792 148.797766 
L 56.26516 153.189678 
L 57.8724 158.374084 
L 59.47964 162.082078 
L 61.08688 161.8075 
L 62.69412 155.77543 
L 64.30136 143.844906 
L 67.51584 111.773301 
L 69.12308 99.789876 
L 70.73032 95.761922 
L 72.33756 101.417778 
L 73.9448 115.716604 
L 77.15928 154.29258 
L 78.76652 168.580694 
L 80.37376 174.772213 
L 81.981 172.418496 
L 83.58824 163.656061 
L 85.19548 152.167158 
L 86.80272 141.662809 
L 88.40996 134.528147 
L 90.0172 131.166992 
L 91.62444 130.313577 
L 93.23168 130.088764 
L 94.83892 129.219872 
L 96.44616 127.848271 
L 98.0534 127.521494 
L 99.66064 130.363389 
L 101.26788 137.801841 
L 102.87512 149.474024 
L 104.48236 162.857013 
L 106.0896 173.919302 
L 107.69684 178.610418 
L 109.30408 174.54867 
L 110.91132 162.19055 
L 114.1258 128.122152 
L 115.73304 117.065585 
L 117.34028 115.234793 
L 118.94752 122.960246 
L 120.55476 137.390648 
L 122.162 153.597708 
L 123.76924 166.391427 
L 125.37648 172.099307 
L 126.98372 169.611615 
L 128.59096 160.382577 
L 131.80544 134.199384 
L 133.41268 122.803358 
L 135.01992 114.058972 
L 136.62716 107.541761 
L 138.2344 102.486735 
L 139.84164 98.683393 
L 141.44888 96.904354 
L 143.05612 98.640018 
L 144.66336 105.270176 
L 146.2706 117.104844 
L 151.09232 163.088356 
L 152.69956 170.908022 
L 154.3068 171.33511 
L 155.91404 165.177114 
L 159.12852 145.419029 
L 160.73576 139.225466 
L 162.343 138.815855 
L 163.95024 144.351128 
L 165.55748 154.146213 
L 167.16472 165.381595 
L 168.77196 175.03752 
L 170.3792 180.709651 
L 171.98644 181.114089 
L 173.59368 176.199158 
L 175.20092 166.955625 
L 178.4154 143.022375 
L 180.02264 133.038256 
L 181.62988 127.433425 
L 183.23712 127.7732 
L 184.84436 134.400898 
L 186.4516 146.019739 
L 188.05884 159.689029 
L 189.66608 171.368905 
L 191.27332 176.971306 
L 192.88056 173.622489 
L 194.4878 160.719434 
L 196.09504 140.358676 
L 197.70228 116.896824 
L 199.30952 95.750553 
L 200.91676 81.778881 
L 202.524 77.780246 
L 204.13124 83.649712 
L 205.73848 96.502384 
L 207.34572 111.684789 
L 208.95296 124.284864 
L 210.5602 130.621835 
L 212.16744 129.262001 
L 213.77468 121.287545 
L 216.98916 98.752493 
L 218.5964 91.936821 
L 220.20364 91.753325 
L 221.81088 98.745129 
L 223.41812 111.542387 
L 226.6326 142.357187 
L 228.23984 153.307863 
L 229.84708 157.667977 
L 231.45432 154.564427 
L 233.06156 144.968151 
L 236.27604 117.851217 
L 237.88328 107.669424 
L 239.49052 103.664188 
L 241.09776 106.732715 
L 242.705 115.70017 
L 245.91948 138.840362 
L 247.52672 145.66977 
L 249.13396 145.880105 
L 250.7412 139.093367 
L 252.34844 126.824257 
L 255.56292 97.598697 
L 257.17016 86.633409 
L 258.7774 80.672643 
L 260.38464 80.099052 
L 261.99188 84.248004 
L 263.59912 91.880028 
L 265.20636 101.654968 
L 270.02808 133.292762 
L 271.63532 141.789354 
L 273.24256 147.807282 
L 274.8498 150.434189 
L 276.45704 148.950097 
L 278.06428 143.090242 
L 279.67152 133.231438 
L 281.27876 120.406549 
L 284.49324 92.169833 
L 286.10048 80.099184 
L 287.70772 71.138061 
L 289.31496 65.927734 
L 290.9222 64.484617 
L 292.52944 66.268329 
L 294.13668 70.378703 
L 295.74392 75.826342 
L 300.56564 93.992291 
L 303.78012 106.959668 
L 305.38736 113.733586 
L 306.9946 119.986526 
L 308.60184 124.689466 
L 310.20908 126.747856 
L 311.81632 125.451756 
L 313.42356 120.897654 
L 316.63804 107.137002 
L 318.24528 101.904223 
L 319.85252 100.149531 
L 321.45976 102.587837 
L 323.067 108.809778 
L 324.67424 117.571866 
L 331.1032 157.182993 
L 332.71044 168.202892 
L 335.92492 191.401453 
L 337.53216 199.820535 
L 339.1394 202.374252 
L 340.74664 196.877087 
L 342.35388 183.085088 
L 345.56836 142.320933 
L 347.1756 125.680719 
L 348.78284 118.291788 
L 350.39008 122.492188 
L 351.99732 137.195854 
L 355.2118 179.348856 
L 356.81904 195.024382 
L 358.42628 201.620649 
L 360.03352 198.862054 
L 361.64076 189.578342 
L 363.248 178.363168 
L 364.85524 169.668494 
L 366.46248 166.109463 
L 368.06972 167.622858 
L 369.67696 171.790187 
L 371.2842 175.144798 
L 372.89144 174.881787 
L 374.49868 170.202237 
L 377.71316 155.672246 
L 379.3204 152.610099 
L 380.92764 155.55422 
L 382.53488 163.973965 
L 384.14212 174.716089 
L 385.74936 183.066095 
L 387.3566 184.570367 
L 388.96384 176.905489 
L 390.57108 161.014138 
L 392.17832 141.042539 
L 393.78556 123.047426 
L 395.3928 112.935844 
L 397.00004 114.388469 
L 398.60728 127.538879 
L 400.21452 148.902856 
L 401.82176 172.603981 
L 403.429 192.459181 
L 405.03624 204.146717 
L 406.64348 206.598065 
L 408.25072 202.107848 
L 409.85796 195.183943 
L 411.4652 190.577006 
L 413.07244 191.31586 
L 414.67968 197.548264 
L 416.28692 206.614218 
L 417.89416 214.352217 
L 419.5014 217.103134 
L 421.10864 213.528201 
L 424.32312 197.07154 
L 425.93036 193.635273 
L 427.5376 198.756415 
L 429.14484 212.86828 
L 432.35932 252.082935 
L 433.96656 264.618767 
L 435.5738 265.776011 
L 437.18104 254.947055 
L 438.78828 235.752455 
L 440.39552 214.690797 
L 442.00276 198.634615 
L 443.61 192.154591 
L 443.61 192.154591 
" clip-path="url(#pc487da6caf)" style="fill: none; stroke: #2ca02c; stroke-width: 1.5; stroke-linecap: square"/>
   </g>
   <g id="line2d_17">
    <path d="M 41.8 171.951568 
L 45.01448 182.439435 
L 46.62172 187.053704 
L 48.22896 190.575415 
L 49.8362 192.682603 
L 51.44344 193.237065 
L 53.05068 192.261463 
L 54.65792 189.881502 
L 56.26516 186.237036 
L 57.8724 181.418213 
L 59.47964 175.459794 
L 61.08688 168.403459 
L 62.69412 160.398988 
L 65.9086 143.2398 
L 67.51584 135.505809 
L 69.12308 129.401469 
L 70.73032 125.487196 
L 72.33756 123.896617 
L 73.9448 124.271962 
L 75.55204 125.876946 
L 77.15928 127.86007 
L 78.76652 129.569149 
L 80.37376 130.782575 
L 81.981 131.766039 
L 83.58824 133.118644 
L 85.19548 135.460766 
L 86.80272 139.094345 
L 88.40996 143.809709 
L 90.0172 148.928336 
L 91.62444 153.585342 
L 93.23168 157.121437 
L 94.83892 159.389196 
L 98.0534 162.312165 
L 99.66064 164.655996 
L 101.26788 168.244402 
L 104.48236 176.963088 
L 106.0896 179.601274 
L 107.69684 179.458417 
L 109.30408 176.157889 
L 110.91132 170.389371 
L 112.51856 163.781432 
L 114.1258 158.37843 
L 115.73304 155.915289 
L 117.34028 157.178103 
L 118.94752 161.702042 
L 122.162 173.716348 
L 123.76924 177.200206 
L 125.37648 177.371388 
L 126.98372 174.434352 
L 130.1982 164.778834 
L 131.80544 161.433607 
L 133.41268 160.438998 
L 135.01992 161.586797 
L 136.62716 163.804101 
L 138.2344 165.650721 
L 139.84164 165.928771 
L 141.44888 164.175225 
L 143.05612 160.842108 
L 144.66336 157.104956 
L 146.2706 154.396332 
L 147.87784 153.858095 
L 149.48508 155.924897 
L 151.09232 160.183156 
L 154.3068 170.668528 
L 155.91404 174.385156 
L 157.52128 176.073621 
L 159.12852 175.71789 
L 160.73576 173.741225 
L 162.343 170.70035 
L 163.95024 167.00432 
L 165.55748 162.773275 
L 167.16472 157.90096 
L 168.77196 152.283243 
L 171.98644 139.963781 
L 173.59368 134.916214 
L 175.20092 132.107673 
L 176.80816 132.414905 
L 178.4154 136.062185 
L 180.02264 142.438496 
L 183.23712 157.737409 
L 184.84436 163.590813 
L 186.4516 167.037162 
L 188.05884 168.254541 
L 191.27332 168.193674 
L 192.88056 169.321402 
L 194.4878 171.98583 
L 197.70228 179.294497 
L 199.30952 181.3126 
L 200.91676 180.668772 
L 202.524 177.065908 
L 204.13124 171.138248 
L 205.73848 164.225717 
L 207.34572 157.867587 
L 208.95296 153.238217 
L 210.5602 150.74757 
L 212.16744 149.967143 
L 213.77468 149.913085 
L 215.38192 149.528817 
L 216.98916 148.162628 
L 218.5964 145.85261 
L 220.20364 143.300134 
L 221.81088 141.556255 
L 223.41812 141.570423 
L 225.02536 143.775696 
L 226.6326 147.890377 
L 229.84708 157.816836 
L 231.45432 161.14993 
L 233.06156 162.17346 
L 234.6688 160.656982 
L 236.27604 156.972379 
L 239.49052 146.752427 
L 241.09776 142.49547 
L 242.705 140.250914 
L 244.31224 140.803688 
L 245.91948 144.487764 
L 247.52672 151.038445 
L 252.34844 176.468148 
L 253.95568 181.789469 
L 255.56292 183.892111 
L 257.17016 183.237298 
L 258.7774 181.41099 
L 260.38464 180.687093 
L 261.99188 183.241073 
L 263.59912 190.276974 
L 265.20636 201.3974 
L 266.8136 214.490826 
L 268.42084 226.265981 
L 270.02808 233.281194 
L 271.63532 233.128294 
L 273.24256 225.357515 
L 274.8498 211.763462 
L 276.45704 195.878943 
L 278.06428 181.86598 
L 279.67152 173.181391 
L 281.27876 171.49463 
L 282.886 176.240733 
L 284.49324 184.979118 
L 286.10048 194.400559 
L 287.70772 201.567422 
L 289.31496 204.901286 
L 290.9222 204.576937 
L 294.13668 200.012264 
L 295.74392 199.721841 
L 297.35116 201.881693 
L 300.56564 209.138782 
L 302.17288 210.432931 
L 303.78012 208.315978 
L 305.38736 202.944554 
L 306.9946 195.853171 
L 308.60184 189.417099 
L 310.20908 185.96076 
L 311.81632 186.88463 
L 313.42356 192.13078 
L 316.63804 208.560574 
L 318.24528 214.707293 
L 319.85252 216.76028 
L 321.45976 214.134364 
L 323.067 207.604424 
L 326.28148 190.211984 
L 327.88872 183.177498 
L 329.49596 178.701083 
L 331.1032 176.647915 
L 332.71044 176.09522 
L 334.31768 175.799583 
L 335.92492 174.721327 
L 337.53216 172.426469 
L 340.74664 166.065875 
L 342.35388 164.079593 
L 343.96112 164.202034 
L 345.56836 166.760755 
L 347.1756 171.301838 
L 348.78284 176.641323 
L 350.39008 181.178584 
L 351.99732 183.346714 
L 353.60456 182.047755 
L 355.2118 176.977398 
L 356.81904 168.732447 
L 360.03352 148.521397 
L 361.64076 139.991038 
L 363.248 134.246329 
L 364.85524 131.648043 
L 366.46248 131.705941 
L 368.06972 133.304848 
L 369.67696 135.126109 
L 371.2842 136.139194 
L 372.89144 135.986243 
L 374.49868 135.10072 
L 376.10592 134.506522 
L 377.71316 135.388166 
L 379.3204 138.571207 
L 380.92764 144.087189 
L 384.14212 157.905802 
L 385.74936 163.048517 
L 387.3566 165.468491 
L 388.96384 165.264502 
L 390.57108 163.73699 
L 392.17832 162.977431 
L 393.78556 165.057042 
L 395.3928 171.143233 
L 397.00004 180.887315 
L 398.60728 192.370679 
L 400.21452 202.667943 
L 401.82176 208.870775 
L 403.429 209.192901 
L 405.03624 203.728389 
L 408.25072 184.954823 
L 409.85796 178.495265 
L 411.4652 177.57889 
L 413.07244 182.739148 
L 414.67968 192.524949 
L 416.28692 204.172636 
L 417.89416 214.746618 
L 419.5014 222.279424 
L 421.10864 226.457971 
L 424.32312 230.612557 
L 425.93036 234.458411 
L 427.5376 240.648523 
L 429.14484 248.162704 
L 430.75208 254.746602 
L 432.35932 257.839359 
L 433.96656 255.668231 
L 435.5738 248.040876 
L 437.18104 236.490623 
L 438.78828 223.709902 
L 440.39552 212.510846 
L 442.00276 204.771774 
L 443.61 200.803112 
L 443.61 200.803112 
" clip-path="url(#pc487da6caf)" style="fill: none; stroke: #d62728; stroke-width: 1.5; stroke-linecap: square"/>
   </g>
   <g id="line2d_18">
    <path d="M 41.8 212.140068 
L 43.40724 216.336555 
L 46.62172 227.402908 
L 48.22896 231.369038 
L 49.8362 232.549959 
L 51.44344 230.408693 
L 53.05068 225.203007 
L 54.65792 217.817505 
L 59.47964 192.869627 
L 62.69412 178.522999 
L 64.30136 171.968728 
L 65.9086 166.026377 
L 67.51584 161.294851 
L 69.12308 158.555202 
L 70.73032 158.41799 
L 72.33756 160.961147 
L 73.9448 165.523325 
L 75.55204 170.782995 
L 77.15928 175.131787 
L 78.76652 177.217716 
L 80.37376 176.444379 
L 81.981 173.245792 
L 83.58824 168.994391 
L 85.19548 165.547449 
L 86.80272 164.602832 
L 88.40996 167.117433 
L 90.0172 172.99715 
L 91.62444 181.17596 
L 93.23168 190.040931 
L 94.83892 198.017118 
L 96.44616 204.091888 
L 98.0534 208.072716 
L 99.66064 210.487654 
L 102.87512 214.009807 
L 106.0896 218.198764 
L 107.69684 219.541401 
L 109.30408 219.462031 
L 110.91132 217.728745 
L 114.1258 211.710335 
L 115.73304 209.726004 
L 117.34028 209.808708 
L 118.94752 212.231799 
L 120.55476 216.440004 
L 122.162 221.252783 
L 123.76924 225.34307 
L 125.37648 227.770239 
L 126.98372 228.32399 
L 128.59096 227.546508 
L 130.1982 226.418389 
L 131.80544 225.86072 
L 133.41268 226.251043 
L 135.01992 227.197048 
L 136.62716 227.687507 
L 138.2344 226.531637 
L 139.84164 222.917139 
L 141.44888 216.846317 
L 144.66336 201.636635 
L 146.2706 195.685314 
L 147.87784 192.520924 
L 149.48508 192.406873 
L 151.09232 194.709458 
L 154.3068 201.771927 
L 155.91404 204.549716 
L 157.52128 206.483924 
L 160.73576 209.65596 
L 163.95024 213.390097 
L 165.55748 214.144232 
L 167.16472 212.908463 
L 168.77196 209.275756 
L 171.98644 198.094917 
L 173.59368 194.265388 
L 175.20092 194.250646 
L 176.80816 198.953226 
L 178.4154 207.758331 
L 180.02264 218.591375 
L 181.62988 228.556462 
L 183.23712 234.940907 
L 184.84436 236.18669 
L 186.4516 232.46132 
L 189.66608 218.392978 
L 191.27332 213.618225 
L 192.88056 212.988964 
L 194.4878 216.622698 
L 196.09504 223.094847 
L 197.70228 230.051514 
L 199.30952 235.105583 
L 200.91676 236.676102 
L 202.524 234.456956 
L 204.13124 229.365246 
L 205.73848 223.074247 
L 207.34572 217.349056 
L 208.95296 213.469528 
L 210.5602 211.952274 
L 212.16744 212.616148 
L 213.77468 214.878245 
L 215.38192 218.074459 
L 218.5964 225.251561 
L 220.20364 228.499614 
L 221.81088 231.014895 
L 223.41812 232.38712 
L 225.02536 232.341923 
L 226.6326 230.969568 
L 228.23984 228.863297 
L 229.84708 227.029622 
L 231.45432 226.540584 
L 233.06156 228.048992 
L 234.6688 231.388735 
L 236.27604 235.478511 
L 237.88328 238.647788 
L 239.49052 239.278986 
L 241.09776 236.540489 
L 242.705 230.903127 
L 244.31224 224.13987 
L 245.91948 218.733109 
L 247.52672 216.910644 
L 249.13396 219.704097 
L 250.7412 226.424828 
L 252.34844 234.822455 
L 253.95568 241.925948 
L 255.56292 245.268448 
L 257.17016 243.990309 
L 258.7774 239.339576 
L 260.38464 234.284948 
L 261.99188 232.338486 
L 263.59912 236.036244 
L 265.20636 245.693902 
L 268.42084 271.558174 
L 270.02808 278.586854 
L 271.63532 276.561613 
L 273.24256 264.78326 
L 274.8498 245.844647 
L 276.45704 224.890406 
L 278.06428 207.921628 
L 279.67152 199.745229 
L 281.27876 202.340965 
L 282.886 214.241435 
L 286.10048 247.722392 
L 287.70772 259.24296 
L 289.31496 263.433429 
L 290.9222 260.849446 
L 294.13668 247.477319 
L 295.74392 243.167873 
L 297.35116 242.278568 
L 298.9584 243.59334 
L 300.56564 244.597972 
L 302.17288 242.896175 
L 303.78012 237.578118 
L 305.38736 229.91014 
L 306.9946 223.011664 
L 308.60184 220.633676 
L 310.20908 225.519362 
L 311.81632 238.054219 
L 315.0308 273.928868 
L 316.63804 287.056473 
L 318.24528 290.732953 
L 319.85252 283.079298 
L 321.45976 265.337067 
L 326.28148 194.668068 
L 327.88872 179.411258 
L 329.49596 170.811792 
L 331.1032 166.983055 
L 332.71044 164.814444 
L 334.31768 161.260831 
L 335.92492 154.422635 
L 337.53216 144.084152 
L 340.74664 119.256988 
L 342.35388 109.407749 
L 343.96112 103.714981 
L 345.56836 102.736917 
L 347.1756 105.894314 
L 348.78284 111.731316 
L 350.39008 118.370074 
L 351.99732 123.968606 
L 353.60456 127.073905 
L 355.2118 126.870188 
L 356.81904 123.313703 
L 358.42628 117.145305 
L 360.03352 109.779719 
L 361.64076 103.061269 
L 363.248 98.867221 
L 364.85524 98.638547 
L 366.46248 102.968287 
L 368.06972 111.394162 
L 372.89144 144.639542 
L 374.49868 152.387206 
L 376.10592 157.057778 
L 377.71316 159.202214 
L 379.3204 159.97678 
L 380.92764 160.571397 
L 382.53488 161.678962 
L 384.14212 163.254444 
L 385.74936 164.65861 
L 387.3566 165.112399 
L 388.96384 164.239084 
L 390.57108 162.442696 
L 392.17832 160.907411 
L 393.78556 161.16071 
L 395.3928 164.404138 
L 397.00004 170.887544 
L 400.21452 188.586716 
L 401.82176 195.378268 
L 403.429 198.083249 
L 405.03624 196.012903 
L 406.64348 189.983436 
L 409.85796 174.587892 
L 411.4652 169.732049 
L 413.07244 168.299892 
L 414.67968 169.743925 
L 416.28692 172.469314 
L 417.89416 174.595894 
L 419.5014 174.795688 
L 421.10864 172.866064 
L 422.71588 169.745786 
L 424.32312 167.016758 
L 425.93036 166.115526 
L 427.5376 167.610173 
L 430.75208 174.293699 
L 432.35932 175.954576 
L 433.96656 174.4661 
L 435.5738 169.5922 
L 438.78828 154.818944 
L 440.39552 148.870238 
L 442.00276 145.773564 
L 443.61 145.463789 
L 443.61 145.463789 
" clip-path="url(#pc487da6caf)" style="fill: none; stroke: #9467bd; stroke-width: 1.5; stroke-linecap: square"/>
   </g>
   <g id="line2d_19">
    <path d="M 41.8 83.440263 
L 43.40724 89.948633 
L 45.01448 99.739796 
L 46.62172 110.94467 
L 48.22896 121.170224 
L 49.8362 128.192245 
L 51.44344 130.598823 
L 53.05068 128.156123 
L 54.65792 121.792211 
L 59.47964 96.488173 
L 61.08688 90.557448 
L 62.69412 86.421313 
L 64.30136 83.480399 
L 69.12308 76.331433 
L 70.73032 74.449898 
L 72.33756 73.453794 
L 73.9448 73.586347 
L 75.55204 74.702205 
L 77.15928 76.286809 
L 78.76652 77.660879 
L 80.37376 78.274877 
L 81.981 77.962012 
L 85.19548 76.107288 
L 86.80272 75.900497 
L 88.40996 76.87245 
L 90.0172 79.115122 
L 91.62444 82.389161 
L 93.23168 86.308617 
L 96.44616 94.970095 
L 99.66064 104.424791 
L 101.26788 109.277517 
L 102.87512 113.643689 
L 104.48236 116.777701 
L 106.0896 117.966101 
L 107.69684 116.881806 
L 109.30408 113.854002 
L 110.91132 109.924529 
L 112.51856 106.612508 
L 114.1258 105.426573 
L 115.73304 107.308732 
L 117.34028 112.221951 
L 120.55476 125.948167 
L 122.162 130.749651 
L 123.76924 131.806984 
L 125.37648 128.464599 
L 126.98372 121.295465 
L 130.1982 102.471285 
L 131.80544 94.991388 
L 133.41268 90.790172 
L 135.01992 90.130615 
L 136.62716 92.268053 
L 139.84164 99.205308 
L 141.44888 101.364819 
L 143.05612 101.946508 
L 146.2706 101.118252 
L 147.87784 102.239091 
L 149.48508 105.889724 
L 151.09232 112.385833 
L 152.69956 121.134646 
L 154.3068 130.745094 
L 155.91404 139.411992 
L 157.52128 145.444601 
L 159.12852 147.73746 
L 160.73576 146.044268 
L 162.343 140.994584 
L 163.95024 133.865011 
L 165.55748 126.168219 
L 167.16472 119.210336 
L 168.77196 113.784693 
L 170.3792 110.084733 
L 171.98644 107.832657 
L 173.59368 106.539216 
L 175.20092 105.780323 
L 176.80816 105.372738 
L 178.4154 105.397068 
L 180.02264 106.087491 
L 181.62988 107.657794 
L 183.23712 110.163858 
L 184.84436 113.444536 
L 188.05884 120.834064 
L 189.66608 124.03727 
L 191.27332 126.360696 
L 192.88056 127.468127 
L 194.4878 127.090234 
L 196.09504 125.055886 
L 197.70228 121.356965 
L 199.30952 116.229831 
L 202.524 104.07144 
L 204.13124 98.680013 
L 205.73848 94.713332 
L 207.34572 92.442582 
L 208.95296 91.627263 
L 212.16744 91.613969 
L 213.77468 91.08579 
L 216.98916 88.856685 
L 218.5964 88.510628 
L 220.20364 89.736358 
L 221.81088 92.844412 
L 223.41812 97.465338 
L 225.02536 102.618934 
L 226.6326 107.084093 
L 228.23984 109.908596 
L 229.84708 110.820786 
L 231.45432 110.346602 
L 233.06156 109.561679 
L 234.6688 109.597529 
L 236.27604 111.123853 
L 237.88328 114.048373 
L 239.49052 117.565803 
L 241.09776 120.559744 
L 242.705 122.185622 
L 244.31224 122.30825 
L 245.91948 121.565539 
L 247.52672 121.04154 
L 249.13396 121.686789 
L 250.7412 123.749606 
L 252.34844 126.522907 
L 253.95568 128.568868 
L 255.56292 128.377402 
L 257.17016 125.174181 
L 258.7774 119.495542 
L 260.38464 113.20731 
L 261.99188 108.885615 
L 263.59912 108.776158 
L 265.20636 113.738419 
L 266.8136 122.635983 
L 268.42084 132.494543 
L 270.02808 139.431658 
L 271.63532 140.046113 
L 273.24256 132.75626 
L 274.8498 118.539793 
L 278.06428 84.03903 
L 279.67152 72.859977 
L 281.27876 69.920934 
L 282.886 75.324908 
L 284.49324 86.623279 
L 286.10048 99.784881 
L 287.70772 110.656974 
L 289.31496 116.366141 
L 290.9222 116.161251 
L 292.52944 111.418665 
L 294.13668 104.865913 
L 295.74392 99.377347 
L 297.35116 96.849418 
L 298.9584 97.572051 
L 302.17288 102.905826 
L 303.78012 103.417549 
L 305.38736 100.841646 
L 306.9946 95.607952 
L 308.60184 89.406518 
L 310.20908 84.533957 
L 311.81632 83.035131 
L 313.42356 85.957598 
L 315.0308 92.988464 
L 318.24528 112.468808 
L 319.85252 120.40723 
L 321.45976 124.849555 
L 323.067 125.395348 
L 324.67424 122.863403 
L 326.28148 119.020911 
L 327.88872 116.060549 
L 329.49596 115.966984 
L 331.1032 119.957873 
L 332.71044 128.133015 
L 334.31768 139.438245 
L 335.92492 151.932823 
L 337.53216 163.32219 
L 339.1394 171.620059 
L 340.74664 175.749404 
L 342.35388 175.886096 
L 343.96112 173.404761 
L 345.56836 170.439097 
L 347.1756 169.152301 
L 348.78284 170.937172 
L 350.39008 175.885098 
L 353.60456 189.128129 
L 355.2118 192.722817 
L 356.81904 191.80371 
L 358.42628 186.102691 
L 360.03352 176.928327 
L 361.64076 166.731499 
L 363.248 158.211464 
L 364.85524 153.319983 
L 366.46248 152.554204 
L 368.06972 154.820999 
L 369.67696 157.920907 
L 371.2842 159.480828 
L 372.89144 157.953216 
L 374.49868 153.247727 
L 376.10592 146.750696 
L 377.71316 140.735259 
L 379.3204 137.401937 
L 380.92764 137.929569 
L 382.53488 141.975946 
L 384.14212 147.84742 
L 385.74936 153.278293 
L 387.3566 156.485544 
L 388.96384 157.027592 
L 390.57108 156.099973 
L 392.17832 156.105248 
L 393.78556 159.631152 
L 395.3928 168.277697 
L 397.00004 181.813504 
L 400.21452 213.457284 
L 401.82176 224.457822 
L 403.429 228.68847 
L 405.03624 225.955913 
L 406.64348 218.346851 
L 408.25072 209.503442 
L 409.85796 203.349698 
L 411.4652 202.726889 
L 413.07244 208.468345 
L 414.67968 219.251827 
L 416.28692 232.259319 
L 417.89416 244.341451 
L 419.5014 253.20632 
L 421.10864 258.181291 
L 422.71588 260.220787 
L 424.32312 261.234626 
L 425.93036 263.05364 
L 427.5376 266.502565 
L 429.14484 270.982644 
L 430.75208 274.707449 
L 432.35932 275.504887 
L 433.96656 271.839046 
L 435.5738 263.58795 
L 438.78828 240.401922 
L 440.39552 230.821034 
L 442.00276 225.309333 
L 443.61 224.058542 
L 443.61 224.058542 
" clip-path="url(#pc487da6caf)" style="fill: none; stroke: #8c564b; stroke-width: 1.5; stroke-linecap: square"/>
   </g>
   <g id="line2d_20">
    <path d="M 41.8 204.137331 
L 43.40724 200.596796 
L 45.01448 194.024074 
L 49.8362 169.112928 
L 51.44344 164.08992 
L 53.05068 162.26991 
L 54.65792 163.522321 
L 56.26516 167.03902 
L 59.47964 176.024013 
L 61.08688 179.344648 
L 62.69412 181.177396 
L 64.30136 181.649629 
L 65.9086 181.25125 
L 67.51584 180.57811 
L 69.12308 180.097341 
L 70.73032 180.016891 
L 72.33756 180.282504 
L 75.55204 181.022226 
L 80.37376 181.491461 
L 81.981 181.942196 
L 83.58824 182.70016 
L 86.80272 184.506431 
L 88.40996 184.976914 
L 90.0172 184.783959 
L 91.62444 183.762711 
L 93.23168 181.873616 
L 94.83892 179.185812 
L 96.44616 175.840395 
L 101.26788 164.21605 
L 102.87512 161.001831 
L 104.48236 158.879882 
L 106.0896 158.237274 
L 107.69684 159.213397 
L 109.30408 161.583722 
L 112.51856 167.800223 
L 114.1258 169.857742 
L 115.73304 170.260649 
L 117.34028 168.850195 
L 118.94752 166.035627 
L 120.55476 162.674391 
L 122.162 159.791829 
L 123.76924 158.228075 
L 125.37648 158.343763 
L 126.98372 159.902017 
L 130.1982 164.273722 
L 131.80544 165.441122 
L 133.41268 165.416798 
L 136.62716 163.514816 
L 138.2344 163.327248 
L 139.84164 164.65903 
L 141.44888 167.703635 
L 143.05612 172.037935 
L 144.66336 176.742146 
L 146.2706 180.69481 
L 147.87784 182.936693 
L 149.48508 182.976298 
L 151.09232 180.922747 
L 152.69956 177.410825 
L 154.3068 173.370781 
L 155.91404 169.72231 
L 157.52128 167.110091 
L 159.12852 165.776598 
L 160.73576 165.591694 
L 162.343 166.191711 
L 167.16472 169.00427 
L 168.77196 169.626036 
L 170.3792 169.958844 
L 171.98644 169.874347 
L 173.59368 169.157879 
L 175.20092 167.568817 
L 176.80816 164.962797 
L 178.4154 161.415455 
L 181.62988 153.242598 
L 183.23712 150.037753 
L 184.84436 148.416178 
L 186.4516 148.879269 
L 188.05884 151.56222 
L 189.66608 156.199812 
L 191.27332 162.188753 
L 194.4878 175.045838 
L 196.09504 180.467506 
L 197.70228 184.61763 
L 199.30952 187.40635 
L 200.91676 189.0015 
L 202.524 189.735619 
L 204.13124 189.989896 
L 207.34572 190.139302 
L 208.95296 190.119376 
L 210.5602 189.774932 
L 212.16744 188.759306 
L 213.77468 186.753297 
L 215.38192 183.619072 
L 216.98916 179.513285 
L 220.20364 170.467621 
L 221.81088 166.90771 
L 223.41812 164.709962 
L 225.02536 163.966366 
L 226.6326 164.313855 
L 228.23984 165.037479 
L 229.84708 165.314777 
L 231.45432 164.526019 
L 233.06156 162.513463 
L 236.27604 156.832005 
L 237.88328 154.972961 
L 239.49052 154.877328 
L 241.09776 156.862368 
L 242.705 160.688323 
L 244.31224 165.689606 
L 247.52672 176.253933 
L 250.7412 185.444513 
L 253.95568 194.123078 
L 255.56292 197.910338 
L 257.17016 200.206608 
L 258.7774 199.797869 
L 260.38464 195.711016 
L 261.99188 187.74193 
L 263.59912 176.784826 
L 265.20636 164.787943 
L 266.8136 154.295188 
L 268.42084 147.701996 
L 270.02808 146.471965 
L 271.63532 150.604796 
L 273.24256 158.565078 
L 274.8498 167.724794 
L 276.45704 175.197368 
L 278.06428 178.751588 
L 279.67152 177.499898 
L 281.27876 172.12996 
L 284.49324 157.438227 
L 286.10048 152.857289 
L 287.70772 152.069145 
L 289.31496 154.972381 
L 290.9222 160.323854 
L 292.52944 166.2892 
L 294.13668 171.138863 
L 295.74392 173.827789 
L 297.35116 174.260944 
L 298.9584 173.17144 
L 300.56564 171.691965 
L 302.17288 170.82139 
L 303.78012 170.994843 
L 305.38736 171.91172 
L 306.9946 172.683702 
L 308.60184 172.228393 
L 310.20908 169.74834 
L 311.81632 165.112816 
L 315.0308 152.792352 
L 316.63804 148.120488 
L 318.24528 146.474488 
L 319.85252 148.729926 
L 321.45976 154.89326 
L 323.067 164.086489 
L 326.28148 185.137253 
L 327.88872 193.554386 
L 329.49596 198.969741 
L 331.1032 201.133675 
L 332.71044 200.612743 
L 335.92492 196.474477 
L 337.53216 195.514053 
L 339.1394 196.385524 
L 340.74664 198.999952 
L 342.35388 202.515964 
L 343.96112 205.603001 
L 345.56836 206.864851 
L 347.1756 205.307891 
L 348.78284 200.718283 
L 350.39008 193.799844 
L 351.99732 186.023381 
L 353.60456 179.242947 
L 355.2118 175.164226 
L 356.81904 174.835902 
L 358.42628 178.338885 
L 360.03352 184.764089 
L 363.248 199.676497 
L 364.85524 204.836566 
L 366.46248 207.240992 
L 368.06972 207.079817 
L 369.67696 205.302107 
L 371.2842 203.207628 
L 372.89144 201.945467 
L 374.49868 202.106489 
L 376.10592 203.544138 
L 377.71316 205.488162 
L 379.3204 206.894324 
L 380.92764 206.884747 
L 382.53488 205.096899 
L 384.14212 201.786642 
L 388.96384 189.569094 
L 390.57108 185.828208 
L 392.17832 181.436907 
L 393.78556 175.378975 
L 395.3928 166.922766 
L 397.00004 156.09867 
L 400.21452 132.112995 
L 401.82176 122.738956 
L 403.429 117.300606 
L 405.03624 116.193062 
L 406.64348 118.426159 
L 408.25072 121.879054 
L 409.85796 123.987017 
L 411.4652 122.636066 
L 413.07244 116.923758 
L 414.67968 107.488224 
L 417.89416 85.766093 
L 419.5014 78.15814 
L 421.10864 74.497243 
L 422.71588 74.439334 
L 424.32312 76.520766 
L 425.93036 78.875835 
L 427.5376 80.096007 
L 429.14484 79.862002 
L 430.75208 79.095578 
L 432.35932 79.556487 
L 433.96656 83.067698 
L 435.5738 90.697575 
L 437.18104 102.249012 
L 440.39552 130.621344 
L 442.00276 143.242882 
L 443.61 152.973152 
L 443.61 152.973152 
" clip-path="url(#pc487da6caf)" style="fill: none; stroke: #e377c2; stroke-width: 1.5; stroke-linecap: square"/>
   </g>
   <g id="line2d_21">
    <path d="M 41.8 119.137622 
L 43.40724 129.18898 
L 46.62172 155.154765 
L 48.22896 165.560847 
L 49.8362 170.562343 
L 51.44344 169.029198 
L 53.05068 162.016606 
L 54.65792 152.643775 
L 56.26516 145.19372 
L 57.8724 143.624729 
L 59.47964 150.090708 
L 61.08688 164.002924 
L 64.30136 199.149861 
L 65.9086 210.175744 
L 67.51584 211.70156 
L 69.12308 203.29157 
L 70.73032 187.710858 
L 72.33756 169.966321 
L 73.9448 155.564346 
L 75.55204 148.613537 
L 77.15928 150.396032 
L 78.76652 158.984929 
L 80.37376 170.067346 
L 81.981 178.587103 
L 83.58824 180.650909 
L 85.19548 175.019408 
L 86.80272 163.573895 
L 88.40996 150.565379 
L 90.0172 140.992286 
L 91.62444 138.714877 
L 93.23168 145.003543 
L 94.83892 158.050403 
L 96.44616 173.65966 
L 98.0534 186.778802 
L 99.66064 193.30858 
L 101.26788 191.518226 
L 102.87512 182.566981 
L 104.48236 169.976286 
L 106.0896 158.28017 
L 107.69684 151.419717 
L 109.30408 151.45647 
L 110.91132 158.012915 
L 114.1258 179.642741 
L 115.73304 187.788381 
L 117.34028 190.956555 
L 118.94752 188.822336 
L 120.55476 182.611026 
L 123.76924 166.482232 
L 125.37648 160.2121 
L 126.98372 156.237735 
L 128.59096 154.417565 
L 130.1982 154.277247 
L 131.80544 155.428564 
L 133.41268 157.736283 
L 135.01992 161.247088 
L 136.62716 165.917533 
L 139.84164 176.459273 
L 141.44888 180.020777 
L 143.05612 180.69033 
L 144.66336 177.754061 
L 146.2706 171.549995 
L 147.87784 163.590721 
L 149.48508 156.20552 
L 151.09232 151.898045 
L 152.69956 152.550337 
L 154.3068 158.710286 
L 155.91404 169.237124 
L 157.52128 181.486251 
L 159.12852 192.073739 
L 160.73576 197.910054 
L 162.343 197.191011 
L 163.95024 190.076062 
L 167.16472 166.732567 
L 168.77196 158.015209 
L 170.3792 155.706498 
L 171.98644 161.142276 
L 173.59368 173.475196 
L 176.80816 206.870338 
L 178.4154 220.390933 
L 180.02264 227.779301 
L 181.62988 227.87265 
L 183.23712 221.157983 
L 184.84436 209.338104 
L 189.66608 165.048942 
L 191.27332 153.075819 
L 192.88056 144.202399 
L 194.4878 138.910098 
L 196.09504 137.398518 
L 197.70228 139.468249 
L 199.30952 144.3447 
L 202.524 156.729203 
L 204.13124 161.147481 
L 205.73848 163.305509 
L 207.34572 163.735327 
L 208.95296 163.99282 
L 210.5602 166.032044 
L 212.16744 171.23687 
L 213.77468 179.558332 
L 215.38192 189.181801 
L 216.98916 196.96683 
L 218.5964 199.627416 
L 220.20364 195.165485 
L 221.81088 183.947265 
L 225.02536 154.794246 
L 226.6326 146.259432 
L 228.23984 146.210994 
L 229.84708 154.503013 
L 233.06156 181.160282 
L 234.6688 189.34537 
L 236.27604 189.496126 
L 237.88328 181.82324 
L 241.09776 156.934587 
L 242.705 148.24251 
L 244.31224 144.989177 
L 245.91948 145.908615 
L 247.52672 147.679025 
L 249.13396 146.739272 
L 250.7412 141.278898 
L 253.95568 123.766831 
L 255.56292 120.087008 
L 257.17016 124.691243 
L 258.7774 137.609863 
L 260.38464 154.942782 
L 261.99188 170.010991 
L 263.59912 175.858792 
L 265.20636 168.159084 
L 266.8136 147.288268 
L 270.02808 90.801929 
L 271.63532 72.86903 
L 273.24256 70.841571 
L 274.8498 85.59595 
L 276.45704 112.565997 
L 278.06428 143.467627 
L 279.67152 169.298762 
L 281.27876 183.445308 
L 282.886 183.747139 
L 284.49324 172.763588 
L 286.10048 156.3272 
L 287.70772 141.071864 
L 289.31496 132.006667 
L 290.9222 131.023267 
L 292.52944 136.776294 
L 295.74392 154.314082 
L 297.35116 159.563456 
L 298.9584 160.707958 
L 300.56564 158.559893 
L 302.17288 154.710936 
L 306.9946 141.950867 
L 308.60184 136.362975 
L 310.20908 129.298564 
L 311.81632 121.350427 
L 313.42356 113.979341 
L 315.0308 108.953576 
L 316.63804 107.499253 
L 318.24528 109.657439 
L 321.45976 118.72935 
L 323.067 121.098914 
L 324.67424 119.729687 
L 326.28148 114.49527 
L 329.49596 98.686299 
L 331.1032 92.894795 
L 332.71044 91.250499 
L 334.31768 94.543159 
L 335.92492 102.405157 
L 337.53216 113.574919 
L 340.74664 138.875822 
L 342.35388 149.707641 
L 343.96112 157.666565 
L 345.56836 162.073434 
L 347.1756 162.808065 
L 348.78284 160.416594 
L 351.99732 151.974294 
L 353.60456 149.923424 
L 355.2118 151.744669 
L 356.81904 158.112691 
L 358.42628 168.20705 
L 360.03352 179.743079 
L 361.64076 189.569301 
L 363.248 194.663415 
L 364.85524 193.183089 
L 366.46248 185.180942 
L 368.06972 172.641467 
L 369.67696 158.787545 
L 371.2842 146.883484 
L 372.89144 138.978792 
L 374.49868 135.162605 
L 376.10592 133.638292 
L 377.71316 131.661013 
L 379.3204 126.938021 
L 380.92764 118.850662 
L 382.53488 108.966918 
L 384.14212 100.566675 
L 385.74936 97.210861 
L 387.3566 101.052207 
L 388.96384 111.674739 
L 390.57108 125.841412 
L 392.17832 138.405261 
L 393.78556 144.202701 
L 395.3928 140.134815 
L 397.00004 126.621553 
L 400.21452 90.003057 
L 401.82176 80.022373 
L 403.429 82.233806 
L 405.03624 97.160404 
L 406.64348 121.236977 
L 408.25072 148.088381 
L 409.85796 170.71431 
L 411.4652 183.85873 
L 413.07244 185.576715 
L 414.67968 177.474183 
L 417.89416 149.26595 
L 419.5014 138.092717 
L 421.10864 132.09484 
L 422.71588 131.115913 
L 424.32312 133.829339 
L 425.93036 138.903622 
L 427.5376 145.854203 
L 429.14484 155.141525 
L 430.75208 167.425949 
L 433.96656 198.198315 
L 435.5738 210.961162 
L 437.18104 216.304541 
L 438.78828 210.77679 
L 440.39552 193.610837 
L 442.00276 167.613956 
L 443.61 138.760249 
L 443.61 138.760249 
" clip-path="url(#pc487da6caf)" style="fill: none; stroke: #7f7f7f; stroke-width: 1.5; stroke-linecap: square"/>
   </g>
   <g id="line2d_22">
    <path d="M 41.8 168.04025 
L 45.01448 155.771975 
L 46.62172 150.555073 
L 48.22896 147.122284 
L 49.8362 145.967977 
L 51.44344 147.066562 
L 53.05068 149.899475 
L 56.26516 157.459752 
L 57.8724 160.789647 
L 59.47964 163.505121 
L 61.08688 165.8986 
L 62.69412 168.496643 
L 64.30136 171.838671 
L 65.9086 176.271259 
L 67.51584 181.836432 
L 70.73032 195.192482 
L 72.33756 202.002199 
L 73.9448 208.155858 
L 75.55204 213.06743 
L 77.15928 216.16125 
L 78.76652 216.959641 
L 80.37376 215.234401 
L 81.981 211.170156 
L 83.58824 205.471267 
L 85.19548 199.324198 
L 86.80272 194.128354 
L 88.40996 191.07125 
L 90.0172 190.695806 
L 91.62444 192.641296 
L 93.23168 195.689858 
L 94.83892 198.169556 
L 96.44616 198.590537 
L 98.0534 196.260922 
L 99.66064 191.620598 
L 101.26788 186.125703 
L 102.87512 181.711378 
L 104.48236 180.025947 
L 106.0896 181.719325 
L 107.69684 186.112537 
L 109.30408 191.422324 
L 110.91132 195.453959 
L 112.51856 196.497461 
L 114.1258 194.060131 
L 117.34028 183.8446 
L 118.94752 180.719063 
L 120.55476 181.642638 
L 122.162 187.130141 
L 123.76924 196.051893 
L 125.37648 206.015503 
L 126.98372 214.211468 
L 128.59096 218.37408 
L 130.1982 217.543305 
L 131.80544 212.359812 
L 135.01992 197.228839 
L 136.62716 191.874432 
L 138.2344 189.755818 
L 139.84164 190.590039 
L 141.44888 192.992134 
L 143.05612 195.089551 
L 144.66336 195.258127 
L 146.2706 192.693081 
L 147.87784 187.642999 
L 151.09232 175.201466 
L 152.69956 170.989757 
L 154.3068 169.651012 
L 155.91404 171.431 
L 157.52128 175.838732 
L 159.12852 181.889108 
L 160.73576 188.443788 
L 162.343 194.511438 
L 163.95024 199.409505 
L 165.55748 202.810503 
L 167.16472 204.680365 
L 168.77196 205.154254 
L 170.3792 204.457992 
L 171.98644 202.881075 
L 173.59368 200.743736 
L 180.02264 190.999652 
L 181.62988 188.128661 
L 183.23712 184.495506 
L 184.84436 179.838859 
L 189.66608 163.147629 
L 191.27332 159.949507 
L 192.88056 159.783229 
L 194.4878 163.041599 
L 196.09504 169.164895 
L 197.70228 176.65068 
L 199.30952 183.427887 
L 200.91676 187.492815 
L 202.524 187.615154 
L 204.13124 183.880845 
L 207.34572 171.97607 
L 208.95296 169.18625 
L 210.5602 171.50525 
L 212.16744 179.457399 
L 213.77468 191.716257 
L 215.38192 205.409964 
L 216.98916 216.982395 
L 218.5964 223.332751 
L 220.20364 222.865736 
L 221.81088 216.07663 
L 225.02536 194.522229 
L 226.6326 186.975725 
L 228.23984 185.154602 
L 229.84708 189.426454 
L 231.45432 198.109905 
L 233.06156 208.117078 
L 234.6688 216.04862 
L 236.27604 219.386749 
L 237.88328 217.325269 
L 239.49052 210.948903 
L 241.09776 202.692673 
L 242.705 195.312327 
L 244.31224 190.820253 
L 245.91948 189.798128 
L 247.52672 191.322757 
L 249.13396 193.513566 
L 250.7412 194.471543 
L 252.34844 193.159093 
L 253.95568 189.869633 
L 255.56292 186.043736 
L 257.17016 183.519408 
L 258.7774 183.580793 
L 260.38464 186.240028 
L 261.99188 190.089861 
L 263.59912 192.818604 
L 265.20636 192.209177 
L 266.8136 187.187774 
L 268.42084 178.41396 
L 270.02808 168.125459 
L 271.63532 159.295124 
L 273.24256 154.438921 
L 274.8498 154.580918 
L 276.45704 158.827299 
L 278.06428 164.767793 
L 279.67152 169.55096 
L 281.27876 171.121629 
L 282.886 169.103023 
L 284.49324 164.921451 
L 286.10048 161.105081 
L 287.70772 160.086552 
L 289.31496 163.001173 
L 290.9222 169.089689 
L 292.52944 175.958066 
L 294.13668 180.582576 
L 295.74392 180.611248 
L 297.35116 175.394811 
L 298.9584 166.301981 
L 300.56564 156.174989 
L 302.17288 148.15926 
L 303.78012 144.40985 
L 305.38736 145.282777 
L 306.9946 149.31469 
L 308.60184 153.949643 
L 310.20908 156.710214 
L 311.81632 156.270462 
L 313.42356 152.966574 
L 315.0308 148.555199 
L 316.63804 145.388525 
L 318.24528 145.37728 
L 319.85252 149.204435 
L 321.45976 156.132318 
L 324.67424 172.142296 
L 326.28148 177.891265 
L 327.88872 181.244363 
L 329.49596 182.629191 
L 331.1032 182.867614 
L 332.71044 182.626565 
L 334.31768 182.031174 
L 335.92492 180.674221 
L 337.53216 177.970629 
L 339.1394 173.634827 
L 342.35388 162.200059 
L 343.96112 157.409254 
L 345.56836 154.677223 
L 347.1756 154.294429 
L 348.78284 155.68003 
L 350.39008 157.613347 
L 351.99732 158.759363 
L 353.60456 158.264152 
L 355.2118 156.134119 
L 356.81904 153.247041 
L 358.42628 150.993884 
L 360.03352 150.725595 
L 361.64076 153.223634 
L 363.248 158.426764 
L 364.85524 165.479975 
L 366.46248 173.035685 
L 368.06972 179.650557 
L 369.67696 184.122791 
L 371.2842 185.673334 
L 372.89144 183.977306 
L 374.49868 179.146877 
L 376.10592 171.754052 
L 379.3204 153.902298 
L 380.92764 146.806461 
L 382.53488 143.429591 
L 384.14212 145.138794 
L 385.74936 152.257536 
L 387.3566 163.693746 
L 388.96384 176.934712 
L 390.57108 188.586653 
L 392.17832 195.345122 
L 393.78556 195.081938 
L 395.3928 187.635878 
L 397.00004 175.036337 
L 398.60728 160.976158 
L 400.21452 149.704937 
L 401.82176 144.655568 
L 403.429 147.291137 
L 405.03624 156.622199 
L 408.25072 182.006148 
L 409.85796 190.29809 
L 411.4652 192.4379 
L 413.07244 188.703322 
L 416.28692 173.975112 
L 417.89416 169.366899 
L 419.5014 169.051349 
L 421.10864 172.318447 
L 422.71588 176.601049 
L 424.32312 178.555177 
L 425.93036 175.512947 
L 427.5376 166.710063 
L 430.75208 140.280971 
L 432.35932 130.430126 
L 433.96656 127.519803 
L 435.5738 132.618522 
L 437.18104 144.069533 
L 438.78828 158.004487 
L 440.39552 169.72432 
L 442.00276 175.400705 
L 443.61 173.412737 
L 443.61 173.412737 
" clip-path="url(#pc487da6caf)" style="fill: none; stroke: #bcbd22; stroke-width: 1.5; stroke-linecap: square"/>
   </g>
   <g id="patch_3">
    <path d="M 41.8 311.52 
L 41.8 25.44 
" style="fill: none; stroke: #000000; stroke-width: 0.8; stroke-linejoin: miter; stroke-linecap: square"/>
   </g>
   <g id="patch_4">
    <path d="M 443.61 311.52 
L 443.61 25.44 
" style="fill: none; stroke: #000000; stroke-width: 0.8; stroke-linejoin: miter; stroke-linecap: square"/>
   </g>
   <g id="patch_5">
    <path d="M 41.8 311.52 
L 443.61 311.52 
" style="fill: none; stroke: #000000; stroke-width: 0.8; stroke-linejoin: miter; stroke-linecap: square"/>
   </g>
   <g id="patch_6">
    <path d="M 41.8 25.44 
L 443.61 25.44 
" style="fill: none; stroke: #000000; stroke-width: 0.8; stroke-linejoin: miter; stroke-linecap: square"/>
   </g>
   <g id="text_16">
    <!-- Preprocessed EEG Data MATB-Easy -->
    <g transform="translate(137.428437 19.44) scale(0.12 -0.12)">
     <defs>
      <path id="DejaVuSans-50" d="M 1259 4147 
L 1259 2394 
L 2053 2394 
Q 2494 2394 2734 2622 
Q 2975 2850 2975 3272 
Q 2975 3691 2734 3919 
Q 2494 4147 2053 4147 
L 1259 4147 
z
M 628 4666 
L 2053 4666 
Q 2838 4666 3239 4311 
Q 3641 3956 3641 3272 
Q 3641 2581 3239 2228 
Q 2838 1875 2053 1875 
L 1259 1875 
L 1259 0 
L 628 0 
L 628 4666 
z
" transform="scale(0.015625)"/>
      <path id="DejaVuSans-72" d="M 2631 2963 
Q 2534 3019 2420 3045 
Q 2306 3072 2169 3072 
Q 1681 3072 1420 2755 
Q 1159 2438 1159 1844 
L 1159 0 
L 581 0 
L 581 3500 
L 1159 3500 
L 1159 2956 
Q 1341 3275 1631 3429 
Q 1922 3584 2338 3584 
Q 2397 3584 2469 3576 
Q 2541 3569 2628 3553 
L 2631 2963 
z
" transform="scale(0.015625)"/>
      <path id="DejaVuSans-70" d="M 1159 525 
L 1159 -1331 
L 581 -1331 
L 581 3500 
L 1159 3500 
L 1159 2969 
Q 1341 3281 1617 3432 
Q 1894 3584 2278 3584 
Q 2916 3584 3314 3078 
Q 3713 2572 3713 1747 
Q 3713 922 3314 415 
Q 2916 -91 2278 -91 
Q 1894 -91 1617 61 
Q 1341 213 1159 525 
z
M 3116 1747 
Q 3116 2381 2855 2742 
Q 2594 3103 2138 3103 
Q 1681 3103 1420 2742 
Q 1159 2381 1159 1747 
Q 1159 1113 1420 752 
Q 1681 391 2138 391 
Q 2594 391 2855 752 
Q 3116 1113 3116 1747 
z
" transform="scale(0.015625)"/>
      <path id="DejaVuSans-63" d="M 3122 3366 
L 3122 2828 
Q 2878 2963 2633 3030 
Q 2388 3097 2138 3097 
Q 1578 3097 1268 2742 
Q 959 2388 959 1747 
Q 959 1106 1268 751 
Q 1578 397 2138 397 
Q 2388 397 2633 464 
Q 2878 531 3122 666 
L 3122 134 
Q 2881 22 2623 -34 
Q 2366 -91 2075 -91 
Q 1284 -91 818 406 
Q 353 903 353 1747 
Q 353 2603 823 3093 
Q 1294 3584 2113 3584 
Q 2378 3584 2631 3529 
Q 2884 3475 3122 3366 
z
" transform="scale(0.015625)"/>
      <path id="DejaVuSans-64" d="M 2906 2969 
L 2906 4863 
L 3481 4863 
L 3481 0 
L 2906 0 
L 2906 525 
Q 2725 213 2448 61 
Q 2172 -91 1784 -91 
Q 1150 -91 751 415 
Q 353 922 353 1747 
Q 353 2572 751 3078 
Q 1150 3584 1784 3584 
Q 2172 3584 2448 3432 
Q 2725 3281 2906 2969 
z
M 947 1747 
Q 947 1113 1208 752 
Q 1469 391 1925 391 
Q 2381 391 2643 752 
Q 2906 1113 2906 1747 
Q 2906 2381 2643 2742 
Q 2381 3103 1925 3103 
Q 1469 3103 1208 2742 
Q 947 2381 947 1747 
z
" transform="scale(0.015625)"/>
      <path id="DejaVuSans-45" d="M 628 4666 
L 3578 4666 
L 3578 4134 
L 1259 4134 
L 1259 2753 
L 3481 2753 
L 3481 2222 
L 1259 2222 
L 1259 531 
L 3634 531 
L 3634 0 
L 628 0 
L 628 4666 
z
" transform="scale(0.015625)"/>
      <path id="DejaVuSans-47" d="M 3809 666 
L 3809 1919 
L 2778 1919 
L 2778 2438 
L 4434 2438 
L 4434 434 
Q 4069 175 3628 42 
Q 3188 -91 2688 -91 
Q 1594 -91 976 548 
Q 359 1188 359 2328 
Q 359 3472 976 4111 
Q 1594 4750 2688 4750 
Q 3144 4750 3555 4637 
Q 3966 4525 4313 4306 
L 4313 3634 
Q 3963 3931 3569 4081 
Q 3175 4231 2741 4231 
Q 1884 4231 1454 3753 
Q 1025 3275 1025 2328 
Q 1025 1384 1454 906 
Q 1884 428 2741 428 
Q 3075 428 3337 486 
Q 3600 544 3809 666 
z
" transform="scale(0.015625)"/>
      <path id="DejaVuSans-44" d="M 1259 4147 
L 1259 519 
L 2022 519 
Q 2988 519 3436 956 
Q 3884 1394 3884 2338 
Q 3884 3275 3436 3711 
Q 2988 4147 2022 4147 
L 1259 4147 
z
M 628 4666 
L 1925 4666 
Q 3281 4666 3915 4102 
Q 4550 3538 4550 2338 
Q 4550 1131 3912 565 
Q 3275 0 1925 0 
L 628 0 
L 628 4666 
z
" transform="scale(0.015625)"/>
      <path id="DejaVuSans-4d" d="M 628 4666 
L 1569 4666 
L 2759 1491 
L 3956 4666 
L 4897 4666 
L 4897 0 
L 4281 0 
L 4281 4097 
L 3078 897 
L 2444 897 
L 1241 4097 
L 1241 0 
L 628 0 
L 628 4666 
z
" transform="scale(0.015625)"/>
      <path id="DejaVuSans-41" d="M 2188 4044 
L 1331 1722 
L 3047 1722 
L 2188 4044 
z
M 1831 4666 
L 2547 4666 
L 4325 0 
L 3669 0 
L 3244 1197 
L 1141 1197 
L 716 0 
L 50 0 
L 1831 4666 
z
" transform="scale(0.015625)"/>
      <path id="DejaVuSans-42" d="M 1259 2228 
L 1259 519 
L 2272 519 
Q 2781 519 3026 730 
Q 3272 941 3272 1375 
Q 3272 1813 3026 2020 
Q 2781 2228 2272 2228 
L 1259 2228 
z
M 1259 4147 
L 1259 2741 
L 2194 2741 
Q 2656 2741 2882 2914 
Q 3109 3088 3109 3444 
Q 3109 3797 2882 3972 
Q 2656 4147 2194 4147 
L 1259 4147 
z
M 628 4666 
L 2241 4666 
Q 2963 4666 3353 4366 
Q 3744 4066 3744 3513 
Q 3744 3084 3544 2831 
Q 3344 2578 2956 2516 
Q 3422 2416 3680 2098 
Q 3938 1781 3938 1306 
Q 3938 681 3513 340 
Q 3088 0 2303 0 
L 628 0 
L 628 4666 
z
" transform="scale(0.015625)"/>
      <path id="DejaVuSans-2d" d="M 313 2009 
L 1997 2009 
L 1997 1497 
L 313 1497 
L 313 2009 
z
" transform="scale(0.015625)"/>
      <path id="DejaVuSans-79" d="M 2059 -325 
Q 1816 -950 1584 -1140 
Q 1353 -1331 966 -1331 
L 506 -1331 
L 506 -850 
L 844 -850 
Q 1081 -850 1212 -737 
Q 1344 -625 1503 -206 
L 1606 56 
L 191 3500 
L 800 3500 
L 1894 763 
L 2988 3500 
L 3597 3500 
L 2059 -325 
z
" transform="scale(0.015625)"/>
     </defs>
     <use xlink:href="#DejaVuSans-50"/>
     <use xlink:href="#DejaVuSans-72" x="58.552734"/>
     <use xlink:href="#DejaVuSans-65" x="97.416016"/>
     <use xlink:href="#DejaVuSans-70" x="158.939453"/>
     <use xlink:href="#DejaVuSans-72" x="222.416016"/>
     <use xlink:href="#DejaVuSans-6f" x="261.279297"/>
     <use xlink:href="#DejaVuSans-63" x="322.460938"/>
     <use xlink:href="#DejaVuSans-65" x="377.441406"/>
     <use xlink:href="#DejaVuSans-73" x="438.964844"/>
     <use xlink:href="#DejaVuSans-73" x="491.064453"/>
     <use xlink:href="#DejaVuSans-65" x="543.164062"/>
     <use xlink:href="#DejaVuSans-64" x="604.6875"/>
     <use xlink:href="#DejaVuSans-20" x="668.164062"/>
     <use xlink:href="#DejaVuSans-45" x="699.951172"/>
     <use xlink:href="#DejaVuSans-45" x="763.134766"/>
     <use xlink:href="#DejaVuSans-47" x="826.318359"/>
     <use xlink:href="#DejaVuSans-20" x="903.808594"/>
     <use xlink:href="#DejaVuSans-44" x="935.595703"/>
     <use xlink:href="#DejaVuSans-61" x="1012.597656"/>
     <use xlink:href="#DejaVuSans-74" x="1073.876953"/>
     <use xlink:href="#DejaVuSans-61" x="1113.085938"/>
     <use xlink:href="#DejaVuSans-20" x="1174.365234"/>
     <use xlink:href="#DejaVuSans-4d" x="1206.152344"/>
     <use xlink:href="#DejaVuSans-41" x="1292.431641"/>
     <use xlink:href="#DejaVuSans-54" x="1353.089844"/>
     <use xlink:href="#DejaVuSans-42" x="1414.173828"/>
     <use xlink:href="#DejaVuSans-2d" x="1482.777344"/>
     <use xlink:href="#DejaVuSans-45" x="1518.861328"/>
     <use xlink:href="#DejaVuSans-61" x="1582.044922"/>
     <use xlink:href="#DejaVuSans-73" x="1643.324219"/>
     <use xlink:href="#DejaVuSans-79" x="1695.423828"/>
    </g>
   </g>
  </g>
 </g>
 <defs>
  <clipPath id="pc487da6caf">
   <rect x="41.8" y="25.44" width="401.81" height="286.08"/>
  </clipPath>
 </defs>
</svg>
