<?xml version="1.0" encoding="utf-8" standalone="no"?>
<!DOCTYPE svg PUBLIC "-//W3C//DTD SVG 1.1//EN"
  "http://www.w3.org/Graphics/SVG/1.1/DTD/svg11.dtd">
<svg xmlns:xlink="http://www.w3.org/1999/xlink" width="460.8pt" height="345.6pt" viewBox="0 0 460.8 345.6" xmlns="http://www.w3.org/2000/svg" version="1.1">
 <metadata>
  <rdf:RDF xmlns:dc="http://purl.org/dc/elements/1.1/" xmlns:cc="http://creativecommons.org/ns#" xmlns:rdf="http://www.w3.org/1999/02/22-rdf-syntax-ns#">
   <cc:Work>
    <dc:type rdf:resource="http://purl.org/dc/dcmitype/StillImage"/>
    <dc:date>2024-04-25T23:53:24.552823</dc:date>
    <dc:format>image/svg+xml</dc:format>
    <dc:creator>
     <cc:Agent>
      <dc:title>Matplotlib v3.8.4, https://matplotlib.org/</dc:title>
     </cc:Agent>
    </dc:creator>
   </cc:Work>
  </rdf:RDF>
 </metadata>
 <defs>
  <style type="text/css">*{stroke-linejoin: round; stroke-linecap: butt}</style>
 </defs>
 <g id="figure_1">
  <g id="patch_1">
   <path d="M 0 345.6 
L 460.8 345.6 
L 460.8 0 
L 0 0 
z
" style="fill: #ffffff"/>
  </g>
  <g id="axes_1">
   <g id="patch_2">
    <path d="M 41.8 311.52 
L 443.61 311.52 
L 443.61 25.44 
L 41.8 25.44 
z
" style="fill: #ffffff"/>
   </g>
   <g id="matplotlib.axis_1">
    <g id="xtick_1">
     <g id="line2d_1">
      <defs>
       <path id="m75e8e1a688" d="M 0 0 
L 0 2 
" style="stroke: #000000; stroke-width: 0.8"/>
      </defs>
      <g>
       <use xlink:href="#m75e8e1a688" x="41.8" y="311.52" style="stroke: #000000; stroke-width: 0.8"/>
      </g>
     </g>
     <g id="text_1">
      <!-- 0.0 -->
      <g transform="translate(35.43875 320.59875) scale(0.08 -0.08)">
       <defs>
        <path id="DejaVuSans-30" d="M 2034 4250 
Q 1547 4250 1301 3770 
Q 1056 3291 1056 2328 
Q 1056 1369 1301 889 
Q 1547 409 2034 409 
Q 2525 409 2770 889 
Q 3016 1369 3016 2328 
Q 3016 3291 2770 3770 
Q 2525 4250 2034 4250 
z
M 2034 4750 
Q 2819 4750 3233 4129 
Q 3647 3509 3647 2328 
Q 3647 1150 3233 529 
Q 2819 -91 2034 -91 
Q 1250 -91 836 529 
Q 422 1150 422 2328 
Q 422 3509 836 4129 
Q 1250 4750 2034 4750 
z
" transform="scale(0.015625)"/>
        <path id="DejaVuSans-2e" d="M 684 794 
L 1344 794 
L 1344 0 
L 684 0 
L 684 794 
z
" transform="scale(0.015625)"/>
       </defs>
       <use xlink:href="#DejaVuSans-30"/>
       <use xlink:href="#DejaVuSans-2e" x="63.623047"/>
       <use xlink:href="#DejaVuSans-30" x="95.410156"/>
      </g>
     </g>
    </g>
    <g id="xtick_2">
     <g id="line2d_2">
      <g>
       <use xlink:href="#m75e8e1a688" x="122.162" y="311.52" style="stroke: #000000; stroke-width: 0.8"/>
      </g>
     </g>
     <g id="text_2">
      <!-- 0.1 -->
      <g transform="translate(115.80075 320.59875) scale(0.08 -0.08)">
       <defs>
        <path id="DejaVuSans-31" d="M 794 531 
L 1825 531 
L 1825 4091 
L 703 3866 
L 703 4441 
L 1819 4666 
L 2450 4666 
L 2450 531 
L 3481 531 
L 3481 0 
L 794 0 
L 794 531 
z
" transform="scale(0.015625)"/>
       </defs>
       <use xlink:href="#DejaVuSans-30"/>
       <use xlink:href="#DejaVuSans-2e" x="63.623047"/>
       <use xlink:href="#DejaVuSans-31" x="95.410156"/>
      </g>
     </g>
    </g>
    <g id="xtick_3">
     <g id="line2d_3">
      <g>
       <use xlink:href="#m75e8e1a688" x="202.524" y="311.52" style="stroke: #000000; stroke-width: 0.8"/>
      </g>
     </g>
     <g id="text_3">
      <!-- 0.2 -->
      <g transform="translate(196.16275 320.59875) scale(0.08 -0.08)">
       <defs>
        <path id="DejaVuSans-32" d="M 1228 531 
L 3431 531 
L 3431 0 
L 469 0 
L 469 531 
Q 828 903 1448 1529 
Q 2069 2156 2228 2338 
Q 2531 2678 2651 2914 
Q 2772 3150 2772 3378 
Q 2772 3750 2511 3984 
Q 2250 4219 1831 4219 
Q 1534 4219 1204 4116 
Q 875 4013 500 3803 
L 500 4441 
Q 881 4594 1212 4672 
Q 1544 4750 1819 4750 
Q 2544 4750 2975 4387 
Q 3406 4025 3406 3419 
Q 3406 3131 3298 2873 
Q 3191 2616 2906 2266 
Q 2828 2175 2409 1742 
Q 1991 1309 1228 531 
z
" transform="scale(0.015625)"/>
       </defs>
       <use xlink:href="#DejaVuSans-30"/>
       <use xlink:href="#DejaVuSans-2e" x="63.623047"/>
       <use xlink:href="#DejaVuSans-32" x="95.410156"/>
      </g>
     </g>
    </g>
    <g id="xtick_4">
     <g id="line2d_4">
      <g>
       <use xlink:href="#m75e8e1a688" x="282.886" y="311.52" style="stroke: #000000; stroke-width: 0.8"/>
      </g>
     </g>
     <g id="text_4">
      <!-- 0.3 -->
      <g transform="translate(276.52475 320.59875) scale(0.08 -0.08)">
       <defs>
        <path id="DejaVuSans-33" d="M 2597 2516 
Q 3050 2419 3304 2112 
Q 3559 1806 3559 1356 
Q 3559 666 3084 287 
Q 2609 -91 1734 -91 
Q 1441 -91 1130 -33 
Q 819 25 488 141 
L 488 750 
Q 750 597 1062 519 
Q 1375 441 1716 441 
Q 2309 441 2620 675 
Q 2931 909 2931 1356 
Q 2931 1769 2642 2001 
Q 2353 2234 1838 2234 
L 1294 2234 
L 1294 2753 
L 1863 2753 
Q 2328 2753 2575 2939 
Q 2822 3125 2822 3475 
Q 2822 3834 2567 4026 
Q 2313 4219 1838 4219 
Q 1578 4219 1281 4162 
Q 984 4106 628 3988 
L 628 4550 
Q 988 4650 1302 4700 
Q 1616 4750 1894 4750 
Q 2613 4750 3031 4423 
Q 3450 4097 3450 3541 
Q 3450 3153 3228 2886 
Q 3006 2619 2597 2516 
z
" transform="scale(0.015625)"/>
       </defs>
       <use xlink:href="#DejaVuSans-30"/>
       <use xlink:href="#DejaVuSans-2e" x="63.623047"/>
       <use xlink:href="#DejaVuSans-33" x="95.410156"/>
      </g>
     </g>
    </g>
    <g id="xtick_5">
     <g id="line2d_5">
      <g>
       <use xlink:href="#m75e8e1a688" x="363.248" y="311.52" style="stroke: #000000; stroke-width: 0.8"/>
      </g>
     </g>
     <g id="text_5">
      <!-- 0.4 -->
      <g transform="translate(356.88675 320.59875) scale(0.08 -0.08)">
       <defs>
        <path id="DejaVuSans-34" d="M 2419 4116 
L 825 1625 
L 2419 1625 
L 2419 4116 
z
M 2253 4666 
L 3047 4666 
L 3047 1625 
L 3713 1625 
L 3713 1100 
L 3047 1100 
L 3047 0 
L 2419 0 
L 2419 1100 
L 313 1100 
L 313 1709 
L 2253 4666 
z
" transform="scale(0.015625)"/>
       </defs>
       <use xlink:href="#DejaVuSans-30"/>
       <use xlink:href="#DejaVuSans-2e" x="63.623047"/>
       <use xlink:href="#DejaVuSans-34" x="95.410156"/>
      </g>
     </g>
    </g>
    <g id="xtick_6">
     <g id="line2d_6">
      <g>
       <use xlink:href="#m75e8e1a688" x="443.61" y="311.52" style="stroke: #000000; stroke-width: 0.8"/>
      </g>
     </g>
     <g id="text_6">
      <!-- 0.5 -->
      <g transform="translate(437.24875 320.59875) scale(0.08 -0.08)">
       <defs>
        <path id="DejaVuSans-35" d="M 691 4666 
L 3169 4666 
L 3169 4134 
L 1269 4134 
L 1269 2991 
Q 1406 3038 1543 3061 
Q 1681 3084 1819 3084 
Q 2600 3084 3056 2656 
Q 3513 2228 3513 1497 
Q 3513 744 3044 326 
Q 2575 -91 1722 -91 
Q 1428 -91 1123 -41 
Q 819 9 494 109 
L 494 744 
Q 775 591 1075 516 
Q 1375 441 1709 441 
Q 2250 441 2565 725 
Q 2881 1009 2881 1497 
Q 2881 1984 2565 2268 
Q 2250 2553 1709 2553 
Q 1456 2553 1204 2497 
Q 953 2441 691 2322 
L 691 4666 
z
" transform="scale(0.015625)"/>
       </defs>
       <use xlink:href="#DejaVuSans-30"/>
       <use xlink:href="#DejaVuSans-2e" x="63.623047"/>
       <use xlink:href="#DejaVuSans-35" x="95.410156"/>
      </g>
     </g>
    </g>
    <g id="text_7">
     <!-- Time (s) -->
     <g transform="translate(222.376094 332.860937) scale(0.1 -0.1)">
      <defs>
       <path id="DejaVuSans-54" d="M -19 4666 
L 3928 4666 
L 3928 4134 
L 2272 4134 
L 2272 0 
L 1638 0 
L 1638 4134 
L -19 4134 
L -19 4666 
z
" transform="scale(0.015625)"/>
       <path id="DejaVuSans-69" d="M 603 3500 
L 1178 3500 
L 1178 0 
L 603 0 
L 603 3500 
z
M 603 4863 
L 1178 4863 
L 1178 4134 
L 603 4134 
L 603 4863 
z
" transform="scale(0.015625)"/>
       <path id="DejaVuSans-6d" d="M 3328 2828 
Q 3544 3216 3844 3400 
Q 4144 3584 4550 3584 
Q 5097 3584 5394 3201 
Q 5691 2819 5691 2113 
L 5691 0 
L 5113 0 
L 5113 2094 
Q 5113 2597 4934 2840 
Q 4756 3084 4391 3084 
Q 3944 3084 3684 2787 
Q 3425 2491 3425 1978 
L 3425 0 
L 2847 0 
L 2847 2094 
Q 2847 2600 2669 2842 
Q 2491 3084 2119 3084 
Q 1678 3084 1418 2786 
Q 1159 2488 1159 1978 
L 1159 0 
L 581 0 
L 581 3500 
L 1159 3500 
L 1159 2956 
Q 1356 3278 1631 3431 
Q 1906 3584 2284 3584 
Q 2666 3584 2933 3390 
Q 3200 3197 3328 2828 
z
" transform="scale(0.015625)"/>
       <path id="DejaVuSans-65" d="M 3597 1894 
L 3597 1613 
L 953 1613 
Q 991 1019 1311 708 
Q 1631 397 2203 397 
Q 2534 397 2845 478 
Q 3156 559 3463 722 
L 3463 178 
Q 3153 47 2828 -22 
Q 2503 -91 2169 -91 
Q 1331 -91 842 396 
Q 353 884 353 1716 
Q 353 2575 817 3079 
Q 1281 3584 2069 3584 
Q 2775 3584 3186 3129 
Q 3597 2675 3597 1894 
z
M 3022 2063 
Q 3016 2534 2758 2815 
Q 2500 3097 2075 3097 
Q 1594 3097 1305 2825 
Q 1016 2553 972 2059 
L 3022 2063 
z
" transform="scale(0.015625)"/>
       <path id="DejaVuSans-20" transform="scale(0.015625)"/>
       <path id="DejaVuSans-28" d="M 1984 4856 
Q 1566 4138 1362 3434 
Q 1159 2731 1159 2009 
Q 1159 1288 1364 580 
Q 1569 -128 1984 -844 
L 1484 -844 
Q 1016 -109 783 600 
Q 550 1309 550 2009 
Q 550 2706 781 3412 
Q 1013 4119 1484 4856 
L 1984 4856 
z
" transform="scale(0.015625)"/>
       <path id="DejaVuSans-73" d="M 2834 3397 
L 2834 2853 
Q 2591 2978 2328 3040 
Q 2066 3103 1784 3103 
Q 1356 3103 1142 2972 
Q 928 2841 928 2578 
Q 928 2378 1081 2264 
Q 1234 2150 1697 2047 
L 1894 2003 
Q 2506 1872 2764 1633 
Q 3022 1394 3022 966 
Q 3022 478 2636 193 
Q 2250 -91 1575 -91 
Q 1294 -91 989 -36 
Q 684 19 347 128 
L 347 722 
Q 666 556 975 473 
Q 1284 391 1588 391 
Q 1994 391 2212 530 
Q 2431 669 2431 922 
Q 2431 1156 2273 1281 
Q 2116 1406 1581 1522 
L 1381 1569 
Q 847 1681 609 1914 
Q 372 2147 372 2553 
Q 372 3047 722 3315 
Q 1072 3584 1716 3584 
Q 2034 3584 2315 3537 
Q 2597 3491 2834 3397 
z
" transform="scale(0.015625)"/>
       <path id="DejaVuSans-29" d="M 513 4856 
L 1013 4856 
Q 1481 4119 1714 3412 
Q 1947 2706 1947 2009 
Q 1947 1309 1714 600 
Q 1481 -109 1013 -844 
L 513 -844 
Q 928 -128 1133 580 
Q 1338 1288 1338 2009 
Q 1338 2731 1133 3434 
Q 928 4138 513 4856 
z
" transform="scale(0.015625)"/>
      </defs>
      <use xlink:href="#DejaVuSans-54"/>
      <use xlink:href="#DejaVuSans-69" x="57.958984"/>
      <use xlink:href="#DejaVuSans-6d" x="85.742188"/>
      <use xlink:href="#DejaVuSans-65" x="183.154297"/>
      <use xlink:href="#DejaVuSans-20" x="244.677734"/>
      <use xlink:href="#DejaVuSans-28" x="276.464844"/>
      <use xlink:href="#DejaVuSans-73" x="315.478516"/>
      <use xlink:href="#DejaVuSans-29" x="367.578125"/>
     </g>
    </g>
   </g>
   <g id="matplotlib.axis_2">
    <g id="ytick_1">
     <g id="line2d_7">
      <defs>
       <path id="m02b804ece9" d="M 0 0 
L -2 0 
" style="stroke: #000000; stroke-width: 0.8"/>
      </defs>
      <g>
       <use xlink:href="#m02b804ece9" x="41.8" y="291.085714" style="stroke: #000000; stroke-width: 0.8"/>
      </g>
     </g>
     <g id="text_8">
      <!-- −30 -->
      <g transform="translate(21.91625 294.125089) scale(0.08 -0.08)">
       <defs>
        <path id="DejaVuSans-2212" d="M 678 2272 
L 4684 2272 
L 4684 1741 
L 678 1741 
L 678 2272 
z
" transform="scale(0.015625)"/>
       </defs>
       <use xlink:href="#DejaVuSans-2212"/>
       <use xlink:href="#DejaVuSans-33" x="83.789062"/>
       <use xlink:href="#DejaVuSans-30" x="147.412109"/>
      </g>
     </g>
    </g>
    <g id="ytick_2">
     <g id="line2d_8">
      <g>
       <use xlink:href="#m02b804ece9" x="41.8" y="250.217143" style="stroke: #000000; stroke-width: 0.8"/>
      </g>
     </g>
     <g id="text_9">
      <!-- −20 -->
      <g transform="translate(21.91625 253.256518) scale(0.08 -0.08)">
       <use xlink:href="#DejaVuSans-2212"/>
       <use xlink:href="#DejaVuSans-32" x="83.789062"/>
       <use xlink:href="#DejaVuSans-30" x="147.412109"/>
      </g>
     </g>
    </g>
    <g id="ytick_3">
     <g id="line2d_9">
      <g>
       <use xlink:href="#m02b804ece9" x="41.8" y="209.348571" style="stroke: #000000; stroke-width: 0.8"/>
      </g>
     </g>
     <g id="text_10">
      <!-- −10 -->
      <g transform="translate(21.91625 212.387946) scale(0.08 -0.08)">
       <use xlink:href="#DejaVuSans-2212"/>
       <use xlink:href="#DejaVuSans-31" x="83.789062"/>
       <use xlink:href="#DejaVuSans-30" x="147.412109"/>
      </g>
     </g>
    </g>
    <g id="ytick_4">
     <g id="line2d_10">
      <g>
       <use xlink:href="#m02b804ece9" x="41.8" y="168.48" style="stroke: #000000; stroke-width: 0.8"/>
      </g>
     </g>
     <g id="text_11">
      <!-- 0 -->
      <g transform="translate(33.71 171.519375) scale(0.08 -0.08)">
       <use xlink:href="#DejaVuSans-30"/>
      </g>
     </g>
    </g>
    <g id="ytick_5">
     <g id="line2d_11">
      <g>
       <use xlink:href="#m02b804ece9" x="41.8" y="127.611429" style="stroke: #000000; stroke-width: 0.8"/>
      </g>
     </g>
     <g id="text_12">
      <!-- 10 -->
      <g transform="translate(28.62 130.650804) scale(0.08 -0.08)">
       <use xlink:href="#DejaVuSans-31"/>
       <use xlink:href="#DejaVuSans-30" x="63.623047"/>
      </g>
     </g>
    </g>
    <g id="ytick_6">
     <g id="line2d_12">
      <g>
       <use xlink:href="#m02b804ece9" x="41.8" y="86.742857" style="stroke: #000000; stroke-width: 0.8"/>
      </g>
     </g>
     <g id="text_13">
      <!-- 20 -->
      <g transform="translate(28.62 89.782232) scale(0.08 -0.08)">
       <use xlink:href="#DejaVuSans-32"/>
       <use xlink:href="#DejaVuSans-30" x="63.623047"/>
      </g>
     </g>
    </g>
    <g id="ytick_7">
     <g id="line2d_13">
      <g>
       <use xlink:href="#m02b804ece9" x="41.8" y="45.874286" style="stroke: #000000; stroke-width: 0.8"/>
      </g>
     </g>
     <g id="text_14">
      <!-- 30 -->
      <g transform="translate(28.62 48.913661) scale(0.08 -0.08)">
       <use xlink:href="#DejaVuSans-33"/>
       <use xlink:href="#DejaVuSans-30" x="63.623047"/>
      </g>
     </g>
    </g>
    <g id="text_15">
     <!-- Voltage (mV) -->
     <g transform="translate(18.836562 201.0175) rotate(-90) scale(0.1 -0.1)">
      <defs>
       <path id="DejaVuSans-56" d="M 1831 0 
L 50 4666 
L 709 4666 
L 2188 738 
L 3669 4666 
L 4325 4666 
L 2547 0 
L 1831 0 
z
" transform="scale(0.015625)"/>
       <path id="DejaVuSans-6f" d="M 1959 3097 
Q 1497 3097 1228 2736 
Q 959 2375 959 1747 
Q 959 1119 1226 758 
Q 1494 397 1959 397 
Q 2419 397 2687 759 
Q 2956 1122 2956 1747 
Q 2956 2369 2687 2733 
Q 2419 3097 1959 3097 
z
M 1959 3584 
Q 2709 3584 3137 3096 
Q 3566 2609 3566 1747 
Q 3566 888 3137 398 
Q 2709 -91 1959 -91 
Q 1206 -91 779 398 
Q 353 888 353 1747 
Q 353 2609 779 3096 
Q 1206 3584 1959 3584 
z
" transform="scale(0.015625)"/>
       <path id="DejaVuSans-6c" d="M 603 4863 
L 1178 4863 
L 1178 0 
L 603 0 
L 603 4863 
z
" transform="scale(0.015625)"/>
       <path id="DejaVuSans-74" d="M 1172 4494 
L 1172 3500 
L 2356 3500 
L 2356 3053 
L 1172 3053 
L 1172 1153 
Q 1172 725 1289 603 
Q 1406 481 1766 481 
L 2356 481 
L 2356 0 
L 1766 0 
Q 1100 0 847 248 
Q 594 497 594 1153 
L 594 3053 
L 172 3053 
L 172 3500 
L 594 3500 
L 594 4494 
L 1172 4494 
z
" transform="scale(0.015625)"/>
       <path id="DejaVuSans-61" d="M 2194 1759 
Q 1497 1759 1228 1600 
Q 959 1441 959 1056 
Q 959 750 1161 570 
Q 1363 391 1709 391 
Q 2188 391 2477 730 
Q 2766 1069 2766 1631 
L 2766 1759 
L 2194 1759 
z
M 3341 1997 
L 3341 0 
L 2766 0 
L 2766 531 
Q 2569 213 2275 61 
Q 1981 -91 1556 -91 
Q 1019 -91 701 211 
Q 384 513 384 1019 
Q 384 1609 779 1909 
Q 1175 2209 1959 2209 
L 2766 2209 
L 2766 2266 
Q 2766 2663 2505 2880 
Q 2244 3097 1772 3097 
Q 1472 3097 1187 3025 
Q 903 2953 641 2809 
L 641 3341 
Q 956 3463 1253 3523 
Q 1550 3584 1831 3584 
Q 2591 3584 2966 3190 
Q 3341 2797 3341 1997 
z
" transform="scale(0.015625)"/>
       <path id="DejaVuSans-67" d="M 2906 1791 
Q 2906 2416 2648 2759 
Q 2391 3103 1925 3103 
Q 1463 3103 1205 2759 
Q 947 2416 947 1791 
Q 947 1169 1205 825 
Q 1463 481 1925 481 
Q 2391 481 2648 825 
Q 2906 1169 2906 1791 
z
M 3481 434 
Q 3481 -459 3084 -895 
Q 2688 -1331 1869 -1331 
Q 1566 -1331 1297 -1286 
Q 1028 -1241 775 -1147 
L 775 -588 
Q 1028 -725 1275 -790 
Q 1522 -856 1778 -856 
Q 2344 -856 2625 -561 
Q 2906 -266 2906 331 
L 2906 616 
Q 2728 306 2450 153 
Q 2172 0 1784 0 
Q 1141 0 747 490 
Q 353 981 353 1791 
Q 353 2603 747 3093 
Q 1141 3584 1784 3584 
Q 2172 3584 2450 3431 
Q 2728 3278 2906 2969 
L 2906 3500 
L 3481 3500 
L 3481 434 
z
" transform="scale(0.015625)"/>
      </defs>
      <use xlink:href="#DejaVuSans-56"/>
      <use xlink:href="#DejaVuSans-6f" x="60.658203"/>
      <use xlink:href="#DejaVuSans-6c" x="121.839844"/>
      <use xlink:href="#DejaVuSans-74" x="149.623047"/>
      <use xlink:href="#DejaVuSans-61" x="188.832031"/>
      <use xlink:href="#DejaVuSans-67" x="250.111328"/>
      <use xlink:href="#DejaVuSans-65" x="313.587891"/>
      <use xlink:href="#DejaVuSans-20" x="375.111328"/>
      <use xlink:href="#DejaVuSans-28" x="406.898438"/>
      <use xlink:href="#DejaVuSans-6d" x="445.912109"/>
      <use xlink:href="#DejaVuSans-56" x="543.324219"/>
      <use xlink:href="#DejaVuSans-29" x="611.732422"/>
     </g>
    </g>
   </g>
   <g id="line2d_14">
    <path d="M 41.8 212.344111 
L 43.40724 217.485428 
L 45.01448 218.143264 
L 46.62172 214.808736 
L 49.8362 204.235249 
L 51.44344 201.790343 
L 53.05068 203.093967 
L 54.65792 207.655429 
L 56.26516 213.593399 
L 57.8724 218.402339 
L 59.47964 219.973937 
L 61.08688 217.467267 
L 62.69412 211.673481 
L 64.30136 204.72224 
L 65.9086 199.256787 
L 67.51584 197.392575 
L 69.12308 199.873919 
L 70.73032 205.763981 
L 72.33756 212.786772 
L 73.9448 218.169882 
L 75.55204 219.655436 
L 77.15928 216.285366 
L 78.76652 208.67512 
L 81.981 188.731811 
L 83.58824 180.813045 
L 85.19548 175.984733 
L 86.80272 174.131854 
L 88.40996 174.278994 
L 90.0172 175.183204 
L 91.62444 175.955775 
L 93.23168 176.434732 
L 94.83892 177.161859 
L 96.44616 178.995189 
L 98.0534 182.563072 
L 99.66064 187.820747 
L 101.26788 193.919118 
L 102.87512 199.457968 
L 104.48236 203.032467 
L 106.0896 203.830582 
L 107.69684 202.015159 
L 109.30408 198.734787 
L 110.91132 195.72809 
L 112.51856 194.629289 
L 114.1258 196.275755 
L 115.73304 200.305458 
L 117.34028 205.209885 
L 118.94752 208.839448 
L 120.55476 209.189792 
L 122.162 205.163048 
L 123.76924 197.016627 
L 126.98372 175.411891 
L 128.59096 166.573544 
L 130.1982 161.213669 
L 131.80544 159.39694 
L 133.41268 159.872504 
L 135.01992 160.607112 
L 136.62716 159.606489 
L 138.2344 155.70973 
L 139.84164 149.048017 
L 141.44888 140.995034 
L 143.05612 133.636484 
L 144.66336 128.975241 
L 146.2706 128.191605 
L 147.87784 131.240722 
L 149.48508 136.931095 
L 151.09232 143.422064 
L 152.69956 148.92325 
L 154.3068 152.312263 
L 155.91404 153.423213 
L 157.52128 152.911834 
L 159.12852 151.808308 
L 160.73576 150.958628 
L 163.95024 150.396516 
L 165.55748 149.490424 
L 167.16472 147.209382 
L 168.77196 143.419479 
L 170.3792 138.769982 
L 171.98644 134.576224 
L 173.59368 132.395061 
L 175.20092 133.454039 
L 176.80816 138.179516 
L 178.4154 146.006945 
L 181.62988 164.923425 
L 183.23712 172.438488 
L 184.84436 176.844011 
L 186.4516 177.615939 
L 188.05884 174.904628 
L 189.66608 169.349978 
L 191.27332 161.863098 
L 194.4878 145.300447 
L 196.09504 138.510339 
L 197.70228 134.28699 
L 199.30952 133.61623 
L 200.91676 136.976096 
L 202.524 144.010056 
L 205.73848 162.773618 
L 207.34572 169.588952 
L 208.95296 171.441213 
L 210.5602 167.037095 
L 212.16744 156.664017 
L 216.98916 113.886917 
L 218.5964 105.99775 
L 220.20364 104.404366 
L 221.81088 108.588357 
L 223.41812 116.61926 
L 225.02536 125.91393 
L 226.6326 134.163441 
L 228.23984 140.062327 
L 229.84708 143.573853 
L 233.06156 147.697679 
L 234.6688 150.677907 
L 236.27604 154.821282 
L 237.88328 159.470229 
L 239.49052 163.458063 
L 241.09776 165.70258 
L 242.705 165.745238 
L 244.31224 163.991424 
L 245.91948 161.549387 
L 247.52672 159.752264 
L 249.13396 159.588489 
L 250.7412 161.301026 
L 252.34844 164.352494 
L 253.95568 167.770488 
L 255.56292 170.694807 
L 257.17016 172.852791 
L 258.7774 174.722217 
L 260.38464 177.277915 
L 261.99188 181.417729 
L 263.59912 187.328107 
L 265.20636 194.099632 
L 266.8136 199.800954 
L 268.42084 202.032137 
L 270.02808 198.773416 
L 271.63532 189.199513 
L 273.24256 174.122251 
L 276.45704 137.609637 
L 278.06428 122.421323 
L 279.67152 112.391604 
L 281.27876 108.138485 
L 282.886 108.858291 
L 284.49324 112.851635 
L 292.52944 140.094433 
L 294.13668 146.683467 
L 297.35116 160.527218 
L 298.9584 165.626223 
L 300.56564 168.091117 
L 302.17288 167.588821 
L 303.78012 164.648185 
L 306.9946 156.562361 
L 308.60184 154.015534 
L 310.20908 153.292237 
L 311.81632 154.040535 
L 313.42356 155.351521 
L 315.0308 156.210354 
L 316.63804 155.960135 
L 318.24528 154.587333 
L 319.85252 152.7116 
L 321.45976 151.295553 
L 323.067 151.220245 
L 324.67424 152.915845 
L 326.28148 156.179867 
L 329.49596 164.040664 
L 331.1032 166.62679 
L 332.71044 167.456852 
L 334.31768 166.560326 
L 335.92492 164.490217 
L 337.53216 162.115413 
L 339.1394 160.350696 
L 340.74664 159.915742 
L 342.35388 161.181782 
L 343.96112 164.119864 
L 345.56836 168.315978 
L 347.1756 173.044198 
L 348.78284 177.384441 
L 350.39008 180.378102 
L 351.99732 181.22432 
L 353.60456 179.498291 
L 355.2118 175.33371 
L 358.42628 163.361223 
L 360.03352 158.515389 
L 361.64076 156.448086 
L 363.248 158.026471 
L 364.85524 163.169378 
L 366.46248 170.775013 
L 368.06972 178.973655 
L 369.67696 185.645679 
L 371.2842 189.051542 
L 372.89144 188.36857 
L 374.49868 183.942594 
L 377.71316 170.016732 
L 379.3204 164.432837 
L 380.92764 161.703813 
L 382.53488 162.126967 
L 384.14212 165.002374 
L 385.74936 168.953475 
L 387.3566 172.438503 
L 388.96384 174.253335 
L 390.57108 173.857392 
L 392.17832 171.439691 
L 393.78556 167.737267 
L 395.3928 163.71042 
L 397.00004 160.202573 
L 398.60728 157.712021 
L 400.21452 156.325671 
L 401.82176 155.799209 
L 405.03624 155.678106 
L 406.64348 155.373196 
L 408.25072 154.655067 
L 409.85796 153.49563 
L 411.4652 151.939504 
L 413.07244 150.059487 
L 416.28692 145.659506 
L 421.10864 138.735871 
L 424.32312 134.197803 
L 425.93036 131.690535 
L 427.5376 128.872921 
L 432.35932 119.673222 
L 433.96656 117.766848 
L 435.5738 117.536242 
L 437.18104 119.605242 
L 438.78828 124.307725 
L 440.39552 131.505602 
L 443.61 149.984835 
L 443.61 149.984835 
" clip-path="url(#p82573f9678)" style="fill: none; stroke: #1f77b4; stroke-width: 1.5; stroke-linecap: square"/>
   </g>
   <g id="line2d_15">
    <path d="M 41.8 180.414486 
L 45.01448 166.848551 
L 46.62172 158.935906 
L 49.8362 140.828993 
L 51.44344 133.405818 
L 53.05068 129.43468 
L 54.65792 129.807231 
L 56.26516 133.978149 
L 57.8724 140.045487 
L 59.47964 145.480021 
L 61.08688 148.219347 
L 62.69412 147.637913 
L 64.30136 144.910886 
L 65.9086 142.557815 
L 67.51584 143.30298 
L 69.12308 148.729109 
L 70.73032 158.327168 
L 72.33756 169.414909 
L 73.9448 178.011233 
L 75.55204 180.362376 
L 77.15928 174.50347 
L 78.76652 161.20164 
L 81.981 127.345047 
L 83.58824 116.279889 
L 85.19548 113.329834 
L 86.80272 118.315473 
L 88.40996 128.399458 
L 90.0172 139.292679 
L 91.62444 146.985446 
L 93.23168 149.292276 
L 94.83892 146.595527 
L 96.44616 141.534234 
L 98.0534 137.801493 
L 99.66064 138.579879 
L 101.26788 145.271287 
L 102.87512 157.021709 
L 106.0896 184.51122 
L 107.69684 194.418255 
L 109.30408 200.007945 
L 110.91132 202.277441 
L 112.51856 203.527944 
L 114.1258 206.264597 
L 115.73304 212.09674 
L 117.34028 221.076362 
L 118.94752 231.706546 
L 120.55476 241.582878 
L 122.162 248.347074 
L 123.76924 250.553447 
L 125.37648 248.105339 
L 126.98372 242.118523 
L 131.80544 218.749098 
L 133.41268 211.544912 
L 135.01992 203.725106 
L 136.62716 194.22772 
L 138.2344 182.523516 
L 141.44888 155.279717 
L 143.05612 143.27197 
L 144.66336 135.08979 
L 146.2706 132.086538 
L 147.87784 134.452602 
L 149.48508 141.130122 
L 152.69956 159.067665 
L 154.3068 165.951142 
L 155.91404 169.654598 
L 157.52128 170.247539 
L 160.73576 167.493998 
L 162.343 167.90757 
L 163.95024 171.446498 
L 165.55748 178.345954 
L 170.3792 206.03719 
L 171.98644 211.322623 
L 173.59368 212.864972 
L 175.20092 211.369528 
L 176.80816 208.613563 
L 178.4154 206.801246 
L 180.02264 207.691626 
L 181.62988 211.823251 
L 184.84436 224.220845 
L 186.4516 226.989804 
L 188.05884 223.846496 
L 189.66608 213.676541 
L 191.27332 197.443438 
L 194.4878 159.70528 
L 196.09504 146.405403 
L 197.70228 140.971424 
L 199.30952 144.047134 
L 200.91676 153.973799 
L 204.13124 180.281209 
L 205.73848 189.297334 
L 207.34572 192.574473 
L 208.95296 190.135479 
L 210.5602 183.586222 
L 212.16744 175.345928 
L 213.77468 167.721708 
L 215.38192 162.166522 
L 216.98916 158.95702 
L 218.5964 157.35486 
L 220.20364 156.128562 
L 221.81088 154.202753 
L 223.41812 151.173111 
L 225.02536 147.489439 
L 226.6326 144.284818 
L 228.23984 142.921495 
L 229.84708 144.432641 
L 231.45432 149.065961 
L 233.06156 156.096881 
L 234.6688 163.975413 
L 236.27604 170.766129 
L 237.88328 174.737235 
L 239.49052 174.908436 
L 241.09776 171.384365 
L 242.705 165.353819 
L 244.31224 158.742089 
L 245.91948 153.628148 
L 247.52672 151.617156 
L 249.13396 153.366087 
L 250.7412 158.426293 
L 255.56292 179.644249 
L 257.17016 185.183943 
L 258.7774 190.261117 
L 260.38464 196.186457 
L 261.99188 204.19869 
L 263.59912 214.679783 
L 265.20636 226.62865 
L 266.8136 237.659859 
L 268.42084 244.604871 
L 270.02808 244.557803 
L 271.63532 235.993058 
L 273.24256 219.514556 
L 276.45704 175.488623 
L 278.06428 156.728921 
L 279.67152 144.993572 
L 281.27876 141.47899 
L 282.886 144.977058 
L 286.10048 160.227911 
L 287.70772 165.30064 
L 289.31496 166.32033 
L 290.9222 163.862036 
L 292.52944 159.942874 
L 294.13668 157.017319 
L 295.74392 156.895969 
L 297.35116 160.033511 
L 300.56564 171.213233 
L 302.17288 175.419757 
L 303.78012 176.930454 
L 305.38736 175.85868 
L 306.9946 173.444818 
L 308.60184 171.467631 
L 310.20908 171.45781 
L 311.81632 174.07418 
L 313.42356 178.882412 
L 315.0308 184.599012 
L 316.63804 189.654733 
L 318.24528 192.826748 
L 319.85252 193.664859 
L 321.45976 192.533684 
L 324.67424 187.982771 
L 326.28148 186.161626 
L 327.88872 184.961116 
L 329.49596 184.044045 
L 331.1032 182.92445 
L 332.71044 181.288545 
L 335.92492 177.044416 
L 337.53216 175.441687 
L 339.1394 174.909443 
L 340.74664 175.7281 
L 342.35388 177.885513 
L 343.96112 181.145684 
L 345.56836 185.153732 
L 348.78284 193.769737 
L 350.39008 197.41978 
L 351.99732 199.871236 
L 353.60456 200.56996 
L 355.2118 199.206023 
L 356.81904 195.974036 
L 358.42628 191.728883 
L 360.03352 187.914352 
L 361.64076 186.195554 
L 363.248 187.881799 
L 364.85524 193.335081 
L 366.46248 201.62322 
L 368.06972 210.602721 
L 369.67696 217.46803 
L 371.2842 219.620836 
L 372.89144 215.563498 
L 374.49868 205.482123 
L 376.10592 191.281231 
L 377.71316 176.029755 
L 379.3204 163.003451 
L 380.92764 154.676984 
L 382.53488 152.031637 
L 384.14212 154.415924 
L 385.74936 159.991922 
L 387.3566 166.551066 
L 388.96384 172.361258 
L 390.57108 176.715219 
L 393.78556 183.203125 
L 395.3928 187.408377 
L 397.00004 193.014363 
L 400.21452 205.716073 
L 401.82176 210.09154 
L 403.429 211.5881 
L 405.03624 210.026399 
L 406.64348 206.221952 
L 408.25072 201.680871 
L 409.85796 198.017878 
L 411.4652 196.353562 
L 413.07244 196.938633 
L 414.67968 199.164228 
L 416.28692 201.940646 
L 417.89416 204.251098 
L 419.5014 205.637932 
L 421.10864 206.385588 
L 422.71588 207.328055 
L 424.32312 209.375738 
L 425.93036 212.972387 
L 429.14484 222.455665 
L 430.75208 225.505042 
L 432.35932 225.465691 
L 433.96656 221.766957 
L 435.5738 215.029659 
L 437.18104 206.967022 
L 438.78828 199.839141 
L 440.39552 195.649577 
L 442.00276 195.392145 
L 443.61 198.626998 
L 443.61 198.626998 
" clip-path="url(#p82573f9678)" style="fill: none; stroke: #ff7f0e; stroke-width: 1.5; stroke-linecap: square"/>
   </g>
   <g id="line2d_16">
    <path d="M 41.8 217.534263 
L 43.40724 207.936786 
L 46.62172 178.066639 
L 48.22896 167.298997 
L 49.8362 163.737262 
L 51.44344 167.69162 
L 53.05068 176.951814 
L 54.65792 187.647586 
L 56.26516 195.585565 
L 57.8724 197.627823 
L 59.47964 192.678913 
L 61.08688 182.018421 
L 62.69412 168.915042 
L 64.30136 157.65104 
L 65.9086 152.257337 
L 67.51584 155.323433 
L 69.12308 167.184731 
L 70.73032 185.709395 
L 72.33756 206.781409 
L 73.9448 225.367448 
L 75.55204 236.885898 
L 77.15928 238.489501 
L 78.76652 229.875806 
L 80.37376 213.360759 
L 83.58824 174.06724 
L 85.19548 159.988254 
L 86.80272 152.808424 
L 88.40996 152.006978 
L 90.0172 155.118763 
L 91.62444 158.882955 
L 93.23168 160.62262 
L 94.83892 159.308286 
L 96.44616 155.8953 
L 98.0534 152.807138 
L 99.66064 152.793396 
L 101.26788 157.634235 
L 102.87512 167.245903 
L 106.0896 191.341841 
L 107.69684 199.28503 
L 109.30408 201.478787 
L 110.91132 198.100113 
L 114.1258 184.432161 
L 115.73304 180.446834 
L 117.34028 180.968521 
L 118.94752 185.558876 
L 120.55476 191.99122 
L 122.162 197.218025 
L 123.76924 198.644865 
L 125.37648 195.174627 
L 126.98372 187.594603 
L 128.59096 178.161393 
L 130.1982 169.595934 
L 131.80544 163.937939 
L 133.41268 161.72766 
L 135.01992 161.856944 
L 136.62716 162.120656 
L 138.2344 160.212139 
L 139.84164 154.732999 
L 141.44888 145.803034 
L 144.66336 124.9057 
L 146.2706 117.806181 
L 147.87784 115.164288 
L 149.48508 116.978612 
L 151.09232 121.928836 
L 152.69956 127.967954 
L 154.3068 133.125408 
L 155.91404 136.197181 
L 157.52128 137.076196 
L 160.73576 136.228148 
L 162.343 137.079213 
L 163.95024 139.742909 
L 165.55748 143.915895 
L 167.16472 148.592846 
L 168.77196 152.495053 
L 170.3792 154.595885 
L 171.98644 154.536186 
L 173.59368 152.782434 
L 175.20092 150.46989 
L 176.80816 149.00225 
L 178.4154 149.562692 
L 180.02264 152.694725 
L 181.62988 158.091618 
L 184.84436 170.769687 
L 186.4516 174.845301 
L 188.05884 175.761387 
L 189.66608 173.252717 
L 191.27332 167.997081 
L 192.88056 161.44694 
L 194.4878 155.442352 
L 196.09504 151.716518 
L 197.70228 151.460824 
L 199.30952 155.08319 
L 200.91676 162.213338 
L 202.524 171.929473 
L 207.34572 205.711045 
L 208.95296 215.651956 
L 210.5602 223.828116 
L 212.16744 229.477866 
L 213.77468 231.664235 
L 215.38192 229.417063 
L 216.98916 222.056641 
L 218.5964 209.590114 
L 220.20364 192.999361 
L 223.41812 156.128714 
L 225.02536 141.409771 
L 226.6326 132.438275 
L 228.23984 130.400458 
L 229.84708 135.018299 
L 231.45432 144.607032 
L 234.6688 167.796289 
L 236.27604 176.012598 
L 237.88328 179.777657 
L 239.49052 179.060274 
L 241.09776 175.067339 
L 242.705 169.785224 
L 244.31224 165.314386 
L 245.91948 163.208441 
L 247.52672 164.023971 
L 249.13396 167.226813 
L 250.7412 171.452667 
L 252.34844 175.054398 
L 253.95568 176.761341 
L 255.56292 176.202256 
L 258.7774 172.069907 
L 260.38464 171.959787 
L 261.99188 175.142267 
L 263.59912 181.82347 
L 266.8136 199.499024 
L 268.42084 205.065341 
L 270.02808 204.983206 
L 271.63532 198.163507 
L 273.24256 185.383926 
L 276.45704 153.013584 
L 278.06428 140.387246 
L 279.67152 133.585864 
L 281.27876 133.120853 
L 282.886 137.673993 
L 286.10048 151.183543 
L 287.70772 154.966 
L 289.31496 155.002956 
L 290.9222 151.648591 
L 292.52944 146.208736 
L 294.13668 140.258927 
L 295.74392 134.986056 
L 297.35116 130.815705 
L 302.17288 120.701497 
L 303.78012 116.909672 
L 305.38736 113.540402 
L 306.9946 111.653401 
L 308.60184 112.239755 
L 310.20908 115.776425 
L 311.81632 121.999688 
L 316.63804 146.31477 
L 318.24528 152.831026 
L 319.85252 157.910549 
L 321.45976 161.896491 
L 323.067 165.279994 
L 324.67424 168.382556 
L 326.28148 171.152527 
L 327.88872 173.159982 
L 329.49596 173.798618 
L 331.1032 172.58684 
L 332.71044 169.424801 
L 334.31768 164.721259 
L 335.92492 159.34337 
L 337.53216 154.417709 
L 339.1394 151.066996 
L 340.74664 150.162199 
L 342.35388 152.143392 
L 343.96112 156.920952 
L 345.56836 163.842611 
L 347.1756 171.73502 
L 348.78284 179.04307 
L 350.39008 184.081825 
L 351.99732 185.401998 
L 353.60456 182.198614 
L 355.2118 174.65625 
L 360.03352 143.571666 
L 361.64076 138.724309 
L 363.248 139.548503 
L 364.85524 145.65076 
L 368.06972 164.267724 
L 369.67696 170.215808 
L 371.2842 170.40307 
L 372.89144 164.230252 
L 374.49868 153.160182 
L 376.10592 140.287665 
L 377.71316 129.336325 
L 379.3204 123.426351 
L 380.92764 124.053829 
L 382.53488 130.635626 
L 385.74936 151.188401 
L 387.3566 158.75196 
L 388.96384 161.589327 
L 390.57108 159.507082 
L 392.17832 153.85134 
L 393.78556 146.844091 
L 395.3928 140.704919 
L 397.00004 136.903639 
L 398.60728 135.813436 
L 400.21452 136.842526 
L 406.64348 145.303825 
L 408.25072 148.102384 
L 409.85796 152.134678 
L 411.4652 157.407088 
L 413.07244 163.242639 
L 414.67968 168.474656 
L 416.28692 171.913638 
L 417.89416 172.866652 
L 419.5014 171.491277 
L 422.71588 166.254216 
L 424.32312 165.234704 
L 425.93036 166.388382 
L 427.5376 169.360234 
L 429.14484 172.912329 
L 430.75208 175.446125 
L 432.35932 175.739823 
L 433.96656 173.59545 
L 435.5738 170.094416 
L 437.18104 167.312329 
L 438.78828 167.555422 
L 440.39552 172.375433 
L 442.00276 181.757052 
L 443.61 193.808958 
L 443.61 193.808958 
" clip-path="url(#p82573f9678)" style="fill: none; stroke: #2ca02c; stroke-width: 1.5; stroke-linecap: square"/>
   </g>
   <g id="line2d_17">
    <path d="M 41.8 237.551368 
L 43.40724 237.93823 
L 45.01448 234.605004 
L 46.62172 227.780115 
L 48.22896 219.084822 
L 49.8362 211.051203 
L 51.44344 206.206005 
L 53.05068 206.07435 
L 54.65792 210.52561 
L 57.8724 224.893603 
L 59.47964 229.148953 
L 61.08688 228.837947 
L 62.69412 224.082208 
L 65.9086 209.674723 
L 67.51584 205.496405 
L 69.12308 205.484213 
L 70.73032 208.928328 
L 72.33756 213.320229 
L 73.9448 215.277842 
L 75.55204 211.865577 
L 77.15928 201.790669 
L 78.76652 185.993501 
L 81.981 149.91201 
L 83.58824 137.079133 
L 85.19548 130.887802 
L 86.80272 131.230177 
L 88.40996 136.176004 
L 90.0172 142.923352 
L 91.62444 149.011837 
L 93.23168 153.293063 
L 94.83892 156.266244 
L 96.44616 159.649619 
L 98.0534 165.404904 
L 99.66064 174.659208 
L 101.26788 186.998619 
L 102.87512 200.459573 
L 104.48236 212.233845 
L 106.0896 219.796919 
L 107.69684 221.973553 
L 109.30408 219.502508 
L 110.91132 214.85563 
L 112.51856 211.312633 
L 114.1258 211.674705 
L 115.73304 217.14808 
L 117.34028 226.834101 
L 118.94752 238.016357 
L 120.55476 247.144058 
L 122.162 251.122185 
L 123.76924 248.409057 
L 125.37648 239.514584 
L 130.1982 201.484412 
L 131.80544 193.256641 
L 133.41268 188.162989 
L 135.01992 184.527417 
L 136.62716 180.122597 
L 138.2344 173.196729 
L 139.84164 163.258289 
L 143.05612 139.485867 
L 144.66336 130.195119 
L 146.2706 125.234096 
L 147.87784 125.117205 
L 149.48508 128.943048 
L 152.69956 140.454475 
L 154.3068 144.239572 
L 155.91404 145.479472 
L 157.52128 144.626612 
L 159.12852 142.905694 
L 160.73576 141.699306 
L 162.343 141.931382 
L 163.95024 143.697754 
L 165.55748 146.280678 
L 167.16472 148.517863 
L 168.77196 149.349236 
L 170.3792 148.31726 
L 171.98644 145.820996 
L 173.59368 143.013774 
L 175.20092 141.377235 
L 176.80816 142.149878 
L 178.4154 145.826709 
L 180.02264 151.904111 
L 181.62988 158.963891 
L 183.23712 165.07189 
L 184.84436 168.344886 
L 186.4516 167.501925 
L 188.05884 162.232798 
L 189.66608 153.283242 
L 192.88056 131.140963 
L 194.4878 121.932328 
L 196.09504 116.118623 
L 197.70228 114.482024 
L 199.30952 117.030076 
L 200.91676 123.093736 
L 202.524 131.517622 
L 205.73848 149.665351 
L 207.34572 156.481112 
L 208.95296 160.190237 
L 210.5602 160.106921 
L 212.16744 156.142688 
L 213.77468 148.883975 
L 218.5964 120.995812 
L 220.20364 114.707786 
L 221.81088 111.407878 
L 223.41812 110.882547 
L 225.02536 112.269803 
L 226.6326 114.428467 
L 228.23984 116.381038 
L 229.84708 117.65353 
L 233.06156 119.164422 
L 234.6688 120.676393 
L 236.27604 123.348396 
L 237.88328 127.120163 
L 241.09776 135.661033 
L 242.705 139.1321 
L 244.31224 141.73996 
L 247.52672 146.042636 
L 249.13396 148.909285 
L 253.95568 159.654925 
L 255.56292 161.448197 
L 257.17016 161.494199 
L 260.38464 159.168969 
L 261.99188 159.422156 
L 263.59912 161.900308 
L 266.8136 170.558987 
L 268.42084 172.144689 
L 270.02808 168.108015 
L 271.63532 156.667703 
L 273.24256 138.02204 
L 276.45704 90.58341 
L 278.06428 70.568059 
L 279.67152 58.25378 
L 281.27876 55.224136 
L 282.886 60.522644 
L 284.49324 71.101514 
L 286.10048 82.986827 
L 287.70772 92.703354 
L 289.31496 98.420042 
L 290.9222 100.38226 
L 292.52944 100.502976 
L 294.13668 101.326286 
L 295.74392 104.811928 
L 297.35116 111.451231 
L 300.56564 128.329677 
L 302.17288 133.826289 
L 303.78012 135.08857 
L 305.38736 132.278333 
L 306.9946 127.168443 
L 308.60184 122.474594 
L 310.20908 120.809542 
L 311.81632 123.685462 
L 313.42356 130.959047 
L 316.63804 150.949058 
L 318.24528 158.47183 
L 319.85252 161.831052 
L 321.45976 160.748468 
L 323.067 156.263194 
L 326.28148 144.624684 
L 327.88872 140.834079 
L 329.49596 139.349336 
L 331.1032 139.773655 
L 334.31768 142.372523 
L 335.92492 142.624201 
L 337.53216 141.529008 
L 339.1394 139.188383 
L 342.35388 132.801277 
L 343.96112 130.088155 
L 345.56836 128.491698 
L 347.1756 128.357974 
L 348.78284 129.720636 
L 350.39008 132.238713 
L 351.99732 135.208736 
L 353.60456 137.688534 
L 355.2118 138.740653 
L 356.81904 137.758461 
L 358.42628 134.750855 
L 361.64076 126.150001 
L 363.248 123.262283 
L 364.85524 122.779984 
L 366.46248 124.800457 
L 368.06972 128.340773 
L 369.67696 131.558998 
L 371.2842 132.343035 
L 372.89144 129.067132 
L 374.49868 121.229061 
L 376.10592 109.714544 
L 379.3204 84.267078 
L 380.92764 74.993625 
L 382.53488 69.820491 
L 384.14212 68.490703 
L 385.74936 69.635816 
L 387.3566 71.415771 
L 388.96384 72.295574 
L 390.57108 71.640339 
L 392.17832 69.9035 
L 393.78556 68.351203 
L 395.3928 68.47215 
L 397.00004 71.31949 
L 398.60728 77.072868 
L 400.21452 84.978739 
L 401.82176 93.672141 
L 403.429 101.720332 
L 405.03624 108.139953 
L 406.64348 112.675675 
L 408.25072 115.746514 
L 411.4652 120.470154 
L 414.67968 125.750559 
L 416.28692 127.955076 
L 417.89416 129.188602 
L 419.5014 129.236169 
L 421.10864 128.27914 
L 424.32312 125.139342 
L 425.93036 123.524017 
L 427.5376 121.622997 
L 429.14484 118.837352 
L 430.75208 114.614864 
L 432.35932 108.868013 
L 433.96656 102.260441 
L 435.5738 96.18489 
L 437.18104 92.393343 
L 438.78828 92.377235 
L 440.39552 96.722904 
L 442.00276 104.712037 
L 443.61 114.334527 
L 443.61 114.334527 
" clip-path="url(#p82573f9678)" style="fill: none; stroke: #d62728; stroke-width: 1.5; stroke-linecap: square"/>
   </g>
   <g id="line2d_18">
    <path d="M 41.8 201.916963 
L 45.01448 189.686551 
L 49.8362 169.034194 
L 51.44344 164.407577 
L 53.05068 163.234254 
L 54.65792 166.026163 
L 56.26516 171.939847 
L 57.8724 178.879054 
L 59.47964 184.197555 
L 61.08688 185.765495 
L 62.69412 182.94384 
L 65.9086 170.719677 
L 67.51584 167.321742 
L 69.12308 169.036369 
L 70.73032 175.999476 
L 72.33756 185.953975 
L 73.9448 194.94273 
L 75.55204 198.767657 
L 77.15928 194.654909 
L 78.76652 182.453666 
L 81.981 146.457414 
L 83.58824 132.172218 
L 85.19548 125.358621 
L 86.80272 126.673683 
L 88.40996 133.956503 
L 90.0172 143.227428 
L 91.62444 150.38176 
L 93.23168 152.889067 
L 94.83892 150.799595 
L 96.44616 146.651445 
L 98.0534 144.325903 
L 99.66064 147.339343 
L 101.26788 157.286522 
L 102.87512 173.079385 
L 104.48236 191.291326 
L 106.0896 207.46361 
L 107.69684 217.821445 
L 109.30408 220.73762 
L 110.91132 217.365443 
L 112.51856 211.123443 
L 114.1258 206.292904 
L 115.73304 206.307823 
L 117.34028 212.403646 
L 118.94752 223.14898 
L 120.55476 235.031662 
L 122.162 243.850988 
L 123.76924 246.365393 
L 125.37648 241.53157 
L 126.98372 230.849317 
L 128.59096 217.687474 
L 130.1982 205.874554 
L 131.80544 198.138609 
L 133.41268 195.009677 
L 135.01992 194.649491 
L 136.62716 193.67538 
L 138.2344 188.647452 
L 139.84164 177.637504 
L 141.44888 161.227208 
L 143.05612 142.519852 
L 144.66336 126.129188 
L 146.2706 116.514761 
L 147.87784 116.29863 
L 149.48508 125.218121 
L 152.69956 155.998761 
L 154.3068 167.759498 
L 155.91404 171.964719 
L 157.52128 168.004877 
L 159.12852 158.212507 
L 160.73576 146.901411 
L 162.343 138.713027 
L 163.95024 136.89085 
L 165.55748 142.135242 
L 167.16472 152.455121 
L 168.77196 164.025636 
L 170.3792 172.709754 
L 171.98644 175.643529 
L 173.59368 172.28256 
L 175.20092 164.520533 
L 176.80816 155.868007 
L 178.4154 150.032563 
L 180.02264 149.451496 
L 181.62988 154.325357 
L 184.84436 170.315964 
L 186.4516 173.813626 
L 188.05884 170.31321 
L 189.66608 159.350197 
L 191.27332 142.910591 
L 192.88056 124.815994 
L 194.4878 109.51804 
L 196.09504 100.719149 
L 197.70228 100.289496 
L 199.30952 107.808309 
L 200.91676 120.837174 
L 202.524 135.787293 
L 204.13124 149.043016 
L 205.73848 157.957206 
L 207.34572 161.420847 
L 208.95296 159.897481 
L 210.5602 154.979491 
L 213.77468 142.65106 
L 215.38192 137.853631 
L 216.98916 134.312908 
L 220.20364 128.410203 
L 221.81088 124.771992 
L 223.41812 120.649375 
L 225.02536 116.833643 
L 226.6326 114.530662 
L 228.23984 114.922464 
L 229.84708 118.674826 
L 231.45432 125.582217 
L 234.6688 143.477754 
L 236.27604 150.503212 
L 237.88328 153.902602 
L 239.49052 153.00005 
L 241.09776 148.377393 
L 244.31224 135.521321 
L 245.91948 131.935403 
L 247.52672 132.466361 
L 249.13396 137.27648 
L 250.7412 145.170786 
L 252.34844 154.025091 
L 253.95568 161.575628 
L 255.56292 166.284417 
L 257.17016 167.961984 
L 258.7774 167.869509 
L 260.38464 168.228721 
L 261.99188 171.300011 
L 263.59912 178.349786 
L 265.20636 188.909031 
L 266.8136 200.654974 
L 268.42084 210.001898 
L 270.02808 213.247345 
L 271.63532 207.882167 
L 273.24256 193.585987 
L 274.8498 172.518282 
L 276.45704 148.769952 
L 278.06428 127.145121 
L 279.67152 111.696618 
L 281.27876 104.539512 
L 282.886 105.349501 
L 284.49324 111.708486 
L 286.10048 120.142492 
L 287.70772 127.438384 
L 289.31496 131.731089 
L 290.9222 132.960413 
L 292.52944 132.575065 
L 294.13668 132.657104 
L 295.74392 134.864381 
L 297.35116 139.663347 
L 300.56564 152.424509 
L 302.17288 156.582414 
L 303.78012 157.458183 
L 305.38736 155.224182 
L 306.9946 151.331006 
L 308.60184 147.924669 
L 310.20908 146.975235 
L 311.81632 149.500021 
L 313.42356 155.192487 
L 316.63804 169.62371 
L 318.24528 174.498353 
L 319.85252 176.233094 
L 321.45976 174.946616 
L 323.067 171.649012 
L 324.67424 167.761848 
L 326.28148 164.544697 
L 327.88872 162.653401 
L 329.49596 162.027764 
L 332.71044 162.067054 
L 334.31768 161.409885 
L 335.92492 159.914425 
L 337.53216 157.749013 
L 340.74664 153.056356 
L 342.35388 151.367849 
L 343.96112 150.524404 
L 345.56836 150.692996 
L 347.1756 151.933893 
L 348.78284 154.161576 
L 351.99732 160.102807 
L 353.60456 162.514361 
L 355.2118 163.570022 
L 356.81904 162.833661 
L 358.42628 160.441269 
L 360.03352 157.197686 
L 361.64076 154.383058 
L 363.248 153.301878 
L 364.85524 154.720031 
L 366.46248 158.411756 
L 368.06972 163.036592 
L 369.67696 166.45305 
L 371.2842 166.407119 
L 372.89144 161.362313 
L 374.49868 151.153428 
L 376.10592 137.201207 
L 377.71316 122.159 
L 379.3204 109.09161 
L 380.92764 100.485185 
L 382.53488 97.462842 
L 384.14212 99.496707 
L 385.74936 104.728114 
L 387.3566 110.759362 
L 388.96384 115.605935 
L 390.57108 118.423681 
L 393.78556 121.080444 
L 395.3928 124.271259 
L 397.00004 130.519181 
L 398.60728 139.844702 
L 401.82176 161.756835 
L 403.429 169.979666 
L 405.03624 174.16703 
L 406.64348 174.120393 
L 408.25072 170.948305 
L 409.85796 166.607745 
L 411.4652 163.155236 
L 413.07244 162.009334 
L 414.67968 163.513757 
L 416.28692 166.957391 
L 417.89416 170.995767 
L 419.5014 174.277264 
L 421.10864 175.987953 
L 422.71588 176.096539 
L 425.93036 174.234861 
L 427.5376 173.683908 
L 429.14484 173.50839 
L 430.75208 172.992066 
L 432.35932 171.113338 
L 433.96656 167.097973 
L 435.5738 160.934899 
L 437.18104 153.607671 
L 438.78828 146.879108 
L 440.39552 142.690852 
L 442.00276 142.39949 
L 443.61 146.121413 
L 443.61 146.121413 
" clip-path="url(#p82573f9678)" style="fill: none; stroke: #9467bd; stroke-width: 1.5; stroke-linecap: square"/>
   </g>
   <g id="line2d_19">
    <path d="M 41.8 214.494463 
L 43.40724 216.165574 
L 45.01448 214.677553 
L 46.62172 210.709263 
L 48.22896 205.667045 
L 49.8362 201.168883 
L 51.44344 198.389272 
L 53.05068 197.537498 
L 54.65792 197.71898 
L 56.26516 197.286883 
L 57.8724 194.562471 
L 59.47964 188.653057 
L 61.08688 180.03839 
L 62.69412 170.631538 
L 64.30136 163.227554 
L 65.9086 160.510074 
L 67.51584 163.952541 
L 69.12308 173.05432 
L 72.33756 196.609379 
L 73.9448 203.097623 
L 75.55204 202.000925 
L 77.15928 192.930007 
L 78.76652 178.026334 
L 80.37376 161.252395 
L 81.981 147.009686 
L 83.58824 138.590567 
L 85.19548 137.036806 
L 86.80272 140.878469 
L 88.40996 146.836227 
L 90.0172 151.212149 
L 91.62444 151.437029 
L 93.23168 147.146808 
L 94.83892 140.350569 
L 96.44616 134.607654 
L 98.0534 133.544515 
L 99.66064 139.303499 
L 101.26788 151.56019 
L 104.48236 182.94033 
L 106.0896 193.720271 
L 107.69684 197.484448 
L 109.30408 194.496931 
L 112.51856 180.968335 
L 114.1258 178.655051 
L 115.73304 182.785852 
L 117.34028 192.844758 
L 118.94752 205.858332 
L 120.55476 217.55134 
L 122.162 223.985512 
L 123.76924 223.022714 
L 125.37648 215.052634 
L 128.59096 189.840651 
L 130.1982 179.803779 
L 131.80544 174.383889 
L 133.41268 173.129368 
L 135.01992 173.71467 
L 136.62716 173.005124 
L 138.2344 168.381774 
L 139.84164 158.799757 
L 141.44888 145.163224 
L 143.05612 129.926003 
L 144.66336 116.107295 
L 146.2706 106.158354 
L 147.87784 101.13858 
L 149.48508 100.487036 
L 151.09232 102.434856 
L 152.69956 104.831166 
L 154.3068 106.019525 
L 155.91404 105.42165 
L 159.12852 101.957332 
L 160.73576 101.86823 
L 162.343 104.182917 
L 163.95024 108.739146 
L 165.55748 114.402868 
L 167.16472 119.489587 
L 168.77196 122.403807 
L 170.3792 122.262054 
L 171.98644 119.278028 
L 173.59368 114.780648 
L 175.20092 110.845086 
L 176.80816 109.659179 
L 178.4154 112.816336 
L 180.02264 120.734232 
L 181.62988 132.365648 
L 183.23712 145.323518 
L 184.84436 156.40909 
L 186.4516 162.434772 
L 188.05884 161.149769 
L 189.66608 152.010826 
L 191.27332 136.525566 
L 192.88056 118.025147 
L 194.4878 100.895926 
L 196.09504 89.434868 
L 197.70228 86.662727 
L 199.30952 93.468704 
L 200.91676 108.375083 
L 204.13124 148.235943 
L 205.73848 165.275386 
L 207.34572 176.913701 
L 208.95296 182.90708 
L 210.5602 184.750529 
L 212.16744 184.814407 
L 213.77468 185.208025 
L 215.38192 186.810055 
L 216.98916 188.841316 
L 218.5964 189.159019 
L 220.20364 185.151629 
L 221.81088 174.89738 
L 223.41812 158.137671 
L 228.23984 94.379182 
L 229.84708 81.493105 
L 231.45432 77.330042 
L 233.06156 81.600753 
L 234.6688 91.916344 
L 236.27604 104.675545 
L 237.88328 116.310651 
L 239.49052 124.456425 
L 241.09776 128.638408 
L 244.31224 131.670709 
L 245.91948 135.426504 
L 247.52672 142.807335 
L 249.13396 153.390329 
L 250.7412 165.085386 
L 252.34844 174.893132 
L 253.95568 180.079026 
L 255.56292 179.294311 
L 257.17016 173.204409 
L 258.7774 164.345045 
L 260.38464 156.223124 
L 261.99188 151.994956 
L 263.59912 153.195417 
L 265.20636 159.019792 
L 266.8136 166.4669 
L 268.42084 171.341809 
L 270.02808 169.774153 
L 271.63532 159.710135 
L 273.24256 141.783299 
L 276.45704 97.027402 
L 278.06428 80.016255 
L 279.67152 71.57279 
L 281.27876 72.443629 
L 282.886 80.673898 
L 286.10048 103.520036 
L 287.70772 110.698829 
L 289.31496 112.781365 
L 290.9222 110.675853 
L 292.52944 106.693166 
L 294.13668 103.383578 
L 295.74392 102.40479 
L 297.35116 103.909799 
L 298.9584 106.666566 
L 300.56564 108.799307 
L 302.17288 108.790547 
L 303.78012 106.266067 
L 305.38736 102.230277 
L 306.9946 98.648316 
L 308.60184 97.591823 
L 310.20908 100.322433 
L 311.81632 106.716991 
L 315.0308 123.739394 
L 316.63804 129.898458 
L 318.24528 132.45885 
L 319.85252 131.403326 
L 321.45976 127.842759 
L 323.067 123.447245 
L 324.67424 119.75017 
L 326.28148 117.613141 
L 327.88872 117.053136 
L 329.49596 117.465594 
L 331.1032 118.075729 
L 332.71044 118.361048 
L 334.31768 118.246798 
L 335.92492 117.998133 
L 337.53216 117.917732 
L 340.74664 118.097473 
L 342.35388 117.562156 
L 343.96112 116.122689 
L 347.1756 111.647131 
L 348.78284 110.32745 
L 350.39008 110.851714 
L 351.99732 113.482249 
L 355.2118 121.750529 
L 356.81904 124.325975 
L 358.42628 124.106699 
L 360.03352 120.912486 
L 363.248 110.414075 
L 364.85524 106.775632 
L 366.46248 105.875176 
L 368.06972 107.385799 
L 369.67696 109.604461 
L 371.2842 110.058054 
L 372.89144 106.501469 
L 374.49868 97.901485 
L 376.10592 84.983314 
L 377.71316 70.096252 
L 379.3204 56.419854 
L 380.92764 46.816671 
L 382.53488 42.791472 
L 384.14212 43.976617 
L 385.74936 48.347254 
L 387.3566 53.085512 
L 388.96384 55.729493 
L 390.57108 55.14326 
L 392.17832 51.920359 
L 393.78556 48.074379 
L 395.3928 46.157551 
L 397.00004 48.169063 
L 398.60728 54.71917 
L 400.21452 64.764129 
L 401.82176 76.001917 
L 403.429 85.762133 
L 405.03624 92.004135 
L 406.64348 94.017978 
L 408.25072 92.568014 
L 409.85796 89.459231 
L 411.4652 86.742471 
L 413.07244 85.906123 
L 414.67968 87.391515 
L 416.28692 90.616292 
L 417.89416 94.419362 
L 419.5014 97.708704 
L 421.10864 99.978948 
L 424.32312 102.9109 
L 425.93036 105.011951 
L 427.5376 107.949641 
L 429.14484 111.156553 
L 430.75208 113.529706 
L 432.35932 113.994215 
L 433.96656 112.171606 
L 437.18104 105.648929 
L 438.78828 104.940239 
L 440.39552 108.378064 
L 442.00276 116.267287 
L 443.61 127.04523 
L 443.61 127.04523 
" clip-path="url(#p82573f9678)" style="fill: none; stroke: #8c564b; stroke-width: 1.5; stroke-linecap: square"/>
   </g>
   <g id="line2d_20">
    <path d="M 41.8 122.649847 
L 43.40724 124.13056 
L 45.01448 127.217394 
L 46.62172 132.171998 
L 48.22896 138.63566 
L 49.8362 145.622974 
L 51.44344 151.803772 
L 53.05068 155.972446 
L 54.65792 157.512293 
L 56.26516 156.648608 
L 59.47964 151.991824 
L 61.08688 150.666539 
L 62.69412 150.839975 
L 65.9086 153.531963 
L 67.51584 153.988698 
L 69.12308 152.959808 
L 72.33756 148.864902 
L 73.9448 148.745671 
L 75.55204 151.820468 
L 77.15928 158.437642 
L 80.37376 177.395094 
L 81.981 185.318196 
L 83.58824 189.58464 
L 85.19548 189.66832 
L 86.80272 186.558551 
L 88.40996 182.353457 
L 90.0172 179.374647 
L 91.62444 179.161091 
L 93.23168 181.775348 
L 94.83892 185.724956 
L 96.44616 188.557789 
L 98.0534 187.89636 
L 99.66064 182.47415 
L 101.26788 172.733987 
L 104.48236 149.28792 
L 106.0896 140.955214 
L 107.69684 136.875691 
L 109.30408 136.362888 
L 110.91132 137.16047 
L 112.51856 136.392806 
L 114.1258 131.807097 
L 115.73304 122.770919 
L 118.94752 98.262522 
L 120.55476 89.061193 
L 122.162 85.646035 
L 123.76924 88.918891 
L 125.37648 97.766092 
L 128.59096 121.104443 
L 130.1982 130.038283 
L 131.80544 135.490618 
L 133.41268 138.389581 
L 135.01992 140.937403 
L 136.62716 145.619063 
L 138.2344 154.128927 
L 139.84164 166.635941 
L 143.05612 196.613614 
L 144.66336 208.688869 
L 146.2706 215.875919 
L 147.87784 217.584916 
L 149.48508 214.750224 
L 152.69956 203.744023 
L 154.3068 199.584316 
L 155.91404 197.542927 
L 157.52128 197.100299 
L 159.12852 196.940496 
L 160.73576 195.60851 
L 162.343 192.180103 
L 163.95024 186.677475 
L 165.55748 180.086244 
L 167.16472 173.982849 
L 168.77196 169.922532 
L 170.3792 168.825551 
L 171.98644 170.593396 
L 175.20092 177.542418 
L 176.80816 179.098305 
L 178.4154 177.526836 
L 180.02264 172.642699 
L 183.23712 157.673114 
L 184.84436 151.582564 
L 186.4516 148.951196 
L 188.05884 150.696996 
L 189.66608 156.573587 
L 191.27332 165.256257 
L 192.88056 174.741424 
L 194.4878 182.904774 
L 196.09504 188.050744 
L 197.70228 189.292223 
L 199.30952 186.674008 
L 200.91676 181.040017 
L 204.13124 166.167753 
L 205.73848 159.635608 
L 207.34572 154.988353 
L 208.95296 152.634459 
L 210.5602 152.559153 
L 212.16744 154.415622 
L 213.77468 157.643084 
L 218.5964 169.434979 
L 220.20364 172.683104 
L 226.6326 184.000339 
L 228.23984 187.257141 
L 229.84708 190.244867 
L 231.45432 192.339715 
L 233.06156 192.979343 
L 234.6688 191.91855 
L 236.27604 189.372148 
L 239.49052 182.606647 
L 241.09776 179.935565 
L 242.705 178.235838 
L 245.91948 176.157239 
L 247.52672 174.287731 
L 249.13396 171.153138 
L 250.7412 166.898011 
L 252.34844 162.243498 
L 253.95568 158.16109 
L 255.56292 155.37285 
L 257.17016 153.906972 
L 258.7774 152.949226 
L 260.38464 151.102326 
L 261.99188 146.990907 
L 263.59912 139.977632 
L 266.8136 121.004404 
L 268.42084 113.678217 
L 270.02808 111.31634 
L 271.63532 115.453268 
L 273.24256 125.876027 
L 274.8498 140.563022 
L 276.45704 156.287831 
L 278.06428 169.680635 
L 279.67152 178.350884 
L 281.27876 181.641358 
L 282.886 180.732349 
L 284.49324 178.069075 
L 286.10048 176.349707 
L 287.70772 177.476441 
L 289.31496 181.880421 
L 292.52944 195.243456 
L 294.13668 200.133232 
L 295.74392 201.969327 
L 297.35116 200.919305 
L 298.9584 198.38568 
L 300.56564 196.370905 
L 302.17288 196.601306 
L 303.78012 199.777931 
L 305.38736 205.251315 
L 306.9946 211.247051 
L 308.60184 215.537942 
L 310.20908 216.280433 
L 311.81632 212.689269 
L 313.42356 205.29377 
L 316.63804 186.043773 
L 318.24528 178.189293 
L 319.85252 173.26547 
L 321.45976 171.409895 
L 323.067 171.9327 
L 324.67424 173.721363 
L 326.28148 175.705509 
L 327.88872 177.206222 
L 329.49596 178.049859 
L 331.1032 178.439658 
L 334.31768 179.076282 
L 337.53216 179.947405 
L 339.1394 180.01617 
L 340.74664 179.58666 
L 342.35388 178.631321 
L 343.96112 177.245703 
L 345.56836 175.570864 
L 348.78284 171.70878 
L 351.99732 167.50688 
L 353.60456 165.720113 
L 355.2118 164.677761 
L 356.81904 164.83447 
L 358.42628 166.452592 
L 360.03352 169.41522 
L 363.248 176.827807 
L 364.85524 179.494754 
L 366.46248 180.563497 
L 368.06972 179.999851 
L 371.2842 176.823013 
L 372.89144 176.398053 
L 374.49868 177.937608 
L 376.10592 181.628172 
L 377.71316 186.972045 
L 380.92764 198.588022 
L 382.53488 202.960381 
L 384.14212 205.80325 
L 385.74936 207.319606 
L 387.3566 207.992042 
L 388.96384 208.254774 
L 390.57108 208.227264 
L 392.17832 207.63481 
L 393.78556 205.955287 
L 395.3928 202.715566 
L 397.00004 197.795874 
L 401.82176 178.985541 
L 403.429 174.461501 
L 405.03624 171.757986 
L 406.64348 170.626223 
L 409.85796 170.183746 
L 411.4652 169.505445 
L 413.07244 168.257603 
L 414.67968 166.840313 
L 416.28692 165.888261 
L 417.89416 165.915405 
L 419.5014 167.010178 
L 422.71588 170.331592 
L 424.32312 171.021276 
L 425.93036 170.464639 
L 429.14484 167.475877 
L 430.75208 167.198129 
L 432.35932 169.153295 
L 433.96656 173.671682 
L 435.5738 180.161119 
L 437.18104 187.217049 
L 438.78828 193.056094 
L 440.39552 196.126625 
L 442.00276 195.667064 
L 443.61 192.004919 
L 443.61 192.004919 
" clip-path="url(#p82573f9678)" style="fill: none; stroke: #e377c2; stroke-width: 1.5; stroke-linecap: square"/>
   </g>
   <g id="line2d_21">
    <path d="M 41.8 192.010244 
L 43.40724 195.51834 
L 45.01448 192.986022 
L 46.62172 185.154452 
L 51.44344 152.698382 
L 53.05068 146.110519 
L 54.65792 142.982308 
L 56.26516 142.727039 
L 57.8724 144.507143 
L 59.47964 147.809724 
L 61.08688 152.766164 
L 62.69412 159.971065 
L 64.30136 169.885458 
L 69.12308 206.579555 
L 70.73032 212.922349 
L 72.33756 211.785649 
L 73.9448 202.238868 
L 75.55204 185.550819 
L 78.76652 145.43765 
L 80.37376 131.110875 
L 81.981 125.112187 
L 83.58824 128.037164 
L 85.19548 137.928846 
L 86.80272 150.969756 
L 88.40996 162.770522 
L 90.0172 169.80019 
L 91.62444 170.430037 
L 93.23168 165.25415 
L 96.44616 147.645853 
L 98.0534 140.907376 
L 99.66064 137.683698 
L 101.26788 137.629912 
L 102.87512 139.218508 
L 104.48236 140.621026 
L 106.0896 140.642151 
L 109.30408 137.865598 
L 110.91132 138.09416 
L 112.51856 141.404551 
L 114.1258 147.947747 
L 115.73304 156.267265 
L 117.34028 163.673595 
L 118.94752 167.188479 
L 120.55476 164.721511 
L 122.162 156.039688 
L 125.37648 129.496783 
L 126.98372 119.425067 
L 128.59096 116.139968 
L 130.1982 120.883344 
L 131.80544 132.443614 
L 135.01992 162.209307 
L 136.62716 172.667311 
L 138.2344 176.993448 
L 139.84164 175.358713 
L 141.44888 169.774402 
L 143.05612 163.15887 
L 144.66336 158.17348 
L 146.2706 156.281921 
L 147.87784 157.378489 
L 149.48508 160.0936 
L 151.09232 162.553166 
L 152.69956 163.260397 
L 154.3068 161.745811 
L 157.52128 155.538998 
L 159.12852 153.825661 
L 160.73576 154.483637 
L 162.343 157.43138 
L 163.95024 161.615797 
L 165.55748 165.486843 
L 167.16472 167.639746 
L 168.77196 167.359873 
L 170.3792 164.889249 
L 173.59368 157.906952 
L 175.20092 155.930851 
L 176.80816 155.847031 
L 178.4154 157.368383 
L 180.02264 159.6104 
L 181.62988 161.504431 
L 183.23712 162.266222 
L 184.84436 161.711051 
L 188.05884 158.920726 
L 189.66608 158.469489 
L 191.27332 159.496288 
L 192.88056 161.976538 
L 196.09504 168.77075 
L 197.70228 171.53262 
L 199.30952 173.392468 
L 200.91676 174.73559 
L 202.524 176.457735 
L 204.13124 179.614947 
L 205.73848 184.963354 
L 207.34572 192.563515 
L 210.5602 210.487085 
L 212.16744 217.360962 
L 213.77468 220.620754 
L 215.38192 219.49686 
L 216.98916 214.354601 
L 220.20364 198.445271 
L 221.81088 191.845342 
L 223.41812 188.234607 
L 225.02536 187.911262 
L 226.6326 190.008282 
L 228.23984 192.834602 
L 229.84708 194.510995 
L 231.45432 193.664556 
L 233.06156 189.92481 
L 234.6688 184.040123 
L 236.27604 177.566488 
L 237.88328 172.264549 
L 239.49052 169.448909 
L 241.09776 169.528235 
L 242.705 171.875302 
L 244.31224 175.122595 
L 245.91948 177.718494 
L 247.52672 178.508173 
L 249.13396 177.131208 
L 250.7412 174.116904 
L 252.34844 170.637444 
L 253.95568 168.039944 
L 255.56292 167.336352 
L 257.17016 168.88 
L 258.7774 172.339211 
L 265.20636 190.611297 
L 268.42084 198.86421 
L 270.02808 203.659707 
L 273.24256 214.175491 
L 274.8498 218.659416 
L 276.45704 221.626137 
L 278.06428 222.589459 
L 279.67152 221.493685 
L 281.27876 218.713926 
L 282.886 214.899284 
L 286.10048 206.649821 
L 289.31496 198.940452 
L 290.9222 194.655679 
L 292.52944 189.532573 
L 294.13668 183.397901 
L 298.9584 162.712921 
L 300.56564 157.629433 
L 302.17288 154.666503 
L 303.78012 154.015137 
L 305.38736 155.330584 
L 308.60184 160.45945 
L 310.20908 162.392653 
L 311.81632 163.212168 
L 315.0308 163.174753 
L 316.63804 164.348342 
L 318.24528 167.651664 
L 319.85252 173.306477 
L 323.067 187.607549 
L 324.67424 192.457516 
L 326.28148 193.304357 
L 327.88872 189.444389 
L 329.49596 181.66973 
L 331.1032 172.200425 
L 332.71044 164.030878 
L 334.31768 159.887893 
L 335.92492 161.201001 
L 337.53216 167.483603 
L 339.1394 176.400118 
L 340.74664 184.549841 
L 342.35388 188.698491 
L 343.96112 187.000228 
L 345.56836 179.733821 
L 348.78284 159.072298 
L 350.39008 152.650591 
L 351.99732 151.988143 
L 353.60456 156.92903 
L 356.81904 173.518218 
L 358.42628 178.508672 
L 360.03352 178.377627 
L 361.64076 173.349671 
L 364.85524 158.032031 
L 366.46248 153.640138 
L 368.06972 153.823802 
L 369.67696 158.202123 
L 372.89144 171.086249 
L 374.49868 174.84876 
L 376.10592 175.267431 
L 377.71316 173.062058 
L 379.3204 170.120765 
L 380.92764 168.618115 
L 382.53488 170.025051 
L 384.14212 174.447568 
L 385.74936 180.546564 
L 387.3566 186.037705 
L 388.96384 188.551988 
L 390.57108 186.52327 
L 392.17832 179.785862 
L 393.78556 169.672594 
L 395.3928 158.605388 
L 397.00004 149.347776 
L 398.60728 144.198847 
L 400.21452 144.387722 
L 401.82176 149.810997 
L 403.429 159.117627 
L 405.03624 170.103963 
L 406.64348 180.286359 
L 408.25072 187.492118 
L 409.85796 190.352947 
L 411.4652 188.591319 
L 413.07244 183.06141 
L 416.28692 168.366253 
L 417.89416 163.729507 
L 419.5014 163.219582 
L 421.10864 167.297491 
L 422.71588 175.142729 
L 425.93036 193.961287 
L 427.5376 200.208819 
L 429.14484 202.226431 
L 430.75208 199.998623 
L 432.35932 194.876223 
L 433.96656 189.142923 
L 435.5738 185.262489 
L 437.18104 185.062002 
L 438.78828 189.138134 
L 440.39552 196.685665 
L 442.00276 205.782941 
L 443.61 214.049848 
L 443.61 214.049848 
" clip-path="url(#p82573f9678)" style="fill: none; stroke: #7f7f7f; stroke-width: 1.5; stroke-linecap: square"/>
   </g>
   <g id="line2d_22">
    <path d="M 41.8 119.561949 
L 43.40724 119.311796 
L 45.01448 125.245695 
L 48.22896 145.615796 
L 49.8362 153.50751 
L 51.44344 156.619183 
L 53.05068 154.526319 
L 54.65792 148.576022 
L 56.26516 141.280029 
L 57.8724 135.318011 
L 59.47964 132.540686 
L 61.08688 133.326142 
L 62.69412 136.524063 
L 64.30136 140.019846 
L 65.9086 141.669426 
L 67.51584 140.199942 
L 69.12308 135.786653 
L 70.73032 130.038675 
L 72.33756 125.411907 
L 73.9448 124.281333 
L 75.55204 128.021707 
L 77.15928 136.439378 
L 80.37376 159.182946 
L 81.981 167.763574 
L 83.58824 171.364844 
L 85.19548 169.283203 
L 86.80272 162.417238 
L 90.0172 143.5509 
L 91.62444 136.760532 
L 93.23168 134.136383 
L 94.83892 136.004176 
L 96.44616 141.488321 
L 99.66064 156.220544 
L 101.26788 161.797379 
L 102.87512 164.628445 
L 104.48236 164.58446 
L 106.0896 162.297992 
L 109.30408 155.444478 
L 110.91132 152.868807 
L 112.51856 151.447106 
L 114.1258 150.930331 
L 115.73304 150.680624 
L 117.34028 149.991156 
L 118.94752 148.453013 
L 122.162 143.751033 
L 123.76924 142.126159 
L 125.37648 142.166076 
L 126.98372 144.298107 
L 128.59096 148.255841 
L 130.1982 153.087492 
L 131.80544 157.432797 
L 133.41268 159.99735 
L 135.01992 160.046931 
L 136.62716 157.720281 
L 139.84164 150.614396 
L 141.44888 149.072782 
L 143.05612 150.519613 
L 144.66336 155.125098 
L 146.2706 162.067672 
L 147.87784 169.817806 
L 149.48508 176.645012 
L 151.09232 181.180584 
L 152.69956 182.845033 
L 154.3068 181.976481 
L 157.52128 177.198361 
L 159.12852 175.841146 
L 160.73576 176.175868 
L 162.343 178.094768 
L 165.55748 183.707736 
L 167.16472 185.733856 
L 168.77196 186.764675 
L 170.3792 187.215214 
L 171.98644 188.015953 
L 173.59368 190.278088 
L 175.20092 194.845442 
L 176.80816 201.883307 
L 180.02264 219.691211 
L 181.62988 226.962094 
L 183.23712 230.644599 
L 184.84436 229.616518 
L 186.4516 223.895963 
L 188.05884 214.733949 
L 189.66608 204.294324 
L 191.27332 195.022635 
L 192.88056 188.87025 
L 194.4878 186.658244 
L 196.09504 187.8114 
L 197.70228 190.548953 
L 199.30952 192.507996 
L 200.91676 191.600471 
L 202.524 186.799614 
L 204.13124 178.568829 
L 205.73848 168.775429 
L 207.34572 160.096069 
L 208.95296 155.122582 
L 210.5602 155.477431 
L 212.16744 161.259157 
L 213.77468 170.994782 
L 215.38192 182.128732 
L 216.98916 191.840619 
L 218.5964 197.913038 
L 220.20364 199.353157 
L 221.81088 196.568583 
L 223.41812 191.06904 
L 225.02536 184.857105 
L 226.6326 179.736373 
L 228.23984 176.770597 
L 229.84708 176.085147 
L 231.45432 177.024169 
L 233.06156 178.559709 
L 234.6688 179.739305 
L 236.27604 180.028136 
L 237.88328 179.443267 
L 239.49052 178.435453 
L 241.09776 177.610705 
L 242.705 177.436678 
L 244.31224 178.020431 
L 247.52672 179.982197 
L 249.13396 180.180657 
L 250.7412 179.229469 
L 252.34844 177.029042 
L 253.95568 173.814887 
L 258.7774 162.783631 
L 260.38464 159.901499 
L 261.99188 157.632171 
L 263.59912 155.960506 
L 265.20636 154.93213 
L 266.8136 154.744877 
L 268.42084 155.757226 
L 270.02808 158.386148 
L 271.63532 162.935337 
L 273.24256 169.422537 
L 274.8498 177.453512 
L 278.06428 194.607856 
L 279.67152 201.472864 
L 281.27876 205.844563 
L 282.886 207.180646 
L 284.49324 205.481017 
L 286.10048 201.257256 
L 287.70772 195.407664 
L 289.31496 189.007222 
L 290.9222 183.089469 
L 292.52944 178.466851 
L 294.13668 175.628776 
L 295.74392 174.719625 
L 297.35116 175.585205 
L 298.9584 177.863504 
L 300.56564 181.075464 
L 303.78012 188.358039 
L 305.38736 191.645062 
L 306.9946 194.338229 
L 308.60184 196.259275 
L 310.20908 197.250376 
L 311.81632 197.137329 
L 313.42356 195.734939 
L 315.0308 192.905373 
L 316.63804 188.665538 
L 318.24528 183.296346 
L 321.45976 171.790354 
L 323.067 167.424389 
L 324.67424 165.040142 
L 326.28148 164.951195 
L 327.88872 166.890981 
L 331.1032 173.22538 
L 332.71044 175.414273 
L 334.31768 176.014347 
L 335.92492 175.133374 
L 337.53216 173.543897 
L 339.1394 172.384162 
L 340.74664 172.680422 
L 342.35388 174.865761 
L 343.96112 178.525541 
L 345.56836 182.522867 
L 347.1756 185.432273 
L 348.78284 186.121209 
L 350.39008 184.277231 
L 353.60456 176.773724 
L 355.2118 174.552785 
L 356.81904 175.357099 
L 358.42628 179.50066 
L 360.03352 186.029608 
L 361.64076 193.04383 
L 363.248 198.419208 
L 364.85524 200.644831 
L 366.46248 199.440952 
L 368.06972 195.876787 
L 369.67696 191.911886 
L 371.2842 189.54243 
L 372.89144 189.902988 
L 374.49868 192.697139 
L 376.10592 196.219012 
L 377.71316 198.001793 
L 379.3204 195.854408 
L 380.92764 188.873915 
L 382.53488 178.024948 
L 384.14212 166.009275 
L 385.74936 156.431317 
L 387.3566 152.548275 
L 388.96384 156.076826 
L 390.57108 166.517285 
L 393.78556 196.373913 
L 395.3928 208.003846 
L 397.00004 213.504451 
L 398.60728 212.267581 
L 400.21452 205.739226 
L 403.429 188.36667 
L 405.03624 182.922043 
L 406.64348 181.218836 
L 408.25072 182.531013 
L 409.85796 185.127756 
L 411.4652 187.129097 
L 413.07244 187.307503 
L 414.67968 185.526066 
L 416.28692 182.679701 
L 417.89416 180.214393 
L 419.5014 179.453697 
L 421.10864 181.040443 
L 422.71588 184.70542 
L 425.93036 193.988158 
L 427.5376 197.344653 
L 429.14484 199.155312 
L 430.75208 199.736584 
L 432.35932 199.797502 
L 433.96656 199.977307 
L 435.5738 200.425802 
L 437.18104 200.623842 
L 438.78828 199.542752 
L 440.39552 196.095794 
L 442.00276 189.691803 
L 443.61 180.671028 
L 443.61 180.671028 
" clip-path="url(#p82573f9678)" style="fill: none; stroke: #bcbd22; stroke-width: 1.5; stroke-linecap: square"/>
   </g>
   <g id="patch_3">
    <path d="M 41.8 311.52 
L 41.8 25.44 
" style="fill: none; stroke: #000000; stroke-width: 0.8; stroke-linejoin: miter; stroke-linecap: square"/>
   </g>
   <g id="patch_4">
    <path d="M 443.61 311.52 
L 443.61 25.44 
" style="fill: none; stroke: #000000; stroke-width: 0.8; stroke-linejoin: miter; stroke-linecap: square"/>
   </g>
   <g id="patch_5">
    <path d="M 41.8 311.52 
L 443.61 311.52 
" style="fill: none; stroke: #000000; stroke-width: 0.8; stroke-linejoin: miter; stroke-linecap: square"/>
   </g>
   <g id="patch_6">
    <path d="M 41.8 25.44 
L 443.61 25.44 
" style="fill: none; stroke: #000000; stroke-width: 0.8; stroke-linejoin: miter; stroke-linecap: square"/>
   </g>
   <g id="text_16">
    <!-- Preprocessed EEG Data MATB-Medium -->
    <g transform="translate(127.581875 19.44) scale(0.12 -0.12)">
     <defs>
      <path id="DejaVuSans-50" d="M 1259 4147 
L 1259 2394 
L 2053 2394 
Q 2494 2394 2734 2622 
Q 2975 2850 2975 3272 
Q 2975 3691 2734 3919 
Q 2494 4147 2053 4147 
L 1259 4147 
z
M 628 4666 
L 2053 4666 
Q 2838 4666 3239 4311 
Q 3641 3956 3641 3272 
Q 3641 2581 3239 2228 
Q 2838 1875 2053 1875 
L 1259 1875 
L 1259 0 
L 628 0 
L 628 4666 
z
" transform="scale(0.015625)"/>
      <path id="DejaVuSans-72" d="M 2631 2963 
Q 2534 3019 2420 3045 
Q 2306 3072 2169 3072 
Q 1681 3072 1420 2755 
Q 1159 2438 1159 1844 
L 1159 0 
L 581 0 
L 581 3500 
L 1159 3500 
L 1159 2956 
Q 1341 3275 1631 3429 
Q 1922 3584 2338 3584 
Q 2397 3584 2469 3576 
Q 2541 3569 2628 3553 
L 2631 2963 
z
" transform="scale(0.015625)"/>
      <path id="DejaVuSans-70" d="M 1159 525 
L 1159 -1331 
L 581 -1331 
L 581 3500 
L 1159 3500 
L 1159 2969 
Q 1341 3281 1617 3432 
Q 1894 3584 2278 3584 
Q 2916 3584 3314 3078 
Q 3713 2572 3713 1747 
Q 3713 922 3314 415 
Q 2916 -91 2278 -91 
Q 1894 -91 1617 61 
Q 1341 213 1159 525 
z
M 3116 1747 
Q 3116 2381 2855 2742 
Q 2594 3103 2138 3103 
Q 1681 3103 1420 2742 
Q 1159 2381 1159 1747 
Q 1159 1113 1420 752 
Q 1681 391 2138 391 
Q 2594 391 2855 752 
Q 3116 1113 3116 1747 
z
" transform="scale(0.015625)"/>
      <path id="DejaVuSans-63" d="M 3122 3366 
L 3122 2828 
Q 2878 2963 2633 3030 
Q 2388 3097 2138 3097 
Q 1578 3097 1268 2742 
Q 959 2388 959 1747 
Q 959 1106 1268 751 
Q 1578 397 2138 397 
Q 2388 397 2633 464 
Q 2878 531 3122 666 
L 3122 134 
Q 2881 22 2623 -34 
Q 2366 -91 2075 -91 
Q 1284 -91 818 406 
Q 353 903 353 1747 
Q 353 2603 823 3093 
Q 1294 3584 2113 3584 
Q 2378 3584 2631 3529 
Q 2884 3475 3122 3366 
z
" transform="scale(0.015625)"/>
      <path id="DejaVuSans-64" d="M 2906 2969 
L 2906 4863 
L 3481 4863 
L 3481 0 
L 2906 0 
L 2906 525 
Q 2725 213 2448 61 
Q 2172 -91 1784 -91 
Q 1150 -91 751 415 
Q 353 922 353 1747 
Q 353 2572 751 3078 
Q 1150 3584 1784 3584 
Q 2172 3584 2448 3432 
Q 2725 3281 2906 2969 
z
M 947 1747 
Q 947 1113 1208 752 
Q 1469 391 1925 391 
Q 2381 391 2643 752 
Q 2906 1113 2906 1747 
Q 2906 2381 2643 2742 
Q 2381 3103 1925 3103 
Q 1469 3103 1208 2742 
Q 947 2381 947 1747 
z
" transform="scale(0.015625)"/>
      <path id="DejaVuSans-45" d="M 628 4666 
L 3578 4666 
L 3578 4134 
L 1259 4134 
L 1259 2753 
L 3481 2753 
L 3481 2222 
L 1259 2222 
L 1259 531 
L 3634 531 
L 3634 0 
L 628 0 
L 628 4666 
z
" transform="scale(0.015625)"/>
      <path id="DejaVuSans-47" d="M 3809 666 
L 3809 1919 
L 2778 1919 
L 2778 2438 
L 4434 2438 
L 4434 434 
Q 4069 175 3628 42 
Q 3188 -91 2688 -91 
Q 1594 -91 976 548 
Q 359 1188 359 2328 
Q 359 3472 976 4111 
Q 1594 4750 2688 4750 
Q 3144 4750 3555 4637 
Q 3966 4525 4313 4306 
L 4313 3634 
Q 3963 3931 3569 4081 
Q 3175 4231 2741 4231 
Q 1884 4231 1454 3753 
Q 1025 3275 1025 2328 
Q 1025 1384 1454 906 
Q 1884 428 2741 428 
Q 3075 428 3337 486 
Q 3600 544 3809 666 
z
" transform="scale(0.015625)"/>
      <path id="DejaVuSans-44" d="M 1259 4147 
L 1259 519 
L 2022 519 
Q 2988 519 3436 956 
Q 3884 1394 3884 2338 
Q 3884 3275 3436 3711 
Q 2988 4147 2022 4147 
L 1259 4147 
z
M 628 4666 
L 1925 4666 
Q 3281 4666 3915 4102 
Q 4550 3538 4550 2338 
Q 4550 1131 3912 565 
Q 3275 0 1925 0 
L 628 0 
L 628 4666 
z
" transform="scale(0.015625)"/>
      <path id="DejaVuSans-4d" d="M 628 4666 
L 1569 4666 
L 2759 1491 
L 3956 4666 
L 4897 4666 
L 4897 0 
L 4281 0 
L 4281 4097 
L 3078 897 
L 2444 897 
L 1241 4097 
L 1241 0 
L 628 0 
L 628 4666 
z
" transform="scale(0.015625)"/>
      <path id="DejaVuSans-41" d="M 2188 4044 
L 1331 1722 
L 3047 1722 
L 2188 4044 
z
M 1831 4666 
L 2547 4666 
L 4325 0 
L 3669 0 
L 3244 1197 
L 1141 1197 
L 716 0 
L 50 0 
L 1831 4666 
z
" transform="scale(0.015625)"/>
      <path id="DejaVuSans-42" d="M 1259 2228 
L 1259 519 
L 2272 519 
Q 2781 519 3026 730 
Q 3272 941 3272 1375 
Q 3272 1813 3026 2020 
Q 2781 2228 2272 2228 
L 1259 2228 
z
M 1259 4147 
L 1259 2741 
L 2194 2741 
Q 2656 2741 2882 2914 
Q 3109 3088 3109 3444 
Q 3109 3797 2882 3972 
Q 2656 4147 2194 4147 
L 1259 4147 
z
M 628 4666 
L 2241 4666 
Q 2963 4666 3353 4366 
Q 3744 4066 3744 3513 
Q 3744 3084 3544 2831 
Q 3344 2578 2956 2516 
Q 3422 2416 3680 2098 
Q 3938 1781 3938 1306 
Q 3938 681 3513 340 
Q 3088 0 2303 0 
L 628 0 
L 628 4666 
z
" transform="scale(0.015625)"/>
      <path id="DejaVuSans-2d" d="M 313 2009 
L 1997 2009 
L 1997 1497 
L 313 1497 
L 313 2009 
z
" transform="scale(0.015625)"/>
      <path id="DejaVuSans-75" d="M 544 1381 
L 544 3500 
L 1119 3500 
L 1119 1403 
Q 1119 906 1312 657 
Q 1506 409 1894 409 
Q 2359 409 2629 706 
Q 2900 1003 2900 1516 
L 2900 3500 
L 3475 3500 
L 3475 0 
L 2900 0 
L 2900 538 
Q 2691 219 2414 64 
Q 2138 -91 1772 -91 
Q 1169 -91 856 284 
Q 544 659 544 1381 
z
M 1991 3584 
L 1991 3584 
z
" transform="scale(0.015625)"/>
     </defs>
     <use xlink:href="#DejaVuSans-50"/>
     <use xlink:href="#DejaVuSans-72" x="58.552734"/>
     <use xlink:href="#DejaVuSans-65" x="97.416016"/>
     <use xlink:href="#DejaVuSans-70" x="158.939453"/>
     <use xlink:href="#DejaVuSans-72" x="222.416016"/>
     <use xlink:href="#DejaVuSans-6f" x="261.279297"/>
     <use xlink:href="#DejaVuSans-63" x="322.460938"/>
     <use xlink:href="#DejaVuSans-65" x="377.441406"/>
     <use xlink:href="#DejaVuSans-73" x="438.964844"/>
     <use xlink:href="#DejaVuSans-73" x="491.064453"/>
     <use xlink:href="#DejaVuSans-65" x="543.164062"/>
     <use xlink:href="#DejaVuSans-64" x="604.6875"/>
     <use xlink:href="#DejaVuSans-20" x="668.164062"/>
     <use xlink:href="#DejaVuSans-45" x="699.951172"/>
     <use xlink:href="#DejaVuSans-45" x="763.134766"/>
     <use xlink:href="#DejaVuSans-47" x="826.318359"/>
     <use xlink:href="#DejaVuSans-20" x="903.808594"/>
     <use xlink:href="#DejaVuSans-44" x="935.595703"/>
     <use xlink:href="#DejaVuSans-61" x="1012.597656"/>
     <use xlink:href="#DejaVuSans-74" x="1073.876953"/>
     <use xlink:href="#DejaVuSans-61" x="1113.085938"/>
     <use xlink:href="#DejaVuSans-20" x="1174.365234"/>
     <use xlink:href="#DejaVuSans-4d" x="1206.152344"/>
     <use xlink:href="#DejaVuSans-41" x="1292.431641"/>
     <use xlink:href="#DejaVuSans-54" x="1353.089844"/>
     <use xlink:href="#DejaVuSans-42" x="1414.173828"/>
     <use xlink:href="#DejaVuSans-2d" x="1482.777344"/>
     <use xlink:href="#DejaVuSans-4d" x="1518.861328"/>
     <use xlink:href="#DejaVuSans-65" x="1605.140625"/>
     <use xlink:href="#DejaVuSans-64" x="1666.664062"/>
     <use xlink:href="#DejaVuSans-69" x="1730.140625"/>
     <use xlink:href="#DejaVuSans-75" x="1757.923828"/>
     <use xlink:href="#DejaVuSans-6d" x="1821.302734"/>
    </g>
   </g>
  </g>
 </g>
 <defs>
  <clipPath id="p82573f9678">
   <rect x="41.8" y="25.44" width="401.81" height="286.08"/>
  </clipPath>
 </defs>
</svg>
