<?xml version="1.0" encoding="utf-8" standalone="no"?>
<!DOCTYPE svg PUBLIC "-//W3C//DTD SVG 1.1//EN"
  "http://www.w3.org/Graphics/SVG/1.1/DTD/svg11.dtd">
<svg xmlns:xlink="http://www.w3.org/1999/xlink" width="460.8pt" height="345.6pt" viewBox="0 0 460.8 345.6" xmlns="http://www.w3.org/2000/svg" version="1.1">
 <metadata>
  <rdf:RDF xmlns:dc="http://purl.org/dc/elements/1.1/" xmlns:cc="http://creativecommons.org/ns#" xmlns:rdf="http://www.w3.org/1999/02/22-rdf-syntax-ns#">
   <cc:Work>
    <dc:type rdf:resource="http://purl.org/dc/dcmitype/StillImage"/>
    <dc:date>2024-04-25T23:52:09.440485</dc:date>
    <dc:format>image/svg+xml</dc:format>
    <dc:creator>
     <cc:Agent>
      <dc:title>Matplotlib v3.8.4, https://matplotlib.org/</dc:title>
     </cc:Agent>
    </dc:creator>
   </cc:Work>
  </rdf:RDF>
 </metadata>
 <defs>
  <style type="text/css">*{stroke-linejoin: round; stroke-linecap: butt}</style>
 </defs>
 <g id="figure_1">
  <g id="patch_1">
   <path d="M 0 345.6 
L 460.8 345.6 
L 460.8 0 
L 0 0 
z
" style="fill: #ffffff"/>
  </g>
  <g id="axes_1">
   <g id="patch_2">
    <path d="M 65.2 308.64 
L 450 308.64 
L 450 25.44 
L 65.2 25.44 
z
" style="fill: #ffffff"/>
   </g>
   <g id="matplotlib.axis_1">
    <g id="xtick_1">
     <g id="line2d_1">
      <defs>
       <path id="m6091b58433" d="M 0 0 
L 0 2 
" style="stroke: #000000; stroke-width: 0.8"/>
      </defs>
      <g>
       <use xlink:href="#m6091b58433" x="82.690909" y="308.64" style="stroke: #000000; stroke-width: 0.8"/>
      </g>
     </g>
     <g id="text_1">
      <!-- 0.0 -->
      <g transform="translate(74.739347 319.238437) scale(0.1 -0.1)">
       <defs>
        <path id="DejaVuSans-30" d="M 2034 4250 
Q 1547 4250 1301 3770 
Q 1056 3291 1056 2328 
Q 1056 1369 1301 889 
Q 1547 409 2034 409 
Q 2525 409 2770 889 
Q 3016 1369 3016 2328 
Q 3016 3291 2770 3770 
Q 2525 4250 2034 4250 
z
M 2034 4750 
Q 2819 4750 3233 4129 
Q 3647 3509 3647 2328 
Q 3647 1150 3233 529 
Q 2819 -91 2034 -91 
Q 1250 -91 836 529 
Q 422 1150 422 2328 
Q 422 3509 836 4129 
Q 1250 4750 2034 4750 
z
" transform="scale(0.015625)"/>
        <path id="DejaVuSans-2e" d="M 684 794 
L 1344 794 
L 1344 0 
L 684 0 
L 684 794 
z
" transform="scale(0.015625)"/>
       </defs>
       <use xlink:href="#DejaVuSans-30"/>
       <use xlink:href="#DejaVuSans-2e" x="63.623047"/>
       <use xlink:href="#DejaVuSans-30" x="95.410156"/>
      </g>
     </g>
    </g>
    <g id="xtick_2">
     <g id="line2d_2">
      <g>
       <use xlink:href="#m6091b58433" x="152.654545" y="308.64" style="stroke: #000000; stroke-width: 0.8"/>
      </g>
     </g>
     <g id="text_2">
      <!-- 0.1 -->
      <g transform="translate(144.702983 319.238437) scale(0.1 -0.1)">
       <defs>
        <path id="DejaVuSans-31" d="M 794 531 
L 1825 531 
L 1825 4091 
L 703 3866 
L 703 4441 
L 1819 4666 
L 2450 4666 
L 2450 531 
L 3481 531 
L 3481 0 
L 794 0 
L 794 531 
z
" transform="scale(0.015625)"/>
       </defs>
       <use xlink:href="#DejaVuSans-30"/>
       <use xlink:href="#DejaVuSans-2e" x="63.623047"/>
       <use xlink:href="#DejaVuSans-31" x="95.410156"/>
      </g>
     </g>
    </g>
    <g id="xtick_3">
     <g id="line2d_3">
      <g>
       <use xlink:href="#m6091b58433" x="222.618182" y="308.64" style="stroke: #000000; stroke-width: 0.8"/>
      </g>
     </g>
     <g id="text_3">
      <!-- 0.2 -->
      <g transform="translate(214.666619 319.238437) scale(0.1 -0.1)">
       <defs>
        <path id="DejaVuSans-32" d="M 1228 531 
L 3431 531 
L 3431 0 
L 469 0 
L 469 531 
Q 828 903 1448 1529 
Q 2069 2156 2228 2338 
Q 2531 2678 2651 2914 
Q 2772 3150 2772 3378 
Q 2772 3750 2511 3984 
Q 2250 4219 1831 4219 
Q 1534 4219 1204 4116 
Q 875 4013 500 3803 
L 500 4441 
Q 881 4594 1212 4672 
Q 1544 4750 1819 4750 
Q 2544 4750 2975 4387 
Q 3406 4025 3406 3419 
Q 3406 3131 3298 2873 
Q 3191 2616 2906 2266 
Q 2828 2175 2409 1742 
Q 1991 1309 1228 531 
z
" transform="scale(0.015625)"/>
       </defs>
       <use xlink:href="#DejaVuSans-30"/>
       <use xlink:href="#DejaVuSans-2e" x="63.623047"/>
       <use xlink:href="#DejaVuSans-32" x="95.410156"/>
      </g>
     </g>
    </g>
    <g id="xtick_4">
     <g id="line2d_4">
      <g>
       <use xlink:href="#m6091b58433" x="292.581818" y="308.64" style="stroke: #000000; stroke-width: 0.8"/>
      </g>
     </g>
     <g id="text_4">
      <!-- 0.3 -->
      <g transform="translate(284.630256 319.238437) scale(0.1 -0.1)">
       <defs>
        <path id="DejaVuSans-33" d="M 2597 2516 
Q 3050 2419 3304 2112 
Q 3559 1806 3559 1356 
Q 3559 666 3084 287 
Q 2609 -91 1734 -91 
Q 1441 -91 1130 -33 
Q 819 25 488 141 
L 488 750 
Q 750 597 1062 519 
Q 1375 441 1716 441 
Q 2309 441 2620 675 
Q 2931 909 2931 1356 
Q 2931 1769 2642 2001 
Q 2353 2234 1838 2234 
L 1294 2234 
L 1294 2753 
L 1863 2753 
Q 2328 2753 2575 2939 
Q 2822 3125 2822 3475 
Q 2822 3834 2567 4026 
Q 2313 4219 1838 4219 
Q 1578 4219 1281 4162 
Q 984 4106 628 3988 
L 628 4550 
Q 988 4650 1302 4700 
Q 1616 4750 1894 4750 
Q 2613 4750 3031 4423 
Q 3450 4097 3450 3541 
Q 3450 3153 3228 2886 
Q 3006 2619 2597 2516 
z
" transform="scale(0.015625)"/>
       </defs>
       <use xlink:href="#DejaVuSans-30"/>
       <use xlink:href="#DejaVuSans-2e" x="63.623047"/>
       <use xlink:href="#DejaVuSans-33" x="95.410156"/>
      </g>
     </g>
    </g>
    <g id="xtick_5">
     <g id="line2d_5">
      <g>
       <use xlink:href="#m6091b58433" x="362.545455" y="308.64" style="stroke: #000000; stroke-width: 0.8"/>
      </g>
     </g>
     <g id="text_5">
      <!-- 0.4 -->
      <g transform="translate(354.593892 319.238437) scale(0.1 -0.1)">
       <defs>
        <path id="DejaVuSans-34" d="M 2419 4116 
L 825 1625 
L 2419 1625 
L 2419 4116 
z
M 2253 4666 
L 3047 4666 
L 3047 1625 
L 3713 1625 
L 3713 1100 
L 3047 1100 
L 3047 0 
L 2419 0 
L 2419 1100 
L 313 1100 
L 313 1709 
L 2253 4666 
z
" transform="scale(0.015625)"/>
       </defs>
       <use xlink:href="#DejaVuSans-30"/>
       <use xlink:href="#DejaVuSans-2e" x="63.623047"/>
       <use xlink:href="#DejaVuSans-34" x="95.410156"/>
      </g>
     </g>
    </g>
    <g id="xtick_6">
     <g id="line2d_6">
      <g>
       <use xlink:href="#m6091b58433" x="432.509091" y="308.64" style="stroke: #000000; stroke-width: 0.8"/>
      </g>
     </g>
     <g id="text_6">
      <!-- 0.5 -->
      <g transform="translate(424.557528 319.238437) scale(0.1 -0.1)">
       <defs>
        <path id="DejaVuSans-35" d="M 691 4666 
L 3169 4666 
L 3169 4134 
L 1269 4134 
L 1269 2991 
Q 1406 3038 1543 3061 
Q 1681 3084 1819 3084 
Q 2600 3084 3056 2656 
Q 3513 2228 3513 1497 
Q 3513 744 3044 326 
Q 2575 -91 1722 -91 
Q 1428 -91 1123 -41 
Q 819 9 494 109 
L 494 744 
Q 775 591 1075 516 
Q 1375 441 1709 441 
Q 2250 441 2565 725 
Q 2881 1009 2881 1497 
Q 2881 1984 2565 2268 
Q 2250 2553 1709 2553 
Q 1456 2553 1204 2497 
Q 953 2441 691 2322 
L 691 4666 
z
" transform="scale(0.015625)"/>
       </defs>
       <use xlink:href="#DejaVuSans-30"/>
       <use xlink:href="#DejaVuSans-2e" x="63.623047"/>
       <use xlink:href="#DejaVuSans-35" x="95.410156"/>
      </g>
     </g>
    </g>
    <g id="text_7">
     <!-- Time (s) -->
     <g transform="translate(237.271094 331.916562) scale(0.1 -0.1)">
      <defs>
       <path id="DejaVuSans-54" d="M -19 4666 
L 3928 4666 
L 3928 4134 
L 2272 4134 
L 2272 0 
L 1638 0 
L 1638 4134 
L -19 4134 
L -19 4666 
z
" transform="scale(0.015625)"/>
       <path id="DejaVuSans-69" d="M 603 3500 
L 1178 3500 
L 1178 0 
L 603 0 
L 603 3500 
z
M 603 4863 
L 1178 4863 
L 1178 4134 
L 603 4134 
L 603 4863 
z
" transform="scale(0.015625)"/>
       <path id="DejaVuSans-6d" d="M 3328 2828 
Q 3544 3216 3844 3400 
Q 4144 3584 4550 3584 
Q 5097 3584 5394 3201 
Q 5691 2819 5691 2113 
L 5691 0 
L 5113 0 
L 5113 2094 
Q 5113 2597 4934 2840 
Q 4756 3084 4391 3084 
Q 3944 3084 3684 2787 
Q 3425 2491 3425 1978 
L 3425 0 
L 2847 0 
L 2847 2094 
Q 2847 2600 2669 2842 
Q 2491 3084 2119 3084 
Q 1678 3084 1418 2786 
Q 1159 2488 1159 1978 
L 1159 0 
L 581 0 
L 581 3500 
L 1159 3500 
L 1159 2956 
Q 1356 3278 1631 3431 
Q 1906 3584 2284 3584 
Q 2666 3584 2933 3390 
Q 3200 3197 3328 2828 
z
" transform="scale(0.015625)"/>
       <path id="DejaVuSans-65" d="M 3597 1894 
L 3597 1613 
L 953 1613 
Q 991 1019 1311 708 
Q 1631 397 2203 397 
Q 2534 397 2845 478 
Q 3156 559 3463 722 
L 3463 178 
Q 3153 47 2828 -22 
Q 2503 -91 2169 -91 
Q 1331 -91 842 396 
Q 353 884 353 1716 
Q 353 2575 817 3079 
Q 1281 3584 2069 3584 
Q 2775 3584 3186 3129 
Q 3597 2675 3597 1894 
z
M 3022 2063 
Q 3016 2534 2758 2815 
Q 2500 3097 2075 3097 
Q 1594 3097 1305 2825 
Q 1016 2553 972 2059 
L 3022 2063 
z
" transform="scale(0.015625)"/>
       <path id="DejaVuSans-20" transform="scale(0.015625)"/>
       <path id="DejaVuSans-28" d="M 1984 4856 
Q 1566 4138 1362 3434 
Q 1159 2731 1159 2009 
Q 1159 1288 1364 580 
Q 1569 -128 1984 -844 
L 1484 -844 
Q 1016 -109 783 600 
Q 550 1309 550 2009 
Q 550 2706 781 3412 
Q 1013 4119 1484 4856 
L 1984 4856 
z
" transform="scale(0.015625)"/>
       <path id="DejaVuSans-73" d="M 2834 3397 
L 2834 2853 
Q 2591 2978 2328 3040 
Q 2066 3103 1784 3103 
Q 1356 3103 1142 2972 
Q 928 2841 928 2578 
Q 928 2378 1081 2264 
Q 1234 2150 1697 2047 
L 1894 2003 
Q 2506 1872 2764 1633 
Q 3022 1394 3022 966 
Q 3022 478 2636 193 
Q 2250 -91 1575 -91 
Q 1294 -91 989 -36 
Q 684 19 347 128 
L 347 722 
Q 666 556 975 473 
Q 1284 391 1588 391 
Q 1994 391 2212 530 
Q 2431 669 2431 922 
Q 2431 1156 2273 1281 
Q 2116 1406 1581 1522 
L 1381 1569 
Q 847 1681 609 1914 
Q 372 2147 372 2553 
Q 372 3047 722 3315 
Q 1072 3584 1716 3584 
Q 2034 3584 2315 3537 
Q 2597 3491 2834 3397 
z
" transform="scale(0.015625)"/>
       <path id="DejaVuSans-29" d="M 513 4856 
L 1013 4856 
Q 1481 4119 1714 3412 
Q 1947 2706 1947 2009 
Q 1947 1309 1714 600 
Q 1481 -109 1013 -844 
L 513 -844 
Q 928 -128 1133 580 
Q 1338 1288 1338 2009 
Q 1338 2731 1133 3434 
Q 928 4138 513 4856 
z
" transform="scale(0.015625)"/>
      </defs>
      <use xlink:href="#DejaVuSans-54"/>
      <use xlink:href="#DejaVuSans-69" x="57.958984"/>
      <use xlink:href="#DejaVuSans-6d" x="85.742188"/>
      <use xlink:href="#DejaVuSans-65" x="183.154297"/>
      <use xlink:href="#DejaVuSans-20" x="244.677734"/>
      <use xlink:href="#DejaVuSans-28" x="276.464844"/>
      <use xlink:href="#DejaVuSans-73" x="315.478516"/>
      <use xlink:href="#DejaVuSans-29" x="367.578125"/>
     </g>
    </g>
   </g>
   <g id="matplotlib.axis_2">
    <g id="ytick_1">
     <g id="line2d_7">
      <defs>
       <path id="m478f58c0f6" d="M 0 0 
L -2 0 
" style="stroke: #000000; stroke-width: 0.8"/>
      </defs>
      <g>
       <use xlink:href="#m478f58c0f6" x="65.2" y="270.865085" style="stroke: #000000; stroke-width: 0.8"/>
      </g>
     </g>
     <g id="text_8">
      <!-- −10000 -->
      <g transform="translate(22.007813 274.664304) scale(0.1 -0.1)">
       <defs>
        <path id="DejaVuSans-2212" d="M 678 2272 
L 4684 2272 
L 4684 1741 
L 678 1741 
L 678 2272 
z
" transform="scale(0.015625)"/>
       </defs>
       <use xlink:href="#DejaVuSans-2212"/>
       <use xlink:href="#DejaVuSans-31" x="83.789062"/>
       <use xlink:href="#DejaVuSans-30" x="147.412109"/>
       <use xlink:href="#DejaVuSans-30" x="211.035156"/>
       <use xlink:href="#DejaVuSans-30" x="274.658203"/>
       <use xlink:href="#DejaVuSans-30" x="338.28125"/>
      </g>
     </g>
    </g>
    <g id="ytick_2">
     <g id="line2d_8">
      <g>
       <use xlink:href="#m478f58c0f6" x="65.2" y="223.735672" style="stroke: #000000; stroke-width: 0.8"/>
      </g>
     </g>
     <g id="text_9">
      <!-- −5000 -->
      <g transform="translate(28.370313 227.53489) scale(0.1 -0.1)">
       <use xlink:href="#DejaVuSans-2212"/>
       <use xlink:href="#DejaVuSans-35" x="83.789062"/>
       <use xlink:href="#DejaVuSans-30" x="147.412109"/>
       <use xlink:href="#DejaVuSans-30" x="211.035156"/>
       <use xlink:href="#DejaVuSans-30" x="274.658203"/>
      </g>
     </g>
    </g>
    <g id="ytick_3">
     <g id="line2d_9">
      <g>
       <use xlink:href="#m478f58c0f6" x="65.2" y="176.606258" style="stroke: #000000; stroke-width: 0.8"/>
      </g>
     </g>
     <g id="text_10">
      <!-- 0 -->
      <g transform="translate(55.8375 180.405477) scale(0.1 -0.1)">
       <use xlink:href="#DejaVuSans-30"/>
      </g>
     </g>
    </g>
    <g id="ytick_4">
     <g id="line2d_10">
      <g>
       <use xlink:href="#m478f58c0f6" x="65.2" y="129.476845" style="stroke: #000000; stroke-width: 0.8"/>
      </g>
     </g>
     <g id="text_11">
      <!-- 5000 -->
      <g transform="translate(36.75 133.276064) scale(0.1 -0.1)">
       <use xlink:href="#DejaVuSans-35"/>
       <use xlink:href="#DejaVuSans-30" x="63.623047"/>
       <use xlink:href="#DejaVuSans-30" x="127.246094"/>
       <use xlink:href="#DejaVuSans-30" x="190.869141"/>
      </g>
     </g>
    </g>
    <g id="ytick_5">
     <g id="line2d_11">
      <g>
       <use xlink:href="#m478f58c0f6" x="65.2" y="82.347432" style="stroke: #000000; stroke-width: 0.8"/>
      </g>
     </g>
     <g id="text_12">
      <!-- 10000 -->
      <g transform="translate(30.3875 86.146651) scale(0.1 -0.1)">
       <use xlink:href="#DejaVuSans-31"/>
       <use xlink:href="#DejaVuSans-30" x="63.623047"/>
       <use xlink:href="#DejaVuSans-30" x="127.246094"/>
       <use xlink:href="#DejaVuSans-30" x="190.869141"/>
       <use xlink:href="#DejaVuSans-30" x="254.492188"/>
      </g>
     </g>
    </g>
    <g id="ytick_6">
     <g id="line2d_12">
      <g>
       <use xlink:href="#m478f58c0f6" x="65.2" y="35.218019" style="stroke: #000000; stroke-width: 0.8"/>
      </g>
     </g>
     <g id="text_13">
      <!-- 15000 -->
      <g transform="translate(30.3875 39.017237) scale(0.1 -0.1)">
       <use xlink:href="#DejaVuSans-31"/>
       <use xlink:href="#DejaVuSans-35" x="63.623047"/>
       <use xlink:href="#DejaVuSans-30" x="127.246094"/>
       <use xlink:href="#DejaVuSans-30" x="190.869141"/>
       <use xlink:href="#DejaVuSans-30" x="254.492188"/>
      </g>
     </g>
    </g>
    <g id="text_14">
     <!-- Voltage (mV) -->
     <g transform="translate(18.928125 199.5775) rotate(-90) scale(0.1 -0.1)">
      <defs>
       <path id="DejaVuSans-56" d="M 1831 0 
L 50 4666 
L 709 4666 
L 2188 738 
L 3669 4666 
L 4325 4666 
L 2547 0 
L 1831 0 
z
" transform="scale(0.015625)"/>
       <path id="DejaVuSans-6f" d="M 1959 3097 
Q 1497 3097 1228 2736 
Q 959 2375 959 1747 
Q 959 1119 1226 758 
Q 1494 397 1959 397 
Q 2419 397 2687 759 
Q 2956 1122 2956 1747 
Q 2956 2369 2687 2733 
Q 2419 3097 1959 3097 
z
M 1959 3584 
Q 2709 3584 3137 3096 
Q 3566 2609 3566 1747 
Q 3566 888 3137 398 
Q 2709 -91 1959 -91 
Q 1206 -91 779 398 
Q 353 888 353 1747 
Q 353 2609 779 3096 
Q 1206 3584 1959 3584 
z
" transform="scale(0.015625)"/>
       <path id="DejaVuSans-6c" d="M 603 4863 
L 1178 4863 
L 1178 0 
L 603 0 
L 603 4863 
z
" transform="scale(0.015625)"/>
       <path id="DejaVuSans-74" d="M 1172 4494 
L 1172 3500 
L 2356 3500 
L 2356 3053 
L 1172 3053 
L 1172 1153 
Q 1172 725 1289 603 
Q 1406 481 1766 481 
L 2356 481 
L 2356 0 
L 1766 0 
Q 1100 0 847 248 
Q 594 497 594 1153 
L 594 3053 
L 172 3053 
L 172 3500 
L 594 3500 
L 594 4494 
L 1172 4494 
z
" transform="scale(0.015625)"/>
       <path id="DejaVuSans-61" d="M 2194 1759 
Q 1497 1759 1228 1600 
Q 959 1441 959 1056 
Q 959 750 1161 570 
Q 1363 391 1709 391 
Q 2188 391 2477 730 
Q 2766 1069 2766 1631 
L 2766 1759 
L 2194 1759 
z
M 3341 1997 
L 3341 0 
L 2766 0 
L 2766 531 
Q 2569 213 2275 61 
Q 1981 -91 1556 -91 
Q 1019 -91 701 211 
Q 384 513 384 1019 
Q 384 1609 779 1909 
Q 1175 2209 1959 2209 
L 2766 2209 
L 2766 2266 
Q 2766 2663 2505 2880 
Q 2244 3097 1772 3097 
Q 1472 3097 1187 3025 
Q 903 2953 641 2809 
L 641 3341 
Q 956 3463 1253 3523 
Q 1550 3584 1831 3584 
Q 2591 3584 2966 3190 
Q 3341 2797 3341 1997 
z
" transform="scale(0.015625)"/>
       <path id="DejaVuSans-67" d="M 2906 1791 
Q 2906 2416 2648 2759 
Q 2391 3103 1925 3103 
Q 1463 3103 1205 2759 
Q 947 2416 947 1791 
Q 947 1169 1205 825 
Q 1463 481 1925 481 
Q 2391 481 2648 825 
Q 2906 1169 2906 1791 
z
M 3481 434 
Q 3481 -459 3084 -895 
Q 2688 -1331 1869 -1331 
Q 1566 -1331 1297 -1286 
Q 1028 -1241 775 -1147 
L 775 -588 
Q 1028 -725 1275 -790 
Q 1522 -856 1778 -856 
Q 2344 -856 2625 -561 
Q 2906 -266 2906 331 
L 2906 616 
Q 2728 306 2450 153 
Q 2172 0 1784 0 
Q 1141 0 747 490 
Q 353 981 353 1791 
Q 353 2603 747 3093 
Q 1141 3584 1784 3584 
Q 2172 3584 2450 3431 
Q 2728 3278 2906 2969 
L 2906 3500 
L 3481 3500 
L 3481 434 
z
" transform="scale(0.015625)"/>
      </defs>
      <use xlink:href="#DejaVuSans-56"/>
      <use xlink:href="#DejaVuSans-6f" x="60.658203"/>
      <use xlink:href="#DejaVuSans-6c" x="121.839844"/>
      <use xlink:href="#DejaVuSans-74" x="149.623047"/>
      <use xlink:href="#DejaVuSans-61" x="188.832031"/>
      <use xlink:href="#DejaVuSans-67" x="250.111328"/>
      <use xlink:href="#DejaVuSans-65" x="313.587891"/>
      <use xlink:href="#DejaVuSans-20" x="375.111328"/>
      <use xlink:href="#DejaVuSans-28" x="406.898438"/>
      <use xlink:href="#DejaVuSans-6d" x="445.912109"/>
      <use xlink:href="#DejaVuSans-56" x="543.324219"/>
      <use xlink:href="#DejaVuSans-29" x="611.732422"/>
     </g>
    </g>
   </g>
   <g id="line2d_13">
    <path d="M 82.690909 38.824523 
L 84.090182 38.87377 
L 91.086545 38.386367 
L 98.082909 38.827285 
L 99.482182 38.778498 
L 103.68 38.312727 
L 112.075636 38.821762 
L 119.072 38.514776 
L 124.669091 38.895862 
L 127.467636 38.843393 
L 131.665455 38.42963 
L 140.061091 38.926698 
L 142.859636 38.704859 
L 144.258909 38.546994 
L 147.057455 38.581052 
L 149.856 38.761009 
L 154.053818 38.969962 
L 159.650909 38.450802 
L 168.046545 39.019208 
L 170.845091 38.745361 
L 172.244364 38.517998 
L 173.643636 38.438375 
L 183.438545 38.941426 
L 186.237091 38.594399 
L 187.636364 38.514316 
L 196.032 38.900004 
L 198.830545 38.752725 
L 201.629091 38.441137 
L 205.826909 38.683687 
L 210.024727 38.98515 
L 212.823273 38.701637 
L 214.222545 38.50327 
L 215.621818 38.421806 
L 224.017455 38.962137 
L 226.816 38.723729 
L 228.215273 38.555738 
L 229.614545 38.516617 
L 236.610909 38.93038 
L 239.409455 38.842473 
L 243.607273 38.402015 
L 247.805091 38.699336 
L 252.002909 38.94741 
L 253.402182 38.881134 
L 256.200727 38.546073 
L 257.6 38.50235 
L 263.197091 38.804733 
L 264.596364 38.954773 
L 267.394909 38.91105 
L 271.592727 38.458626 
L 278.589091 38.988832 
L 281.387636 38.976405 
L 285.585455 38.589797 
L 293.981091 39.067074 
L 296.779636 38.81808 
L 298.178909 38.645026 
L 299.578182 38.593479 
L 307.973818 39.061551 
L 310.772364 38.861343 
L 313.570909 38.567705 
L 317.768727 38.826364 
L 320.567273 39.013685 
L 321.966545 39.043141 
L 324.765091 38.775737 
L 326.164364 38.580131 
L 327.563636 38.538709 
L 335.959273 39.063392 
L 338.757818 38.797829 
L 341.556364 38.497287 
L 349.952 39.013685 
L 352.750545 38.815318 
L 355.549091 38.565864 
L 365.344 38.865025 
L 368.142545 38.570926 
L 369.541818 38.524902 
L 377.937455 39.014606 
L 380.736 38.826364 
L 382.135273 38.606826 
L 383.534545 38.530425 
L 391.930182 39.063392 
L 394.728727 38.775277 
L 396.128 38.566324 
L 397.527273 38.487622 
L 403.124364 38.891719 
L 404.523636 39.049585 
L 405.922909 39.079961 
L 411.52 38.546994 
L 419.915636 38.943267 
L 421.314909 38.851678 
L 424.113455 38.443898 
L 425.512727 38.407999 
L 432.509091 38.92992 
L 432.509091 38.92992 
" clip-path="url(#pa4c35ed215)" style="fill: none; stroke: #1f77b4; stroke-width: 1.5; stroke-linecap: square"/>
   </g>
   <g id="line2d_14">
    <path d="M 82.690909 216.802953 
L 84.090182 216.848518 
L 86.888727 216.545214 
L 89.687273 216.275049 
L 95.284364 216.61103 
L 96.683636 216.787305 
L 99.482182 216.760611 
L 102.280727 216.31371 
L 103.68 216.241911 
L 109.277091 216.62944 
L 110.676364 216.784543 
L 112.075636 216.820903 
L 117.672727 216.341324 
L 123.269818 216.689732 
L 124.669091 216.854041 
L 126.068364 216.874292 
L 128.866909 216.603206 
L 130.266182 216.40806 
L 131.665455 216.37032 
L 134.464 216.626218 
L 137.262545 216.755548 
L 140.061091 216.902827 
L 141.460364 216.83379 
L 144.258909 216.456386 
L 147.057455 216.44442 
L 154.053818 216.860024 
L 161.050182 216.447642 
L 163.848727 216.662117 
L 166.647273 216.805255 
L 168.046545 216.900526 
L 169.445818 216.812619 
L 173.643636 216.311408 
L 183.438545 216.823204 
L 187.636364 216.326596 
L 191.834182 216.545675 
L 196.032 216.781322 
L 200.229818 216.471575 
L 201.629091 216.35191 
L 205.826909 216.515298 
L 210.024727 216.789606 
L 211.424 216.72195 
L 214.222545 216.35099 
L 215.621818 216.312329 
L 224.017455 216.821363 
L 226.816 216.627139 
L 228.215273 216.464671 
L 229.614545 216.414504 
L 238.010182 216.819983 
L 240.808727 216.583875 
L 242.208 216.342245 
L 243.607273 216.275969 
L 252.002909 216.750945 
L 253.402182 216.692954 
L 256.200727 216.378144 
L 258.999273 216.432454 
L 260.398545 216.605047 
L 267.394909 216.786845 
L 271.592727 216.294379 
L 281.387636 216.776719 
L 285.585455 216.391491 
L 288.384 216.559022 
L 293.981091 216.819522 
L 296.779636 216.567767 
L 299.578182 216.331199 
L 307.973818 216.809857 
L 310.772364 216.544754 
L 312.171636 216.368939 
L 314.970182 216.441659 
L 320.567273 216.811238 
L 323.365818 216.717347 
L 327.563636 216.290697 
L 335.959273 216.755088 
L 338.757818 216.544754 
L 341.556364 216.260321 
L 351.351273 216.752786 
L 355.549091 216.292078 
L 361.146182 216.503332 
L 363.944727 216.779481 
L 366.743273 216.588017 
L 369.541818 216.366638 
L 375.138909 216.591239 
L 377.937455 216.800652 
L 380.736 216.601825 
L 382.135273 216.380906 
L 383.534545 216.306346 
L 391.930182 216.924459 
L 393.329455 216.858643 
L 397.527273 216.291157 
L 405.922909 216.894543 
L 411.52 216.420487 
L 421.314909 216.704 
L 425.512727 216.301283 
L 431.109818 216.643247 
L 432.509091 216.767974 
L 432.509091 216.767974 
" clip-path="url(#pa4c35ed215)" style="fill: none; stroke: #ff7f0e; stroke-width: 1.5; stroke-linecap: square"/>
   </g>
   <g id="line2d_15">
    <path d="M 82.690909 159.451428 
L 84.090182 159.520926 
L 86.888727 159.26963 
L 88.288 159.051472 
L 91.086545 158.999925 
L 95.284364 159.116828 
L 96.683636 159.36168 
L 98.082909 159.430257 
L 99.482182 159.368123 
L 103.68 158.88026 
L 106.478545 159.098878 
L 107.877818 159.097497 
L 112.075636 159.392056 
L 114.874182 159.198752 
L 116.273455 159.049631 
L 117.672727 159.012351 
L 123.269818 159.382851 
L 126.068364 159.52829 
L 127.467636 159.478583 
L 131.665455 158.864151 
L 134.464 159.101179 
L 140.061091 159.497913 
L 142.859636 159.209798 
L 145.658182 159.013272 
L 148.456727 159.192308 
L 151.255273 159.339588 
L 152.654545 159.576616 
L 154.053818 159.686615 
L 155.453091 159.632766 
L 159.650909 158.808001 
L 166.647273 159.457411 
L 168.046545 159.445445 
L 170.845091 159.164233 
L 173.643636 158.968628 
L 177.841455 159.169756 
L 180.64 159.354776 
L 182.039273 159.527829 
L 183.438545 159.503436 
L 186.237091 159.028 
L 187.636364 158.930887 
L 191.834182 159.23189 
L 194.632727 159.291262 
L 197.431273 159.301387 
L 198.830545 159.280676 
L 203.028364 158.921222 
L 207.226182 159.317956 
L 208.625455 159.561427 
L 210.024727 159.642891 
L 211.424 159.582599 
L 214.222545 158.964025 
L 215.621818 158.884402 
L 225.416727 159.392056 
L 229.614545 158.857708 
L 231.013818 158.959423 
L 232.413091 159.185865 
L 238.010182 159.365822 
L 240.808727 159.235572 
L 243.607273 159.039966 
L 246.405818 159.097497 
L 252.002909 159.36214 
L 253.402182 159.291262 
L 256.200727 158.892227 
L 257.6 158.834696 
L 260.398545 159.192769 
L 263.197091 159.202434 
L 265.995636 159.393897 
L 268.794182 159.144443 
L 270.193455 158.971389 
L 271.592727 158.93549 
L 278.589091 159.388374 
L 281.387636 159.273772 
L 286.984727 159.086451 
L 293.981091 159.456031 
L 298.178909 159.008669 
L 303.776 159.113606 
L 309.373091 159.497453 
L 314.970182 159.138459 
L 317.768727 159.242936 
L 320.567273 159.406324 
L 324.765091 159.163773 
L 326.164364 158.996243 
L 328.962909 159.051012 
L 335.959273 159.446826 
L 338.757818 159.331764 
L 341.556364 158.944235 
L 344.354909 159.334525 
L 347.153455 159.415989 
L 348.552727 159.540716 
L 352.750545 159.438081 
L 354.149818 159.132016 
L 355.549091 158.974151 
L 356.948364 158.997163 
L 362.545455 159.471219 
L 363.944727 159.499754 
L 368.142545 159.080008 
L 370.941091 159.123271 
L 376.538182 159.422432 
L 383.534545 159.180802 
L 384.933818 159.13984 
L 387.732364 159.2144 
L 393.329455 159.258584 
L 397.527273 159.006828 
L 407.322182 159.424734 
L 411.52 159.070803 
L 415.717818 159.352014 
L 418.516364 159.486407 
L 424.113455 159.101639 
L 431.109818 159.307831 
L 432.509091 159.569252 
L 432.509091 159.569252 
" clip-path="url(#pa4c35ed215)" style="fill: none; stroke: #2ca02c; stroke-width: 1.5; stroke-linecap: square"/>
   </g>
   <g id="line2d_16">
    <path d="M 82.690909 165.238589 
L 84.090182 165.289216 
L 86.888727 165.075661 
L 89.687273 164.820683 
L 95.284364 165.113861 
L 96.683636 165.282312 
L 99.482182 165.266204 
L 103.68 164.823905 
L 112.075636 165.325115 
L 114.874182 165.087167 
L 117.672727 164.850139 
L 126.068364 165.317291 
L 128.866909 165.083945 
L 131.665455 164.805495 
L 138.661818 165.269886 
L 141.460364 165.236748 
L 144.258909 164.90721 
L 147.057455 164.911352 
L 152.654545 165.309007 
L 154.053818 165.329258 
L 159.650909 164.824365 
L 168.046545 165.33294 
L 170.845091 165.142857 
L 172.244364 164.933904 
L 173.643636 164.857043 
L 183.438545 165.295199 
L 187.636364 164.864407 
L 197.431273 165.216036 
L 200.229818 164.92562 
L 201.629091 164.788466 
L 205.826909 165.033778 
L 210.024727 165.326956 
L 212.823273 165.081184 
L 214.222545 164.895243 
L 215.621818 164.822985 
L 225.416727 165.200388 
L 229.614545 164.87039 
L 238.010182 165.312228 
L 240.808727 165.058171 
L 242.208 164.841394 
L 243.607273 164.779721 
L 252.002909 165.272647 
L 253.402182 165.211894 
L 256.200727 164.850599 
L 257.6 164.791688 
L 263.197091 165.098213 
L 265.995636 165.289676 
L 268.794182 165.076121 
L 271.592727 164.792608 
L 279.988364 165.300262 
L 281.387636 165.251476 
L 284.186182 164.891101 
L 285.585455 164.838633 
L 293.981091 165.336161 
L 299.578182 164.855662 
L 305.175273 165.090389 
L 306.574545 165.247333 
L 307.973818 165.285534 
L 310.772364 165.064615 
L 312.171636 164.869009 
L 313.570909 164.805035 
L 321.966545 165.262061 
L 324.765091 165.013527 
L 326.164364 164.837712 
L 327.563636 164.802273 
L 335.959273 165.363776 
L 338.757818 165.097753 
L 340.157091 164.892942 
L 341.556364 164.802734 
L 348.552727 165.298881 
L 351.351273 165.25884 
L 355.549091 164.852901 
L 361.146182 165.16679 
L 363.944727 165.304864 
L 366.743273 165.040682 
L 369.541818 164.809637 
L 379.336727 165.242271 
L 380.736 165.137794 
L 382.135273 164.909971 
L 383.534545 164.831269 
L 391.930182 165.354571 
L 394.728727 165.07428 
L 397.527273 164.826206 
L 403.124364 165.16679 
L 405.922909 165.346287 
L 412.919273 164.924699 
L 418.516364 165.301182 
L 421.314909 165.221099 
L 425.512727 164.75901 
L 432.509091 165.24181 
L 432.509091 165.24181 
" clip-path="url(#pa4c35ed215)" style="fill: none; stroke: #d62728; stroke-width: 1.5; stroke-linecap: square"/>
   </g>
   <g id="line2d_17">
    <path d="M 82.690909 251.299935 
L 84.090182 251.361608 
L 86.888727 251.095585 
L 88.288 250.836005 
L 89.687273 250.722323 
L 92.485818 250.946004 
L 96.683636 251.426043 
L 98.082909 251.382319 
L 100.881455 250.902741 
L 102.280727 250.668474 
L 103.68 250.621529 
L 112.075636 251.221693 
L 114.874182 250.965795 
L 116.273455 250.801486 
L 117.672727 250.768348 
L 121.870545 250.995711 
L 123.269818 251.042196 
L 126.068364 251.261734 
L 128.866909 251.001234 
L 130.266182 250.830482 
L 131.665455 250.801026 
L 134.464 251.036213 
L 137.262545 251.108472 
L 140.061091 251.249308 
L 141.460364 251.200061 
L 144.258909 250.844749 
L 145.658182 250.821277 
L 151.255273 251.155877 
L 154.053818 251.25345 
L 156.852364 251.055083 
L 158.251636 250.893536 
L 159.650909 250.850272 
L 163.848727 251.083618 
L 166.647273 251.341357 
L 169.445818 251.033911 
L 172.244364 250.655127 
L 173.643636 250.643621 
L 177.841455 251.064748 
L 183.438545 251.177049 
L 186.237091 250.776172 
L 187.636364 250.702993 
L 197.431273 251.156337 
L 201.629091 250.905042 
L 204.427636 251.044957 
L 207.226182 251.004456 
L 210.024727 251.149434 
L 212.823273 250.924833 
L 214.222545 250.748558 
L 217.021091 250.789059 
L 221.218909 251.062907 
L 224.017455 251.242404 
L 226.816 251.116756 
L 229.614545 250.852113 
L 233.812364 251.023326 
L 238.010182 251.258513 
L 240.808727 251.010899 
L 242.208 250.795503 
L 243.607273 250.713118 
L 252.002909 251.244705 
L 253.402182 251.21663 
L 257.6 250.822197 
L 260.398545 250.996631 
L 265.995636 251.215709 
L 268.794182 251.026547 
L 271.592727 250.748097 
L 275.790545 251.01182 
L 278.589091 251.242404 
L 281.387636 251.166923 
L 284.186182 250.815754 
L 286.984727 250.835084 
L 289.783273 251.019184 
L 295.380364 251.173827 
L 299.578182 250.803327 
L 307.973818 251.264036 
L 310.772364 251.021485 
L 312.171636 250.821737 
L 313.570909 250.789059 
L 320.567273 251.236421 
L 321.966545 251.301316 
L 324.765091 250.996171 
L 326.164364 250.775712 
L 327.563636 250.706675 
L 333.160727 250.984665 
L 335.959273 251.177969 
L 341.556364 250.740273 
L 344.354909 250.929435 
L 347.153455 250.948305 
L 349.952 251.125501 
L 352.750545 250.943703 
L 355.549091 250.725545 
L 359.746909 250.924372 
L 363.944727 251.233199 
L 366.743273 250.985585 
L 369.541818 250.710357 
L 370.941091 250.794122 
L 373.739636 251.134246 
L 377.937455 251.114915 
L 383.534545 250.691947 
L 386.333091 250.954749 
L 393.329455 251.129643 
L 396.128 250.774792 
L 397.527273 250.718641 
L 403.124364 251.115836 
L 405.922909 251.284286 
L 408.721455 251.073033 
L 411.52 250.80839 
L 415.717818 250.953828 
L 419.915636 251.210187 
L 422.714182 250.990648 
L 425.512727 250.78998 
L 432.509091 251.168304 
L 432.509091 251.168304 
" clip-path="url(#pa4c35ed215)" style="fill: none; stroke: #9467bd; stroke-width: 1.5; stroke-linecap: square"/>
   </g>
   <g id="line2d_18">
    <path d="M 82.690909 295.674763 
L 84.090182 295.637483 
L 89.687273 295.031796 
L 95.284364 295.421166 
L 96.683636 295.599282 
L 99.482182 295.54037 
L 103.68 295.069536 
L 112.075636 295.594219 
L 114.874182 295.355811 
L 116.273455 295.171712 
L 117.672727 295.13167 
L 126.068364 295.660495 
L 128.866909 295.440957 
L 131.665455 295.155603 
L 134.464 295.37238 
L 140.061091 295.660495 
L 142.859636 295.376982 
L 145.658182 295.124306 
L 151.255273 295.426689 
L 154.053818 295.722629 
L 156.852364 295.507233 
L 159.650909 295.139494 
L 163.848727 295.33602 
L 166.647273 295.663717 
L 168.046545 295.642545 
L 170.845091 295.319451 
L 172.244364 295.102674 
L 173.643636 295.050206 
L 182.039273 295.615851 
L 183.438545 295.498948 
L 186.237091 295.079662 
L 187.636364 295.030415 
L 194.632727 295.532086 
L 197.431273 295.490203 
L 200.229818 295.257318 
L 201.629091 295.111879 
L 205.826909 295.284472 
L 210.024727 295.567985 
L 211.424 295.510914 
L 214.222545 295.139494 
L 217.021091 295.216816 
L 224.017455 295.705139 
L 225.416727 295.626897 
L 229.614545 295.086566 
L 238.010182 295.579031 
L 243.607273 295.092089 
L 252.002909 295.585014 
L 253.402182 295.559241 
L 257.6 295.047905 
L 258.999273 295.080582 
L 260.398545 295.272506 
L 267.394909 295.44694 
L 271.592727 295.048825 
L 279.988364 295.581332 
L 282.786909 295.337861 
L 284.186182 295.162046 
L 286.984727 295.174473 
L 292.581818 295.578571 
L 293.981091 295.626437 
L 299.578182 295.180917 
L 309.373091 295.654512 
L 313.570909 295.217736 
L 321.966545 295.702838 
L 324.765091 295.415183 
L 326.164364 295.229703 
L 327.563636 295.165268 
L 333.160727 295.475475 
L 335.959273 295.730913 
L 341.556364 295.222799 
L 344.354909 295.457986 
L 347.153455 295.575809 
L 348.552727 295.682127 
L 351.351273 295.59514 
L 355.549091 295.229243 
L 361.146182 295.547274 
L 363.944727 295.767273 
L 370.941091 295.203929 
L 373.739636 295.550496 
L 376.538182 295.680286 
L 377.937455 295.734135 
L 383.534545 295.153762 
L 391.930182 295.637022 
L 393.329455 295.569826 
L 396.128 295.238448 
L 397.527273 295.155603 
L 401.725091 295.429911 
L 405.922909 295.723089 
L 411.52 295.263301 
L 419.915636 295.685349 
L 422.714182 295.500329 
L 424.113455 295.313928 
L 426.912 295.359953 
L 429.710545 295.528864 
L 432.509091 295.694554 
L 432.509091 295.694554 
" clip-path="url(#pa4c35ed215)" style="fill: none; stroke: #8c564b; stroke-width: 1.5; stroke-linecap: square"/>
   </g>
   <g id="line2d_19">
    <path d="M 82.690909 197.545249 
L 84.090182 197.598638 
L 86.888727 197.395668 
L 89.687273 197.014583 
L 95.284364 197.241485 
L 96.683636 197.429727 
L 98.082909 197.499224 
L 99.482182 197.439392 
L 103.68 196.903203 
L 109.277091 197.150356 
L 112.075636 197.511651 
L 113.474909 197.533743 
L 119.072 197.218013 
L 124.669091 197.60324 
L 127.467636 197.580688 
L 128.866909 197.518555 
L 131.665455 197.189477 
L 137.262545 197.577467 
L 140.061091 197.704495 
L 141.460364 197.642362 
L 145.658182 197.21387 
L 147.057455 197.226757 
L 149.856 197.427426 
L 154.053818 197.571023 
L 156.852364 197.209268 
L 159.650909 196.93542 
L 162.449455 197.23228 
L 168.046545 197.672278 
L 170.845091 197.382321 
L 173.643636 196.98973 
L 175.042909 197.049102 
L 177.841455 197.373577 
L 183.438545 197.696211 
L 187.636364 197.258975 
L 193.233455 197.418681 
L 196.032 197.563659 
L 200.229818 197.258975 
L 201.629091 197.13977 
L 204.427636 197.259435 
L 207.226182 197.409476 
L 208.625455 197.597717 
L 210.024727 197.640521 
L 212.823273 197.322949 
L 214.222545 197.079938 
L 215.621818 197.021487 
L 224.017455 197.515333 
L 226.816 197.377259 
L 229.614545 197.214791 
L 233.812364 197.405794 
L 239.409455 197.458262 
L 240.808727 197.374037 
L 242.208 197.155879 
L 243.607273 197.076716 
L 246.405818 197.345041 
L 253.402182 197.626253 
L 257.6 197.359769 
L 265.995636 197.780436 
L 268.794182 197.510731 
L 270.193455 197.265878 
L 271.592727 197.153118 
L 279.988364 197.703575 
L 281.387636 197.674119 
L 285.585455 197.299937 
L 295.380364 197.646504 
L 298.178909 197.285669 
L 299.578182 197.238724 
L 302.376727 197.382782 
L 303.776 197.308682 
L 305.175273 197.355167 
L 306.574545 197.606002 
L 309.373091 197.711399 
L 312.171636 197.43617 
L 313.570909 197.332614 
L 317.768727 197.641441 
L 320.567273 197.844871 
L 321.966545 197.869264 
L 324.765091 197.572864 
L 326.164364 197.356087 
L 327.563636 197.311443 
L 331.761455 197.587132 
L 333.160727 197.632696 
L 334.56 197.791942 
L 335.959273 197.835205 
L 341.556364 197.255293 
L 345.754182 197.518094 
L 349.952 197.737633 
L 351.351273 197.680102 
L 355.549091 197.188097 
L 363.944727 197.4532 
L 368.142545 197.190858 
L 370.941091 197.434329 
L 372.340364 197.651566 
L 375.138909 197.669516 
L 377.937455 197.882611 
L 380.736 197.682863 
L 382.135273 197.446296 
L 383.534545 197.354706 
L 387.732364 197.524998 
L 390.530909 197.782277 
L 391.930182 197.890896 
L 393.329455 197.778135 
L 396.128 197.339058 
L 397.527273 197.246548 
L 403.124364 197.520856 
L 404.523636 197.738553 
L 405.922909 197.781817 
L 410.120727 197.356087 
L 411.52 197.276924 
L 415.717818 197.476212 
L 419.915636 197.837507 
L 422.714182 197.482655 
L 424.113455 197.281067 
L 426.912 197.321108 
L 432.509091 197.860059 
L 432.509091 197.860059 
" clip-path="url(#pa4c35ed215)" style="fill: none; stroke: #e377c2; stroke-width: 1.5; stroke-linecap: square"/>
   </g>
   <g id="line2d_20">
    <path d="M 82.690909 190.797551 
L 84.090182 190.867969 
L 86.888727 190.604707 
L 89.687273 190.364917 
L 95.284364 190.531987 
L 98.082909 190.730354 
L 100.881455 190.645208 
L 102.280727 190.538431 
L 103.68 190.289897 
L 105.079273 190.204291 
L 113.474909 190.923198 
L 117.672727 190.428892 
L 127.467636 190.822404 
L 130.266182 190.375503 
L 133.064727 190.434875 
L 135.863273 190.706882 
L 138.661818 190.871651 
L 142.859636 190.709643 
L 147.057455 190.473536 
L 149.856 190.569728 
L 151.255273 190.612071 
L 152.654545 190.823325 
L 154.053818 190.849098 
L 159.650909 190.237889 
L 162.449455 190.527845 
L 168.046545 190.934705 
L 169.445818 190.767174 
L 170.845091 190.449603 
L 172.244364 190.288976 
L 175.042909 190.577552 
L 177.841455 190.588598 
L 180.64 190.88822 
L 182.039273 190.932864 
L 184.837818 190.693995 
L 187.636364 190.366298 
L 189.035636 190.38839 
L 190.434909 190.605627 
L 197.431273 190.79663 
L 203.028364 190.435335 
L 205.826909 190.596882 
L 207.226182 190.70412 
L 208.625455 190.924579 
L 210.024727 190.985792 
L 215.621818 190.447302 
L 217.021091 190.35111 
L 219.819636 190.614832 
L 225.416727 190.709643 
L 229.614545 190.353411 
L 232.413091 190.717467 
L 235.211636 190.652572 
L 236.610909 190.787425 
L 239.409455 190.606087 
L 243.607273 190.302784 
L 245.006545 190.589518 
L 246.405818 190.657175 
L 249.204364 190.566046 
L 252.002909 190.881316 
L 256.200727 190.520481 
L 260.398545 190.690313 
L 264.596364 190.998219 
L 265.995636 190.987173 
L 271.592727 190.307847 
L 277.189818 190.709183 
L 281.387636 190.895583 
L 285.585455 190.434415 
L 289.783273 190.753367 
L 291.182545 190.669602 
L 293.981091 190.918136 
L 295.380364 190.879475 
L 299.578182 190.297261 
L 302.376727 190.4809 
L 303.776 190.439938 
L 306.574545 190.753827 
L 309.373091 190.688472 
L 310.772364 190.724371 
L 314.970182 190.373662 
L 321.966545 191.046545 
L 324.765091 190.815961 
L 326.164364 190.582615 
L 327.563636 190.5191 
L 330.362182 190.866128 
L 333.160727 190.696296 
L 335.959273 191.013407 
L 338.757818 190.745543 
L 341.556364 190.941608 
L 342.955636 190.671443 
L 345.754182 190.531067 
L 351.351273 190.802613 
L 355.549091 190.363997 
L 359.746909 190.766714 
L 363.944727 190.839893 
L 365.344 190.616213 
L 366.743273 190.229144 
L 370.941091 190.646129 
L 372.340364 190.811818 
L 373.739636 190.765793 
L 376.538182 191.153322 
L 379.336727 190.905709 
L 382.135273 190.475377 
L 383.534545 190.552238 
L 384.933818 190.825626 
L 386.333091 190.901106 
L 389.131636 190.727593 
L 391.930182 191.01847 
L 393.329455 191.014788 
L 396.128 190.497469 
L 403.124364 190.617594 
L 404.523636 191.012487 
L 405.922909 191.040101 
L 407.322182 190.77868 
L 410.120727 190.698137 
L 411.52 190.572029 
L 415.717818 190.634623 
L 419.915636 191.053909 
L 421.314909 191.122946 
L 424.113455 190.743702 
L 426.912 190.42567 
L 432.509091 190.961399 
L 432.509091 190.961399 
" clip-path="url(#pa4c35ed215)" style="fill: none; stroke: #7f7f7f; stroke-width: 1.5; stroke-linecap: square"/>
   </g>
   <g id="line2d_21">
    <path d="M 82.690909 198.448256 
L 85.489455 198.408675 
L 88.288 198.117338 
L 89.687273 197.959472 
L 93.885091 198.060267 
L 99.482182 198.316625 
L 103.68 197.76985 
L 109.277091 197.99123 
L 112.075636 198.472649 
L 113.474909 198.409595 
L 117.672727 197.941523 
L 119.072 197.99215 
L 121.870545 198.315244 
L 127.467636 198.339177 
L 128.866909 198.304659 
L 131.665455 197.969598 
L 138.661818 198.494741 
L 140.061091 198.555954 
L 142.859636 198.27014 
L 144.258909 198.04784 
L 145.658182 197.970979 
L 148.456727 198.142191 
L 152.654545 198.457461 
L 154.053818 198.39947 
L 156.852364 198.04784 
L 159.650909 197.93692 
L 162.449455 198.173488 
L 163.848727 198.308801 
L 166.647273 198.341018 
L 169.445818 198.348382 
L 173.643636 197.808051 
L 175.042909 197.842569 
L 177.841455 198.260935 
L 180.64 198.342859 
L 182.039273 198.49244 
L 184.837818 198.298215 
L 187.636364 198.007799 
L 190.434909 198.207086 
L 193.233455 198.2324 
L 196.032 198.38106 
L 203.028364 197.994451 
L 208.625455 198.461143 
L 210.024727 198.47403 
L 214.222545 198.013782 
L 215.621818 197.956251 
L 219.819636 198.203404 
L 222.618182 198.261395 
L 224.017455 198.347462 
L 226.816 198.225956 
L 229.614545 198.090183 
L 238.010182 198.360809 
L 240.808727 198.150015 
L 242.208 197.873866 
L 243.607273 197.846251 
L 246.405818 198.075915 
L 250.603636 198.337796 
L 252.002909 198.487837 
L 253.402182 198.410976 
L 256.200727 198.098928 
L 258.999273 198.208007 
L 260.398545 198.349763 
L 267.394909 198.435369 
L 271.592727 197.97282 
L 279.988364 198.420181 
L 281.387636 198.393947 
L 285.585455 197.995372 
L 286.984727 198.042317 
L 288.384 198.201103 
L 293.981091 198.389344 
L 300.977455 197.924033 
L 302.376727 198.054284 
L 305.175273 198.142651 
L 306.574545 198.468967 
L 307.973818 198.572523 
L 309.373091 198.549971 
L 313.570909 197.950728 
L 316.369455 198.208007 
L 317.768727 198.377838 
L 321.966545 198.515452 
L 324.765091 198.194199 
L 326.164364 197.982945 
L 327.563636 197.944745 
L 331.761455 198.283947 
L 333.160727 198.343319 
L 335.959273 198.599217 
L 340.157091 198.023907 
L 342.955636 198.025748 
L 351.351273 198.346081 
L 355.549091 197.89964 
L 363.944727 198.228718 
L 369.541818 198.041397 
L 372.340364 198.316625 
L 373.739636 198.245287 
L 375.138909 198.346081 
L 376.538182 198.586791 
L 377.937455 198.69633 
L 380.736 198.43721 
L 382.135273 198.17671 
L 383.534545 198.091564 
L 387.732364 198.303278 
L 391.930182 198.673778 
L 393.329455 198.553193 
L 396.128 198.098928 
L 397.527273 197.956251 
L 404.523636 198.458382 
L 405.922909 198.468507 
L 408.721455 198.150936 
L 411.52 197.912067 
L 414.318545 198.300977 
L 415.717818 198.235621 
L 419.915636 198.496122 
L 422.714182 198.206166 
L 425.512727 197.981104 
L 428.311273 198.068091 
L 432.509091 198.329052 
L 432.509091 198.329052 
" clip-path="url(#pa4c35ed215)" style="fill: none; stroke: #bcbd22; stroke-width: 1.5; stroke-linecap: square"/>
   </g>
   <g id="patch_3">
    <path d="M 65.2 308.64 
L 65.2 25.44 
" style="fill: none; stroke: #000000; stroke-width: 0.8; stroke-linejoin: miter; stroke-linecap: square"/>
   </g>
   <g id="patch_4">
    <path d="M 450 308.64 
L 450 25.44 
" style="fill: none; stroke: #000000; stroke-width: 0.8; stroke-linejoin: miter; stroke-linecap: square"/>
   </g>
   <g id="patch_5">
    <path d="M 65.2 308.64 
L 450 308.64 
" style="fill: none; stroke: #000000; stroke-width: 0.8; stroke-linejoin: miter; stroke-linecap: square"/>
   </g>
   <g id="patch_6">
    <path d="M 65.2 25.44 
L 450 25.44 
" style="fill: none; stroke: #000000; stroke-width: 0.8; stroke-linejoin: miter; stroke-linecap: square"/>
   </g>
   <g id="text_15">
    <!-- Raw EEG Data MATB-Difficult -->
    <g transform="translate(170.643125 19.44) scale(0.12 -0.12)">
     <defs>
      <path id="DejaVuSans-52" d="M 2841 2188 
Q 3044 2119 3236 1894 
Q 3428 1669 3622 1275 
L 4263 0 
L 3584 0 
L 2988 1197 
Q 2756 1666 2539 1819 
Q 2322 1972 1947 1972 
L 1259 1972 
L 1259 0 
L 628 0 
L 628 4666 
L 2053 4666 
Q 2853 4666 3247 4331 
Q 3641 3997 3641 3322 
Q 3641 2881 3436 2590 
Q 3231 2300 2841 2188 
z
M 1259 4147 
L 1259 2491 
L 2053 2491 
Q 2509 2491 2742 2702 
Q 2975 2913 2975 3322 
Q 2975 3731 2742 3939 
Q 2509 4147 2053 4147 
L 1259 4147 
z
" transform="scale(0.015625)"/>
      <path id="DejaVuSans-77" d="M 269 3500 
L 844 3500 
L 1563 769 
L 2278 3500 
L 2956 3500 
L 3675 769 
L 4391 3500 
L 4966 3500 
L 4050 0 
L 3372 0 
L 2619 2869 
L 1863 0 
L 1184 0 
L 269 3500 
z
" transform="scale(0.015625)"/>
      <path id="DejaVuSans-45" d="M 628 4666 
L 3578 4666 
L 3578 4134 
L 1259 4134 
L 1259 2753 
L 3481 2753 
L 3481 2222 
L 1259 2222 
L 1259 531 
L 3634 531 
L 3634 0 
L 628 0 
L 628 4666 
z
" transform="scale(0.015625)"/>
      <path id="DejaVuSans-47" d="M 3809 666 
L 3809 1919 
L 2778 1919 
L 2778 2438 
L 4434 2438 
L 4434 434 
Q 4069 175 3628 42 
Q 3188 -91 2688 -91 
Q 1594 -91 976 548 
Q 359 1188 359 2328 
Q 359 3472 976 4111 
Q 1594 4750 2688 4750 
Q 3144 4750 3555 4637 
Q 3966 4525 4313 4306 
L 4313 3634 
Q 3963 3931 3569 4081 
Q 3175 4231 2741 4231 
Q 1884 4231 1454 3753 
Q 1025 3275 1025 2328 
Q 1025 1384 1454 906 
Q 1884 428 2741 428 
Q 3075 428 3337 486 
Q 3600 544 3809 666 
z
" transform="scale(0.015625)"/>
      <path id="DejaVuSans-44" d="M 1259 4147 
L 1259 519 
L 2022 519 
Q 2988 519 3436 956 
Q 3884 1394 3884 2338 
Q 3884 3275 3436 3711 
Q 2988 4147 2022 4147 
L 1259 4147 
z
M 628 4666 
L 1925 4666 
Q 3281 4666 3915 4102 
Q 4550 3538 4550 2338 
Q 4550 1131 3912 565 
Q 3275 0 1925 0 
L 628 0 
L 628 4666 
z
" transform="scale(0.015625)"/>
      <path id="DejaVuSans-4d" d="M 628 4666 
L 1569 4666 
L 2759 1491 
L 3956 4666 
L 4897 4666 
L 4897 0 
L 4281 0 
L 4281 4097 
L 3078 897 
L 2444 897 
L 1241 4097 
L 1241 0 
L 628 0 
L 628 4666 
z
" transform="scale(0.015625)"/>
      <path id="DejaVuSans-41" d="M 2188 4044 
L 1331 1722 
L 3047 1722 
L 2188 4044 
z
M 1831 4666 
L 2547 4666 
L 4325 0 
L 3669 0 
L 3244 1197 
L 1141 1197 
L 716 0 
L 50 0 
L 1831 4666 
z
" transform="scale(0.015625)"/>
      <path id="DejaVuSans-42" d="M 1259 2228 
L 1259 519 
L 2272 519 
Q 2781 519 3026 730 
Q 3272 941 3272 1375 
Q 3272 1813 3026 2020 
Q 2781 2228 2272 2228 
L 1259 2228 
z
M 1259 4147 
L 1259 2741 
L 2194 2741 
Q 2656 2741 2882 2914 
Q 3109 3088 3109 3444 
Q 3109 3797 2882 3972 
Q 2656 4147 2194 4147 
L 1259 4147 
z
M 628 4666 
L 2241 4666 
Q 2963 4666 3353 4366 
Q 3744 4066 3744 3513 
Q 3744 3084 3544 2831 
Q 3344 2578 2956 2516 
Q 3422 2416 3680 2098 
Q 3938 1781 3938 1306 
Q 3938 681 3513 340 
Q 3088 0 2303 0 
L 628 0 
L 628 4666 
z
" transform="scale(0.015625)"/>
      <path id="DejaVuSans-2d" d="M 313 2009 
L 1997 2009 
L 1997 1497 
L 313 1497 
L 313 2009 
z
" transform="scale(0.015625)"/>
      <path id="DejaVuSans-66" d="M 2375 4863 
L 2375 4384 
L 1825 4384 
Q 1516 4384 1395 4259 
Q 1275 4134 1275 3809 
L 1275 3500 
L 2222 3500 
L 2222 3053 
L 1275 3053 
L 1275 0 
L 697 0 
L 697 3053 
L 147 3053 
L 147 3500 
L 697 3500 
L 697 3744 
Q 697 4328 969 4595 
Q 1241 4863 1831 4863 
L 2375 4863 
z
" transform="scale(0.015625)"/>
      <path id="DejaVuSans-63" d="M 3122 3366 
L 3122 2828 
Q 2878 2963 2633 3030 
Q 2388 3097 2138 3097 
Q 1578 3097 1268 2742 
Q 959 2388 959 1747 
Q 959 1106 1268 751 
Q 1578 397 2138 397 
Q 2388 397 2633 464 
Q 2878 531 3122 666 
L 3122 134 
Q 2881 22 2623 -34 
Q 2366 -91 2075 -91 
Q 1284 -91 818 406 
Q 353 903 353 1747 
Q 353 2603 823 3093 
Q 1294 3584 2113 3584 
Q 2378 3584 2631 3529 
Q 2884 3475 3122 3366 
z
" transform="scale(0.015625)"/>
      <path id="DejaVuSans-75" d="M 544 1381 
L 544 3500 
L 1119 3500 
L 1119 1403 
Q 1119 906 1312 657 
Q 1506 409 1894 409 
Q 2359 409 2629 706 
Q 2900 1003 2900 1516 
L 2900 3500 
L 3475 3500 
L 3475 0 
L 2900 0 
L 2900 538 
Q 2691 219 2414 64 
Q 2138 -91 1772 -91 
Q 1169 -91 856 284 
Q 544 659 544 1381 
z
M 1991 3584 
L 1991 3584 
z
" transform="scale(0.015625)"/>
     </defs>
     <use xlink:href="#DejaVuSans-52"/>
     <use xlink:href="#DejaVuSans-61" x="67.232422"/>
     <use xlink:href="#DejaVuSans-77" x="128.511719"/>
     <use xlink:href="#DejaVuSans-20" x="210.298828"/>
     <use xlink:href="#DejaVuSans-45" x="242.085938"/>
     <use xlink:href="#DejaVuSans-45" x="305.269531"/>
     <use xlink:href="#DejaVuSans-47" x="368.453125"/>
     <use xlink:href="#DejaVuSans-20" x="445.943359"/>
     <use xlink:href="#DejaVuSans-44" x="477.730469"/>
     <use xlink:href="#DejaVuSans-61" x="554.732422"/>
     <use xlink:href="#DejaVuSans-74" x="616.011719"/>
     <use xlink:href="#DejaVuSans-61" x="655.220703"/>
     <use xlink:href="#DejaVuSans-20" x="716.5"/>
     <use xlink:href="#DejaVuSans-4d" x="748.287109"/>
     <use xlink:href="#DejaVuSans-41" x="834.566406"/>
     <use xlink:href="#DejaVuSans-54" x="895.224609"/>
     <use xlink:href="#DejaVuSans-42" x="956.308594"/>
     <use xlink:href="#DejaVuSans-2d" x="1024.912109"/>
     <use xlink:href="#DejaVuSans-44" x="1060.996094"/>
     <use xlink:href="#DejaVuSans-69" x="1137.998047"/>
     <use xlink:href="#DejaVuSans-66" x="1165.78125"/>
     <use xlink:href="#DejaVuSans-66" x="1200.986328"/>
     <use xlink:href="#DejaVuSans-69" x="1236.191406"/>
     <use xlink:href="#DejaVuSans-63" x="1263.974609"/>
     <use xlink:href="#DejaVuSans-75" x="1318.955078"/>
     <use xlink:href="#DejaVuSans-6c" x="1382.333984"/>
     <use xlink:href="#DejaVuSans-74" x="1410.117188"/>
    </g>
   </g>
  </g>
 </g>
 <defs>
  <clipPath id="pa4c35ed215">
   <rect x="65.2" y="25.44" width="384.8" height="283.2"/>
  </clipPath>
 </defs>
</svg>
