<?xml version="1.0" encoding="utf-8" standalone="no"?>
<!DOCTYPE svg PUBLIC "-//W3C//DTD SVG 1.1//EN"
  "http://www.w3.org/Graphics/SVG/1.1/DTD/svg11.dtd">
<svg xmlns:xlink="http://www.w3.org/1999/xlink" width="460.8pt" height="345.6pt" viewBox="0 0 460.8 345.6" xmlns="http://www.w3.org/2000/svg" version="1.1">
 <metadata>
  <rdf:RDF xmlns:dc="http://purl.org/dc/elements/1.1/" xmlns:cc="http://creativecommons.org/ns#" xmlns:rdf="http://www.w3.org/1999/02/22-rdf-syntax-ns#">
   <cc:Work>
    <dc:type rdf:resource="http://purl.org/dc/dcmitype/StillImage"/>
    <dc:date>2024-04-25T23:52:05.681881</dc:date>
    <dc:format>image/svg+xml</dc:format>
    <dc:creator>
     <cc:Agent>
      <dc:title>Matplotlib v3.8.4, https://matplotlib.org/</dc:title>
     </cc:Agent>
    </dc:creator>
   </cc:Work>
  </rdf:RDF>
 </metadata>
 <defs>
  <style type="text/css">*{stroke-linejoin: round; stroke-linecap: butt}</style>
 </defs>
 <g id="figure_1">
  <g id="patch_1">
   <path d="M 0 345.6 
L 460.8 345.6 
L 460.8 0 
L 0 0 
z
" style="fill: #ffffff"/>
  </g>
  <g id="axes_1">
   <g id="patch_2">
    <path d="M 65.2 308.64 
L 450 308.64 
L 450 25.44 
L 65.2 25.44 
z
" style="fill: #ffffff"/>
   </g>
   <g id="matplotlib.axis_1">
    <g id="xtick_1">
     <g id="line2d_1">
      <defs>
       <path id="m3822bcf1e9" d="M 0 0 
L 0 2 
" style="stroke: #000000; stroke-width: 0.8"/>
      </defs>
      <g>
       <use xlink:href="#m3822bcf1e9" x="82.690909" y="308.64" style="stroke: #000000; stroke-width: 0.8"/>
      </g>
     </g>
     <g id="text_1">
      <!-- 0.0 -->
      <g transform="translate(74.739347 319.238437) scale(0.1 -0.1)">
       <defs>
        <path id="DejaVuSans-30" d="M 2034 4250 
Q 1547 4250 1301 3770 
Q 1056 3291 1056 2328 
Q 1056 1369 1301 889 
Q 1547 409 2034 409 
Q 2525 409 2770 889 
Q 3016 1369 3016 2328 
Q 3016 3291 2770 3770 
Q 2525 4250 2034 4250 
z
M 2034 4750 
Q 2819 4750 3233 4129 
Q 3647 3509 3647 2328 
Q 3647 1150 3233 529 
Q 2819 -91 2034 -91 
Q 1250 -91 836 529 
Q 422 1150 422 2328 
Q 422 3509 836 4129 
Q 1250 4750 2034 4750 
z
" transform="scale(0.015625)"/>
        <path id="DejaVuSans-2e" d="M 684 794 
L 1344 794 
L 1344 0 
L 684 0 
L 684 794 
z
" transform="scale(0.015625)"/>
       </defs>
       <use xlink:href="#DejaVuSans-30"/>
       <use xlink:href="#DejaVuSans-2e" x="63.623047"/>
       <use xlink:href="#DejaVuSans-30" x="95.410156"/>
      </g>
     </g>
    </g>
    <g id="xtick_2">
     <g id="line2d_2">
      <g>
       <use xlink:href="#m3822bcf1e9" x="152.654545" y="308.64" style="stroke: #000000; stroke-width: 0.8"/>
      </g>
     </g>
     <g id="text_2">
      <!-- 0.1 -->
      <g transform="translate(144.702983 319.238437) scale(0.1 -0.1)">
       <defs>
        <path id="DejaVuSans-31" d="M 794 531 
L 1825 531 
L 1825 4091 
L 703 3866 
L 703 4441 
L 1819 4666 
L 2450 4666 
L 2450 531 
L 3481 531 
L 3481 0 
L 794 0 
L 794 531 
z
" transform="scale(0.015625)"/>
       </defs>
       <use xlink:href="#DejaVuSans-30"/>
       <use xlink:href="#DejaVuSans-2e" x="63.623047"/>
       <use xlink:href="#DejaVuSans-31" x="95.410156"/>
      </g>
     </g>
    </g>
    <g id="xtick_3">
     <g id="line2d_3">
      <g>
       <use xlink:href="#m3822bcf1e9" x="222.618182" y="308.64" style="stroke: #000000; stroke-width: 0.8"/>
      </g>
     </g>
     <g id="text_3">
      <!-- 0.2 -->
      <g transform="translate(214.666619 319.238437) scale(0.1 -0.1)">
       <defs>
        <path id="DejaVuSans-32" d="M 1228 531 
L 3431 531 
L 3431 0 
L 469 0 
L 469 531 
Q 828 903 1448 1529 
Q 2069 2156 2228 2338 
Q 2531 2678 2651 2914 
Q 2772 3150 2772 3378 
Q 2772 3750 2511 3984 
Q 2250 4219 1831 4219 
Q 1534 4219 1204 4116 
Q 875 4013 500 3803 
L 500 4441 
Q 881 4594 1212 4672 
Q 1544 4750 1819 4750 
Q 2544 4750 2975 4387 
Q 3406 4025 3406 3419 
Q 3406 3131 3298 2873 
Q 3191 2616 2906 2266 
Q 2828 2175 2409 1742 
Q 1991 1309 1228 531 
z
" transform="scale(0.015625)"/>
       </defs>
       <use xlink:href="#DejaVuSans-30"/>
       <use xlink:href="#DejaVuSans-2e" x="63.623047"/>
       <use xlink:href="#DejaVuSans-32" x="95.410156"/>
      </g>
     </g>
    </g>
    <g id="xtick_4">
     <g id="line2d_4">
      <g>
       <use xlink:href="#m3822bcf1e9" x="292.581818" y="308.64" style="stroke: #000000; stroke-width: 0.8"/>
      </g>
     </g>
     <g id="text_4">
      <!-- 0.3 -->
      <g transform="translate(284.630256 319.238437) scale(0.1 -0.1)">
       <defs>
        <path id="DejaVuSans-33" d="M 2597 2516 
Q 3050 2419 3304 2112 
Q 3559 1806 3559 1356 
Q 3559 666 3084 287 
Q 2609 -91 1734 -91 
Q 1441 -91 1130 -33 
Q 819 25 488 141 
L 488 750 
Q 750 597 1062 519 
Q 1375 441 1716 441 
Q 2309 441 2620 675 
Q 2931 909 2931 1356 
Q 2931 1769 2642 2001 
Q 2353 2234 1838 2234 
L 1294 2234 
L 1294 2753 
L 1863 2753 
Q 2328 2753 2575 2939 
Q 2822 3125 2822 3475 
Q 2822 3834 2567 4026 
Q 2313 4219 1838 4219 
Q 1578 4219 1281 4162 
Q 984 4106 628 3988 
L 628 4550 
Q 988 4650 1302 4700 
Q 1616 4750 1894 4750 
Q 2613 4750 3031 4423 
Q 3450 4097 3450 3541 
Q 3450 3153 3228 2886 
Q 3006 2619 2597 2516 
z
" transform="scale(0.015625)"/>
       </defs>
       <use xlink:href="#DejaVuSans-30"/>
       <use xlink:href="#DejaVuSans-2e" x="63.623047"/>
       <use xlink:href="#DejaVuSans-33" x="95.410156"/>
      </g>
     </g>
    </g>
    <g id="xtick_5">
     <g id="line2d_5">
      <g>
       <use xlink:href="#m3822bcf1e9" x="362.545455" y="308.64" style="stroke: #000000; stroke-width: 0.8"/>
      </g>
     </g>
     <g id="text_5">
      <!-- 0.4 -->
      <g transform="translate(354.593892 319.238437) scale(0.1 -0.1)">
       <defs>
        <path id="DejaVuSans-34" d="M 2419 4116 
L 825 1625 
L 2419 1625 
L 2419 4116 
z
M 2253 4666 
L 3047 4666 
L 3047 1625 
L 3713 1625 
L 3713 1100 
L 3047 1100 
L 3047 0 
L 2419 0 
L 2419 1100 
L 313 1100 
L 313 1709 
L 2253 4666 
z
" transform="scale(0.015625)"/>
       </defs>
       <use xlink:href="#DejaVuSans-30"/>
       <use xlink:href="#DejaVuSans-2e" x="63.623047"/>
       <use xlink:href="#DejaVuSans-34" x="95.410156"/>
      </g>
     </g>
    </g>
    <g id="xtick_6">
     <g id="line2d_6">
      <g>
       <use xlink:href="#m3822bcf1e9" x="432.509091" y="308.64" style="stroke: #000000; stroke-width: 0.8"/>
      </g>
     </g>
     <g id="text_6">
      <!-- 0.5 -->
      <g transform="translate(424.557528 319.238437) scale(0.1 -0.1)">
       <defs>
        <path id="DejaVuSans-35" d="M 691 4666 
L 3169 4666 
L 3169 4134 
L 1269 4134 
L 1269 2991 
Q 1406 3038 1543 3061 
Q 1681 3084 1819 3084 
Q 2600 3084 3056 2656 
Q 3513 2228 3513 1497 
Q 3513 744 3044 326 
Q 2575 -91 1722 -91 
Q 1428 -91 1123 -41 
Q 819 9 494 109 
L 494 744 
Q 775 591 1075 516 
Q 1375 441 1709 441 
Q 2250 441 2565 725 
Q 2881 1009 2881 1497 
Q 2881 1984 2565 2268 
Q 2250 2553 1709 2553 
Q 1456 2553 1204 2497 
Q 953 2441 691 2322 
L 691 4666 
z
" transform="scale(0.015625)"/>
       </defs>
       <use xlink:href="#DejaVuSans-30"/>
       <use xlink:href="#DejaVuSans-2e" x="63.623047"/>
       <use xlink:href="#DejaVuSans-35" x="95.410156"/>
      </g>
     </g>
    </g>
    <g id="text_7">
     <!-- Time (s) -->
     <g transform="translate(237.271094 331.916562) scale(0.1 -0.1)">
      <defs>
       <path id="DejaVuSans-54" d="M -19 4666 
L 3928 4666 
L 3928 4134 
L 2272 4134 
L 2272 0 
L 1638 0 
L 1638 4134 
L -19 4134 
L -19 4666 
z
" transform="scale(0.015625)"/>
       <path id="DejaVuSans-69" d="M 603 3500 
L 1178 3500 
L 1178 0 
L 603 0 
L 603 3500 
z
M 603 4863 
L 1178 4863 
L 1178 4134 
L 603 4134 
L 603 4863 
z
" transform="scale(0.015625)"/>
       <path id="DejaVuSans-6d" d="M 3328 2828 
Q 3544 3216 3844 3400 
Q 4144 3584 4550 3584 
Q 5097 3584 5394 3201 
Q 5691 2819 5691 2113 
L 5691 0 
L 5113 0 
L 5113 2094 
Q 5113 2597 4934 2840 
Q 4756 3084 4391 3084 
Q 3944 3084 3684 2787 
Q 3425 2491 3425 1978 
L 3425 0 
L 2847 0 
L 2847 2094 
Q 2847 2600 2669 2842 
Q 2491 3084 2119 3084 
Q 1678 3084 1418 2786 
Q 1159 2488 1159 1978 
L 1159 0 
L 581 0 
L 581 3500 
L 1159 3500 
L 1159 2956 
Q 1356 3278 1631 3431 
Q 1906 3584 2284 3584 
Q 2666 3584 2933 3390 
Q 3200 3197 3328 2828 
z
" transform="scale(0.015625)"/>
       <path id="DejaVuSans-65" d="M 3597 1894 
L 3597 1613 
L 953 1613 
Q 991 1019 1311 708 
Q 1631 397 2203 397 
Q 2534 397 2845 478 
Q 3156 559 3463 722 
L 3463 178 
Q 3153 47 2828 -22 
Q 2503 -91 2169 -91 
Q 1331 -91 842 396 
Q 353 884 353 1716 
Q 353 2575 817 3079 
Q 1281 3584 2069 3584 
Q 2775 3584 3186 3129 
Q 3597 2675 3597 1894 
z
M 3022 2063 
Q 3016 2534 2758 2815 
Q 2500 3097 2075 3097 
Q 1594 3097 1305 2825 
Q 1016 2553 972 2059 
L 3022 2063 
z
" transform="scale(0.015625)"/>
       <path id="DejaVuSans-20" transform="scale(0.015625)"/>
       <path id="DejaVuSans-28" d="M 1984 4856 
Q 1566 4138 1362 3434 
Q 1159 2731 1159 2009 
Q 1159 1288 1364 580 
Q 1569 -128 1984 -844 
L 1484 -844 
Q 1016 -109 783 600 
Q 550 1309 550 2009 
Q 550 2706 781 3412 
Q 1013 4119 1484 4856 
L 1984 4856 
z
" transform="scale(0.015625)"/>
       <path id="DejaVuSans-73" d="M 2834 3397 
L 2834 2853 
Q 2591 2978 2328 3040 
Q 2066 3103 1784 3103 
Q 1356 3103 1142 2972 
Q 928 2841 928 2578 
Q 928 2378 1081 2264 
Q 1234 2150 1697 2047 
L 1894 2003 
Q 2506 1872 2764 1633 
Q 3022 1394 3022 966 
Q 3022 478 2636 193 
Q 2250 -91 1575 -91 
Q 1294 -91 989 -36 
Q 684 19 347 128 
L 347 722 
Q 666 556 975 473 
Q 1284 391 1588 391 
Q 1994 391 2212 530 
Q 2431 669 2431 922 
Q 2431 1156 2273 1281 
Q 2116 1406 1581 1522 
L 1381 1569 
Q 847 1681 609 1914 
Q 372 2147 372 2553 
Q 372 3047 722 3315 
Q 1072 3584 1716 3584 
Q 2034 3584 2315 3537 
Q 2597 3491 2834 3397 
z
" transform="scale(0.015625)"/>
       <path id="DejaVuSans-29" d="M 513 4856 
L 1013 4856 
Q 1481 4119 1714 3412 
Q 1947 2706 1947 2009 
Q 1947 1309 1714 600 
Q 1481 -109 1013 -844 
L 513 -844 
Q 928 -128 1133 580 
Q 1338 1288 1338 2009 
Q 1338 2731 1133 3434 
Q 928 4138 513 4856 
z
" transform="scale(0.015625)"/>
      </defs>
      <use xlink:href="#DejaVuSans-54"/>
      <use xlink:href="#DejaVuSans-69" x="57.958984"/>
      <use xlink:href="#DejaVuSans-6d" x="85.742188"/>
      <use xlink:href="#DejaVuSans-65" x="183.154297"/>
      <use xlink:href="#DejaVuSans-20" x="244.677734"/>
      <use xlink:href="#DejaVuSans-28" x="276.464844"/>
      <use xlink:href="#DejaVuSans-73" x="315.478516"/>
      <use xlink:href="#DejaVuSans-29" x="367.578125"/>
     </g>
    </g>
   </g>
   <g id="matplotlib.axis_2">
    <g id="ytick_1">
     <g id="line2d_7">
      <defs>
       <path id="md577a63cc2" d="M 0 0 
L -2 0 
" style="stroke: #000000; stroke-width: 0.8"/>
      </defs>
      <g>
       <use xlink:href="#md577a63cc2" x="65.2" y="284.978619" style="stroke: #000000; stroke-width: 0.8"/>
      </g>
     </g>
     <g id="text_8">
      <!-- −15000 -->
      <g transform="translate(22.007813 288.777838) scale(0.1 -0.1)">
       <defs>
        <path id="DejaVuSans-2212" d="M 678 2272 
L 4684 2272 
L 4684 1741 
L 678 1741 
L 678 2272 
z
" transform="scale(0.015625)"/>
       </defs>
       <use xlink:href="#DejaVuSans-2212"/>
       <use xlink:href="#DejaVuSans-31" x="83.789062"/>
       <use xlink:href="#DejaVuSans-35" x="147.412109"/>
       <use xlink:href="#DejaVuSans-30" x="211.035156"/>
       <use xlink:href="#DejaVuSans-30" x="274.658203"/>
       <use xlink:href="#DejaVuSans-30" x="338.28125"/>
      </g>
     </g>
    </g>
    <g id="ytick_2">
     <g id="line2d_8">
      <g>
       <use xlink:href="#md577a63cc2" x="65.2" y="245.98945" style="stroke: #000000; stroke-width: 0.8"/>
      </g>
     </g>
     <g id="text_9">
      <!-- −10000 -->
      <g transform="translate(22.007813 249.788669) scale(0.1 -0.1)">
       <use xlink:href="#DejaVuSans-2212"/>
       <use xlink:href="#DejaVuSans-31" x="83.789062"/>
       <use xlink:href="#DejaVuSans-30" x="147.412109"/>
       <use xlink:href="#DejaVuSans-30" x="211.035156"/>
       <use xlink:href="#DejaVuSans-30" x="274.658203"/>
       <use xlink:href="#DejaVuSans-30" x="338.28125"/>
      </g>
     </g>
    </g>
    <g id="ytick_3">
     <g id="line2d_9">
      <g>
       <use xlink:href="#md577a63cc2" x="65.2" y="207.000281" style="stroke: #000000; stroke-width: 0.8"/>
      </g>
     </g>
     <g id="text_10">
      <!-- −5000 -->
      <g transform="translate(28.370313 210.7995) scale(0.1 -0.1)">
       <use xlink:href="#DejaVuSans-2212"/>
       <use xlink:href="#DejaVuSans-35" x="83.789062"/>
       <use xlink:href="#DejaVuSans-30" x="147.412109"/>
       <use xlink:href="#DejaVuSans-30" x="211.035156"/>
       <use xlink:href="#DejaVuSans-30" x="274.658203"/>
      </g>
     </g>
    </g>
    <g id="ytick_4">
     <g id="line2d_10">
      <g>
       <use xlink:href="#md577a63cc2" x="65.2" y="168.011112" style="stroke: #000000; stroke-width: 0.8"/>
      </g>
     </g>
     <g id="text_11">
      <!-- 0 -->
      <g transform="translate(55.8375 171.810331) scale(0.1 -0.1)">
       <use xlink:href="#DejaVuSans-30"/>
      </g>
     </g>
    </g>
    <g id="ytick_5">
     <g id="line2d_11">
      <g>
       <use xlink:href="#md577a63cc2" x="65.2" y="129.021943" style="stroke: #000000; stroke-width: 0.8"/>
      </g>
     </g>
     <g id="text_12">
      <!-- 5000 -->
      <g transform="translate(36.75 132.821162) scale(0.1 -0.1)">
       <use xlink:href="#DejaVuSans-35"/>
       <use xlink:href="#DejaVuSans-30" x="63.623047"/>
       <use xlink:href="#DejaVuSans-30" x="127.246094"/>
       <use xlink:href="#DejaVuSans-30" x="190.869141"/>
      </g>
     </g>
    </g>
    <g id="ytick_6">
     <g id="line2d_12">
      <g>
       <use xlink:href="#md577a63cc2" x="65.2" y="90.032774" style="stroke: #000000; stroke-width: 0.8"/>
      </g>
     </g>
     <g id="text_13">
      <!-- 10000 -->
      <g transform="translate(30.3875 93.831993) scale(0.1 -0.1)">
       <use xlink:href="#DejaVuSans-31"/>
       <use xlink:href="#DejaVuSans-30" x="63.623047"/>
       <use xlink:href="#DejaVuSans-30" x="127.246094"/>
       <use xlink:href="#DejaVuSans-30" x="190.869141"/>
       <use xlink:href="#DejaVuSans-30" x="254.492188"/>
      </g>
     </g>
    </g>
    <g id="ytick_7">
     <g id="line2d_13">
      <g>
       <use xlink:href="#md577a63cc2" x="65.2" y="51.043605" style="stroke: #000000; stroke-width: 0.8"/>
      </g>
     </g>
     <g id="text_14">
      <!-- 15000 -->
      <g transform="translate(30.3875 54.842824) scale(0.1 -0.1)">
       <use xlink:href="#DejaVuSans-31"/>
       <use xlink:href="#DejaVuSans-35" x="63.623047"/>
       <use xlink:href="#DejaVuSans-30" x="127.246094"/>
       <use xlink:href="#DejaVuSans-30" x="190.869141"/>
       <use xlink:href="#DejaVuSans-30" x="254.492188"/>
      </g>
     </g>
    </g>
    <g id="text_15">
     <!-- Voltage (mV) -->
     <g transform="translate(18.928125 199.5775) rotate(-90) scale(0.1 -0.1)">
      <defs>
       <path id="DejaVuSans-56" d="M 1831 0 
L 50 4666 
L 709 4666 
L 2188 738 
L 3669 4666 
L 4325 4666 
L 2547 0 
L 1831 0 
z
" transform="scale(0.015625)"/>
       <path id="DejaVuSans-6f" d="M 1959 3097 
Q 1497 3097 1228 2736 
Q 959 2375 959 1747 
Q 959 1119 1226 758 
Q 1494 397 1959 397 
Q 2419 397 2687 759 
Q 2956 1122 2956 1747 
Q 2956 2369 2687 2733 
Q 2419 3097 1959 3097 
z
M 1959 3584 
Q 2709 3584 3137 3096 
Q 3566 2609 3566 1747 
Q 3566 888 3137 398 
Q 2709 -91 1959 -91 
Q 1206 -91 779 398 
Q 353 888 353 1747 
Q 353 2609 779 3096 
Q 1206 3584 1959 3584 
z
" transform="scale(0.015625)"/>
       <path id="DejaVuSans-6c" d="M 603 4863 
L 1178 4863 
L 1178 0 
L 603 0 
L 603 4863 
z
" transform="scale(0.015625)"/>
       <path id="DejaVuSans-74" d="M 1172 4494 
L 1172 3500 
L 2356 3500 
L 2356 3053 
L 1172 3053 
L 1172 1153 
Q 1172 725 1289 603 
Q 1406 481 1766 481 
L 2356 481 
L 2356 0 
L 1766 0 
Q 1100 0 847 248 
Q 594 497 594 1153 
L 594 3053 
L 172 3053 
L 172 3500 
L 594 3500 
L 594 4494 
L 1172 4494 
z
" transform="scale(0.015625)"/>
       <path id="DejaVuSans-61" d="M 2194 1759 
Q 1497 1759 1228 1600 
Q 959 1441 959 1056 
Q 959 750 1161 570 
Q 1363 391 1709 391 
Q 2188 391 2477 730 
Q 2766 1069 2766 1631 
L 2766 1759 
L 2194 1759 
z
M 3341 1997 
L 3341 0 
L 2766 0 
L 2766 531 
Q 2569 213 2275 61 
Q 1981 -91 1556 -91 
Q 1019 -91 701 211 
Q 384 513 384 1019 
Q 384 1609 779 1909 
Q 1175 2209 1959 2209 
L 2766 2209 
L 2766 2266 
Q 2766 2663 2505 2880 
Q 2244 3097 1772 3097 
Q 1472 3097 1187 3025 
Q 903 2953 641 2809 
L 641 3341 
Q 956 3463 1253 3523 
Q 1550 3584 1831 3584 
Q 2591 3584 2966 3190 
Q 3341 2797 3341 1997 
z
" transform="scale(0.015625)"/>
       <path id="DejaVuSans-67" d="M 2906 1791 
Q 2906 2416 2648 2759 
Q 2391 3103 1925 3103 
Q 1463 3103 1205 2759 
Q 947 2416 947 1791 
Q 947 1169 1205 825 
Q 1463 481 1925 481 
Q 2391 481 2648 825 
Q 2906 1169 2906 1791 
z
M 3481 434 
Q 3481 -459 3084 -895 
Q 2688 -1331 1869 -1331 
Q 1566 -1331 1297 -1286 
Q 1028 -1241 775 -1147 
L 775 -588 
Q 1028 -725 1275 -790 
Q 1522 -856 1778 -856 
Q 2344 -856 2625 -561 
Q 2906 -266 2906 331 
L 2906 616 
Q 2728 306 2450 153 
Q 2172 0 1784 0 
Q 1141 0 747 490 
Q 353 981 353 1791 
Q 353 2603 747 3093 
Q 1141 3584 1784 3584 
Q 2172 3584 2450 3431 
Q 2728 3278 2906 2969 
L 2906 3500 
L 3481 3500 
L 3481 434 
z
" transform="scale(0.015625)"/>
      </defs>
      <use xlink:href="#DejaVuSans-56"/>
      <use xlink:href="#DejaVuSans-6f" x="60.658203"/>
      <use xlink:href="#DejaVuSans-6c" x="121.839844"/>
      <use xlink:href="#DejaVuSans-74" x="149.623047"/>
      <use xlink:href="#DejaVuSans-61" x="188.832031"/>
      <use xlink:href="#DejaVuSans-67" x="250.111328"/>
      <use xlink:href="#DejaVuSans-65" x="313.587891"/>
      <use xlink:href="#DejaVuSans-20" x="375.111328"/>
      <use xlink:href="#DejaVuSans-28" x="406.898438"/>
      <use xlink:href="#DejaVuSans-6d" x="445.912109"/>
      <use xlink:href="#DejaVuSans-56" x="543.324219"/>
      <use xlink:href="#DejaVuSans-29" x="611.732422"/>
     </g>
    </g>
   </g>
   <g id="line2d_14">
    <path d="M 82.690909 38.661117 
L 84.090182 38.549175 
L 85.489455 38.600958 
L 88.288 38.951632 
L 92.485818 39.21359 
L 98.082909 38.514907 
L 102.280727 38.942494 
L 106.478545 39.228059 
L 107.877818 39.101268 
L 110.676364 38.583062 
L 112.075636 38.493204 
L 113.474909 38.559075 
L 116.273455 38.929548 
L 120.471273 39.203691 
L 126.068364 38.542322 
L 127.467636 38.61733 
L 130.266182 38.903276 
L 134.464 39.154193 
L 137.262545 38.814941 
L 138.661818 38.549556 
L 140.061091 38.414388 
L 142.859636 38.671778 
L 147.057455 39.140486 
L 148.456727 39.204452 
L 151.255273 38.812657 
L 154.053818 38.422384 
L 155.453091 38.488255 
L 158.251636 38.840833 
L 162.449455 39.189984 
L 165.248 38.814941 
L 168.046545 38.420861 
L 172.244364 38.855301 
L 176.442182 39.234913 
L 177.841455 39.087942 
L 180.64 38.544225 
L 182.039273 38.434568 
L 183.438545 38.471121 
L 186.237091 38.823318 
L 190.434909 39.154193 
L 196.032 38.420481 
L 197.431273 38.488255 
L 200.229818 38.849971 
L 204.427636 39.1679 
L 207.226182 38.781054 
L 208.625455 38.510719 
L 210.024727 38.386213 
L 212.823273 38.672539 
L 218.420364 39.185795 
L 219.819636 39.019406 
L 222.618182 38.507673 
L 224.017455 38.397635 
L 225.416727 38.491301 
L 228.215273 38.882715 
L 232.413091 39.153431 
L 238.010182 38.407916 
L 240.808727 38.690054 
L 246.405818 39.126398 
L 247.805091 38.999607 
L 250.603636 38.497393 
L 252.002909 38.395351 
L 253.402182 38.425811 
L 257.6 38.92041 
L 260.398545 39.144293 
L 263.197091 38.731175 
L 265.995636 38.34928 
L 267.394909 38.41515 
L 270.193455 38.778008 
L 274.391273 39.135917 
L 277.189818 38.751736 
L 278.589091 38.491681 
L 279.988364 38.38964 
L 282.786909 38.690435 
L 288.384 39.252808 
L 291.182545 38.891473 
L 292.581818 38.624564 
L 293.981091 38.474167 
L 295.380364 38.5111 
L 298.178909 38.878908 
L 302.376727 39.187318 
L 307.973818 38.466171 
L 309.373091 38.548414 
L 312.171636 38.889569 
L 316.369455 39.241005 
L 317.768727 39.129444 
L 321.966545 38.47569 
L 324.765091 38.622661 
L 327.563636 38.966862 
L 328.962909 39.190364 
L 330.362182 39.293929 
L 333.160727 38.884238 
L 334.56 38.637891 
L 335.959273 38.52138 
L 340.157091 38.944778 
L 344.354909 39.279461 
L 347.153455 38.892996 
L 348.552727 38.640175 
L 349.952 38.506912 
L 352.750545 38.794761 
L 356.948364 39.244431 
L 358.347636 39.277176 
L 361.146182 38.898707 
L 363.944727 38.553364 
L 365.344 38.601339 
L 368.142545 38.946301 
L 372.340364 39.288218 
L 375.138909 38.873197 
L 377.937455 38.485589 
L 380.736 38.795904 
L 386.333091 39.255092 
L 389.131636 38.862916 
L 390.530909 38.564025 
L 391.930182 38.469598 
L 394.728727 38.712519 
L 398.926545 39.100887 
L 400.325818 39.142009 
L 401.725091 38.99123 
L 404.523636 38.493585 
L 405.922909 38.380121 
L 407.322182 38.428476 
L 410.120727 38.754401 
L 414.318545 39.113833 
L 417.117091 38.720514 
L 418.516364 38.447514 
L 419.915636 38.312727 
L 422.714182 38.631037 
L 428.311273 39.125636 
L 429.710545 38.992372 
L 432.509091 38.495108 
L 432.509091 38.495108 
" clip-path="url(#pe08e77c266)" style="fill: none; stroke: #1f77b4; stroke-width: 1.5; stroke-linecap: square"/>
   </g>
   <g id="line2d_15">
    <path d="M 82.690909 217.411988 
L 84.090182 217.319085 
L 85.489455 217.39257 
L 86.888727 217.622926 
L 92.485818 217.996826 
L 98.082909 217.3267 
L 103.68 217.91801 
L 105.079273 218.058889 
L 106.478545 218.076784 
L 109.277091 217.678897 
L 110.676364 217.448541 
L 112.075636 217.362491 
L 113.474909 217.405896 
L 116.273455 217.75619 
L 120.471273 218.03947 
L 126.068364 217.31147 
L 127.467636 217.37239 
L 128.866909 217.601985 
L 134.464 217.989211 
L 140.061091 217.306139 
L 148.456727 218.052797 
L 151.255273 217.650721 
L 154.053818 217.307281 
L 155.453091 217.35221 
L 158.251636 217.717734 
L 162.449455 218.100391 
L 168.046545 217.282913 
L 172.244364 217.691462 
L 176.442182 218.02424 
L 179.240727 217.60465 
L 180.64 217.333172 
L 182.039273 217.233034 
L 183.438545 217.282532 
L 186.237091 217.678135 
L 190.434909 218.021956 
L 193.233455 217.689558 
L 196.032 217.32708 
L 197.431273 217.378863 
L 200.229818 217.745909 
L 204.427636 218.061935 
L 207.226182 217.706692 
L 208.625455 217.418842 
L 210.024727 217.290147 
L 211.424 217.359825 
L 215.621818 217.801119 
L 218.420364 218.053558 
L 219.819636 217.924483 
L 222.618182 217.426457 
L 224.017455 217.314516 
L 225.416727 217.354875 
L 228.215273 217.723064 
L 232.413091 218.077165 
L 235.211636 217.681562 
L 236.610909 217.447779 
L 238.010182 217.329365 
L 239.409455 217.419604 
L 240.808727 217.697934 
L 245.006545 218.040993 
L 246.405818 218.082115 
L 247.805091 217.984261 
L 252.002909 217.395997 
L 253.402182 217.437499 
L 257.6 217.934002 
L 260.398545 218.083257 
L 265.995636 217.317942 
L 267.394909 217.343072 
L 270.193455 217.669378 
L 274.391273 218.006726 
L 277.189818 217.637014 
L 278.589091 217.356018 
L 279.988364 217.231892 
L 288.384 217.952659 
L 289.783273 217.813303 
L 292.581818 217.319085 
L 293.981091 217.24103 
L 295.380364 217.305377 
L 298.178909 217.688416 
L 302.376727 217.972077 
L 307.973818 217.221992 
L 309.373091 217.329746 
L 312.171636 217.683847 
L 316.369455 217.999111 
L 319.168 217.704407 
L 320.567273 217.480524 
L 321.966545 217.373532 
L 326.164364 217.66024 
L 330.362182 217.992638 
L 333.160727 217.616453 
L 334.56 217.347641 
L 335.959273 217.202955 
L 337.358545 217.289386 
L 340.157091 217.615692 
L 344.354909 217.944282 
L 347.153455 217.557056 
L 348.552727 217.284817 
L 349.952 217.145461 
L 352.750545 217.428742 
L 356.948364 217.874985 
L 358.347636 217.920295 
L 359.746909 217.796169 
L 362.545455 217.31185 
L 363.944727 217.201051 
L 365.344 217.260449 
L 368.142545 217.701742 
L 372.340364 218.117906 
L 375.138909 217.763043 
L 377.937455 217.360967 
L 379.336727 217.449302 
L 382.135273 217.785889 
L 384.933818 218.053558 
L 386.333091 218.05927 
L 389.131636 217.637775 
L 390.530909 217.363633 
L 391.930182 217.314896 
L 394.728727 217.520884 
L 400.325818 217.976265 
L 403.124364 217.57952 
L 405.922909 217.208666 
L 407.322182 217.2357 
L 412.919273 217.871939 
L 414.318545 217.890977 
L 417.117091 217.427599 
L 418.516364 217.143938 
L 419.915636 217.009151 
L 421.314909 217.101674 
L 424.113455 217.429884 
L 428.311273 217.849094 
L 429.710545 217.713926 
L 432.509091 217.244076 
L 432.509091 217.244076 
" clip-path="url(#pe08e77c266)" style="fill: none; stroke: #ff7f0e; stroke-width: 1.5; stroke-linecap: square"/>
   </g>
   <g id="line2d_16">
    <path d="M 82.690909 157.026751 
L 84.090182 156.932705 
L 86.888727 157.246446 
L 92.485818 157.618062 
L 98.082909 157.024848 
L 100.881455 157.290233 
L 102.280727 157.485559 
L 106.478545 157.667179 
L 107.877818 157.554095 
L 110.676364 157.023705 
L 112.075636 157.022944 
L 119.072 157.679363 
L 120.471273 157.744091 
L 123.269818 157.383898 
L 126.068364 156.973065 
L 127.467636 157.029036 
L 128.866909 157.247208 
L 131.665455 157.446723 
L 133.064727 157.685836 
L 134.464 157.703731 
L 140.061091 157.024467 
L 148.456727 157.726196 
L 152.654545 157.118513 
L 154.053818 157.028655 
L 155.453091 157.072823 
L 158.251636 157.444057 
L 162.449455 157.651949 
L 168.046545 156.885111 
L 170.845091 157.105948 
L 176.442182 157.755514 
L 177.841455 157.665275 
L 182.039273 156.958216 
L 183.438545 156.985249 
L 189.035636 157.700685 
L 190.434909 157.77912 
L 193.233455 157.381233 
L 194.632727 157.171057 
L 196.032 157.087672 
L 197.431273 157.16268 
L 200.229818 157.468806 
L 204.427636 157.747518 
L 205.826909 157.599024 
L 208.625455 157.032843 
L 210.024727 156.962785 
L 214.222545 157.443677 
L 217.021091 157.691547 
L 218.420364 157.63253 
L 224.017455 156.833709 
L 225.416727 156.937274 
L 228.215273 157.397986 
L 231.013818 157.680886 
L 232.413091 157.655756 
L 238.010182 156.912144 
L 246.405818 157.793589 
L 247.805091 157.684694 
L 250.603636 157.060638 
L 252.002909 156.956312 
L 253.402182 156.966592 
L 257.6 157.475279 
L 260.398545 157.739141 
L 261.797818 157.613493 
L 265.995636 156.888919 
L 267.394909 156.928136 
L 270.193455 157.18781 
L 274.391273 157.594455 
L 277.189818 157.17753 
L 278.589091 156.898057 
L 279.988364 156.815433 
L 282.786909 157.08653 
L 286.984727 157.674032 
L 288.384 157.704874 
L 289.783273 157.620346 
L 293.981091 156.80896 
L 295.380364 156.846655 
L 298.178909 157.275764 
L 300.977455 157.492794 
L 302.376727 157.464999 
L 306.574545 157.03627 
L 307.973818 156.933086 
L 312.171636 157.260153 
L 314.970182 157.676317 
L 316.369455 157.686978 
L 319.168 157.290614 
L 320.567273 157.037412 
L 321.966545 156.925471 
L 324.765091 157.032843 
L 327.563636 157.350392 
L 330.362182 157.795874 
L 331.761455 157.642049 
L 334.56 157.072061 
L 335.959273 156.981442 
L 342.955636 157.870501 
L 344.354909 157.892585 
L 347.153455 157.408266 
L 348.552727 157.072061 
L 349.952 156.911002 
L 352.750545 157.303559 
L 358.347636 157.860982 
L 359.746909 157.773028 
L 362.545455 157.296325 
L 363.944727 157.188572 
L 365.344 157.201136 
L 370.941091 157.896773 
L 372.340364 157.890681 
L 376.538182 157.262438 
L 377.937455 157.100237 
L 379.336727 157.176007 
L 384.933818 157.871644 
L 386.333091 157.926472 
L 389.131636 157.276526 
L 390.530909 156.981061 
L 391.930182 156.95555 
L 397.527273 157.535438 
L 400.325818 157.846133 
L 401.725091 157.686217 
L 403.124364 157.365622 
L 404.523636 157.18248 
L 407.322182 157.131078 
L 408.721455 157.347727 
L 411.52 157.519446 
L 412.919273 157.764271 
L 414.318545 157.7993 
L 417.117091 157.36943 
L 418.516364 157.088433 
L 419.915636 156.959739 
L 421.314909 157.076249 
L 425.512727 157.666037 
L 426.912 157.817957 
L 428.311273 157.829761 
L 431.109818 157.391133 
L 432.509091 157.156969 
L 432.509091 157.156969 
" clip-path="url(#pe08e77c266)" style="fill: none; stroke: #2ca02c; stroke-width: 1.5; stroke-linecap: square"/>
   </g>
   <g id="line2d_17">
    <path d="M 82.690909 163.421889 
L 84.090182 163.30614 
L 85.489455 163.365157 
L 88.288 163.712404 
L 92.485818 164.002157 
L 95.284364 163.655672 
L 96.683636 163.424935 
L 98.082909 163.317562 
L 102.280727 163.727253 
L 105.079273 163.965986 
L 106.478545 163.98312 
L 107.877818 163.859756 
L 110.676364 163.371249 
L 112.075636 163.284818 
L 113.474909 163.35183 
L 116.273455 163.712404 
L 120.471273 164.004442 
L 123.269818 163.622546 
L 126.068364 163.299286 
L 127.467636 163.373152 
L 130.266182 163.701362 
L 134.464 163.980454 
L 137.262545 163.640822 
L 138.661818 163.394094 
L 140.061091 163.283675 
L 142.859636 163.543349 
L 147.057455 163.978551 
L 148.456727 164.032618 
L 151.255273 163.642726 
L 152.654545 163.411989 
L 154.053818 163.294336 
L 155.453091 163.328223 
L 158.251636 163.685751 
L 162.449455 164.020053 
L 165.248 163.640061 
L 166.647273 163.37696 
L 168.046545 163.229608 
L 170.845091 163.51822 
L 176.442182 164.011295 
L 177.841455 163.881078 
L 180.64 163.362491 
L 182.039273 163.256261 
L 183.438545 163.308424 
L 186.237091 163.68004 
L 190.434909 164.015484 
L 193.233455 163.615692 
L 194.632727 163.370868 
L 196.032 163.239889 
L 197.431273 163.319085 
L 200.229818 163.666713 
L 204.427636 163.997969 
L 207.226182 163.627115 
L 208.625455 163.367822 
L 210.024727 163.247884 
L 212.823273 163.50832 
L 218.420364 164.021195 
L 221.218909 163.606174 
L 222.618182 163.358684 
L 224.017455 163.239508 
L 225.416727 163.305759 
L 228.215273 163.672044 
L 232.413091 163.964844 
L 235.211636 163.597416 
L 238.010182 163.225039 
L 239.409455 163.303855 
L 242.208 163.635492 
L 246.405818 163.987308 
L 247.805091 163.863563 
L 252.002909 163.233416 
L 253.402182 163.28596 
L 257.6 163.746672 
L 260.398545 163.975505 
L 263.197091 163.586755 
L 265.995636 163.197244 
L 267.394909 163.263495 
L 270.193455 163.624831 
L 274.391273 163.96332 
L 277.189818 163.584471 
L 278.589091 163.338123 
L 279.988364 163.217805 
L 282.786909 163.504512 
L 286.984727 163.961797 
L 288.384 164.014341 
L 291.182545 163.623308 
L 293.981091 163.253977 
L 295.380364 163.301571 
L 298.178909 163.670521 
L 302.376727 164.012818 
L 307.973818 163.273014 
L 310.772364 163.571144 
L 316.369455 163.999873 
L 317.768727 163.870417 
L 320.567273 163.376579 
L 321.966545 163.266541 
L 323.365818 163.320228 
L 328.962909 163.951517 
L 330.362182 164.029191 
L 333.160727 163.605412 
L 334.56 163.355257 
L 335.959273 163.241031 
L 337.358545 163.327462 
L 340.157091 163.67509 
L 344.354909 164.017768 
L 347.153455 163.637015 
L 348.552727 163.375437 
L 349.952 163.242554 
L 352.750545 163.526977 
L 356.948364 163.957228 
L 358.347636 163.986166 
L 359.746909 163.854425 
L 362.545455 163.366299 
L 363.944727 163.25588 
L 365.344 163.312232 
L 368.142545 163.676994 
L 372.340364 163.994542 
L 375.138909 163.607316 
L 377.937455 163.221993 
L 380.736 163.532688 
L 386.333091 164.010534 
L 389.131636 163.619881 
L 390.530909 163.324035 
L 391.930182 163.223897 
L 394.728727 163.492328 
L 398.926545 163.919153 
L 400.325818 163.955325 
L 403.124364 163.535353 
L 405.922909 163.19534 
L 407.322182 163.263115 
L 410.120727 163.619881 
L 414.318545 163.967509 
L 417.117091 163.577236 
L 418.516364 163.308044 
L 419.915636 163.19001 
L 422.714182 163.490425 
L 426.912 163.890977 
L 428.311273 163.94809 
L 431.109818 163.53878 
L 432.509091 163.300809 
L 432.509091 163.300809 
" clip-path="url(#pe08e77c266)" style="fill: none; stroke: #d62728; stroke-width: 1.5; stroke-linecap: square"/>
   </g>
   <g id="line2d_18">
    <path d="M 82.690909 238.314219 
L 84.090182 238.207608 
L 85.489455 238.267006 
L 88.288 238.610826 
L 92.485818 238.886111 
L 98.082909 238.169533 
L 100.881455 238.459286 
L 106.478545 238.867073 
L 109.277091 238.492412 
L 110.676364 238.281474 
L 112.075636 238.204181 
L 113.474909 238.271194 
L 116.273455 238.614253 
L 120.471273 238.896391 
L 126.068364 238.16801 
L 127.467636 238.246064 
L 130.266182 238.600927 
L 134.464 238.89068 
L 137.262545 238.538102 
L 138.661818 238.282997 
L 140.061091 238.177148 
L 144.258909 238.63291 
L 148.456727 238.950078 
L 149.856 238.816052 
L 152.654545 238.335161 
L 154.053818 238.211035 
L 155.453091 238.257868 
L 158.251636 238.626437 
L 162.449455 238.978253 
L 165.248 238.595596 
L 168.046545 238.161537 
L 170.845091 238.447864 
L 176.442182 238.908956 
L 179.240727 238.519065 
L 180.64 238.257868 
L 182.039273 238.153541 
L 183.438545 238.206466 
L 186.237091 238.584173 
L 190.434909 238.935228 
L 193.233455 238.561328 
L 196.032 238.204943 
L 197.431273 238.265863 
L 200.229818 238.61806 
L 204.427636 238.987391 
L 207.226182 238.625676 
L 208.625455 238.313838 
L 210.024727 238.181336 
L 212.823273 238.433014 
L 218.420364 238.964546 
L 219.819636 238.80958 
L 222.618182 238.316504 
L 224.017455 238.200374 
L 225.416727 238.239211 
L 228.215273 238.626437 
L 232.413091 238.950458 
L 238.010182 238.225504 
L 239.409455 238.327545 
L 242.208 238.661086 
L 246.405818 238.948174 
L 247.805091 238.827475 
L 250.603636 238.34011 
L 252.002909 238.235022 
L 253.402182 238.300512 
L 257.6 238.778738 
L 260.398545 238.953504 
L 263.197091 238.546479 
L 265.995636 238.165725 
L 267.394909 238.220934 
L 270.193455 238.57732 
L 274.391273 238.901722 
L 277.189818 238.526299 
L 278.589091 238.270432 
L 279.988364 238.147449 
L 282.786909 238.441772 
L 288.384 238.911241 
L 289.783273 238.777596 
L 292.581818 238.287186 
L 293.981091 238.196185 
L 295.380364 238.262437 
L 298.178909 238.630245 
L 302.376727 238.945509 
L 305.175273 238.568563 
L 307.973818 238.17829 
L 309.373091 238.267767 
L 312.171636 238.598261 
L 314.970182 238.902864 
L 316.369455 238.921902 
L 317.768727 238.813768 
L 321.966545 238.251014 
L 327.563636 238.684692 
L 330.362182 238.862504 
L 333.160727 238.469567 
L 335.959273 238.074725 
L 337.358545 238.134503 
L 340.157091 238.468424 
L 344.354909 238.765793 
L 347.153455 238.370571 
L 348.552727 238.105185 
L 349.952 237.973825 
L 352.750545 238.266244 
L 356.948364 238.718199 
L 358.347636 238.768839 
L 359.746909 238.65309 
L 362.545455 238.150495 
L 363.944727 238.034746 
L 365.344 238.100997 
L 368.142545 238.516019 
L 372.340364 238.902103 
L 375.138909 238.4966 
L 377.937455 238.100616 
L 379.336727 238.190855 
L 382.135273 238.536198 
L 386.333091 238.848416 
L 389.131636 238.460048 
L 390.530909 238.174863 
L 391.930182 238.073583 
L 394.728727 238.332876 
L 400.325818 238.807676 
L 403.124364 238.399127 
L 405.922909 238.025989 
L 407.322182 238.081198 
L 410.120727 238.391131 
L 414.318545 238.712107 
L 417.117091 238.313077 
L 418.516364 238.034746 
L 419.915636 237.904528 
L 421.314909 237.993625 
L 424.113455 238.320692 
L 428.311273 238.680123 
L 429.710545 238.549525 
L 432.509091 238.047692 
L 432.509091 238.047692 
" clip-path="url(#pe08e77c266)" style="fill: none; stroke: #9467bd; stroke-width: 1.5; stroke-linecap: square"/>
   </g>
   <g id="line2d_19">
    <path d="M 82.690909 294.825288 
L 84.090182 294.72515 
L 85.489455 294.810439 
L 88.288 295.155402 
L 92.485818 295.46762 
L 98.082909 294.756753 
L 106.478545 295.489703 
L 107.877818 295.359105 
L 110.676364 294.856129 
L 112.075636 294.769318 
L 113.474909 294.849657 
L 116.273455 295.21023 
L 120.471273 295.49313 
L 123.269818 295.088389 
L 126.068364 294.755991 
L 127.467636 294.843945 
L 130.266182 295.180531 
L 134.464 295.461528 
L 137.262545 295.127226 
L 138.661818 294.880878 
L 140.061091 294.783025 
L 142.859636 295.027849 
L 147.057455 295.495415 
L 148.456727 295.560143 
L 151.255273 295.167205 
L 154.053818 294.810439 
L 155.453091 294.832523 
L 158.251636 295.196904 
L 162.449455 295.501126 
L 165.248 295.115423 
L 166.647273 294.854987 
L 168.046545 294.711443 
L 170.845091 295.022138 
L 176.442182 295.534252 
L 177.841455 295.414314 
L 180.64 294.900297 
L 182.039273 294.79064 
L 183.438545 294.869075 
L 186.237091 295.249067 
L 190.434909 295.566235 
L 193.233455 295.14969 
L 194.632727 294.909435 
L 196.032 294.80092 
L 197.431273 294.909435 
L 198.830545 295.135983 
L 204.427636 295.529302 
L 207.226182 295.178628 
L 208.625455 294.903724 
L 210.024727 294.78074 
L 212.823273 295.061736 
L 217.021091 295.504933 
L 218.420364 295.549862 
L 221.218909 295.104381 
L 222.618182 294.870217 
L 224.017455 294.748757 
L 225.416727 294.805489 
L 228.215273 295.186243 
L 232.413091 295.506457 
L 235.211636 295.132556 
L 238.010182 294.759418 
L 239.409455 294.850418 
L 242.208 295.197665 
L 245.006545 295.540724 
L 246.405818 295.556716 
L 249.204364 295.143598 
L 250.603636 294.895728 
L 252.002909 294.798255 
L 254.801455 295.083439 
L 260.398545 295.58413 
L 263.197091 295.16949 
L 265.995636 294.769698 
L 267.394909 294.81615 
L 268.794182 295.050314 
L 274.391273 295.472189 
L 277.189818 295.089531 
L 278.589091 294.815008 
L 279.988364 294.691263 
L 282.786909 295.003481 
L 286.984727 295.439444 
L 288.384 295.477138 
L 291.182545 295.107427 
L 293.981091 294.741523 
L 295.380364 294.792163 
L 298.178909 295.163398 
L 302.376727 295.500745 
L 305.175273 295.111234 
L 307.973818 294.734669 
L 310.772364 295.051075 
L 316.369455 295.497699 
L 319.168 295.10895 
L 320.567273 294.843184 
L 321.966545 294.732004 
L 323.365818 294.8112 
L 327.563636 295.325599 
L 330.362182 295.544151 
L 333.160727 295.201854 
L 335.959273 294.857272 
L 337.358545 294.937991 
L 340.157091 295.338163 
L 344.354909 295.737193 
L 347.153455 295.350728 
L 348.552727 295.062117 
L 349.952 294.926569 
L 352.750545 295.226983 
L 356.948364 295.703306 
L 358.347636 295.761942 
L 359.746909 295.627917 
L 362.545455 295.121895 
L 363.944727 294.994724 
L 365.344 295.045364 
L 368.142545 295.440586 
L 372.340364 295.7509 
L 377.937455 294.928092 
L 379.336727 295.022138 
L 382.135273 295.384235 
L 386.333091 295.701783 
L 387.732364 295.568519 
L 390.530909 295.048029 
L 391.930182 294.966929 
L 394.728727 295.238787 
L 398.926545 295.675892 
L 400.325818 295.715109 
L 403.124364 295.33131 
L 405.922909 294.984063 
L 407.322182 295.049933 
L 410.120727 295.404795 
L 414.318545 295.767273 
L 417.117091 295.394896 
L 418.516364 295.101715 
L 419.915636 294.963502 
L 421.314909 295.052598 
L 424.113455 295.408603 
L 426.912 295.691122 
L 428.311273 295.717394 
L 429.710545 295.578419 
L 432.509091 295.092197 
L 432.509091 295.092197 
" clip-path="url(#pe08e77c266)" style="fill: none; stroke: #8c564b; stroke-width: 1.5; stroke-linecap: square"/>
   </g>
   <g id="line2d_20">
    <path d="M 82.690909 206.311498 
L 84.090182 206.189276 
L 85.489455 206.238393 
L 86.888727 206.466845 
L 92.485818 206.781729 
L 98.082909 206.157293 
L 106.478545 206.943168 
L 109.277091 206.597063 
L 110.676364 206.330536 
L 112.075636 206.227732 
L 113.474909 206.298933 
L 117.672727 206.800766 
L 120.471273 206.934792 
L 123.269818 206.5449 
L 126.068364 206.227351 
L 127.467636 206.286749 
L 130.266182 206.579548 
L 134.464 206.846076 
L 137.262545 206.503017 
L 138.661818 206.202222 
L 140.061091 206.079238 
L 142.859636 206.38346 
L 145.658182 206.76231 
L 148.456727 206.921465 
L 151.255273 206.486264 
L 154.053818 206.102464 
L 155.453091 206.190418 
L 158.251636 206.547946 
L 159.650909 206.628285 
L 162.449455 206.942026 
L 168.046545 206.118837 
L 170.845091 206.404783 
L 176.442182 206.97439 
L 177.841455 206.806478 
L 180.64 206.220117 
L 182.039273 206.118456 
L 183.438545 206.184326 
L 186.237091 206.541473 
L 190.434909 206.907758 
L 196.032 206.200699 
L 197.431273 206.214786 
L 200.229818 206.633615 
L 204.427636 206.900524 
L 207.226182 206.466084 
L 208.625455 206.205648 
L 210.024727 206.09523 
L 212.823273 206.401736 
L 218.420364 206.934792 
L 224.017455 206.157673 
L 232.413091 206.905093 
L 235.211636 206.580691 
L 238.010182 206.174427 
L 239.409455 206.255908 
L 240.808727 206.461896 
L 243.607273 206.693013 
L 245.006545 206.875394 
L 246.405818 206.92908 
L 247.805091 206.795816 
L 250.603636 206.245628 
L 253.402182 206.138636 
L 257.6 206.736038 
L 260.398545 206.89862 
L 265.995636 206.168715 
L 267.394909 206.233824 
L 270.193455 206.531954 
L 271.592727 206.61572 
L 272.992 206.854072 
L 274.391273 206.924511 
L 277.189818 206.427628 
L 278.589091 206.134828 
L 279.988364 206.007276 
L 282.786909 206.21174 
L 288.384 206.940503 
L 289.783273 206.812189 
L 293.981091 206.068196 
L 295.380364 206.091422 
L 298.178909 206.538427 
L 302.376727 206.85826 
L 307.973818 206.154247 
L 310.772364 206.414682 
L 316.369455 206.907758 
L 317.768727 206.776017 
L 320.567273 206.183945 
L 321.966545 206.072765 
L 324.765091 206.278372 
L 330.362182 206.956114 
L 331.761455 206.82285 
L 334.56 206.351096 
L 335.959273 206.215929 
L 337.358545 206.30236 
L 340.157091 206.63095 
L 344.354909 207.058156 
L 349.952 206.233443 
L 351.351273 206.273803 
L 355.549091 206.782109 
L 358.347636 206.928699 
L 361.146182 206.638184 
L 363.944727 206.346908 
L 365.344 206.397929 
L 368.142545 206.741749 
L 372.340364 207.058156 
L 375.138909 206.735277 
L 377.937455 206.232301 
L 384.933818 206.985051 
L 386.333091 207.031503 
L 389.131636 206.56013 
L 390.530909 206.236109 
L 391.930182 206.135209 
L 394.728727 206.324063 
L 398.926545 206.699867 
L 400.325818 206.717381 
L 401.725091 206.620289 
L 404.523636 206.163765 
L 407.322182 206.068958 
L 410.120727 206.328632 
L 414.318545 206.628285 
L 417.117091 206.264665 
L 418.516364 205.989 
L 419.915636 205.848502 
L 421.314909 205.915514 
L 426.912 206.596302 
L 428.311273 206.738703 
L 429.710545 206.651511 
L 432.509091 206.17595 
L 432.509091 206.17595 
" clip-path="url(#pe08e77c266)" style="fill: none; stroke: #e377c2; stroke-width: 1.5; stroke-linecap: square"/>
   </g>
   <g id="line2d_21">
    <path d="M 82.690909 161.222275 
L 84.090182 161.0833 
L 85.489455 161.256162 
L 86.888727 161.585514 
L 88.288 161.697456 
L 89.687273 161.686414 
L 91.086545 161.848615 
L 92.485818 161.852803 
L 98.082909 161.240551 
L 99.482182 161.322794 
L 100.881455 161.518121 
L 102.280727 161.864607 
L 106.478545 162.114762 
L 107.877818 161.964745 
L 110.676364 161.344116 
L 112.075636 161.280911 
L 114.874182 161.565334 
L 117.672727 161.884025 
L 119.072 162.061075 
L 120.471273 162.033661 
L 123.269818 161.609121 
L 126.068364 161.241694 
L 127.467636 161.286623 
L 130.266182 161.718778 
L 131.665455 161.784648 
L 133.064727 161.973502 
L 134.464 162.043561 
L 135.863273 161.874125 
L 138.661818 161.298807 
L 140.061091 161.154501 
L 141.460364 161.287765 
L 144.258909 161.750761 
L 148.456727 162.061456 
L 152.654545 161.497941 
L 154.053818 161.172397 
L 155.453091 161.235602 
L 156.852364 161.533351 
L 162.449455 162.05346 
L 168.046545 161.211995 
L 169.445818 161.339167 
L 170.845091 161.58361 
L 176.442182 162.003962 
L 179.240727 161.577138 
L 180.64 161.339547 
L 182.039273 161.220752 
L 190.434909 162.051176 
L 196.032 161.254639 
L 197.431273 161.262254 
L 200.229818 161.908774 
L 204.427636 162.14903 
L 210.024727 161.340309 
L 211.424 161.246263 
L 217.021091 161.955226 
L 218.420364 162.01805 
L 221.218909 161.469765 
L 224.017455 161.198288 
L 231.013818 162.000155 
L 235.211636 161.77513 
L 238.010182 161.397803 
L 239.409455 161.366581 
L 242.208 161.618259 
L 243.607273 161.762945 
L 245.006545 162.045845 
L 246.405818 162.054603 
L 249.204364 161.619782 
L 250.603636 161.366962 
L 252.002909 161.310229 
L 254.801455 161.595414 
L 257.6 161.777414 
L 260.398545 161.932762 
L 263.197091 161.606836 
L 264.596364 161.341451 
L 265.995636 161.196003 
L 268.794182 161.388284 
L 270.193455 161.390949 
L 271.592727 161.556196 
L 272.992 161.88669 
L 274.391273 162.074402 
L 279.988364 160.991919 
L 282.786909 161.14879 
L 284.186182 161.298045 
L 286.984727 162.067548 
L 288.384 162.018431 
L 289.783273 161.739719 
L 291.182545 161.670803 
L 293.981091 161.232936 
L 295.380364 161.238648 
L 298.178909 161.653288 
L 300.977455 161.809778 
L 302.376727 161.935808 
L 307.973818 161.218468 
L 309.373091 161.262254 
L 310.772364 161.525736 
L 313.570909 161.726012 
L 317.768727 161.92172 
L 321.966545 161.021618 
L 323.365818 161.130133 
L 326.164364 161.586276 
L 330.362182 161.911439 
L 335.959273 161.149551 
L 337.358545 161.211614 
L 338.757818 161.481949 
L 341.556364 161.766372 
L 344.354909 162.138749 
L 347.153455 161.578661 
L 349.952 161.332694 
L 351.351273 161.331552 
L 354.149818 161.742385 
L 355.549091 161.801402 
L 358.347636 162.071737 
L 359.746909 161.94723 
L 361.146182 161.689079 
L 362.545455 161.65938 
L 363.944727 161.495276 
L 365.344 161.458723 
L 368.142545 161.751904 
L 369.541818 161.841381 
L 370.941091 162.062599 
L 372.340364 162.102197 
L 377.937455 161.240171 
L 382.135273 161.612928 
L 383.534545 161.743146 
L 384.933818 162.052699 
L 386.333091 162.01805 
L 389.131636 161.605313 
L 390.530909 161.309087 
L 393.329455 161.271773 
L 396.128 161.500225 
L 398.926545 161.792644 
L 401.725091 161.75 
L 407.322182 161.307945 
L 412.919273 161.890117 
L 414.318545 161.852803 
L 415.717818 161.611786 
L 418.516364 161.338786 
L 419.915636 161.199049 
L 421.314909 161.1842 
L 425.512727 161.708117 
L 426.912 162.049272 
L 428.311273 162.227465 
L 432.509091 161.1743 
L 432.509091 161.1743 
" clip-path="url(#pe08e77c266)" style="fill: none; stroke: #7f7f7f; stroke-width: 1.5; stroke-linecap: square"/>
   </g>
   <g id="line2d_22">
    <path d="M 82.690909 207.947977 
L 84.090182 207.799864 
L 85.489455 207.854692 
L 86.888727 208.118935 
L 92.485818 208.445622 
L 95.284364 208.184044 
L 98.082909 207.826516 
L 100.881455 208.184044 
L 105.079273 208.594877 
L 106.478545 208.659225 
L 109.277091 208.345103 
L 110.676364 208.113605 
L 113.474909 208.002805 
L 116.273455 208.473798 
L 120.471273 208.688162 
L 126.068364 207.947596 
L 127.467636 207.997856 
L 130.266182 208.299412 
L 134.464 208.623053 
L 137.262545 208.184425 
L 138.661818 207.887437 
L 140.061091 207.852788 
L 147.057455 208.605538 
L 148.456727 208.636379 
L 149.856 208.497024 
L 152.654545 207.950642 
L 154.053818 207.906094 
L 159.650909 208.382797 
L 161.050182 208.620007 
L 162.449455 208.712149 
L 168.046545 207.852788 
L 173.643636 208.429249 
L 175.042909 208.637522 
L 176.442182 208.678643 
L 177.841455 208.497404 
L 180.64 207.931604 
L 182.039273 207.774734 
L 183.438545 207.835655 
L 184.837818 208.144065 
L 189.035636 208.583455 
L 190.434909 208.686258 
L 191.834182 208.527103 
L 193.233455 208.240396 
L 196.032 207.940362 
L 197.431273 207.997094 
L 198.830545 208.255626 
L 204.427636 208.613534 
L 207.226182 208.21717 
L 208.625455 207.96473 
L 210.024727 207.861165 
L 212.823273 208.089617 
L 215.621818 208.337869 
L 218.420364 208.639045 
L 221.218909 208.224404 
L 222.618182 207.946454 
L 224.017455 207.820805 
L 228.215273 208.248011 
L 231.013818 208.628003 
L 232.413091 208.628384 
L 238.010182 208.007755 
L 239.409455 208.0504 
L 240.808727 208.2225 
L 243.607273 208.443718 
L 245.006545 208.639425 
L 246.405818 208.623434 
L 253.402182 207.924751 
L 257.6 208.493597 
L 260.398545 208.624195 
L 265.995636 207.856215 
L 267.394909 207.919801 
L 270.193455 208.202701 
L 271.592727 208.273902 
L 272.992 208.516442 
L 274.391273 208.568986 
L 275.790545 208.425823 
L 278.589091 207.890483 
L 281.387636 207.753031 
L 288.384 208.546902 
L 289.783273 208.542714 
L 293.981091 207.768642 
L 295.380364 207.799483 
L 298.178909 208.203843 
L 302.376727 208.54576 
L 305.175273 208.180237 
L 307.973818 207.790726 
L 310.772364 207.999379 
L 316.369455 208.600208 
L 317.768727 208.438007 
L 320.567273 207.852788 
L 321.966545 207.717621 
L 324.765091 207.982625 
L 330.362182 208.614676 
L 331.761455 208.486362 
L 334.56 207.968538 
L 335.959273 207.856596 
L 340.157091 208.292559 
L 342.955636 208.598304 
L 344.354909 208.621149 
L 348.552727 208.005851 
L 349.952 207.865353 
L 351.351273 207.894291 
L 356.948364 208.517204 
L 359.746909 208.49017 
L 362.545455 208.056492 
L 363.944727 207.925132 
L 365.344 208.005851 
L 366.743273 208.259053 
L 372.340364 208.694635 
L 375.138909 208.322258 
L 377.937455 207.799102 
L 383.534545 208.434961 
L 386.333091 208.689685 
L 389.131636 208.295605 
L 390.530909 207.962446 
L 391.930182 207.842889 
L 393.329455 207.868399 
L 397.527273 208.294463 
L 400.325818 208.487124 
L 401.725091 208.477605 
L 404.523636 207.945692 
L 407.322182 207.87868 
L 410.120727 208.172241 
L 412.919273 208.397647 
L 414.318545 208.528245 
L 415.717818 208.407927 
L 419.915636 207.606441 
L 421.314909 207.663554 
L 422.714182 207.918659 
L 428.311273 208.512634 
L 429.710545 208.356145 
L 432.509091 207.88401 
L 432.509091 207.88401 
" clip-path="url(#pe08e77c266)" style="fill: none; stroke: #bcbd22; stroke-width: 1.5; stroke-linecap: square"/>
   </g>
   <g id="patch_3">
    <path d="M 65.2 308.64 
L 65.2 25.44 
" style="fill: none; stroke: #000000; stroke-width: 0.8; stroke-linejoin: miter; stroke-linecap: square"/>
   </g>
   <g id="patch_4">
    <path d="M 450 308.64 
L 450 25.44 
" style="fill: none; stroke: #000000; stroke-width: 0.8; stroke-linejoin: miter; stroke-linecap: square"/>
   </g>
   <g id="patch_5">
    <path d="M 65.2 308.64 
L 450 308.64 
" style="fill: none; stroke: #000000; stroke-width: 0.8; stroke-linejoin: miter; stroke-linecap: square"/>
   </g>
   <g id="patch_6">
    <path d="M 65.2 25.44 
L 450 25.44 
" style="fill: none; stroke: #000000; stroke-width: 0.8; stroke-linejoin: miter; stroke-linecap: square"/>
   </g>
   <g id="text_16">
    <!-- Raw EEG Data MATB-Easy -->
    <g transform="translate(179.796875 19.44) scale(0.12 -0.12)">
     <defs>
      <path id="DejaVuSans-52" d="M 2841 2188 
Q 3044 2119 3236 1894 
Q 3428 1669 3622 1275 
L 4263 0 
L 3584 0 
L 2988 1197 
Q 2756 1666 2539 1819 
Q 2322 1972 1947 1972 
L 1259 1972 
L 1259 0 
L 628 0 
L 628 4666 
L 2053 4666 
Q 2853 4666 3247 4331 
Q 3641 3997 3641 3322 
Q 3641 2881 3436 2590 
Q 3231 2300 2841 2188 
z
M 1259 4147 
L 1259 2491 
L 2053 2491 
Q 2509 2491 2742 2702 
Q 2975 2913 2975 3322 
Q 2975 3731 2742 3939 
Q 2509 4147 2053 4147 
L 1259 4147 
z
" transform="scale(0.015625)"/>
      <path id="DejaVuSans-77" d="M 269 3500 
L 844 3500 
L 1563 769 
L 2278 3500 
L 2956 3500 
L 3675 769 
L 4391 3500 
L 4966 3500 
L 4050 0 
L 3372 0 
L 2619 2869 
L 1863 0 
L 1184 0 
L 269 3500 
z
" transform="scale(0.015625)"/>
      <path id="DejaVuSans-45" d="M 628 4666 
L 3578 4666 
L 3578 4134 
L 1259 4134 
L 1259 2753 
L 3481 2753 
L 3481 2222 
L 1259 2222 
L 1259 531 
L 3634 531 
L 3634 0 
L 628 0 
L 628 4666 
z
" transform="scale(0.015625)"/>
      <path id="DejaVuSans-47" d="M 3809 666 
L 3809 1919 
L 2778 1919 
L 2778 2438 
L 4434 2438 
L 4434 434 
Q 4069 175 3628 42 
Q 3188 -91 2688 -91 
Q 1594 -91 976 548 
Q 359 1188 359 2328 
Q 359 3472 976 4111 
Q 1594 4750 2688 4750 
Q 3144 4750 3555 4637 
Q 3966 4525 4313 4306 
L 4313 3634 
Q 3963 3931 3569 4081 
Q 3175 4231 2741 4231 
Q 1884 4231 1454 3753 
Q 1025 3275 1025 2328 
Q 1025 1384 1454 906 
Q 1884 428 2741 428 
Q 3075 428 3337 486 
Q 3600 544 3809 666 
z
" transform="scale(0.015625)"/>
      <path id="DejaVuSans-44" d="M 1259 4147 
L 1259 519 
L 2022 519 
Q 2988 519 3436 956 
Q 3884 1394 3884 2338 
Q 3884 3275 3436 3711 
Q 2988 4147 2022 4147 
L 1259 4147 
z
M 628 4666 
L 1925 4666 
Q 3281 4666 3915 4102 
Q 4550 3538 4550 2338 
Q 4550 1131 3912 565 
Q 3275 0 1925 0 
L 628 0 
L 628 4666 
z
" transform="scale(0.015625)"/>
      <path id="DejaVuSans-4d" d="M 628 4666 
L 1569 4666 
L 2759 1491 
L 3956 4666 
L 4897 4666 
L 4897 0 
L 4281 0 
L 4281 4097 
L 3078 897 
L 2444 897 
L 1241 4097 
L 1241 0 
L 628 0 
L 628 4666 
z
" transform="scale(0.015625)"/>
      <path id="DejaVuSans-41" d="M 2188 4044 
L 1331 1722 
L 3047 1722 
L 2188 4044 
z
M 1831 4666 
L 2547 4666 
L 4325 0 
L 3669 0 
L 3244 1197 
L 1141 1197 
L 716 0 
L 50 0 
L 1831 4666 
z
" transform="scale(0.015625)"/>
      <path id="DejaVuSans-42" d="M 1259 2228 
L 1259 519 
L 2272 519 
Q 2781 519 3026 730 
Q 3272 941 3272 1375 
Q 3272 1813 3026 2020 
Q 2781 2228 2272 2228 
L 1259 2228 
z
M 1259 4147 
L 1259 2741 
L 2194 2741 
Q 2656 2741 2882 2914 
Q 3109 3088 3109 3444 
Q 3109 3797 2882 3972 
Q 2656 4147 2194 4147 
L 1259 4147 
z
M 628 4666 
L 2241 4666 
Q 2963 4666 3353 4366 
Q 3744 4066 3744 3513 
Q 3744 3084 3544 2831 
Q 3344 2578 2956 2516 
Q 3422 2416 3680 2098 
Q 3938 1781 3938 1306 
Q 3938 681 3513 340 
Q 3088 0 2303 0 
L 628 0 
L 628 4666 
z
" transform="scale(0.015625)"/>
      <path id="DejaVuSans-2d" d="M 313 2009 
L 1997 2009 
L 1997 1497 
L 313 1497 
L 313 2009 
z
" transform="scale(0.015625)"/>
      <path id="DejaVuSans-79" d="M 2059 -325 
Q 1816 -950 1584 -1140 
Q 1353 -1331 966 -1331 
L 506 -1331 
L 506 -850 
L 844 -850 
Q 1081 -850 1212 -737 
Q 1344 -625 1503 -206 
L 1606 56 
L 191 3500 
L 800 3500 
L 1894 763 
L 2988 3500 
L 3597 3500 
L 2059 -325 
z
" transform="scale(0.015625)"/>
     </defs>
     <use xlink:href="#DejaVuSans-52"/>
     <use xlink:href="#DejaVuSans-61" x="67.232422"/>
     <use xlink:href="#DejaVuSans-77" x="128.511719"/>
     <use xlink:href="#DejaVuSans-20" x="210.298828"/>
     <use xlink:href="#DejaVuSans-45" x="242.085938"/>
     <use xlink:href="#DejaVuSans-45" x="305.269531"/>
     <use xlink:href="#DejaVuSans-47" x="368.453125"/>
     <use xlink:href="#DejaVuSans-20" x="445.943359"/>
     <use xlink:href="#DejaVuSans-44" x="477.730469"/>
     <use xlink:href="#DejaVuSans-61" x="554.732422"/>
     <use xlink:href="#DejaVuSans-74" x="616.011719"/>
     <use xlink:href="#DejaVuSans-61" x="655.220703"/>
     <use xlink:href="#DejaVuSans-20" x="716.5"/>
     <use xlink:href="#DejaVuSans-4d" x="748.287109"/>
     <use xlink:href="#DejaVuSans-41" x="834.566406"/>
     <use xlink:href="#DejaVuSans-54" x="895.224609"/>
     <use xlink:href="#DejaVuSans-42" x="956.308594"/>
     <use xlink:href="#DejaVuSans-2d" x="1024.912109"/>
     <use xlink:href="#DejaVuSans-45" x="1060.996094"/>
     <use xlink:href="#DejaVuSans-61" x="1124.179688"/>
     <use xlink:href="#DejaVuSans-73" x="1185.458984"/>
     <use xlink:href="#DejaVuSans-79" x="1237.558594"/>
    </g>
   </g>
  </g>
 </g>
 <defs>
  <clipPath id="pe08e77c266">
   <rect x="65.2" y="25.44" width="384.8" height="283.2"/>
  </clipPath>
 </defs>
</svg>
