<?xml version="1.0" encoding="utf-8" standalone="no"?>
<!DOCTYPE svg PUBLIC "-//W3C//DTD SVG 1.1//EN"
  "http://www.w3.org/Graphics/SVG/1.1/DTD/svg11.dtd">
<svg xmlns:xlink="http://www.w3.org/1999/xlink" width="460.8pt" height="345.6pt" viewBox="0 0 460.8 345.6" xmlns="http://www.w3.org/2000/svg" version="1.1">
 <metadata>
  <rdf:RDF xmlns:dc="http://purl.org/dc/elements/1.1/" xmlns:cc="http://creativecommons.org/ns#" xmlns:rdf="http://www.w3.org/1999/02/22-rdf-syntax-ns#">
   <cc:Work>
    <dc:type rdf:resource="http://purl.org/dc/dcmitype/StillImage"/>
    <dc:date>2024-04-25T23:52:07.563626</dc:date>
    <dc:format>image/svg+xml</dc:format>
    <dc:creator>
     <cc:Agent>
      <dc:title>Matplotlib v3.8.4, https://matplotlib.org/</dc:title>
     </cc:Agent>
    </dc:creator>
   </cc:Work>
  </rdf:RDF>
 </metadata>
 <defs>
  <style type="text/css">*{stroke-linejoin: round; stroke-linecap: butt}</style>
 </defs>
 <g id="figure_1">
  <g id="patch_1">
   <path d="M 0 345.6 
L 460.8 345.6 
L 460.8 0 
L 0 0 
z
" style="fill: #ffffff"/>
  </g>
  <g id="axes_1">
   <g id="patch_2">
    <path d="M 65.2 308.64 
L 450 308.64 
L 450 25.44 
L 65.2 25.44 
z
" style="fill: #ffffff"/>
   </g>
   <g id="matplotlib.axis_1">
    <g id="xtick_1">
     <g id="line2d_1">
      <defs>
       <path id="me2de4b8064" d="M 0 0 
L 0 2 
" style="stroke: #000000; stroke-width: 0.8"/>
      </defs>
      <g>
       <use xlink:href="#me2de4b8064" x="82.690909" y="308.64" style="stroke: #000000; stroke-width: 0.8"/>
      </g>
     </g>
     <g id="text_1">
      <!-- 0.0 -->
      <g transform="translate(74.739347 319.238437) scale(0.1 -0.1)">
       <defs>
        <path id="DejaVuSans-30" d="M 2034 4250 
Q 1547 4250 1301 3770 
Q 1056 3291 1056 2328 
Q 1056 1369 1301 889 
Q 1547 409 2034 409 
Q 2525 409 2770 889 
Q 3016 1369 3016 2328 
Q 3016 3291 2770 3770 
Q 2525 4250 2034 4250 
z
M 2034 4750 
Q 2819 4750 3233 4129 
Q 3647 3509 3647 2328 
Q 3647 1150 3233 529 
Q 2819 -91 2034 -91 
Q 1250 -91 836 529 
Q 422 1150 422 2328 
Q 422 3509 836 4129 
Q 1250 4750 2034 4750 
z
" transform="scale(0.015625)"/>
        <path id="DejaVuSans-2e" d="M 684 794 
L 1344 794 
L 1344 0 
L 684 0 
L 684 794 
z
" transform="scale(0.015625)"/>
       </defs>
       <use xlink:href="#DejaVuSans-30"/>
       <use xlink:href="#DejaVuSans-2e" x="63.623047"/>
       <use xlink:href="#DejaVuSans-30" x="95.410156"/>
      </g>
     </g>
    </g>
    <g id="xtick_2">
     <g id="line2d_2">
      <g>
       <use xlink:href="#me2de4b8064" x="152.654545" y="308.64" style="stroke: #000000; stroke-width: 0.8"/>
      </g>
     </g>
     <g id="text_2">
      <!-- 0.1 -->
      <g transform="translate(144.702983 319.238437) scale(0.1 -0.1)">
       <defs>
        <path id="DejaVuSans-31" d="M 794 531 
L 1825 531 
L 1825 4091 
L 703 3866 
L 703 4441 
L 1819 4666 
L 2450 4666 
L 2450 531 
L 3481 531 
L 3481 0 
L 794 0 
L 794 531 
z
" transform="scale(0.015625)"/>
       </defs>
       <use xlink:href="#DejaVuSans-30"/>
       <use xlink:href="#DejaVuSans-2e" x="63.623047"/>
       <use xlink:href="#DejaVuSans-31" x="95.410156"/>
      </g>
     </g>
    </g>
    <g id="xtick_3">
     <g id="line2d_3">
      <g>
       <use xlink:href="#me2de4b8064" x="222.618182" y="308.64" style="stroke: #000000; stroke-width: 0.8"/>
      </g>
     </g>
     <g id="text_3">
      <!-- 0.2 -->
      <g transform="translate(214.666619 319.238437) scale(0.1 -0.1)">
       <defs>
        <path id="DejaVuSans-32" d="M 1228 531 
L 3431 531 
L 3431 0 
L 469 0 
L 469 531 
Q 828 903 1448 1529 
Q 2069 2156 2228 2338 
Q 2531 2678 2651 2914 
Q 2772 3150 2772 3378 
Q 2772 3750 2511 3984 
Q 2250 4219 1831 4219 
Q 1534 4219 1204 4116 
Q 875 4013 500 3803 
L 500 4441 
Q 881 4594 1212 4672 
Q 1544 4750 1819 4750 
Q 2544 4750 2975 4387 
Q 3406 4025 3406 3419 
Q 3406 3131 3298 2873 
Q 3191 2616 2906 2266 
Q 2828 2175 2409 1742 
Q 1991 1309 1228 531 
z
" transform="scale(0.015625)"/>
       </defs>
       <use xlink:href="#DejaVuSans-30"/>
       <use xlink:href="#DejaVuSans-2e" x="63.623047"/>
       <use xlink:href="#DejaVuSans-32" x="95.410156"/>
      </g>
     </g>
    </g>
    <g id="xtick_4">
     <g id="line2d_4">
      <g>
       <use xlink:href="#me2de4b8064" x="292.581818" y="308.64" style="stroke: #000000; stroke-width: 0.8"/>
      </g>
     </g>
     <g id="text_4">
      <!-- 0.3 -->
      <g transform="translate(284.630256 319.238437) scale(0.1 -0.1)">
       <defs>
        <path id="DejaVuSans-33" d="M 2597 2516 
Q 3050 2419 3304 2112 
Q 3559 1806 3559 1356 
Q 3559 666 3084 287 
Q 2609 -91 1734 -91 
Q 1441 -91 1130 -33 
Q 819 25 488 141 
L 488 750 
Q 750 597 1062 519 
Q 1375 441 1716 441 
Q 2309 441 2620 675 
Q 2931 909 2931 1356 
Q 2931 1769 2642 2001 
Q 2353 2234 1838 2234 
L 1294 2234 
L 1294 2753 
L 1863 2753 
Q 2328 2753 2575 2939 
Q 2822 3125 2822 3475 
Q 2822 3834 2567 4026 
Q 2313 4219 1838 4219 
Q 1578 4219 1281 4162 
Q 984 4106 628 3988 
L 628 4550 
Q 988 4650 1302 4700 
Q 1616 4750 1894 4750 
Q 2613 4750 3031 4423 
Q 3450 4097 3450 3541 
Q 3450 3153 3228 2886 
Q 3006 2619 2597 2516 
z
" transform="scale(0.015625)"/>
       </defs>
       <use xlink:href="#DejaVuSans-30"/>
       <use xlink:href="#DejaVuSans-2e" x="63.623047"/>
       <use xlink:href="#DejaVuSans-33" x="95.410156"/>
      </g>
     </g>
    </g>
    <g id="xtick_5">
     <g id="line2d_5">
      <g>
       <use xlink:href="#me2de4b8064" x="362.545455" y="308.64" style="stroke: #000000; stroke-width: 0.8"/>
      </g>
     </g>
     <g id="text_5">
      <!-- 0.4 -->
      <g transform="translate(354.593892 319.238437) scale(0.1 -0.1)">
       <defs>
        <path id="DejaVuSans-34" d="M 2419 4116 
L 825 1625 
L 2419 1625 
L 2419 4116 
z
M 2253 4666 
L 3047 4666 
L 3047 1625 
L 3713 1625 
L 3713 1100 
L 3047 1100 
L 3047 0 
L 2419 0 
L 2419 1100 
L 313 1100 
L 313 1709 
L 2253 4666 
z
" transform="scale(0.015625)"/>
       </defs>
       <use xlink:href="#DejaVuSans-30"/>
       <use xlink:href="#DejaVuSans-2e" x="63.623047"/>
       <use xlink:href="#DejaVuSans-34" x="95.410156"/>
      </g>
     </g>
    </g>
    <g id="xtick_6">
     <g id="line2d_6">
      <g>
       <use xlink:href="#me2de4b8064" x="432.509091" y="308.64" style="stroke: #000000; stroke-width: 0.8"/>
      </g>
     </g>
     <g id="text_6">
      <!-- 0.5 -->
      <g transform="translate(424.557528 319.238437) scale(0.1 -0.1)">
       <defs>
        <path id="DejaVuSans-35" d="M 691 4666 
L 3169 4666 
L 3169 4134 
L 1269 4134 
L 1269 2991 
Q 1406 3038 1543 3061 
Q 1681 3084 1819 3084 
Q 2600 3084 3056 2656 
Q 3513 2228 3513 1497 
Q 3513 744 3044 326 
Q 2575 -91 1722 -91 
Q 1428 -91 1123 -41 
Q 819 9 494 109 
L 494 744 
Q 775 591 1075 516 
Q 1375 441 1709 441 
Q 2250 441 2565 725 
Q 2881 1009 2881 1497 
Q 2881 1984 2565 2268 
Q 2250 2553 1709 2553 
Q 1456 2553 1204 2497 
Q 953 2441 691 2322 
L 691 4666 
z
" transform="scale(0.015625)"/>
       </defs>
       <use xlink:href="#DejaVuSans-30"/>
       <use xlink:href="#DejaVuSans-2e" x="63.623047"/>
       <use xlink:href="#DejaVuSans-35" x="95.410156"/>
      </g>
     </g>
    </g>
    <g id="text_7">
     <!-- Time (s) -->
     <g transform="translate(237.271094 331.916562) scale(0.1 -0.1)">
      <defs>
       <path id="DejaVuSans-54" d="M -19 4666 
L 3928 4666 
L 3928 4134 
L 2272 4134 
L 2272 0 
L 1638 0 
L 1638 4134 
L -19 4134 
L -19 4666 
z
" transform="scale(0.015625)"/>
       <path id="DejaVuSans-69" d="M 603 3500 
L 1178 3500 
L 1178 0 
L 603 0 
L 603 3500 
z
M 603 4863 
L 1178 4863 
L 1178 4134 
L 603 4134 
L 603 4863 
z
" transform="scale(0.015625)"/>
       <path id="DejaVuSans-6d" d="M 3328 2828 
Q 3544 3216 3844 3400 
Q 4144 3584 4550 3584 
Q 5097 3584 5394 3201 
Q 5691 2819 5691 2113 
L 5691 0 
L 5113 0 
L 5113 2094 
Q 5113 2597 4934 2840 
Q 4756 3084 4391 3084 
Q 3944 3084 3684 2787 
Q 3425 2491 3425 1978 
L 3425 0 
L 2847 0 
L 2847 2094 
Q 2847 2600 2669 2842 
Q 2491 3084 2119 3084 
Q 1678 3084 1418 2786 
Q 1159 2488 1159 1978 
L 1159 0 
L 581 0 
L 581 3500 
L 1159 3500 
L 1159 2956 
Q 1356 3278 1631 3431 
Q 1906 3584 2284 3584 
Q 2666 3584 2933 3390 
Q 3200 3197 3328 2828 
z
" transform="scale(0.015625)"/>
       <path id="DejaVuSans-65" d="M 3597 1894 
L 3597 1613 
L 953 1613 
Q 991 1019 1311 708 
Q 1631 397 2203 397 
Q 2534 397 2845 478 
Q 3156 559 3463 722 
L 3463 178 
Q 3153 47 2828 -22 
Q 2503 -91 2169 -91 
Q 1331 -91 842 396 
Q 353 884 353 1716 
Q 353 2575 817 3079 
Q 1281 3584 2069 3584 
Q 2775 3584 3186 3129 
Q 3597 2675 3597 1894 
z
M 3022 2063 
Q 3016 2534 2758 2815 
Q 2500 3097 2075 3097 
Q 1594 3097 1305 2825 
Q 1016 2553 972 2059 
L 3022 2063 
z
" transform="scale(0.015625)"/>
       <path id="DejaVuSans-20" transform="scale(0.015625)"/>
       <path id="DejaVuSans-28" d="M 1984 4856 
Q 1566 4138 1362 3434 
Q 1159 2731 1159 2009 
Q 1159 1288 1364 580 
Q 1569 -128 1984 -844 
L 1484 -844 
Q 1016 -109 783 600 
Q 550 1309 550 2009 
Q 550 2706 781 3412 
Q 1013 4119 1484 4856 
L 1984 4856 
z
" transform="scale(0.015625)"/>
       <path id="DejaVuSans-73" d="M 2834 3397 
L 2834 2853 
Q 2591 2978 2328 3040 
Q 2066 3103 1784 3103 
Q 1356 3103 1142 2972 
Q 928 2841 928 2578 
Q 928 2378 1081 2264 
Q 1234 2150 1697 2047 
L 1894 2003 
Q 2506 1872 2764 1633 
Q 3022 1394 3022 966 
Q 3022 478 2636 193 
Q 2250 -91 1575 -91 
Q 1294 -91 989 -36 
Q 684 19 347 128 
L 347 722 
Q 666 556 975 473 
Q 1284 391 1588 391 
Q 1994 391 2212 530 
Q 2431 669 2431 922 
Q 2431 1156 2273 1281 
Q 2116 1406 1581 1522 
L 1381 1569 
Q 847 1681 609 1914 
Q 372 2147 372 2553 
Q 372 3047 722 3315 
Q 1072 3584 1716 3584 
Q 2034 3584 2315 3537 
Q 2597 3491 2834 3397 
z
" transform="scale(0.015625)"/>
       <path id="DejaVuSans-29" d="M 513 4856 
L 1013 4856 
Q 1481 4119 1714 3412 
Q 1947 2706 1947 2009 
Q 1947 1309 1714 600 
Q 1481 -109 1013 -844 
L 513 -844 
Q 928 -128 1133 580 
Q 1338 1288 1338 2009 
Q 1338 2731 1133 3434 
Q 928 4138 513 4856 
z
" transform="scale(0.015625)"/>
      </defs>
      <use xlink:href="#DejaVuSans-54"/>
      <use xlink:href="#DejaVuSans-69" x="57.958984"/>
      <use xlink:href="#DejaVuSans-6d" x="85.742188"/>
      <use xlink:href="#DejaVuSans-65" x="183.154297"/>
      <use xlink:href="#DejaVuSans-20" x="244.677734"/>
      <use xlink:href="#DejaVuSans-28" x="276.464844"/>
      <use xlink:href="#DejaVuSans-73" x="315.478516"/>
      <use xlink:href="#DejaVuSans-29" x="367.578125"/>
     </g>
    </g>
   </g>
   <g id="matplotlib.axis_2">
    <g id="ytick_1">
     <g id="line2d_7">
      <defs>
       <path id="mc56a22612a" d="M 0 0 
L -2 0 
" style="stroke: #000000; stroke-width: 0.8"/>
      </defs>
      <g>
       <use xlink:href="#mc56a22612a" x="65.2" y="264.676067" style="stroke: #000000; stroke-width: 0.8"/>
      </g>
     </g>
     <g id="text_8">
      <!-- −10000 -->
      <g transform="translate(22.007813 268.475285) scale(0.1 -0.1)">
       <defs>
        <path id="DejaVuSans-2212" d="M 678 2272 
L 4684 2272 
L 4684 1741 
L 678 1741 
L 678 2272 
z
" transform="scale(0.015625)"/>
       </defs>
       <use xlink:href="#DejaVuSans-2212"/>
       <use xlink:href="#DejaVuSans-31" x="83.789062"/>
       <use xlink:href="#DejaVuSans-30" x="147.412109"/>
       <use xlink:href="#DejaVuSans-30" x="211.035156"/>
       <use xlink:href="#DejaVuSans-30" x="274.658203"/>
       <use xlink:href="#DejaVuSans-30" x="338.28125"/>
      </g>
     </g>
    </g>
    <g id="ytick_2">
     <g id="line2d_8">
      <g>
       <use xlink:href="#mc56a22612a" x="65.2" y="219.82519" style="stroke: #000000; stroke-width: 0.8"/>
      </g>
     </g>
     <g id="text_9">
      <!-- −5000 -->
      <g transform="translate(28.370313 223.624409) scale(0.1 -0.1)">
       <use xlink:href="#DejaVuSans-2212"/>
       <use xlink:href="#DejaVuSans-35" x="83.789062"/>
       <use xlink:href="#DejaVuSans-30" x="147.412109"/>
       <use xlink:href="#DejaVuSans-30" x="211.035156"/>
       <use xlink:href="#DejaVuSans-30" x="274.658203"/>
      </g>
     </g>
    </g>
    <g id="ytick_3">
     <g id="line2d_9">
      <g>
       <use xlink:href="#mc56a22612a" x="65.2" y="174.974313" style="stroke: #000000; stroke-width: 0.8"/>
      </g>
     </g>
     <g id="text_10">
      <!-- 0 -->
      <g transform="translate(55.8375 178.773532) scale(0.1 -0.1)">
       <use xlink:href="#DejaVuSans-30"/>
      </g>
     </g>
    </g>
    <g id="ytick_4">
     <g id="line2d_10">
      <g>
       <use xlink:href="#mc56a22612a" x="65.2" y="130.123436" style="stroke: #000000; stroke-width: 0.8"/>
      </g>
     </g>
     <g id="text_11">
      <!-- 5000 -->
      <g transform="translate(36.75 133.922655) scale(0.1 -0.1)">
       <use xlink:href="#DejaVuSans-35"/>
       <use xlink:href="#DejaVuSans-30" x="63.623047"/>
       <use xlink:href="#DejaVuSans-30" x="127.246094"/>
       <use xlink:href="#DejaVuSans-30" x="190.869141"/>
      </g>
     </g>
    </g>
    <g id="ytick_5">
     <g id="line2d_11">
      <g>
       <use xlink:href="#mc56a22612a" x="65.2" y="85.272559" style="stroke: #000000; stroke-width: 0.8"/>
      </g>
     </g>
     <g id="text_12">
      <!-- 10000 -->
      <g transform="translate(30.3875 89.071778) scale(0.1 -0.1)">
       <use xlink:href="#DejaVuSans-31"/>
       <use xlink:href="#DejaVuSans-30" x="63.623047"/>
       <use xlink:href="#DejaVuSans-30" x="127.246094"/>
       <use xlink:href="#DejaVuSans-30" x="190.869141"/>
       <use xlink:href="#DejaVuSans-30" x="254.492188"/>
      </g>
     </g>
    </g>
    <g id="ytick_6">
     <g id="line2d_12">
      <g>
       <use xlink:href="#mc56a22612a" x="65.2" y="40.421682" style="stroke: #000000; stroke-width: 0.8"/>
      </g>
     </g>
     <g id="text_13">
      <!-- 15000 -->
      <g transform="translate(30.3875 44.220901) scale(0.1 -0.1)">
       <use xlink:href="#DejaVuSans-31"/>
       <use xlink:href="#DejaVuSans-35" x="63.623047"/>
       <use xlink:href="#DejaVuSans-30" x="127.246094"/>
       <use xlink:href="#DejaVuSans-30" x="190.869141"/>
       <use xlink:href="#DejaVuSans-30" x="254.492188"/>
      </g>
     </g>
    </g>
    <g id="text_14">
     <!-- Voltage (mV) -->
     <g transform="translate(18.928125 199.5775) rotate(-90) scale(0.1 -0.1)">
      <defs>
       <path id="DejaVuSans-56" d="M 1831 0 
L 50 4666 
L 709 4666 
L 2188 738 
L 3669 4666 
L 4325 4666 
L 2547 0 
L 1831 0 
z
" transform="scale(0.015625)"/>
       <path id="DejaVuSans-6f" d="M 1959 3097 
Q 1497 3097 1228 2736 
Q 959 2375 959 1747 
Q 959 1119 1226 758 
Q 1494 397 1959 397 
Q 2419 397 2687 759 
Q 2956 1122 2956 1747 
Q 2956 2369 2687 2733 
Q 2419 3097 1959 3097 
z
M 1959 3584 
Q 2709 3584 3137 3096 
Q 3566 2609 3566 1747 
Q 3566 888 3137 398 
Q 2709 -91 1959 -91 
Q 1206 -91 779 398 
Q 353 888 353 1747 
Q 353 2609 779 3096 
Q 1206 3584 1959 3584 
z
" transform="scale(0.015625)"/>
       <path id="DejaVuSans-6c" d="M 603 4863 
L 1178 4863 
L 1178 0 
L 603 0 
L 603 4863 
z
" transform="scale(0.015625)"/>
       <path id="DejaVuSans-74" d="M 1172 4494 
L 1172 3500 
L 2356 3500 
L 2356 3053 
L 1172 3053 
L 1172 1153 
Q 1172 725 1289 603 
Q 1406 481 1766 481 
L 2356 481 
L 2356 0 
L 1766 0 
Q 1100 0 847 248 
Q 594 497 594 1153 
L 594 3053 
L 172 3053 
L 172 3500 
L 594 3500 
L 594 4494 
L 1172 4494 
z
" transform="scale(0.015625)"/>
       <path id="DejaVuSans-61" d="M 2194 1759 
Q 1497 1759 1228 1600 
Q 959 1441 959 1056 
Q 959 750 1161 570 
Q 1363 391 1709 391 
Q 2188 391 2477 730 
Q 2766 1069 2766 1631 
L 2766 1759 
L 2194 1759 
z
M 3341 1997 
L 3341 0 
L 2766 0 
L 2766 531 
Q 2569 213 2275 61 
Q 1981 -91 1556 -91 
Q 1019 -91 701 211 
Q 384 513 384 1019 
Q 384 1609 779 1909 
Q 1175 2209 1959 2209 
L 2766 2209 
L 2766 2266 
Q 2766 2663 2505 2880 
Q 2244 3097 1772 3097 
Q 1472 3097 1187 3025 
Q 903 2953 641 2809 
L 641 3341 
Q 956 3463 1253 3523 
Q 1550 3584 1831 3584 
Q 2591 3584 2966 3190 
Q 3341 2797 3341 1997 
z
" transform="scale(0.015625)"/>
       <path id="DejaVuSans-67" d="M 2906 1791 
Q 2906 2416 2648 2759 
Q 2391 3103 1925 3103 
Q 1463 3103 1205 2759 
Q 947 2416 947 1791 
Q 947 1169 1205 825 
Q 1463 481 1925 481 
Q 2391 481 2648 825 
Q 2906 1169 2906 1791 
z
M 3481 434 
Q 3481 -459 3084 -895 
Q 2688 -1331 1869 -1331 
Q 1566 -1331 1297 -1286 
Q 1028 -1241 775 -1147 
L 775 -588 
Q 1028 -725 1275 -790 
Q 1522 -856 1778 -856 
Q 2344 -856 2625 -561 
Q 2906 -266 2906 331 
L 2906 616 
Q 2728 306 2450 153 
Q 2172 0 1784 0 
Q 1141 0 747 490 
Q 353 981 353 1791 
Q 353 2603 747 3093 
Q 1141 3584 1784 3584 
Q 2172 3584 2450 3431 
Q 2728 3278 2906 2969 
L 2906 3500 
L 3481 3500 
L 3481 434 
z
" transform="scale(0.015625)"/>
      </defs>
      <use xlink:href="#DejaVuSans-56"/>
      <use xlink:href="#DejaVuSans-6f" x="60.658203"/>
      <use xlink:href="#DejaVuSans-6c" x="121.839844"/>
      <use xlink:href="#DejaVuSans-74" x="149.623047"/>
      <use xlink:href="#DejaVuSans-61" x="188.832031"/>
      <use xlink:href="#DejaVuSans-67" x="250.111328"/>
      <use xlink:href="#DejaVuSans-65" x="313.587891"/>
      <use xlink:href="#DejaVuSans-20" x="375.111328"/>
      <use xlink:href="#DejaVuSans-28" x="406.898438"/>
      <use xlink:href="#DejaVuSans-6d" x="445.912109"/>
      <use xlink:href="#DejaVuSans-56" x="543.324219"/>
      <use xlink:href="#DejaVuSans-29" x="611.732422"/>
     </g>
    </g>
   </g>
   <g id="line2d_13">
    <path d="M 82.690909 38.605309 
L 84.090182 38.429672 
L 85.489455 38.456828 
L 88.288 38.732766 
L 91.086545 38.895701 
L 92.485818 39.018778 
L 95.284364 38.851025 
L 98.082909 38.46296 
L 100.881455 38.616259 
L 105.079273 38.886503 
L 106.478545 38.964905 
L 109.277091 38.80635 
L 112.075636 38.431424 
L 113.474909 38.474348 
L 117.672727 38.865041 
L 120.471273 39.100684 
L 123.269818 38.866793 
L 126.068364 38.512454 
L 127.467636 38.515958 
L 130.266182 38.765178 
L 133.064727 38.909717 
L 134.464 39.015274 
L 137.262545 38.819928 
L 140.061091 38.367039 
L 141.460364 38.376675 
L 144.258909 38.621953 
L 149.856 38.884313 
L 154.053818 38.312727 
L 156.852364 38.503256 
L 163.848727 38.860661 
L 166.647273 38.581657 
L 168.046545 38.420036 
L 169.445818 38.43668 
L 172.244364 38.698164 
L 175.042909 38.901395 
L 176.442182 39.0052 
L 179.240727 38.834382 
L 182.039273 38.457704 
L 184.837818 38.646481 
L 190.434909 38.990746 
L 191.834182 38.953955 
L 197.431273 38.384121 
L 204.427636 39.012208 
L 207.226182 38.774814 
L 210.024727 38.444564 
L 211.424 38.480042 
L 214.222545 38.749848 
L 218.420364 39.032794 
L 221.218909 38.873363 
L 224.017455 38.43449 
L 226.816 38.596987 
L 232.413091 38.939501 
L 235.211636 38.687215 
L 238.010182 38.325429 
L 239.409455 38.380179 
L 242.208 38.685463 
L 245.006545 38.903147 
L 246.405818 39.010894 
L 249.204364 38.865917 
L 252.002909 38.468654 
L 254.801455 38.640349 
L 261.797818 38.951765 
L 267.394909 38.416533 
L 270.193455 38.681521 
L 272.992 38.845769 
L 274.391273 38.955269 
L 277.189818 38.822118 
L 279.988364 38.437118 
L 281.387636 38.460332 
L 284.186182 38.690719 
L 289.783273 38.975854 
L 291.182545 38.859785 
L 293.981091 38.464274 
L 296.779636 38.599615 
L 303.776 38.98111 
L 306.574545 38.662249 
L 307.973818 38.46734 
L 309.373091 38.46515 
L 312.171636 38.709552 
L 314.970182 38.918915 
L 316.369455 39.00958 
L 319.168 38.776566 
L 321.966545 38.354775 
L 324.765091 38.520338 
L 331.761455 38.932055 
L 337.358545 38.474348 
L 340.157091 38.698164 
L 342.955636 38.876429 
L 344.354909 38.974541 
L 347.153455 38.837009 
L 349.952 38.473472 
L 351.351273 38.50238 
L 354.149818 38.709114 
L 356.948364 38.862413 
L 358.347636 38.942567 
L 361.146182 38.806788 
L 363.944727 38.441936 
L 369.541818 38.798904 
L 372.340364 39.017464 
L 375.138909 38.901395 
L 377.937455 38.591731 
L 379.336727 38.603119 
L 382.135273 38.877743 
L 384.933818 39.078346 
L 386.333091 39.162441 
L 389.131636 38.987242 
L 391.930182 38.583409 
L 394.728727 38.713932 
L 397.527273 38.825622 
L 400.325818 38.999068 
L 403.124364 38.830878 
L 405.922909 38.459018 
L 408.721455 38.554502 
L 414.318545 38.887817 
L 417.117091 38.715246 
L 419.915636 38.360469 
L 421.314909 38.370105 
L 428.311273 38.916725 
L 431.109818 38.789706 
L 432.509091 38.563261 
L 432.509091 38.563261 
" clip-path="url(#pc826a0251f)" style="fill: none; stroke: #1f77b4; stroke-width: 1.5; stroke-linecap: square"/>
   </g>
   <g id="line2d_14">
    <path d="M 82.690909 217.636082 
L 84.090182 217.464387 
L 85.489455 217.486287 
L 88.288 217.734631 
L 93.885091 217.883988 
L 96.683636 217.604984 
L 98.082909 217.431099 
L 99.482182 217.458693 
L 102.280727 217.685137 
L 107.877818 217.933919 
L 110.676364 217.615496 
L 112.075636 217.481469 
L 114.874182 217.675063 
L 121.870545 218.037725 
L 124.669091 217.733317 
L 126.068364 217.547606 
L 127.467636 217.544102 
L 130.266182 217.80252 
L 133.064727 217.941365 
L 134.464 218.030279 
L 137.262545 217.8507 
L 140.061091 217.481907 
L 141.460364 217.504244 
L 144.258909 217.756531 
L 149.856 218.051741 
L 151.255273 217.922969 
L 152.654545 217.675501 
L 154.053818 217.544102 
L 158.251636 217.845882 
L 163.848727 218.091598 
L 169.445818 217.569506 
L 172.244364 217.822668 
L 175.042909 218.022833 
L 176.442182 218.124886 
L 179.240727 217.954067 
L 182.039273 217.590092 
L 184.837818 217.775365 
L 190.434909 218.173066 
L 193.233455 217.968521 
L 196.032 217.682071 
L 197.431273 217.696525 
L 200.229818 217.919903 
L 203.028364 218.08897 
L 204.427636 218.18533 
L 207.226182 217.997867 
L 210.024727 217.636958 
L 211.424 217.658419 
L 214.222545 217.89231 
L 219.819636 218.099482 
L 221.218909 217.983851 
L 224.017455 217.597538 
L 226.816 217.737697 
L 233.812364 218.015825 
L 239.409455 217.541036 
L 242.208 217.797702 
L 245.006545 218.005751 
L 246.405818 218.105176 
L 249.204364 217.950563 
L 252.002909 217.558118 
L 257.6 217.846758 
L 260.398545 218.015825 
L 261.797818 217.993487 
L 267.394909 217.487601 
L 270.193455 217.749523 
L 272.992 217.965455 
L 274.391273 218.092912 
L 277.189818 217.939613 
L 279.988364 217.58396 
L 281.387636 217.62119 
L 284.186182 217.851138 
L 289.783273 218.094664 
L 291.182545 217.986041 
L 293.981091 217.593158 
L 296.779636 217.746457 
L 302.376727 218.064004 
L 305.175273 217.911582 
L 307.973818 217.524392 
L 309.373091 217.527458 
L 312.171636 217.80252 
L 314.970182 217.986917 
L 316.369455 218.065318 
L 319.168 217.887054 
L 321.966545 217.472709 
L 323.365818 217.499427 
L 328.962909 217.958885 
L 331.761455 218.006627 
L 337.358545 217.523954 
L 342.955636 217.934795 
L 344.354909 218.033345 
L 347.153455 217.908078 
L 349.952 217.526582 
L 351.351273 217.557242 
L 354.149818 217.762663 
L 359.746909 217.964141 
L 362.545455 217.668931 
L 363.944727 217.537094 
L 368.142545 217.810842 
L 373.739636 218.025023 
L 376.538182 217.711855 
L 377.937455 217.556804 
L 379.336727 217.58615 
L 382.135273 217.887492 
L 383.534545 217.904574 
L 386.333091 218.150728 
L 389.131636 218.041229 
L 391.930182 217.635644 
L 396.128 217.861212 
L 401.725091 218.042105 
L 403.124364 217.919465 
L 405.922909 217.540598 
L 408.721455 217.654915 
L 414.318545 218.034221 
L 417.117091 217.863402 
L 419.915636 217.539284 
L 421.314909 217.565564 
L 424.113455 217.8069 
L 426.912 217.973339 
L 429.710545 217.996553 
L 431.109818 217.87698 
L 432.509091 217.643527 
L 432.509091 217.643527 
" clip-path="url(#pc826a0251f)" style="fill: none; stroke: #ff7f0e; stroke-width: 1.5; stroke-linecap: square"/>
   </g>
   <g id="line2d_15">
    <path d="M 82.690909 159.859918 
L 84.090182 159.644423 
L 85.489455 159.657125 
L 88.288 159.892329 
L 91.086545 160.087676 
L 92.485818 160.254991 
L 95.284364 160.084172 
L 98.082909 159.625589 
L 99.482182 159.643547 
L 102.280727 159.859918 
L 107.877818 160.089428 
L 110.676364 159.884446 
L 112.075636 159.756988 
L 113.474909 159.77845 
L 117.672727 160.171771 
L 121.870545 160.239661 
L 126.068364 159.754798 
L 127.467636 159.761368 
L 130.266182 159.975111 
L 133.064727 160.091618 
L 134.464 160.187539 
L 137.262545 160.0649 
L 140.061091 159.636539 
L 141.460364 159.642233 
L 147.057455 160.105196 
L 149.856 160.10432 
L 154.053818 159.585294 
L 161.050182 160.060958 
L 162.449455 160.182721 
L 165.248 160.076288 
L 168.046545 159.696107 
L 169.445818 159.722825 
L 172.244364 159.958905 
L 177.841455 160.172209 
L 180.64 159.842398 
L 182.039273 159.710561 
L 184.837818 159.882256 
L 190.434909 160.251925 
L 193.233455 160.09556 
L 196.032 159.739031 
L 197.431273 159.694355 
L 200.229818 159.972045 
L 203.028364 160.198489 
L 204.427636 160.296163 
L 207.226182 160.038182 
L 210.024727 159.723263 
L 211.424 159.785458 
L 214.222545 160.06928 
L 218.420364 160.348284 
L 221.218909 160.207249 
L 224.017455 159.79597 
L 225.416727 159.836266 
L 228.215273 160.095998 
L 231.013818 160.257619 
L 232.413091 160.40391 
L 233.812364 160.38201 
L 236.610909 160.043 
L 238.010182 159.825754 
L 239.409455 159.800788 
L 242.208 159.995697 
L 243.607273 160.038182 
L 246.405818 160.314558 
L 249.204364 160.181845 
L 252.002909 159.794656 
L 257.6 160.077164 
L 260.398545 160.290469 
L 263.197091 160.103882 
L 265.995636 159.722387 
L 267.394909 159.737279 
L 270.193455 159.974235 
L 272.992 160.144616 
L 274.391273 160.256305 
L 277.189818 160.101254 
L 279.988364 159.751733 
L 281.387636 159.762244 
L 284.186182 160.03862 
L 286.984727 160.269445 
L 288.384 160.353978 
L 291.182545 160.236595 
L 293.981091 159.8332 
L 296.779636 159.971607 
L 302.376727 160.300543 
L 305.175273 160.099502 
L 307.973818 159.691727 
L 309.373091 159.680777 
L 312.171636 159.917295 
L 314.970182 160.129724 
L 316.369455 160.238347 
L 319.168 160.052636 
L 321.966545 159.636101 
L 323.365818 159.679025 
L 326.164364 159.962847 
L 331.761455 160.278643 
L 337.358545 159.78721 
L 344.354909 160.288717 
L 347.153455 160.154252 
L 349.952 159.781516 
L 351.351273 159.832324 
L 352.750545 160.013217 
L 359.746909 160.174399 
L 362.545455 159.895833 
L 363.944727 159.75217 
L 368.142545 160.021977 
L 373.739636 160.224769 
L 376.538182 159.964161 
L 377.937455 159.839332 
L 379.336727 159.866488 
L 382.135273 160.16564 
L 387.732364 160.387266 
L 390.530909 160.036868 
L 391.930182 159.86167 
L 393.329455 159.870868 
L 396.128 160.06709 
L 401.725091 160.258933 
L 407.322182 159.86386 
L 414.318545 160.304923 
L 417.117091 160.131914 
L 419.915636 159.814804 
L 422.714182 159.954963 
L 429.710545 160.33383 
L 431.109818 160.219951 
L 432.509091 159.992631 
L 432.509091 159.992631 
" clip-path="url(#pc826a0251f)" style="fill: none; stroke: #2ca02c; stroke-width: 1.5; stroke-linecap: square"/>
   </g>
   <g id="line2d_16">
    <path d="M 82.690909 166.569153 
L 84.090182 166.404905 
L 85.489455 166.434688 
L 88.288 166.692669 
L 91.086545 166.840273 
L 92.485818 166.958533 
L 95.284364 166.786838 
L 98.082909 166.420234 
L 99.482182 166.439506 
L 102.280727 166.640547 
L 107.877818 166.856917 
L 110.676364 166.509148 
L 112.075636 166.358915 
L 114.874182 166.528858 
L 120.471273 166.934005 
L 123.269818 166.731212 
L 126.068364 166.382567 
L 127.467636 166.395269 
L 130.266182 166.658067 
L 133.064727 166.835017 
L 134.464 166.942327 
L 137.262545 166.770632 
L 140.061091 166.351469 
L 141.460364 166.373807 
L 144.258909 166.603317 
L 149.856 166.890205 
L 155.453091 166.417168 
L 158.251636 166.638357 
L 161.050182 166.822316 
L 162.449455 166.939699 
L 165.248 166.747418 
L 168.046545 166.396145 
L 169.445818 166.404467 
L 172.244364 166.640985 
L 175.042909 166.834579 
L 176.442182 166.937071 
L 179.240727 166.77107 
L 182.039273 166.377311 
L 184.837818 166.560393 
L 190.434909 166.929625 
L 193.233455 166.734716 
L 196.032 166.383881 
L 197.431273 166.381691 
L 200.229818 166.625655 
L 203.028364 166.839397 
L 204.427636 166.940137 
L 207.226182 166.720262 
L 210.024727 166.364609 
L 211.424 166.395707 
L 214.222545 166.655439 
L 219.819636 166.907725 
L 221.218909 166.7864 
L 224.017455 166.375559 
L 225.416727 166.391327 
L 229.614545 166.682595 
L 232.413091 166.915609 
L 235.211636 166.686537 
L 238.010182 166.317743 
L 239.409455 166.321685 
L 242.208 166.613829 
L 247.805091 166.855165 
L 250.603636 166.544188 
L 252.002909 166.360229 
L 254.801455 166.536742 
L 261.797818 166.884511 
L 267.394909 166.361543 
L 270.193455 166.611639 
L 275.790545 166.820564 
L 278.589091 166.520974 
L 279.988364 166.342271 
L 281.387636 166.362857 
L 284.186182 166.587111 
L 289.783273 166.833703 
L 291.182545 166.721138 
L 293.981091 166.334387 
L 296.779636 166.498636 
L 302.376727 166.891081 
L 305.175273 166.719824 
L 307.973818 166.368113 
L 309.373091 166.375997 
L 312.171636 166.636167 
L 313.570909 166.674273 
L 316.369455 166.899841 
L 319.168 166.711064 
L 321.966545 166.333949 
L 324.765091 166.520536 
L 331.761455 166.871809 
L 335.959273 166.396145 
L 337.358545 166.404029 
L 340.157091 166.655001 
L 342.955636 166.794284 
L 344.354909 166.892833 
L 347.153455 166.743476 
L 349.952 166.362419 
L 351.351273 166.384319 
L 354.149818 166.599375 
L 356.948364 166.787714 
L 358.347636 166.894147 
L 361.146182 166.712378 
L 363.944727 166.354973 
L 366.743273 166.53718 
L 373.739636 166.835017 
L 376.538182 166.552072 
L 377.937455 166.390013 
L 379.336727 166.398773 
L 382.135273 166.658505 
L 384.933818 166.858231 
L 386.333091 166.955029 
L 389.131636 166.758806 
L 391.930182 166.383005 
L 394.728727 166.561269 
L 401.725091 166.863487 
L 403.124364 166.759682 
L 405.922909 166.396583 
L 408.721455 166.543312 
L 414.318545 166.881007 
L 417.117091 166.719824 
L 419.915636 166.354535 
L 421.314909 166.359791 
L 424.113455 166.576599 
L 426.912 166.783772 
L 429.710545 166.826696 
L 432.509091 166.52185 
L 432.509091 166.52185 
" clip-path="url(#pc826a0251f)" style="fill: none; stroke: #d62728; stroke-width: 1.5; stroke-linecap: square"/>
   </g>
   <g id="line2d_17">
    <path d="M 82.690909 251.346947 
L 84.090182 251.184888 
L 86.888727 251.388994 
L 92.485818 251.743334 
L 96.683636 251.382424 
L 98.082909 251.202408 
L 99.482182 251.235696 
L 102.280727 251.457322 
L 107.877818 251.650479 
L 110.676364 251.367971 
L 112.075636 251.215548 
L 114.874182 251.408704 
L 120.471273 251.795893 
L 123.269818 251.624637 
L 126.068364 251.266355 
L 127.467636 251.252339 
L 130.266182 251.509444 
L 133.064727 251.659676 
L 134.464 251.764796 
L 137.262545 251.599233 
L 140.061091 251.22387 
L 141.460364 251.258033 
L 144.258909 251.473966 
L 149.856 251.731508 
L 152.654545 251.379796 
L 154.053818 251.231316 
L 156.852364 251.434984 
L 162.449455 251.823049 
L 165.248 251.628141 
L 168.046545 251.296577 
L 169.445818 251.307527 
L 170.845091 251.466082 
L 175.042909 251.671064 
L 176.442182 251.787134 
L 179.240727 251.674568 
L 182.039273 251.311469 
L 184.837818 251.453818 
L 191.834182 251.776184 
L 196.032 251.302271 
L 197.431273 251.314097 
L 200.229818 251.520831 
L 201.629091 251.538789 
L 204.427636 251.785382 
L 207.226182 251.601423 
L 210.024727 251.232192 
L 211.424 251.248835 
L 214.222545 251.4928 
L 219.819636 251.739392 
L 221.218909 251.633835 
L 224.017455 251.247083 
L 226.816 251.38111 
L 232.413091 251.749466 
L 235.211636 251.547111 
L 238.010182 251.194086 
L 239.409455 251.205036 
L 242.208 251.4709 
L 247.805091 251.70917 
L 250.603636 251.438488 
L 252.002909 251.266355 
L 256.200727 251.476156 
L 261.797818 251.690336 
L 267.394909 251.196276 
L 270.193455 251.453818 
L 272.992 251.631645 
L 274.391273 251.749028 
L 277.189818 251.596605 
L 279.988364 251.256281 
L 281.387636 251.292197 
L 284.186182 251.533971 
L 289.783273 251.76173 
L 291.182545 251.653544 
L 293.981091 251.250149 
L 296.779636 251.396002 
L 302.376727 251.77268 
L 305.175273 251.594853 
L 307.973818 251.247521 
L 309.373091 251.253215 
L 312.171636 251.500246 
L 314.970182 251.688584 
L 316.369455 251.763044 
L 319.168 251.591787 
L 321.966545 251.184888 
L 324.765091 251.361401 
L 331.761455 251.714426 
L 337.358545 251.251463 
L 344.354909 251.744648 
L 347.153455 251.593101 
L 349.952 251.212482 
L 351.351273 251.237009 
L 354.149818 251.450314 
L 356.948364 251.644347 
L 358.347636 251.736764 
L 361.146182 251.573829 
L 363.944727 251.221242 
L 369.541818 251.529153 
L 372.340364 251.748152 
L 375.138909 251.570325 
L 377.937455 251.23044 
L 379.336727 251.248835 
L 382.135273 251.526963 
L 383.534545 251.566383 
L 386.333091 251.824801 
L 389.131636 251.67194 
L 391.930182 251.289569 
L 394.728727 251.497618 
L 398.926545 251.737202 
L 400.325818 251.826991 
L 403.124364 251.658362 
L 405.922909 251.257157 
L 408.721455 251.375854 
L 414.318545 251.77049 
L 417.117091 251.588283 
L 419.915636 251.2173 
L 421.314909 251.250587 
L 424.113455 251.49499 
L 429.710545 251.687708 
L 432.509091 251.336873 
L 432.509091 251.336873 
" clip-path="url(#pc826a0251f)" style="fill: none; stroke: #9467bd; stroke-width: 1.5; stroke-linecap: square"/>
   </g>
   <g id="line2d_18">
    <path d="M 82.690909 295.24737 
L 84.090182 295.091882 
L 85.489455 295.135681 
L 88.288 295.396289 
L 91.086545 295.558348 
L 92.485818 295.673979 
L 95.284364 295.493087 
L 98.082909 295.060346 
L 99.482182 295.063412 
L 105.079273 295.500533 
L 107.877818 295.531192 
L 109.277091 295.433957 
L 112.075636 295.09013 
L 114.874182 295.243866 
L 120.471273 295.685367 
L 121.870545 295.649014 
L 127.467636 295.128673 
L 130.266182 295.336284 
L 133.064727 295.514549 
L 134.464 295.616602 
L 137.262545 295.436147 
L 140.061091 295.053776 
L 141.460364 295.076552 
L 144.258909 295.281534 
L 149.856 295.567546 
L 155.453091 295.119475 
L 162.449455 295.654708 
L 165.248 295.505789 
L 168.046545 295.126921 
L 169.445818 295.128235 
L 172.244364 295.364316 
L 175.042909 295.55134 
L 176.442182 295.64113 
L 179.240727 295.435709 
L 182.039273 295.053776 
L 184.837818 295.231165 
L 190.434909 295.619668 
L 193.233455 295.443155 
L 196.032 295.07918 
L 197.431273 295.0748 
L 200.229818 295.335846 
L 203.028364 295.514111 
L 204.427636 295.628428 
L 207.226182 295.473377 
L 210.024727 295.122541 
L 211.424 295.149259 
L 214.222545 295.389281 
L 219.819636 295.6258 
L 221.218909 295.518491 
L 224.017455 295.148383 
L 226.816 295.345044 
L 232.413091 295.767273 
L 235.211636 295.559224 
L 238.010182 295.26051 
L 239.409455 295.258758 
L 242.208 295.444907 
L 243.607273 295.435709 
L 246.405818 295.610032 
L 249.204364 295.449725 
L 252.002909 295.116847 
L 254.801455 295.285038 
L 261.797818 295.651642 
L 264.596364 295.317012 
L 265.995636 295.167655 
L 268.794182 295.309128 
L 274.391273 295.679235 
L 277.189818 295.476005 
L 279.988364 295.114219 
L 281.387636 295.148383 
L 282.786909 295.329276 
L 289.783273 295.631494 
L 291.182545 295.539952 
L 293.981091 295.186927 
L 296.779636 295.337598 
L 302.376727 295.681425 
L 305.175273 295.507979 
L 307.973818 295.125607 
L 309.373091 295.110715 
L 312.171636 295.362564 
L 314.970182 295.567984 
L 316.369455 295.659088 
L 319.168 295.477757 
L 321.966545 295.084436 
L 324.765091 295.26051 
L 331.761455 295.6258 
L 337.358545 295.156267 
L 340.157091 295.394537 
L 342.955636 295.576306 
L 344.354909 295.680987 
L 347.153455 295.526812 
L 349.952 295.122979 
L 351.351273 295.154077 
L 354.149818 295.383149 
L 356.948364 295.564918 
L 358.347636 295.671351 
L 361.146182 295.530316 
L 363.944727 295.135681 
L 366.743273 295.30869 
L 372.340364 295.669599 
L 375.138909 295.490021 
L 377.937455 295.161961 
L 379.336727 295.188679 
L 382.135273 295.445783 
L 384.933818 295.642444 
L 386.333091 295.729167 
L 389.131636 295.557472 
L 391.930182 295.175101 
L 394.728727 295.345482 
L 401.725091 295.660401 
L 403.124364 295.550026 
L 405.922909 295.144879 
L 407.322182 295.157581 
L 411.52 295.465055 
L 414.318545 295.674417 
L 417.117091 295.508417 
L 419.915636 295.200943 
L 421.314909 295.215835 
L 426.912 295.671789 
L 428.311273 295.748877 
L 431.109818 295.589884 
L 432.509091 295.375266 
L 432.509091 295.375266 
" clip-path="url(#pc826a0251f)" style="fill: none; stroke: #8c564b; stroke-width: 1.5; stroke-linecap: square"/>
   </g>
   <g id="line2d_19">
    <path d="M 82.690909 201.597075 
L 84.090182 201.371945 
L 85.489455 201.396911 
L 92.485818 202.086318 
L 95.284364 201.911557 
L 98.082909 201.45823 
L 99.482182 201.485824 
L 100.881455 201.671097 
L 107.877818 201.953605 
L 109.277091 201.842353 
L 112.075636 201.430198 
L 113.474909 201.5086 
L 116.273455 201.935209 
L 119.072 202.156397 
L 120.471273 202.316704 
L 121.870545 202.235236 
L 126.068364 201.68117 
L 127.467636 201.7184 
L 130.266182 201.96105 
L 133.064727 202.053906 
L 134.464 202.127051 
L 137.262545 201.885277 
L 140.061091 201.427132 
L 141.460364 201.40129 
L 148.456727 201.95448 
L 149.856 201.848485 
L 154.053818 201.191928 
L 161.050182 201.920317 
L 162.449455 202.010106 
L 166.647273 201.784976 
L 168.046545 201.657519 
L 169.445818 201.706574 
L 172.244364 202.03989 
L 177.841455 202.259764 
L 183.438545 201.791108 
L 187.636364 202.045584 
L 190.434909 202.232608 
L 191.834182 202.194065 
L 197.431273 201.642189 
L 203.028364 202.152455 
L 204.427636 202.191437 
L 210.024727 201.542325 
L 211.424 201.625983 
L 212.823273 201.884839 
L 218.420364 202.30225 
L 221.218909 202.138001 
L 224.017455 201.667155 
L 225.416727 201.642189 
L 233.812364 202.214651 
L 238.010182 201.608025 
L 247.805091 202.246186 
L 249.204364 202.136249 
L 252.002909 201.704822 
L 257.6 201.972438 
L 260.398545 202.177859 
L 263.197091 201.977694 
L 265.995636 201.577803 
L 267.394909 201.586125 
L 270.193455 201.803372 
L 272.992 201.927325 
L 274.391273 202.031568 
L 277.189818 201.897103 
L 279.988364 201.441586 
L 281.387636 201.408736 
L 285.585455 201.901921 
L 286.984727 202.202387 
L 288.384 202.35919 
L 291.182545 202.173917 
L 292.581818 201.890533 
L 293.981091 201.734168 
L 296.779636 201.902797 
L 302.376727 202.286482 
L 305.175273 202.114787 
L 307.973818 201.709202 
L 309.373091 201.717086 
L 312.171636 201.97419 
L 314.970182 202.226039 
L 316.369455 202.310572 
L 319.168 202.056534 
L 321.966545 201.594885 
L 324.765091 201.719276 
L 331.761455 202.111721 
L 335.959273 201.68774 
L 337.358545 201.685988 
L 344.354909 202.176983 
L 345.754182 202.168223 
L 348.552727 201.800744 
L 349.952 201.581745 
L 351.351273 201.606273 
L 354.149818 201.871261 
L 356.948364 202.019742 
L 358.347636 202.113911 
L 361.146182 201.990834 
L 363.944727 201.624669 
L 373.739636 202.143695 
L 376.538182 202.001784 
L 377.937455 201.840163 
L 379.336727 201.835345 
L 382.135273 202.129241 
L 384.933818 202.2913 
L 386.333091 202.394667 
L 389.131636 202.254946 
L 391.930182 201.820015 
L 394.728727 201.910681 
L 397.527273 202.016676 
L 400.325818 202.204577 
L 403.124364 202.034196 
L 405.922909 201.643503 
L 407.322182 201.640437 
L 414.318545 202.131869 
L 417.117091 201.934771 
L 419.915636 201.599265 
L 421.314909 201.629487 
L 424.113455 201.872575 
L 426.912 202.100771 
L 428.311273 202.233922 
L 429.710545 202.199321 
L 431.109818 202.044708 
L 432.509091 201.774902 
L 432.509091 201.774902 
" clip-path="url(#pc826a0251f)" style="fill: none; stroke: #e377c2; stroke-width: 1.5; stroke-linecap: square"/>
   </g>
   <g id="line2d_20">
    <path d="M 82.690909 189.588516 
L 84.090182 189.347179 
L 85.489455 189.385285 
L 88.288 189.693635 
L 89.687273 189.663413 
L 92.485818 189.954681 
L 96.683636 189.498726 
L 98.082909 189.23549 
L 99.482182 189.2771 
L 100.881455 189.573624 
L 106.478545 189.971763 
L 107.877818 189.956433 
L 109.277091 189.812332 
L 112.075636 189.350683 
L 114.874182 189.536832 
L 119.072 189.85219 
L 120.471273 190.058048 
L 121.870545 190.019504 
L 126.068364 189.51099 
L 131.665455 189.695825 
L 134.464 189.903873 
L 137.262545 189.701081 
L 140.061091 189.250382 
L 141.460364 189.257828 
L 144.258909 189.533328 
L 145.658182 189.549972 
L 148.456727 189.903435 
L 149.856 189.857008 
L 154.053818 189.136503 
L 155.453091 189.205268 
L 156.852364 189.454927 
L 163.848727 189.829414 
L 169.445818 189.488214 
L 173.643636 189.870586 
L 176.442182 190.04666 
L 179.240727 189.882411 
L 182.039273 189.511428 
L 183.438545 189.512742 
L 190.434909 190.051478 
L 193.233455 189.861826 
L 196.032 189.484272 
L 197.431273 189.455365 
L 204.427636 190.028702 
L 210.024727 189.422077 
L 211.424 189.483396 
L 212.823273 189.718601 
L 219.819636 190.097906 
L 221.218909 189.995853 
L 224.017455 189.515808 
L 225.416727 189.52194 
L 229.614545 189.870148 
L 233.812364 190.105352 
L 236.610909 189.823282 
L 238.010182 189.542526 
L 239.409455 189.47814 
L 240.808727 189.740062 
L 245.006545 190.057172 
L 246.405818 190.153532 
L 249.204364 189.980085 
L 252.002909 189.537708 
L 253.402182 189.545154 
L 256.200727 189.743566 
L 261.797818 190.005489 
L 267.394909 189.448357 
L 270.193455 189.710717 
L 271.592727 189.726485 
L 274.391273 189.954243 
L 278.589091 189.693635 
L 279.988364 189.461496 
L 281.387636 189.439597 
L 284.186182 189.80839 
L 289.783273 190.268725 
L 291.182545 190.13207 
L 293.981091 189.665165 
L 296.779636 189.822406 
L 302.376727 190.11455 
L 305.175273 189.908691 
L 307.973818 189.457555 
L 309.373091 189.456241 
L 312.171636 189.748822 
L 313.570909 189.791746 
L 316.369455 190.034396 
L 320.567273 189.612167 
L 321.966545 189.412441 
L 323.365818 189.443101 
L 330.362182 190.073378 
L 331.761455 190.016 
L 334.56 189.641513 
L 337.358545 189.517122 
L 345.754182 190.055858 
L 347.153455 189.927525 
L 349.952 189.397987 
L 351.351273 189.426895 
L 354.149818 189.711593 
L 359.746909 189.954243 
L 361.146182 189.881535 
L 363.944727 189.427333 
L 370.941091 189.894237 
L 372.340364 190.032206 
L 375.138909 189.944607 
L 377.937455 189.620051 
L 379.336727 189.647645 
L 382.135273 189.938475 
L 383.534545 189.989283 
L 386.333091 190.209595 
L 389.131636 189.994977 
L 391.930182 189.58983 
L 393.329455 189.594648 
L 396.128 189.781672 
L 398.926545 189.973953 
L 400.325818 190.089584 
L 403.124364 189.944169 
L 405.922909 189.560046 
L 408.721455 189.625307 
L 415.717818 190.010745 
L 417.117091 189.897303 
L 419.915636 189.535518 
L 422.714182 189.690569 
L 429.710545 190.06637 
L 432.509091 189.724733 
L 432.509091 189.724733 
" clip-path="url(#pc826a0251f)" style="fill: none; stroke: #7f7f7f; stroke-width: 1.5; stroke-linecap: square"/>
   </g>
   <g id="line2d_21">
    <path d="M 82.690909 204.83869 
L 84.090182 204.623633 
L 86.888727 204.79927 
L 88.288 205.044986 
L 92.485818 205.364286 
L 98.082909 204.727001 
L 102.280727 204.947313 
L 106.478545 205.265737 
L 109.277091 205.044986 
L 112.075636 204.675755 
L 113.474909 204.705101 
L 116.273455 205.130396 
L 120.471273 205.507073 
L 123.269818 205.246903 
L 126.068364 204.865846 
L 127.467636 204.871539 
L 130.266182 205.119884 
L 133.064727 205.264861 
L 134.464 205.38312 
L 137.262545 205.161055 
L 140.061091 204.736198 
L 141.460364 204.709481 
L 148.456727 205.284133 
L 149.856 205.219309 
L 154.053818 204.613121 
L 162.449455 205.330122 
L 163.848727 205.336254 
L 166.647273 205.019582 
L 168.046545 204.83869 
L 169.445818 204.86716 
L 172.244364 205.196095 
L 175.042909 205.429109 
L 176.442182 205.547369 
L 179.240727 205.31961 
L 182.039273 204.949065 
L 187.636364 205.273183 
L 190.434909 205.522403 
L 193.233455 205.306908 
L 196.032 204.936801 
L 197.431273 204.937677 
L 200.229818 205.258291 
L 203.028364 205.461083 
L 204.427636 205.572334 
L 207.226182 205.322238 
L 210.024727 204.923223 
L 211.424 205.01564 
L 212.823273 205.220623 
L 217.021091 205.480355 
L 218.420364 205.56883 
L 221.218909 205.429109 
L 224.017455 204.964833 
L 226.816 204.974469 
L 231.013818 205.233763 
L 232.413091 205.472033 
L 233.812364 205.500503 
L 236.610909 205.07258 
L 239.409455 204.976659 
L 245.006545 205.429547 
L 246.405818 205.511015 
L 249.204364 205.339758 
L 252.002909 204.929793 
L 254.801455 205.115942 
L 260.398545 205.420788 
L 263.197091 205.274935 
L 265.995636 204.837376 
L 267.394909 204.863218 
L 270.193455 205.073018 
L 272.992 205.225441 
L 274.391273 205.329246 
L 278.589091 204.971841 
L 279.988364 204.780436 
L 281.387636 204.79927 
L 289.783273 205.602556 
L 291.182545 205.485173 
L 292.581818 205.202227 
L 293.981091 205.054622 
L 299.578182 205.29114 
L 302.376727 205.477727 
L 305.175273 205.318734 
L 307.973818 204.897819 
L 309.373091 204.917967 
L 312.171636 205.196971 
L 317.768727 205.38531 
L 319.168 205.281943 
L 321.966545 204.829054 
L 324.765091 204.978411 
L 331.761455 205.327932 
L 335.959273 204.929355 
L 338.757818 205.021772 
L 342.955636 205.314792 
L 345.754182 205.401954 
L 348.552727 205.054184 
L 349.952 204.86497 
L 352.750545 205.048928 
L 359.746909 205.352022 
L 361.146182 205.285884 
L 363.944727 204.928917 
L 366.743273 205.090976 
L 369.541818 205.196095 
L 375.138909 205.336692 
L 379.336727 205.020896 
L 382.135273 205.286322 
L 383.534545 205.249531 
L 386.333091 205.534229 
L 390.530909 205.286322 
L 391.930182 205.08353 
L 393.329455 205.078712 
L 396.128 205.217995 
L 398.926545 205.395384 
L 400.325818 205.472471 
L 403.124364 205.29771 
L 405.922909 204.898257 
L 408.721455 205.027466 
L 414.318545 205.393632 
L 417.117091 205.232011 
L 419.915636 204.880737 
L 421.314909 204.913587 
L 424.113455 205.184269 
L 426.912 205.338006 
L 428.311273 205.482983 
L 431.109818 205.257415 
L 432.509091 204.969651 
L 432.509091 204.969651 
" clip-path="url(#pc826a0251f)" style="fill: none; stroke: #bcbd22; stroke-width: 1.5; stroke-linecap: square"/>
   </g>
   <g id="patch_3">
    <path d="M 65.2 308.64 
L 65.2 25.44 
" style="fill: none; stroke: #000000; stroke-width: 0.8; stroke-linejoin: miter; stroke-linecap: square"/>
   </g>
   <g id="patch_4">
    <path d="M 450 308.64 
L 450 25.44 
" style="fill: none; stroke: #000000; stroke-width: 0.8; stroke-linejoin: miter; stroke-linecap: square"/>
   </g>
   <g id="patch_5">
    <path d="M 65.2 308.64 
L 450 308.64 
" style="fill: none; stroke: #000000; stroke-width: 0.8; stroke-linejoin: miter; stroke-linecap: square"/>
   </g>
   <g id="patch_6">
    <path d="M 65.2 25.44 
L 450 25.44 
" style="fill: none; stroke: #000000; stroke-width: 0.8; stroke-linejoin: miter; stroke-linecap: square"/>
   </g>
   <g id="text_15">
    <!-- Raw EEG Data MATB-Medium -->
    <g transform="translate(169.950313 19.44) scale(0.12 -0.12)">
     <defs>
      <path id="DejaVuSans-52" d="M 2841 2188 
Q 3044 2119 3236 1894 
Q 3428 1669 3622 1275 
L 4263 0 
L 3584 0 
L 2988 1197 
Q 2756 1666 2539 1819 
Q 2322 1972 1947 1972 
L 1259 1972 
L 1259 0 
L 628 0 
L 628 4666 
L 2053 4666 
Q 2853 4666 3247 4331 
Q 3641 3997 3641 3322 
Q 3641 2881 3436 2590 
Q 3231 2300 2841 2188 
z
M 1259 4147 
L 1259 2491 
L 2053 2491 
Q 2509 2491 2742 2702 
Q 2975 2913 2975 3322 
Q 2975 3731 2742 3939 
Q 2509 4147 2053 4147 
L 1259 4147 
z
" transform="scale(0.015625)"/>
      <path id="DejaVuSans-77" d="M 269 3500 
L 844 3500 
L 1563 769 
L 2278 3500 
L 2956 3500 
L 3675 769 
L 4391 3500 
L 4966 3500 
L 4050 0 
L 3372 0 
L 2619 2869 
L 1863 0 
L 1184 0 
L 269 3500 
z
" transform="scale(0.015625)"/>
      <path id="DejaVuSans-45" d="M 628 4666 
L 3578 4666 
L 3578 4134 
L 1259 4134 
L 1259 2753 
L 3481 2753 
L 3481 2222 
L 1259 2222 
L 1259 531 
L 3634 531 
L 3634 0 
L 628 0 
L 628 4666 
z
" transform="scale(0.015625)"/>
      <path id="DejaVuSans-47" d="M 3809 666 
L 3809 1919 
L 2778 1919 
L 2778 2438 
L 4434 2438 
L 4434 434 
Q 4069 175 3628 42 
Q 3188 -91 2688 -91 
Q 1594 -91 976 548 
Q 359 1188 359 2328 
Q 359 3472 976 4111 
Q 1594 4750 2688 4750 
Q 3144 4750 3555 4637 
Q 3966 4525 4313 4306 
L 4313 3634 
Q 3963 3931 3569 4081 
Q 3175 4231 2741 4231 
Q 1884 4231 1454 3753 
Q 1025 3275 1025 2328 
Q 1025 1384 1454 906 
Q 1884 428 2741 428 
Q 3075 428 3337 486 
Q 3600 544 3809 666 
z
" transform="scale(0.015625)"/>
      <path id="DejaVuSans-44" d="M 1259 4147 
L 1259 519 
L 2022 519 
Q 2988 519 3436 956 
Q 3884 1394 3884 2338 
Q 3884 3275 3436 3711 
Q 2988 4147 2022 4147 
L 1259 4147 
z
M 628 4666 
L 1925 4666 
Q 3281 4666 3915 4102 
Q 4550 3538 4550 2338 
Q 4550 1131 3912 565 
Q 3275 0 1925 0 
L 628 0 
L 628 4666 
z
" transform="scale(0.015625)"/>
      <path id="DejaVuSans-4d" d="M 628 4666 
L 1569 4666 
L 2759 1491 
L 3956 4666 
L 4897 4666 
L 4897 0 
L 4281 0 
L 4281 4097 
L 3078 897 
L 2444 897 
L 1241 4097 
L 1241 0 
L 628 0 
L 628 4666 
z
" transform="scale(0.015625)"/>
      <path id="DejaVuSans-41" d="M 2188 4044 
L 1331 1722 
L 3047 1722 
L 2188 4044 
z
M 1831 4666 
L 2547 4666 
L 4325 0 
L 3669 0 
L 3244 1197 
L 1141 1197 
L 716 0 
L 50 0 
L 1831 4666 
z
" transform="scale(0.015625)"/>
      <path id="DejaVuSans-42" d="M 1259 2228 
L 1259 519 
L 2272 519 
Q 2781 519 3026 730 
Q 3272 941 3272 1375 
Q 3272 1813 3026 2020 
Q 2781 2228 2272 2228 
L 1259 2228 
z
M 1259 4147 
L 1259 2741 
L 2194 2741 
Q 2656 2741 2882 2914 
Q 3109 3088 3109 3444 
Q 3109 3797 2882 3972 
Q 2656 4147 2194 4147 
L 1259 4147 
z
M 628 4666 
L 2241 4666 
Q 2963 4666 3353 4366 
Q 3744 4066 3744 3513 
Q 3744 3084 3544 2831 
Q 3344 2578 2956 2516 
Q 3422 2416 3680 2098 
Q 3938 1781 3938 1306 
Q 3938 681 3513 340 
Q 3088 0 2303 0 
L 628 0 
L 628 4666 
z
" transform="scale(0.015625)"/>
      <path id="DejaVuSans-2d" d="M 313 2009 
L 1997 2009 
L 1997 1497 
L 313 1497 
L 313 2009 
z
" transform="scale(0.015625)"/>
      <path id="DejaVuSans-64" d="M 2906 2969 
L 2906 4863 
L 3481 4863 
L 3481 0 
L 2906 0 
L 2906 525 
Q 2725 213 2448 61 
Q 2172 -91 1784 -91 
Q 1150 -91 751 415 
Q 353 922 353 1747 
Q 353 2572 751 3078 
Q 1150 3584 1784 3584 
Q 2172 3584 2448 3432 
Q 2725 3281 2906 2969 
z
M 947 1747 
Q 947 1113 1208 752 
Q 1469 391 1925 391 
Q 2381 391 2643 752 
Q 2906 1113 2906 1747 
Q 2906 2381 2643 2742 
Q 2381 3103 1925 3103 
Q 1469 3103 1208 2742 
Q 947 2381 947 1747 
z
" transform="scale(0.015625)"/>
      <path id="DejaVuSans-75" d="M 544 1381 
L 544 3500 
L 1119 3500 
L 1119 1403 
Q 1119 906 1312 657 
Q 1506 409 1894 409 
Q 2359 409 2629 706 
Q 2900 1003 2900 1516 
L 2900 3500 
L 3475 3500 
L 3475 0 
L 2900 0 
L 2900 538 
Q 2691 219 2414 64 
Q 2138 -91 1772 -91 
Q 1169 -91 856 284 
Q 544 659 544 1381 
z
M 1991 3584 
L 1991 3584 
z
" transform="scale(0.015625)"/>
     </defs>
     <use xlink:href="#DejaVuSans-52"/>
     <use xlink:href="#DejaVuSans-61" x="67.232422"/>
     <use xlink:href="#DejaVuSans-77" x="128.511719"/>
     <use xlink:href="#DejaVuSans-20" x="210.298828"/>
     <use xlink:href="#DejaVuSans-45" x="242.085938"/>
     <use xlink:href="#DejaVuSans-45" x="305.269531"/>
     <use xlink:href="#DejaVuSans-47" x="368.453125"/>
     <use xlink:href="#DejaVuSans-20" x="445.943359"/>
     <use xlink:href="#DejaVuSans-44" x="477.730469"/>
     <use xlink:href="#DejaVuSans-61" x="554.732422"/>
     <use xlink:href="#DejaVuSans-74" x="616.011719"/>
     <use xlink:href="#DejaVuSans-61" x="655.220703"/>
     <use xlink:href="#DejaVuSans-20" x="716.5"/>
     <use xlink:href="#DejaVuSans-4d" x="748.287109"/>
     <use xlink:href="#DejaVuSans-41" x="834.566406"/>
     <use xlink:href="#DejaVuSans-54" x="895.224609"/>
     <use xlink:href="#DejaVuSans-42" x="956.308594"/>
     <use xlink:href="#DejaVuSans-2d" x="1024.912109"/>
     <use xlink:href="#DejaVuSans-4d" x="1060.996094"/>
     <use xlink:href="#DejaVuSans-65" x="1147.275391"/>
     <use xlink:href="#DejaVuSans-64" x="1208.798828"/>
     <use xlink:href="#DejaVuSans-69" x="1272.275391"/>
     <use xlink:href="#DejaVuSans-75" x="1300.058594"/>
     <use xlink:href="#DejaVuSans-6d" x="1363.4375"/>
    </g>
   </g>
  </g>
 </g>
 <defs>
  <clipPath id="pc826a0251f">
   <rect x="65.2" y="25.44" width="384.8" height="283.2"/>
  </clipPath>
 </defs>
</svg>
